<?xml version="1.0" encoding="utf-8"?>
<!-- Generator: Adobe Illustrator 19.0.0, SVG Export Plug-In . SVG Version: 6.00 Build 0)  -->
<svg version="1.1" id="Layer_1" xmlns="http://www.w3.org/2000/svg" xmlns:xlink="http://www.w3.org/1999/xlink" x="0px" y="0px"
	 viewBox="0 0 77.7 89.9" style="enable-background:new 0 0 77.7 89.9;" xml:space="preserve" preserveAspectRatio="none">
<style type="text/css">
	.st0{fill:url(#SVGID_1_);}
	.st1{opacity:0.3;fill:#812755;}
	.st2{fill:url(#SVGID_2_);}
	.st3{fill:url(#SVGID_3_);}
	.st4{fill:url(#SVGID_4_);}
	.st5{fill:#FFF0E7;}
	.st6{fill:url(#SVGID_5_);}
	.st7{fill:url(#SVGID_6_);}
	.st8{fill:url(#SVGID_7_);}
	.st9{fill:url(#SVGID_8_);}
	.st10{filter:url(#Adobe_OpacityMaskFilter);}
	.st11{filter:url(#Adobe_OpacityMaskFilter_1_);}
	.st12{mask:url(#SVGID_9_);fill:url(#SVGID_10_);}
	.st13{opacity:0.5;fill:url(#SVGID_11_);}
	.st14{fill:url(#SVGID_12_);}
	.st15{filter:url(#Adobe_OpacityMaskFilter_2_);}
	.st16{filter:url(#Adobe_OpacityMaskFilter_3_);}
	.st17{mask:url(#SVGID_13_);fill:url(#SVGID_14_);}
	.st18{opacity:0.5;fill:url(#SVGID_15_);}
	.st19{fill:url(#SVGID_16_);}
	.st20{fill:url(#SVGID_17_);}
	.st21{filter:url(#Adobe_OpacityMaskFilter_4_);}
	.st22{filter:url(#Adobe_OpacityMaskFilter_5_);}
	.st23{mask:url(#SVGID_18_);fill:url(#SVGID_19_);}
	.st24{opacity:0.5;fill:url(#SVGID_20_);}
	.st25{fill:url(#SVGID_21_);}
	.st26{fill:url(#SVGID_22_);}
	.st27{fill:url(#SVGID_23_);}
	.st28{fill:url(#SVGID_24_);}
	.st29{fill:url(#SVGID_25_);}
	.st30{fill:url(#SVGID_26_);}
	.st31{fill:url(#SVGID_27_);}
	.st32{filter:url(#Adobe_OpacityMaskFilter_6_);}
	.st33{filter:url(#Adobe_OpacityMaskFilter_7_);}
	.st34{mask:url(#SVGID_28_);fill:url(#SVGID_29_);}
	.st35{opacity:0.5;fill:url(#SVGID_30_);}
	.st36{fill:url(#SVGID_31_);}
	.st37{fill:url(#SVGID_32_);}
	.st38{fill:url(#SVGID_33_);}
	.st39{filter:url(#Adobe_OpacityMaskFilter_8_);}
	.st40{filter:url(#Adobe_OpacityMaskFilter_9_);}
	.st41{mask:url(#SVGID_34_);fill:url(#SVGID_35_);}
	.st42{opacity:0.5;fill:url(#SVGID_36_);}
	.st43{fill:url(#SVGID_37_);}
	.st44{fill:url(#SVGID_38_);}
	.st45{fill:url(#SVGID_39_);}
	.st46{fill:url(#SVGID_40_);}
	.st47{fill:url(#SVGID_41_);}
	.st48{fill:url(#SVGID_42_);}
	.st49{filter:url(#Adobe_OpacityMaskFilter_10_);}
	.st50{filter:url(#Adobe_OpacityMaskFilter_11_);}
	.st51{mask:url(#SVGID_43_);fill:url(#SVGID_44_);}
	.st52{opacity:0.5;fill:url(#SVGID_45_);}
	.st53{fill:url(#SVGID_46_);}
	.st54{fill:url(#SVGID_47_);}
	.st55{fill:url(#SVGID_48_);}
	.st56{filter:url(#Adobe_OpacityMaskFilter_12_);}
	.st57{filter:url(#Adobe_OpacityMaskFilter_13_);}
	.st58{mask:url(#SVGID_49_);fill:url(#SVGID_50_);}
	.st59{opacity:0.5;fill:url(#SVGID_51_);}
	.st60{fill:url(#SVGID_52_);}
</style>
<g>
	<g>
		
			<linearGradient id="SVGID_1_" gradientUnits="userSpaceOnUse" x1="-1462.0979" y1="595.3618" x2="-1397.1283" y2="595.3618" gradientTransform="matrix(-0.9878 0.1555 0.1555 0.9878 -1466.0586 -311.6574)">
			<stop  offset="0" style="stop-color:#748F3A"/>
			<stop  offset="7.773935e-002" style="stop-color:#7F9543"/>
			<stop  offset="0.2337" style="stop-color:#9DA663"/>
			<stop  offset="0.3243" style="stop-color:#B2B47A"/>
			<stop  offset="0.3843" style="stop-color:#9CA667"/>
			<stop  offset="0.4712" style="stop-color:#869853"/>
			<stop  offset="0.5665" style="stop-color:#768E46"/>
			<stop  offset="0.673" style="stop-color:#6A873E"/>
			<stop  offset="0.7999" style="stop-color:#63843A"/>
			<stop  offset="1" style="stop-color:#618339"/>
		</linearGradient>
		<path class="st0" d="M33.3,20C51,17.2,65.4,15,66,19l9,57c0.6,4-13.2,9.5-30.9,12.3c-17.7,2.8-32.6,1.8-33.2-2.2l-9-57
			C1.2,25.1,15.6,22.8,33.3,20z"/>
		<g>
			<path class="st1" d="M33.3,20C51,17.2,65.4,15,66,19l0.9,5.5c-3.1,3.8-15.7,8.3-31.2,10.7c-15.5,2.4-28.9,2.1-33-0.6l-0.9-5.5
				C1.2,25.1,15.6,22.8,33.3,20z"/>
			
				<linearGradient id="SVGID_2_" gradientUnits="userSpaceOnUse" x1="-1463.0875" y1="563.572" x2="-1396.1394" y2="563.572" gradientTransform="matrix(-0.9878 0.1555 0.1555 0.9878 -1466.0576 -311.6572)">
				<stop  offset="0" style="stop-color:#748F3A"/>
				<stop  offset="7.773935e-002" style="stop-color:#7F9543"/>
				<stop  offset="0.2337" style="stop-color:#9DA663"/>
				<stop  offset="0.3243" style="stop-color:#B2B47A"/>
				<stop  offset="0.3843" style="stop-color:#9CA667"/>
				<stop  offset="0.4712" style="stop-color:#869853"/>
				<stop  offset="0.5665" style="stop-color:#768E46"/>
				<stop  offset="0.673" style="stop-color:#6A873E"/>
				<stop  offset="0.7999" style="stop-color:#63843A"/>
				<stop  offset="1" style="stop-color:#618339"/>
			</linearGradient>
			<path class="st2" d="M31.9,11.1c18.3-2.9,33.6-1.9,34.2,2.3l1.3,8.4c0.6,4.1-13.6,9.8-31.9,12.7C17.3,37.3,2,36.3,1.3,32.2
				L0,23.7C-0.6,19.6,13.7,13.9,31.9,11.1z"/>
			<g>
				
					<linearGradient id="SVGID_3_" gradientUnits="userSpaceOnUse" x1="-1435.5328" y1="571.5453" x2="-1425.7134" y2="551.2365" gradientTransform="matrix(-0.9878 0.1555 0.1555 0.9878 -1466.0576 -311.6572)">
					<stop  offset="0" style="stop-color:#B2B47A"/>
					<stop  offset="0.2038" style="stop-color:#9AA465"/>
					<stop  offset="0.55" style="stop-color:#7B914A"/>
					<stop  offset="0.8277" style="stop-color:#68863C"/>
					<stop  offset="1" style="stop-color:#618339"/>
				</linearGradient>
				<path class="st3" d="M0,23.7c0.6,4.1,16,5.1,34.2,2.3c18.3-2.9,32.5-8.5,31.9-12.7c-0.6-4.1-16-5.1-34.2-2.3
					C13.7,13.9-0.6,19.6,0,23.7z"/>
			</g>
		</g>
		<g>
			
				<linearGradient id="SVGID_4_" gradientUnits="userSpaceOnUse" x1="-1463.0879" y1="563.2634" x2="-1396.1396" y2="563.2634" gradientTransform="matrix(-0.9878 0.1555 0.1555 0.9878 -1466.0576 -311.6572)">
				<stop  offset="0" style="stop-color:#B2B47A"/>
				<stop  offset="0.3" style="stop-color:#B2B47A"/>
				<stop  offset="0.4426" style="stop-color:#A0A867"/>
				<stop  offset="0.685" style="stop-color:#88994B"/>
				<stop  offset="0.8794" style="stop-color:#7A913E"/>
				<stop  offset="1" style="stop-color:#748F3A"/>
			</linearGradient>
			<path class="st4" d="M34.3,26.2c-16.5,2.6-30.3,2.1-34-0.9L0,23.8c1.1,3.8,16.5,4.7,34.2,1.9c17.6-2.8,32.1-8.4,31.9-12.3
				l0.2,1.5C63.8,18.9,50.8,23.6,34.3,26.2z"/>
		</g>
		<path class="st1" d="M55.1,29.8c1.8-0.6,3.5-1.2,5-1.9l8.7,53.7c-1.1,0.5-2.3,0.9-3.6,1.4c-0.3,0.1-0.7,0.3-1,0.4c0,0,0,0,0,0
			l0.2-0.9L55.1,29.8z"/>
		<path class="st1" d="M16.8,36l7.9,53.1c0,0,0.6,0.7,0.6,0.7c-2.1,0-3.8-0.1-5.1-0.2L19.8,89L12,35.9C13.5,36,15.1,36.1,16.8,36z"
			/>
		<path class="st1" d="M10.3,27.8c0,0-0.1,0-0.1,0l0.4-0.6h0L46,9.6c1.8-0.1,3.5-0.1,5.1-0.2L15.6,27.4l-0.3,0.6l1.2,8.1
			c-1.9,0-3.6-0.1-5.2-0.2L10.3,27.8z"/>
		<path class="st5" d="M15.1,27.9c-1.9,0-3.6-0.1-5.3-0.2l0.3-0.6c1.6,0.1,3.4,0.2,5.3,0.2L15.1,27.9z"/>
		<path class="st1" d="M8.1,17.2L54,21l0.2,0.5c0,0,0,0,0,0c0.7-0.2,0.7-0.2,0,0l1.5,8.1c1.7-0.6,3.3-1.2,4.6-1.8L59,19.7l-0.3-0.5
			l-46.4-3.5C10.7,16.2,9.4,16.7,8.1,17.2z"/>
		<path class="st1" d="M44,87.6c17.7-2.8,31.6-8.3,30.9-12.3L75,76c0.6,4-13.2,9.5-30.9,12.3c-17.7,2.8-32.6,1.8-33.2-2.2l-0.1-0.7
			C11.4,89.4,26.2,90.4,44,87.6z"/>
		
			<linearGradient id="SVGID_5_" gradientUnits="userSpaceOnUse" x1="-1441.4895" y1="551.619" x2="-1410.4746" y2="566.9094" gradientTransform="matrix(-0.9878 0.1555 0.1555 0.9878 -1466.0576 -311.6572)">
			<stop  offset="0" style="stop-color:#F7944C"/>
			<stop  offset="0.2703" style="stop-color:#F9A971"/>
			<stop  offset="1" style="stop-color:#F9A66C"/>
		</linearGradient>
		<path class="st6" d="M15.4,27.3c-1.9,0-3.7,0-5.3-0.2h0h0L45.9,9.6c1.8-0.1,3.5-0.1,5.1-0.1L15.4,27.3z"/>
		
			<linearGradient id="SVGID_6_" gradientUnits="userSpaceOnUse" x1="-1409.7283" y1="551.7485" x2="-1450.7369" y2="565.7924" gradientTransform="matrix(-0.9878 0.1555 0.1555 0.9878 -1466.0576 -311.6572)">
			<stop  offset="0" style="stop-color:#F7944C"/>
			<stop  offset="0.2703" style="stop-color:#F9A971"/>
			<stop  offset="1" style="stop-color:#F9A66C"/>
		</linearGradient>
		<path class="st7" d="M12.7,15.5l46.8,3.4c-1.5,0.7-3.1,1.3-5,2L8.6,17C9.8,16.5,11.2,16,12.7,15.5z"/>
		
			<linearGradient id="SVGID_7_" gradientUnits="userSpaceOnUse" x1="-1408.0236" y1="626.0968" x2="-1408.0236" y2="565.3794" gradientTransform="matrix(-0.9878 0.1555 0.1555 0.9878 -1466.0576 -311.6572)">
			<stop  offset="0" style="stop-color:#F7944C"/>
			<stop  offset="0.2703" style="stop-color:#F89E5B"/>
			<stop  offset="0.6919" style="stop-color:#F9A66C"/>
			<stop  offset="1" style="stop-color:#FEE3D1"/>
		</linearGradient>
		<path class="st8" d="M24.6,89.2l0.7,0.7c-1.7,0-3.9-0.1-5.4-0.2l-0.5-0.7L9.8,27.7c1.6,0.1,3.4,0.2,5.3,0.2L24.6,89.2z"/>
		<path class="st5" d="M59.5,18.9l0.3,0.5c-1.5,0.7-3.2,1.4-5.1,2l-0.2-0.5C56.4,20.2,58.1,19.6,59.5,18.9z"/>
		
			<linearGradient id="SVGID_8_" gradientUnits="userSpaceOnUse" x1="-1453.0736" y1="627.2252" x2="-1453.0736" y2="567.5023" gradientTransform="matrix(-0.9878 0.1555 0.1555 0.9878 -1466.0576 -311.6572)">
			<stop  offset="0.5351" style="stop-color:#F7944C"/>
			<stop  offset="0.6919" style="stop-color:#F9A66C"/>
			<stop  offset="1" style="stop-color:#FEE3D1"/>
		</linearGradient>
		<path class="st9" d="M54.7,21.4C54.7,21.4,54.7,21.4,54.7,21.4c1.9-0.7,3.6-1.3,5.1-2l9.5,61.2c0,0,0,0.7-0.2,0.8
			c-1.2,0.5-2.5,1.1-3.9,1.6c-0.3,0.1-0.7,0.3-1.1,0.4c0,0,0,0,0,0l0.2-0.9L54.7,21.4z"/>
	</g>
	<defs>
		<filter id="Adobe_OpacityMaskFilter" filterUnits="userSpaceOnUse" x="21.6" y="16.7" width="10.9" height="27.7">
			<feFlood  style="flood-color:white;flood-opacity:1" result="back"/>
			<feBlend  in="SourceGraphic" in2="back" mode="normal"/>
		</filter>
	</defs>
	<mask maskUnits="userSpaceOnUse" x="21.6" y="16.7" width="10.9" height="27.7" id="SVGID_9_">
		<g class="st10">
			<defs>
				<filter id="Adobe_OpacityMaskFilter_1_" filterUnits="userSpaceOnUse" x="21.2" y="16.7" width="11.2" height="27.9">
					<feFlood  style="flood-color:white;flood-opacity:1" result="back"/>
					<feBlend  in="SourceGraphic" in2="back" mode="normal"/>
				</filter>
			</defs>
			<mask maskUnits="userSpaceOnUse" x="21.2" y="16.7" width="11.2" height="27.9" id="SVGID_9_">
				<g class="st11">
				</g>
			</mask>
			
				<linearGradient id="SVGID_10_" gradientUnits="userSpaceOnUse" x1="-1199.0861" y1="1440.6167" x2="-1194.0164" y2="1455.999" gradientTransform="matrix(-0.8636 0.504 0.504 0.8636 -1736.1088 -615.7833)">
				<stop  offset="0" style="stop-color:#FFFFFF"/>
				<stop  offset="0.6112" style="stop-color:#646464"/>
				<stop  offset="1" style="stop-color:#000000"/>
			</linearGradient>
			<path class="st12" d="M32,16.7c-3.6,1.5-8.4,6.6-9.4,8.7c-1.4,2.9-1.1,6.1,0.7,9c1.9,2.9-1.2,9-2,9.3c1.7,0.3,4.1-1.3,4.1-1.3
				c0.5,0.6,0.5,1.3,0.8,2.3c1.6-1.3,4.5-5.7,1.9-10.6c-3.5-6.5-1.9-10.1,4.4-17L32,16.7z"/>
		</g>
	</mask>
	
		<linearGradient id="SVGID_11_" gradientUnits="userSpaceOnUse" x1="-1199.2849" y1="1440.6239" x2="-1194.2643" y2="1455.8577" gradientTransform="matrix(-0.8636 0.504 0.504 0.8636 -1736.1088 -615.7836)">
		<stop  offset="0" style="stop-color:#812755"/>
		<stop  offset="1" style="stop-color:#812755"/>
	</linearGradient>
	<path class="st13" d="M32,16.7c-3.6,1.5-8.4,6.6-9.4,8.7c-1.4,2.9-0.9,6.1,0.9,9c1.9,2.9-0.9,8.4-2,9c1.8-0.2,3.6-1.4,3.6-1.4
		c0.5,0.6,0.7,1.5,1,2.4c1.6-1.3,4.3-5.3,1.7-10.2c-3.5-6.5-1.8-10.2,4.6-17.1L32,16.7z"/>
	
		<linearGradient id="SVGID_12_" gradientUnits="userSpaceOnUse" x1="-1429.5383" y1="323.5924" x2="-1426.4772" y2="348.9801" gradientTransform="matrix(-0.998 6.390000e-002 6.390000e-002 0.998 -1421.5686 -214.7493)">
		<stop  offset="0" style="stop-color:#F7944C"/>
		<stop  offset="0.2595" style="stop-color:#F9A66C"/>
		<stop  offset="0.4054" style="stop-color:#FEE3D1"/>
		<stop  offset="0.6054" style="stop-color:#F9A66C"/>
		<stop  offset="0.7838" style="stop-color:#F7944C"/>
		<stop  offset="0.8076" style="stop-color:#F79751"/>
		<stop  offset="0.9267" style="stop-color:#F9A265"/>
		<stop  offset="1" style="stop-color:#F9A66C"/>
	</linearGradient>
	<path class="st14" d="M32,16.7c-3.8,1.1-9.2,5.6-10.5,7.6c-1.7,2.7-1.9,5.9-0.4,9c1.5,3.1-1.4,8.2-3.5,9.5c2,0,3.9-1.6,3.9-1.6
		c0.1,0.7,0.1,1.8,0.1,3.2c1.8-1.1,6.3-5.8,4.3-10.9c-2.7-6.8-0.6-10.2,6.5-16.4L32,16.7z"/>
	<defs>
		<filter id="Adobe_OpacityMaskFilter_2_" filterUnits="userSpaceOnUse" x="34.6" y="14.1" width="32.9" height="14">
			<feFlood  style="flood-color:white;flood-opacity:1" result="back"/>
			<feBlend  in="SourceGraphic" in2="back" mode="normal"/>
		</filter>
	</defs>
	<mask maskUnits="userSpaceOnUse" x="34.6" y="14.1" width="32.9" height="14" id="SVGID_13_">
		<g class="st15">
			<defs>
				<filter id="Adobe_OpacityMaskFilter_3_" filterUnits="userSpaceOnUse" x="34.6" y="14" width="32.9" height="14.2">
					<feFlood  style="flood-color:white;flood-opacity:1" result="back"/>
					<feBlend  in="SourceGraphic" in2="back" mode="normal"/>
				</filter>
			</defs>
			<mask maskUnits="userSpaceOnUse" x="34.6" y="14" width="32.9" height="14.2" id="SVGID_13_">
				<g class="st16">
				</g>
			</mask>
			
				<linearGradient id="SVGID_14_" gradientUnits="userSpaceOnUse" x1="-1442.5433" y1="556.3436" x2="-1460.5471" y2="572.3068" gradientTransform="matrix(-0.9878 0.1555 0.1555 0.9878 -1466.0586 -311.6574)">
				<stop  offset="0" style="stop-color:#FFFFFF"/>
				<stop  offset="0.6112" style="stop-color:#646464"/>
				<stop  offset="1" style="stop-color:#000000"/>
			</linearGradient>
			<path class="st17" d="M59.9,14.6c2.6,0.8,4.8,2.4,6.1,4.6l1.4,9.1c-1.5-0.9-3-2.2-3.9-4.2c-1.1-2.3-4.5-6.5-9-7
				c-4.5-0.5-12.9-1.1-20-1.4l0-0.5C38.3,13.6,57.5,13.9,59.9,14.6z"/>
		</g>
	</mask>
	
		<linearGradient id="SVGID_15_" gradientUnits="userSpaceOnUse" x1="-1442.4393" y1="556.4254" x2="-1460.3944" y2="572.3455" gradientTransform="matrix(-0.9878 0.1555 0.1555 0.9878 -1466.0576 -311.6572)">
		<stop  offset="0" style="stop-color:#812755"/>
		<stop  offset="1" style="stop-color:#812755"/>
	</linearGradient>
	<path class="st18" d="M59.7,14.7c2.6,0.8,5,2.5,6.4,4.8l1.4,8.6c-1.5-0.9-3.1-2.5-4-4.5c-1.1-2.3-4.4-6.1-8.9-6.6
		c-4.5-0.5-12.9-1.1-20-1.4l0-0.5C38.3,13.6,57.3,14,59.7,14.7z"/>
	
		<linearGradient id="SVGID_16_" gradientUnits="userSpaceOnUse" x1="-1445.8455" y1="555.1904" x2="-1463.3483" y2="578.9336" gradientTransform="matrix(-0.9878 0.1555 0.1555 0.9878 -1466.0576 -311.6572)">
		<stop  offset="0" style="stop-color:#F7944C"/>
		<stop  offset="0.1715" style="stop-color:#F8A061"/>
		<stop  offset="0.2973" style="stop-color:#F9A66C"/>
		<stop  offset="0.4649" style="stop-color:#FEE3D1"/>
		<stop  offset="0.6432" style="stop-color:#F9A66C"/>
		<stop  offset="0.7784" style="stop-color:#F7944C"/>
		<stop  offset="0.9062" style="stop-color:#F8A061"/>
		<stop  offset="1" style="stop-color:#F9A66C"/>
	</linearGradient>
	<path class="st19" d="M34.6,15c3.4-1.8,21-2.6,25.1-1.8c3.4,0.6,6.2,2.6,7.8,5.6c1.8,3.4,7.7,5,10.2,4.7c-1.7,0.8-4.1,1.3-4.1,1.3
		c0.4,0.6,1.3,1.4,2.4,2.3c-2.6-0.1-8.5-0.5-11.5-5c-1.5-2.1-3.9-5.7-8.7-5.8c-4.3-0.1-14.1-0.9-21.2-0.8L34.6,15z"/>
	<g>
		
			<linearGradient id="SVGID_17_" gradientUnits="userSpaceOnUse" x1="3236.1138" y1="738.1899" x2="3236.2644" y2="733.4342" gradientTransform="matrix(0.9731 -0.2304 0.2304 0.9731 -3287.4287 32.2784)">
			<stop  offset="0" style="stop-color:#F7944C"/>
			<stop  offset="0.2703" style="stop-color:#F9A971"/>
			<stop  offset="0.5189" style="stop-color:#F89A56"/>
			<stop  offset="0.7892" style="stop-color:#FEE3D1"/>
			<stop  offset="1" style="stop-color:#F9A66C"/>
		</linearGradient>
		<path class="st20" d="M30.3,12.4c-1.5-6.1-1.7-10.2-2-11.4c0.5-0.4,4-1.1,5.4-1c0.2,0.2,1.3,6.8-1,11.7L30.3,12.4z"/>
		<g>
			<defs>
				<filter id="Adobe_OpacityMaskFilter_4_" filterUnits="userSpaceOnUse" x="14.4" y="15.7" width="15.5" height="3.7">
					<feFlood  style="flood-color:white;flood-opacity:1" result="back"/>
					<feBlend  in="SourceGraphic" in2="back" mode="normal"/>
				</filter>
			</defs>
			<mask maskUnits="userSpaceOnUse" x="14.4" y="15.7" width="15.5" height="3.7" id="SVGID_18_">
				<g class="st21">
					<defs>
						<filter id="Adobe_OpacityMaskFilter_5_" filterUnits="userSpaceOnUse" x="14" y="15.7" width="15.9" height="3.7">
							<feFlood  style="flood-color:white;flood-opacity:1" result="back"/>
							<feBlend  in="SourceGraphic" in2="back" mode="normal"/>
						</filter>
					</defs>
					<mask maskUnits="userSpaceOnUse" x="14" y="15.7" width="15.9" height="3.7" id="SVGID_18_">
						<g class="st22">
						</g>
					</mask>
					
						<linearGradient id="SVGID_19_" gradientUnits="userSpaceOnUse" x1="3309.7119" y1="825.9734" x2="3304.0974" y2="825.3617" gradientTransform="matrix(0.9337 -0.2499 0.282 1.0535 -3299.5527 -25.8658)">
						<stop  offset="0" style="stop-color:#FFFFFF"/>
						<stop  offset="0.6112" style="stop-color:#646464"/>
						<stop  offset="1" style="stop-color:#000000"/>
					</linearGradient>
					<path class="st23" d="M29.9,15.7c-2.6,0.5-5.8,0.7-8.6,0.2L14,18.3c1.5,0.7,3.8,1.2,4.9,1.2c2.9-0.1,10.5-3.4,10.5-3.4
						L29.9,15.7z"/>
				</g>
			</mask>
			
				<linearGradient id="SVGID_20_" gradientUnits="userSpaceOnUse" x1="3309.886" y1="826.0345" x2="3304.4238" y2="825.4393" gradientTransform="matrix(0.9337 -0.2499 0.282 1.0535 -3299.5527 -25.8661)">
				<stop  offset="0" style="stop-color:#812755"/>
				<stop  offset="1" style="stop-color:#812755"/>
			</linearGradient>
			<path class="st24" d="M29.9,15.7c-2.6,0.5-5.9,0.9-8.7,0.3l-6.8,2.2c1.5,0.7,3.5,1.2,4.6,1.1c2.9-0.1,10.4-3.4,10.4-3.4
				L29.9,15.7z"/>
			
				<linearGradient id="SVGID_21_" gradientUnits="userSpaceOnUse" x1="3309.0916" y1="826.233" x2="3308.5999" y2="816.6442" gradientTransform="matrix(0.9337 -0.2499 0.282 1.0535 -3299.5527 -25.8658)">
				<stop  offset="0" style="stop-color:#F7944C"/>
				<stop  offset="0.5189" style="stop-color:#F89A56"/>
				<stop  offset="1" style="stop-color:#F7944C"/>
			</linearGradient>
			<path class="st25" d="M21.3,7c0,0-6.5,1.6-7.8,4.1c-2.4,4.4,4.4,7,7.3,7.2c3.5,0.2,8.7-2.2,8.7-2.2l1.9-0.8
				C18.6,18.6,11.1,12.1,21.3,7z"/>
			
				<linearGradient id="SVGID_22_" gradientUnits="userSpaceOnUse" x1="3309.6973" y1="826.0464" x2="3309.2104" y2="816.5522" gradientTransform="matrix(0.9337 -0.2499 0.282 1.0535 -3299.5527 -25.8661)">
				<stop  offset="0" style="stop-color:#F7944C"/>
				<stop  offset="0.2703" style="stop-color:#F9A971"/>
				<stop  offset="0.5189" style="stop-color:#F89A56"/>
				<stop  offset="0.7892" style="stop-color:#FEE3D1"/>
				<stop  offset="1" style="stop-color:#F9A66C"/>
			</linearGradient>
			<path class="st26" d="M29.4,16c-7.3-5.4-13.3-9-16-4.9c1.2-2.4,6.7-3.9,7.8-4.1c5-1.1,8.8,5.5,10,8.3L29.4,16z"/>
		</g>
		<g>
			
				<linearGradient id="SVGID_23_" gradientUnits="userSpaceOnUse" x1="-548.493" y1="1629.0137" x2="-548.9746" y2="1619.6213" gradientTransform="matrix(-0.8153 0.579 0.579 0.8153 -1350.2886 -999.5542)">
				<stop  offset="0" style="stop-color:#F7944C"/>
				<stop  offset="0.5189" style="stop-color:#F89A56"/>
				<stop  offset="1" style="stop-color:#F7944C"/>
			</linearGradient>
			<path class="st27" d="M35,2.9c0,0,4.1-3.1,6.8-2.8c4.9,0.6,3.9,5.9,1.9,8.2c-1.9,2.3-9.1,6.8-9.1,6.8l-1.9,1
				C42.5,9.7,43.4,0,35,2.9z"/>
			
				<linearGradient id="SVGID_24_" gradientUnits="userSpaceOnUse" x1="-547.8555" y1="1625.7007" x2="-548.1988" y2="1619.007" gradientTransform="matrix(-0.8153 0.579 0.579 0.8153 -1350.2886 -999.5542)">
				<stop  offset="0" style="stop-color:#F7944C"/>
				<stop  offset="0.2703" style="stop-color:#F9A971"/>
				<stop  offset="0.5189" style="stop-color:#F89A56"/>
				<stop  offset="0.7892" style="stop-color:#FEE3D1"/>
				<stop  offset="1" style="stop-color:#F9A66C"/>
			</linearGradient>
			<path class="st28" d="M34.6,15.1c1-8.7,2.4-15.3,7.2-15c-2.5-0.4-5.9,2-6.8,2.8c-4.2,3.2-3.4,10.8-2.2,13.3L34.6,15.1z"/>
		</g>
		<g>
			
				<linearGradient id="SVGID_25_" gradientUnits="userSpaceOnUse" x1="3589.0154" y1="-150.7923" x2="3588.5354" y2="-160.1499" gradientTransform="matrix(0.8508 0.1335 -6.570000e-002 0.9866 -3037.9824 -317.8275)">
				<stop  offset="0" style="stop-color:#F7944C"/>
				<stop  offset="0.5189" style="stop-color:#F89A56"/>
				<stop  offset="1" style="stop-color:#F7944C"/>
			</linearGradient>
			<path class="st29" d="M25.9,3.1c0,0-4.7-0.9-6.6,0.6c-3.3,2.8-0.2,7,2.2,8.1c2.4,1.1,9.7,1.8,9.7,1.8l1.8,0
				C23,12.7,16.4,5,25.9,3.1z"/>
			
				<linearGradient id="SVGID_26_" gradientUnits="userSpaceOnUse" x1="3589.6521" y1="-154.0848" x2="3589.312" y2="-160.7192" gradientTransform="matrix(0.8508 0.1335 -6.570000e-002 0.9866 -3037.9824 -317.8265)">
				<stop  offset="0" style="stop-color:#F7944C"/>
				<stop  offset="0.2703" style="stop-color:#F9A971"/>
				<stop  offset="0.5189" style="stop-color:#F89A56"/>
				<stop  offset="0.7892" style="stop-color:#FEE3D1"/>
				<stop  offset="1" style="stop-color:#F9A66C"/>
			</linearGradient>
			<path class="st30" d="M31.3,13.7c-4.6-7.2-8.5-12.4-11.9-10c1.7-1.6,5.6-0.8,6.6-0.6c4.5,0.9,6.9,7.9,7.2,10.6L31.3,13.7z"/>
		</g>
		<g>
			
				<linearGradient id="SVGID_27_" gradientUnits="userSpaceOnUse" x1="-755.6221" y1="657.8569" x2="-750.3267" y2="662.4835" gradientTransform="matrix(-0.9778 0.2096 0.2096 0.9778 -835.9048 -478.8872)">
				<stop  offset="0" style="stop-color:#F7944C"/>
				<stop  offset="0.5189" style="stop-color:#F89A56"/>
				<stop  offset="1" style="stop-color:#F7944C"/>
			</linearGradient>
			<path class="st31" d="M40.2,5.8c-3.1,2.5-5.6,6.4-7.5,9l1.6-0.8c2.8-4,6-7.6,10-10.6C41.9,5.1,41.4,5.3,40.2,5.8z"/>
			<defs>
				<filter id="Adobe_OpacityMaskFilter_6_" filterUnits="userSpaceOnUse" x="32.7" y="12.3" width="18.1" height="3.6">
					<feFlood  style="flood-color:white;flood-opacity:1" result="back"/>
					<feBlend  in="SourceGraphic" in2="back" mode="normal"/>
				</filter>
			</defs>
			<mask maskUnits="userSpaceOnUse" x="32.7" y="12.3" width="18.1" height="3.6" id="SVGID_28_">
				<g class="st32">
					<defs>
						<filter id="Adobe_OpacityMaskFilter_7_" filterUnits="userSpaceOnUse" x="32.7" y="12.1" width="18.6" height="3.8">
							<feFlood  style="flood-color:white;flood-opacity:1" result="back"/>
							<feBlend  in="SourceGraphic" in2="back" mode="normal"/>
						</filter>
					</defs>
					<mask maskUnits="userSpaceOnUse" x="32.7" y="12.1" width="18.6" height="3.8" id="SVGID_28_">
						<g class="st33">
						</g>
					</mask>
					
						<linearGradient id="SVGID_29_" gradientUnits="userSpaceOnUse" x1="3230.8105" y1="554.639" x2="3238.6526" y2="556.8874" gradientTransform="matrix(0.9878 -0.1555 0.1555 0.9878 -3242.7163 -32.7796)">
						<stop  offset="0" style="stop-color:#FFFFFF"/>
						<stop  offset="0.6112" style="stop-color:#646464"/>
						<stop  offset="1" style="stop-color:#000000"/>
					</linearGradient>
					<path class="st34" d="M34.3,14.3l-1.6,0.6c6.3,1.2,11.7,1.5,14.6-0.1c1.1-0.6,2.3-1.8,3.9-2.7C46.2,13.9,39.9,14,34.3,14.3z"/>
				</g>
			</mask>
			
				<linearGradient id="SVGID_30_" gradientUnits="userSpaceOnUse" x1="3230.7339" y1="554.7332" x2="3238.3835" y2="556.9264" gradientTransform="matrix(0.9878 -0.1555 0.1555 0.9878 -3242.7163 -32.7794)">
				<stop  offset="0" style="stop-color:#812755"/>
				<stop  offset="1" style="stop-color:#812755"/>
			</linearGradient>
			<path class="st35" d="M34.3,14.3l-1.6,0.6c6.3,1.2,11.6,1.4,14.6-0.2c1.1-0.6,2-1.5,3.5-2.5C45.8,14.1,39.9,14,34.3,14.3z"/>
			
				<linearGradient id="SVGID_31_" gradientUnits="userSpaceOnUse" x1="-760.1378" y1="665.5838" x2="-747.9109" y2="664.6269" gradientTransform="matrix(-0.9778 0.2096 0.2096 0.9778 -835.9048 -478.8872)">
				<stop  offset="0" style="stop-color:#F7944C"/>
				<stop  offset="0.5189" style="stop-color:#F89A56"/>
				<stop  offset="1" style="stop-color:#F7944C"/>
			</linearGradient>
			<path class="st36" d="M34.3,14.1l-1.6,0.8c6.3,0.5,10.4,0.4,13.9-1.8c1.1-0.7,2.3-1.5,3.7-2.6C43.7,14.7,39.1,13.8,34.3,14.1z"/>
			
				<linearGradient id="SVGID_32_" gradientUnits="userSpaceOnUse" x1="-762.8681" y1="664.8809" x2="-759.332" y2="656.0976" gradientTransform="matrix(-0.9778 0.2096 0.2096 0.9778 -835.9048 -478.8872)">
				<stop  offset="0" style="stop-color:#F7944C"/>
				<stop  offset="0.2703" style="stop-color:#F9A971"/>
				<stop  offset="0.5189" style="stop-color:#F89A56"/>
				<stop  offset="0.7892" style="stop-color:#FEE3D1"/>
				<stop  offset="1" style="stop-color:#F9A66C"/>
			</linearGradient>
			<path class="st37" d="M43.7,3.7c6.1-3.4,9.9,4.3,6.6,6.8c0,0-1.8,1.5-3.7,2.6c2.2-2.3,1.5-6.5-2.9-7.8c-1.3-0.4-2.7,0.2-3.5,0.5
				C41.7,4.9,43,4.1,43.7,3.7z"/>
		</g>
		<g>
			
				<linearGradient id="SVGID_33_" gradientUnits="userSpaceOnUse" x1="3465.6499" y1="1273.8835" x2="3471.0229" y2="1278.5778" gradientTransform="matrix(0.81 -0.376 0.421 0.9071 -3319.7434 159.5959)">
				<stop  offset="0" style="stop-color:#F7944C"/>
				<stop  offset="0.5189" style="stop-color:#F89A56"/>
				<stop  offset="1" style="stop-color:#F7944C"/>
			</linearGradient>
			<path class="st38" d="M23.8,11.7c3.8,0.2,8.1,1.9,11.1,2.9L33.2,15c-4.5-1.6-8.4-2.8-13.3-3C22.5,11.9,22.5,12,23.8,11.7z"/>
			<defs>
				<filter id="Adobe_OpacityMaskFilter_8_" filterUnits="userSpaceOnUse" x="17.1" y="15.9" width="16" height="7.1">
					<feFlood  style="flood-color:white;flood-opacity:1" result="back"/>
					<feBlend  in="SourceGraphic" in2="back" mode="normal"/>
				</filter>
			</defs>
			<mask maskUnits="userSpaceOnUse" x="17.1" y="15.9" width="16" height="7.1" id="SVGID_34_">
				<g class="st39">
					<defs>
						<filter id="Adobe_OpacityMaskFilter_9_" filterUnits="userSpaceOnUse" x="16.7" y="15.9" width="16.4" height="7.2">
							<feFlood  style="flood-color:white;flood-opacity:1" result="back"/>
							<feBlend  in="SourceGraphic" in2="back" mode="normal"/>
						</filter>
					</defs>
					<mask maskUnits="userSpaceOnUse" x="16.7" y="15.9" width="16.4" height="7.2" id="SVGID_34_">
						<g class="st40">
						</g>
					</mask>
					
						<linearGradient id="SVGID_35_" gradientUnits="userSpaceOnUse" x1="3462.7839" y1="1282.587" x2="3462.3438" y2="1283.7502" gradientTransform="matrix(0.81 -0.376 0.421 0.9071 -3319.7434 159.5959)">
						<stop  offset="0" style="stop-color:#FFFFFF"/>
						<stop  offset="0.6112" style="stop-color:#646464"/>
						<stop  offset="1" style="stop-color:#000000"/>
					</linearGradient>
					<path class="st41" d="M31.7,16.2l1.4-0.3c-4.5,4.4-9.2,6.5-12.1,7.2c-0.4,0.1-3.2-0.2-4.3-0.5C21.7,21.7,26,20.2,31.7,16.2z"/>
				</g>
			</mask>
			
				<linearGradient id="SVGID_36_" gradientUnits="userSpaceOnUse" x1="3463.0054" y1="1282.5608" x2="3462.5745" y2="1283.7" gradientTransform="matrix(0.81 -0.376 0.421 0.9071 -3319.7434 159.5963)">
				<stop  offset="0" style="stop-color:#812755"/>
				<stop  offset="1" style="stop-color:#812755"/>
			</linearGradient>
			<path class="st42" d="M31.7,16.2l1.4-0.3c-4.5,4.4-9.2,6.4-12,7.1c-0.4,0.1-2.9-0.1-4-0.3C22.1,21.7,26,20.2,31.7,16.2z"/>
			
				<linearGradient id="SVGID_37_" gradientUnits="userSpaceOnUse" x1="3460.3762" y1="1281.575" x2="3473.4243" y2="1280.5537" gradientTransform="matrix(0.81 -0.376 0.421 0.9071 -3319.7434 159.5963)">
				<stop  offset="0" style="stop-color:#F7944C"/>
				<stop  offset="0.5189" style="stop-color:#F89A56"/>
				<stop  offset="1" style="stop-color:#F7944C"/>
			</linearGradient>
			<path class="st43" d="M33.2,15l1.6-0.3c-4.5,4.1-7.7,6.4-11.6,6.7c-1.2,0.1-2.6,0-4.4,0C24.8,21,28.5,17.9,33.2,15z"/>
			
				<linearGradient id="SVGID_38_" gradientUnits="userSpaceOnUse" x1="3457.8162" y1="1281.1232" x2="3461.4507" y2="1272.0957" gradientTransform="matrix(0.81 -0.376 0.421 0.9071 -3319.7434 159.5963)">
				<stop  offset="0" style="stop-color:#F7944C"/>
				<stop  offset="0.2703" style="stop-color:#F9A971"/>
				<stop  offset="0.5189" style="stop-color:#F89A56"/>
				<stop  offset="0.7892" style="stop-color:#FEE3D1"/>
				<stop  offset="1" style="stop-color:#F9A66C"/>
			</linearGradient>
			<path class="st44" d="M19.9,12c-6.6,1.1-4.1,9.4-0.1,9.5c0,0,1.3,0,3.5-0.2c-3-0.6-6.3-4.5-3.2-7.9c0.9-0.9,2.9-1.5,3.8-1.6
				C22,11.9,20.8,11.9,19.9,12z"/>
		</g>
		<g>
			
				<linearGradient id="SVGID_39_" gradientUnits="userSpaceOnUse" x1="3223.1482" y1="557.1227" x2="3223.6943" y2="546.473" gradientTransform="matrix(0.9878 -0.1555 0.1555 0.9878 -3242.7163 -32.7794)">
				<stop  offset="0" style="stop-color:#F7944C"/>
				<stop  offset="0.5189" style="stop-color:#F89A56"/>
				<stop  offset="1" style="stop-color:#F7944C"/>
			</linearGradient>
			<path class="st45" d="M26.7,5l-4.2,0.6c5.9,0,5,5.6,4.7,8.7l4.4-0.5C31.4,10.8,30.9,4.8,26.7,5z"/>
			
				<linearGradient id="SVGID_40_" gradientUnits="userSpaceOnUse" x1="3219.5364" y1="554.1062" x2="3219.9656" y2="545.7361" gradientTransform="matrix(0.9878 -0.1555 0.1555 0.9878 -3242.7163 -32.7796)">
				<stop  offset="0" style="stop-color:#F7944C"/>
				<stop  offset="0.2703" style="stop-color:#F9A971"/>
				<stop  offset="0.5189" style="stop-color:#F89A56"/>
				<stop  offset="0.7892" style="stop-color:#FEE3D1"/>
				<stop  offset="1" style="stop-color:#F9A66C"/>
			</linearGradient>
			<path class="st46" d="M22.4,14.5c-3.1-0.2-4.7-8,0.1-9C23.8,5.3,26.7,5,26.7,5c-2.5,0.4-3.7,7.5,0.6,9.1
				C25,14.3,23.6,14.4,22.4,14.5z"/>
		</g>
		<g>
			
				<linearGradient id="SVGID_41_" gradientUnits="userSpaceOnUse" x1="3228.8262" y1="563.2394" x2="3227.8733" y2="548.8666" gradientTransform="matrix(0.9878 -0.1555 0.1555 0.9878 -3242.7163 -32.7794)">
				<stop  offset="0" style="stop-color:#F7944C"/>
				<stop  offset="0.5189" style="stop-color:#F89A56"/>
				<stop  offset="1" style="stop-color:#F7944C"/>
			</linearGradient>
			<path class="st47" d="M28.8,4.6l4-1c-1.2,1.5,0.9,8.4,1.7,9.7l-3.8,0.9C29.8,12.7,27.6,5.2,28.8,4.6z"/>
			
				<linearGradient id="SVGID_42_" gradientUnits="userSpaceOnUse" x1="-777.1804" y1="553.834" x2="-776.7136" y2="544.7332" gradientTransform="matrix(-0.9878 0.1555 0.1555 0.9878 -819.7314 -413.3734)">
				<stop  offset="0" style="stop-color:#F7944C"/>
				<stop  offset="0.2703" style="stop-color:#F9A971"/>
				<stop  offset="0.5189" style="stop-color:#F89A56"/>
				<stop  offset="0.7892" style="stop-color:#FEE3D1"/>
				<stop  offset="1" style="stop-color:#F9A66C"/>
			</linearGradient>
			<path class="st48" d="M34.5,13.2c2.9-1.2,3.4-9.5-1.7-9.7c-1.1,0.2-4,1-4,1c2.9,0.6,4.1,7.1,1.9,9.5
				C31.8,13.8,33.7,13.5,34.5,13.2z"/>
		</g>
		<g>
			<defs>
				<filter id="Adobe_OpacityMaskFilter_10_" filterUnits="userSpaceOnUse" x="31.6" y="16.4" width="15.5" height="4.2">
					<feFlood  style="flood-color:white;flood-opacity:1" result="back"/>
					<feBlend  in="SourceGraphic" in2="back" mode="normal"/>
				</filter>
			</defs>
			<mask maskUnits="userSpaceOnUse" x="31.6" y="16.4" width="15.5" height="4.2" id="SVGID_43_">
				<g class="st49">
					<defs>
						<filter id="Adobe_OpacityMaskFilter_11_" filterUnits="userSpaceOnUse" x="31.6" y="16.4" width="16.1" height="4.3">
							<feFlood  style="flood-color:white;flood-opacity:1" result="back"/>
							<feBlend  in="SourceGraphic" in2="back" mode="normal"/>
						</filter>
					</defs>
					<mask maskUnits="userSpaceOnUse" x="31.6" y="16.4" width="16.1" height="4.3" id="SVGID_43_">
						<g class="st50">
						</g>
					</mask>
					
						<linearGradient id="SVGID_44_" gradientUnits="userSpaceOnUse" x1="3234.9465" y1="562.7969" x2="3235.0627" y2="563.6881" gradientTransform="matrix(0.9878 -0.1555 0.1555 0.9878 -3242.7163 -32.7796)">
						<stop  offset="0" style="stop-color:#FFFFFF"/>
						<stop  offset="0.6112" style="stop-color:#646464"/>
						<stop  offset="1" style="stop-color:#000000"/>
					</linearGradient>
					<path class="st51" d="M31.6,17.1l2-0.6c5,2.9,9.7,3.2,14,2.5l-5.9,1.6C39.6,21.1,37.2,20.3,31.6,17.1z"/>
				</g>
			</mask>
			
				<linearGradient id="SVGID_45_" gradientUnits="userSpaceOnUse" x1="3234.675" y1="562.7429" x2="3234.7893" y2="563.6195" gradientTransform="matrix(0.9878 -0.1555 0.1555 0.9878 -3242.7163 -32.7794)">
				<stop  offset="0" style="stop-color:#812755"/>
				<stop  offset="1" style="stop-color:#812755"/>
			</linearGradient>
			<path class="st52" d="M31.6,17.1l2-0.6c5,2.9,9.1,3.2,13.5,2.5l-5.3,1.5C39.7,21,37.2,20.3,31.6,17.1z"/>
			
				<linearGradient id="SVGID_46_" gradientUnits="userSpaceOnUse" x1="3233.7849" y1="562.2406" x2="3232.5398" y2="556.8633" gradientTransform="matrix(0.9878 -0.1555 0.1555 0.9878 -3242.7163 -32.7794)">
				<stop  offset="0" style="stop-color:#F7944C"/>
				<stop  offset="0.5189" style="stop-color:#F89A56"/>
				<stop  offset="1" style="stop-color:#F7944C"/>
			</linearGradient>
			<path class="st53" d="M31.2,16.1l2.2-0.6c5,2.9,7.3,3.9,11.6,3.2l-3.9,1C37.8,20.6,34.4,19.9,31.2,16.1z"/>
			
				<linearGradient id="SVGID_47_" gradientUnits="userSpaceOnUse" x1="3231.8359" y1="553.5204" x2="3231.5024" y2="557.9682" gradientTransform="matrix(0.9878 -0.1555 0.1555 0.9878 -3242.7163 -32.7794)">
				<stop  offset="0" style="stop-color:#F7944C"/>
				<stop  offset="0.5189" style="stop-color:#F89A56"/>
				<stop  offset="1" style="stop-color:#F7944C"/>
			</linearGradient>
			<path class="st54" d="M36.3,10.1c-2.1,0.8-4.7,4-5.3,6.1l2.4-0.7c1.9-2,1.6-4.1,7.4-6.5C38.2,9.8,37.8,9.7,36.3,10.1z"/>
			
				<linearGradient id="SVGID_48_" gradientUnits="userSpaceOnUse" x1="3239.3748" y1="562.2275" x2="3237.4004" y2="551.6591" gradientTransform="matrix(0.9878 -0.1555 0.1555 0.9878 -3242.7163 -32.7794)">
				<stop  offset="0" style="stop-color:#F7944C"/>
				<stop  offset="0.2703" style="stop-color:#F9A971"/>
				<stop  offset="0.5189" style="stop-color:#F89A56"/>
				<stop  offset="0.7892" style="stop-color:#FEE3D1"/>
				<stop  offset="1" style="stop-color:#F9A66C"/>
			</linearGradient>
			<path class="st55" d="M41.1,19.8c4.9-2.4,2.2-11.7-4.9-9.6c0,0,1.8-0.6,4.5-1.1c7.9-1.9,9,9,4.3,9.7L41.1,19.8z"/>
		</g>
		<defs>
			<filter id="Adobe_OpacityMaskFilter_12_" filterUnits="userSpaceOnUse" x="30.3" y="17.6" width="5.5" height="7.6">
				<feFlood  style="flood-color:white;flood-opacity:1" result="back"/>
				<feBlend  in="SourceGraphic" in2="back" mode="normal"/>
			</filter>
		</defs>
		<mask maskUnits="userSpaceOnUse" x="30.3" y="17.6" width="5.5" height="7.6" id="SVGID_49_">
			<g class="st56">
				<defs>
					<filter id="Adobe_OpacityMaskFilter_13_" filterUnits="userSpaceOnUse" x="30.2" y="17.6" width="5.7" height="7.8">
						<feFlood  style="flood-color:white;flood-opacity:1" result="back"/>
						<feBlend  in="SourceGraphic" in2="back" mode="normal"/>
					</filter>
				</defs>
				<mask maskUnits="userSpaceOnUse" x="30.2" y="17.6" width="5.7" height="7.8" id="SVGID_49_">
					<g class="st57">
					</g>
				</mask>
				
					<linearGradient id="SVGID_50_" gradientUnits="userSpaceOnUse" x1="-1440.809" y1="562.6793" x2="-1440.809" y2="565.2101" gradientTransform="matrix(-0.9878 0.1555 0.1555 0.9878 -1477.9121 -309.7918)">
					<stop  offset="0" style="stop-color:#FFFFFF"/>
					<stop  offset="0.6112" style="stop-color:#646464"/>
					<stop  offset="1" style="stop-color:#000000"/>
				</linearGradient>
				<path class="st58" d="M30.6,25.3c-0.2-1.7-0.9-5.7,0.4-7.4c1.9-0.3,2.8-0.4,2.8-0.4c1.3,1.7,2,5.2,2.1,6.7
					C34.1,24.5,32.8,24.9,30.6,25.3z"/>
			</g>
		</mask>
		
			<linearGradient id="SVGID_51_" gradientUnits="userSpaceOnUse" x1="-1440.8148" y1="562.5566" x2="-1440.8148" y2="565.0149" gradientTransform="matrix(-0.9878 0.1555 0.1555 0.9878 -1477.9121 -309.7919)">
			<stop  offset="0" style="stop-color:#812755"/>
			<stop  offset="1" style="stop-color:#812755"/>
		</linearGradient>
		<path class="st59" d="M30.7,25.1c-0.2-1.7-1-5.4,0.3-7.2c1.9-0.3,2.8-0.4,2.8-0.4c1.3,1.7,1.8,5.1,2,6.6
			C33.9,24.4,32.9,24.7,30.7,25.1z"/>
		
			<linearGradient id="SVGID_52_" gradientUnits="userSpaceOnUse" x1="3227.02" y1="563.1089" x2="3227.4985" y2="553.7809" gradientTransform="matrix(0.9878 -0.1555 0.1555 0.9878 -3242.7163 -32.7794)">
			<stop  offset="0" style="stop-color:#F7944C"/>
			<stop  offset="0.2703" style="stop-color:#F9A971"/>
			<stop  offset="0.5189" style="stop-color:#F89A56"/>
			<stop  offset="0.7892" style="stop-color:#FEE3D1"/>
			<stop  offset="1" style="stop-color:#F9A66C"/>
		</linearGradient>
		<path class="st60" d="M30.2,22.5c-1-2-2.7-8.3-1.1-9.9c1.9-0.3,5-0.7,5-0.7c1.3,1.7,1.5,7.9,1.2,9.8C33.5,21.9,32.5,22,30.2,22.5z
			"/>
	</g>
</g>
</svg>
