<?xml version="1.0" encoding="utf-8"?>
<!-- Generator: Adobe Illustrator 19.0.0, SVG Export Plug-In . SVG Version: 6.00 Build 0)  -->
<svg version="1.1" id="Layer_1" xmlns="http://www.w3.org/2000/svg" xmlns:xlink="http://www.w3.org/1999/xlink" x="0px" y="0px"
	 viewBox="0 0 68.3 74.9" style="enable-background:new 0 0 68.3 74.9;" xml:space="preserve" preserveAspectRatio="none">
<style type="text/css">
	.st0{fill:url(#SVGID_1_);}
	.st1{opacity:0.3;fill:#812755;}
	.st2{fill:url(#SVGID_2_);}
	.st3{fill:url(#SVGID_3_);}
	.st4{fill:url(#SVGID_4_);}
	.st5{fill:#FDCEAD;}
	.st6{fill:url(#SVGID_5_);}
	.st7{fill:url(#SVGID_6_);}
	.st8{fill:url(#SVGID_7_);}
	.st9{fill:url(#SVGID_8_);}
	.st10{fill:url(#SVGID_9_);}
	.st11{fill:url(#SVGID_10_);}
	.st12{fill:url(#SVGID_11_);}
	.st13{fill:url(#SVGID_12_);}
	.st14{filter:url(#Adobe_OpacityMaskFilter);}
	.st15{filter:url(#Adobe_OpacityMaskFilter_1_);}
	.st16{mask:url(#SVGID_13_);fill:url(#SVGID_14_);}
	.st17{opacity:0.5;fill:url(#SVGID_15_);}
	.st18{fill:url(#SVGID_16_);}
	.st19{fill:url(#SVGID_17_);}
	.st20{fill:url(#SVGID_18_);}
	.st21{fill:url(#SVGID_19_);}
	.st22{filter:url(#Adobe_OpacityMaskFilter_2_);}
	.st23{filter:url(#Adobe_OpacityMaskFilter_3_);}
	.st24{mask:url(#SVGID_20_);fill:url(#SVGID_21_);}
	.st25{opacity:0.5;fill:url(#SVGID_22_);}
	.st26{fill:url(#SVGID_23_);}
	.st27{fill:url(#SVGID_24_);}
	.st28{fill:url(#SVGID_25_);}
	.st29{filter:url(#Adobe_OpacityMaskFilter_4_);}
	.st30{filter:url(#Adobe_OpacityMaskFilter_5_);}
	.st31{mask:url(#SVGID_26_);fill:url(#SVGID_27_);}
	.st32{opacity:0.5;fill:url(#SVGID_28_);}
	.st33{fill:url(#SVGID_29_);}
	.st34{fill:url(#SVGID_30_);}
	.st35{fill:url(#SVGID_31_);}
</style>
<g>
	
		<linearGradient id="SVGID_1_" gradientUnits="userSpaceOnUse" x1="-1766.6202" y1="207.9671" x2="-1701.4791" y2="207.9671" gradientTransform="matrix(-0.9988 4.880000e-002 4.880000e-002 0.9988 -1707.183 -75.0512)">
		<stop  offset="0" style="stop-color:#AE5926"/>
		<stop  offset="5.778395e-002" style="stop-color:#B5622F"/>
		<stop  offset="0.1743" style="stop-color:#C67A4F"/>
		<stop  offset="0.3243" style="stop-color:#E5A485"/>
		<stop  offset="0.379" style="stop-color:#D6906C"/>
		<stop  offset="0.4512" style="stop-color:#C97E54"/>
		<stop  offset="0.5293" style="stop-color:#BF7041"/>
		<stop  offset="0.6141" style="stop-color:#B76533"/>
		<stop  offset="0.709" style="stop-color:#B25E2B"/>
		<stop  offset="0.8219" style="stop-color:#AF5A27"/>
		<stop  offset="1" style="stop-color:#AE5926"/>
	</linearGradient>
	<path class="st0" d="M33.6,21.3c18-0.9,32.8,2.9,33,8.5l1.6,33.5c0.3,5.6-14.1,10.8-32,11.6c-18,0.9-32.8-2.9-33-8.5L1.6,32.9
		C1.3,27.4,15.7,22.1,33.6,21.3z"/>
	<g>
		<path class="st1" d="M33.6,21.3c18-0.9,32.8,2.9,33,8.5l0.4,7.6C63.6,42,50.6,46,34.9,46.8C19.2,47.5,5.8,44.8,2,40.5l-0.4-7.6
			C1.3,27.4,15.7,22.1,33.6,21.3z"/>
		
			<linearGradient id="SVGID_2_" gradientUnits="userSpaceOnUse" x1="-1767.6133" y1="187.1761" x2="-1700.4858" y2="187.1761" gradientTransform="matrix(-0.9988 4.880000e-002 4.880000e-002 0.9988 -1707.183 -75.0509)">
			<stop  offset="0" style="stop-color:#AE5926"/>
			<stop  offset="5.778395e-002" style="stop-color:#B5622F"/>
			<stop  offset="0.1743" style="stop-color:#C67A4F"/>
			<stop  offset="0.3243" style="stop-color:#E5A485"/>
			<stop  offset="0.379" style="stop-color:#D6906C"/>
			<stop  offset="0.4512" style="stop-color:#C97E54"/>
			<stop  offset="0.5293" style="stop-color:#BF7041"/>
			<stop  offset="0.6141" style="stop-color:#B76533"/>
			<stop  offset="0.709" style="stop-color:#B25E2B"/>
			<stop  offset="0.8219" style="stop-color:#AF5A27"/>
			<stop  offset="1" style="stop-color:#AE5926"/>
		</linearGradient>
		<path class="st2" d="M33,8.9c18.5-0.9,33.7,3,34,8.7l0.8,16.1c0.3,5.7-14.5,11.1-33,12c-18.5,0.9-33.8-3-34-8.7L0,20.9
			C-0.3,15.2,14.5,9.8,33,8.9z"/>
		<g>
			
				<linearGradient id="SVGID_3_" gradientUnits="userSpaceOnUse" x1="-1749.0768" y1="190.1498" x2="-1722.0079" y2="170.2994" gradientTransform="matrix(-0.9988 4.880000e-002 4.880000e-002 0.9988 -1707.183 -75.0509)">
				<stop  offset="0" style="stop-color:#E5A485"/>
				<stop  offset="6.698120e-002" style="stop-color:#DE9B7A"/>
				<stop  offset="0.3794" style="stop-color:#C87C52"/>
				<stop  offset="0.6501" style="stop-color:#B96937"/>
				<stop  offset="0.866" style="stop-color:#B15D2A"/>
				<stop  offset="1" style="stop-color:#AE5926"/>
			</linearGradient>
			<path class="st3" d="M0,20.9c0.3,5.7,15.5,9.6,34,8.7c18.5-0.9,33.3-6.3,33-12C66.8,11.9,51.5,8,33,8.9C14.5,9.8-0.3,15.2,0,20.9
				z"/>
		</g>
	</g>
	<g>
		
			<linearGradient id="SVGID_4_" gradientUnits="userSpaceOnUse" x1="-1767.6127" y1="184.5683" x2="-1700.4851" y2="184.5683" gradientTransform="matrix(-0.9988 4.880000e-002 4.880000e-002 0.9988 -1707.183 -75.0509)">
			<stop  offset="0" style="stop-color:#B6642F"/>
			<stop  offset="0.3" style="stop-color:#E5A485"/>
			<stop  offset="0.3214" style="stop-color:#E2A080"/>
			<stop  offset="0.5487" style="stop-color:#CB8158"/>
			<stop  offset="0.7456" style="stop-color:#BE6E3C"/>
			<stop  offset="0.9026" style="stop-color:#B5632E"/>
			<stop  offset="1" style="stop-color:#B35F2A"/>
		</linearGradient>
		<path class="st4" d="M34.1,30c-16.7,0.8-30.5-2.1-33.9-6.9L0,21c0.7,5.3,16.1,9.1,34,8.2c17.9-0.9,32.8-6.1,33-11.5l0.1,2
			C64.2,24.9,50.8,29.1,34.1,30z"/>
	</g>
	<path class="st1" d="M54.8,42.6c3.2-0.9,5.9-2,8.1-3.1l2.2,27l-0.3,1.2c-1.7,1.2-4,2.4-6.8,3.4c-0.4,0.1-0.7,0.3-1.1,0.4
		c0,0,0,0,0,0l0.3-1.1L54.8,42.6z"/>
	<path class="st1" d="M19.4,45.3l0.6,28l0.4,1c0,0-0.1,0-0.1,0c-0.3,0-0.6-0.1-1-0.2c-2.7-0.4-5.2-1-7.3-1.7l-0.4-1.1l-0.6-27.6
		C13.5,44.5,16.3,44.9,19.4,45.3z"/>
	<path class="st1" d="M9.9,28.1c0,0-0.1,0-0.1,0l0.4-0.7h0l37-18.1c3.3,0.3,6.4,0.8,9,1.4L18.5,28.8l-0.2,0.8l0.6,15.6
		c-3.1-0.4-5.9-0.9-8.4-1.5L9.9,28.1z"/>
	<path class="st5" d="M17.8,29.5c-3.1-0.4-5.9-0.9-8.4-1.5l0.3-0.7c2.4,0.6,5.2,1.1,8.2,1.5L17.8,29.5z"/>
	<path class="st1" d="M8.8,13.4l45.5,12.7l0.2,0.8c0,0,0,0,0,0c0.7-0.2,0.7-0.2,0,0l1,15.6c3.3-1,6.1-2.1,8.2-3.3l-0.9-15.4L62.3,23
		L16.9,11.1C13.8,11.8,11.1,12.5,8.8,13.4z"/>
	<path class="st1" d="M36.2,73.9c18-0.9,32.3-6.1,32-11.6l0,1c0.3,5.6-14.1,10.8-32,11.6c-18,0.9-32.8-2.9-33-8.5l0-1
		C3.4,71,18.2,74.7,36.2,73.9z"/>
	
		<linearGradient id="SVGID_5_" gradientUnits="userSpaceOnUse" x1="-1749.2803" y1="170.8879" x2="-1714.8726" y2="187.851" gradientTransform="matrix(-0.9988 4.880000e-002 4.880000e-002 0.9988 -1707.183 -75.0509)">
		<stop  offset="0" style="stop-color:#C54D9C"/>
		<stop  offset="0.3297" style="stop-color:#C54D9C"/>
		<stop  offset="0.7351" style="stop-color:#C54D9C"/>
		<stop  offset="1" style="stop-color:#F9A96F"/>
	</linearGradient>
	<path class="st6" d="M18,28.8c-3-0.4-5.8-0.9-8.2-1.5h0h0l37-18.1c3.3,0.3,6.4,0.8,9,1.4L18,28.8C18,28.8,18,28.8,18,28.8z"/>
	
		<linearGradient id="SVGID_6_" gradientUnits="userSpaceOnUse" x1="-1714.0963" y1="170.3059" x2="-1758.0079" y2="185.3439" gradientTransform="matrix(-0.9988 4.880000e-002 4.880000e-002 0.9988 -1707.183 -75.0509)">
		<stop  offset="0" style="stop-color:#C54D9C"/>
		<stop  offset="0.3297" style="stop-color:#C54D9C"/>
		<stop  offset="0.7351" style="stop-color:#C54D9C"/>
		<stop  offset="1" style="stop-color:#F9A96F"/>
	</linearGradient>
	<path class="st7" d="M17.3,10.9l45.4,11.9c-2.1,1.2-4.7,2.3-7.9,3.2L9.1,13.2C11.5,12.3,14.2,11.5,17.3,10.9z"/>
	
		<linearGradient id="SVGID_7_" gradientUnits="userSpaceOnUse" x1="-1732.3983" y1="166.1358" x2="-1732.5341" y2="160.1639" gradientTransform="matrix(-0.9988 4.880000e-002 4.880000e-002 0.9988 -1707.183 -75.0509)">
		<stop  offset="0" style="stop-color:#C54D9C"/>
		<stop  offset="0.3892" style="stop-color:#C54D9C"/>
		<stop  offset="0.5784" style="stop-color:#C54D9C"/>
		<stop  offset="0.7892" style="stop-color:#F9A96F"/>
		<stop  offset="1" style="stop-color:#C54D9C"/>
	</linearGradient>
	<path class="st8" d="M35.5,16.4c2.9-7.2,2.4-14.7,0.9-16.1C35.7-0.4,26,0.1,25,1.2c-0.9,1.1,1.2,9.8,6.1,15.4L35.5,16.4z"/>
	<g>
		
			<linearGradient id="SVGID_8_" gradientUnits="userSpaceOnUse" x1="-1742.7996" y1="998.4113" x2="-1743.4658" y2="985.4199" gradientTransform="matrix(-0.9594 0.282 0.282 0.9594 -1907.9507 -451.2381)">
			<stop  offset="0" style="stop-color:#C54D9C"/>
			<stop  offset="0.5189" style="stop-color:#C54D9C"/>
			<stop  offset="1" style="stop-color:#C54D9C"/>
		</linearGradient>
		<path class="st9" d="M40.4,2.8c0,0,9-2.7,12.4-1.1c6,3,2.3,9.5-1.2,11.6c-3.5,2.1-14.8,4.8-14.8,4.8l-2.9,0.5
			C45.2,14.2,52.3,5.5,40.4,2.8z"/>
		
			<linearGradient id="SVGID_9_" gradientUnits="userSpaceOnUse" x1="-1741.7058" y1="998.3509" x2="-1742.3757" y2="985.2875" gradientTransform="matrix(-0.9594 0.282 0.282 0.9594 -1907.9507 -451.2384)">
			<stop  offset="0" style="stop-color:#C54D9C"/>
			<stop  offset="0.3892" style="stop-color:#C54D9C"/>
			<stop  offset="0.5784" style="stop-color:#C54D9C"/>
			<stop  offset="0.7892" style="stop-color:#F9A96F"/>
			<stop  offset="1" style="stop-color:#C54D9C"/>
		</linearGradient>
		<path class="st10" d="M36.7,18.1c5.2-10.9,10-18.9,16-16.4C49.7,0,41.9,2.2,40.4,2.8c-5.8,2.2-6.7,12.6-6.5,15.8L36.7,18.1z"/>
	</g>
	<g>
		
			<linearGradient id="SVGID_10_" gradientUnits="userSpaceOnUse" x1="4097.7529" y1="-236.1223" x2="4097.0869" y2="-249.1105" gradientTransform="matrix(0.9957 9.350000e-002 -9.350000e-002 0.9957 -4082.7297 -129.4568)">
			<stop  offset="0" style="stop-color:#C54D9C"/>
			<stop  offset="0.5189" style="stop-color:#C54D9C"/>
			<stop  offset="1" style="stop-color:#C54D9C"/>
		</linearGradient>
		<path class="st11" d="M22.3,5.4c0,0-9.4-1-12.4,1.3c-5.3,4.1-0.5,9.7,3.4,11.2c3.8,1.4,15.5,1.9,15.5,1.9l2.9,0
			C21.5,17.3,13.2,11.8,22.3,5.4z"/>
		
			<linearGradient id="SVGID_11_" gradientUnits="userSpaceOnUse" x1="4098.6143" y1="-240.7031" x2="4098.1396" y2="-249.9621" gradientTransform="matrix(0.9957 9.350000e-002 -9.350000e-002 0.9957 -4082.7297 -129.4568)">
			<stop  offset="0" style="stop-color:#C54D9C"/>
			<stop  offset="0.3892" style="stop-color:#C54D9C"/>
			<stop  offset="0.5784" style="stop-color:#C54D9C"/>
			<stop  offset="0.7892" style="stop-color:#F9A96F"/>
			<stop  offset="1" style="stop-color:#C54D9C"/>
		</linearGradient>
		<path class="st12" d="M28.8,19.8c-7.1-9.7-13.4-16.7-18.8-13c2.7-2.3,10.8-1.6,12.4-1.3c7.2,1,9,10.5,9.4,14.3L28.8,19.8z"/>
	</g>
	<g>
		
			<linearGradient id="SVGID_12_" gradientUnits="userSpaceOnUse" x1="-1744.6404" y1="171.8758" x2="-1737.0256" y2="178.5287" gradientTransform="matrix(-0.9988 4.880000e-002 4.880000e-002 0.9988 -1707.183 -75.0509)">
			<stop  offset="0" style="stop-color:#C54D9C"/>
			<stop  offset="0.5189" style="stop-color:#C54D9C"/>
			<stop  offset="1" style="stop-color:#C54D9C"/>
		</linearGradient>
		<path class="st13" d="M42.9,11.4c-5,2.7-9.6,7.5-13,10.6l2.5-0.7c5-4.8,10.3-9,16.9-12.4C45.6,10.5,44.8,10.9,42.9,11.4z"/>
		<defs>
			<filter id="Adobe_OpacityMaskFilter" filterUnits="userSpaceOnUse" x="37.6" y="19.4" width="21.9" height="5.8">
				<feFlood  style="flood-color:white;flood-opacity:1" result="back"/>
				<feBlend  in="SourceGraphic" in2="back" mode="normal"/>
			</filter>
		</defs>
		<mask maskUnits="userSpaceOnUse" x="37.6" y="19.4" width="21.9" height="5.8" id="SVGID_13_">
			<g class="st14">
				<defs>
					<filter id="Adobe_OpacityMaskFilter_1_" filterUnits="userSpaceOnUse" x="37.6" y="19.4" width="22.9" height="6">
						<feFlood  style="flood-color:white;flood-opacity:1" result="back"/>
						<feBlend  in="SourceGraphic" in2="back" mode="normal"/>
					</filter>
				</defs>
				<mask maskUnits="userSpaceOnUse" x="37.6" y="19.4" width="22.9" height="6" id="SVGID_13_">
					<g class="st15">
					</g>
				</mask>
				
					<linearGradient id="SVGID_14_" gradientUnits="userSpaceOnUse" x1="-1747.6879" y1="181.4882" x2="-1752.8374" y2="183.8595" gradientTransform="matrix(-0.9988 4.880000e-002 4.880000e-002 0.9988 -1707.183 -75.0512)">
					<stop  offset="0" style="stop-color:#FFFFFF"/>
					<stop  offset="0.6112" style="stop-color:#646464"/>
					<stop  offset="1" style="stop-color:#000000"/>
				</linearGradient>
				<path class="st16" d="M43.5,19.4l-6,1.3c6.3,4.7,10.5,5.9,16.1,3.7c1.7-0.7,4.5-1.9,6.8-3.1C53,23.5,50,22.1,43.5,19.4z"/>
			</g>
		</mask>
		
			<linearGradient id="SVGID_15_" gradientUnits="userSpaceOnUse" x1="-1747.2701" y1="181.604" x2="-1752.2325" y2="183.8891" gradientTransform="matrix(-0.9988 4.880000e-002 4.880000e-002 0.9988 -1707.183 -75.0509)">
			<stop  offset="0" style="stop-color:#731548"/>
			<stop  offset="1" style="stop-color:#731548"/>
		</linearGradient>
		<path class="st17" d="M43.5,19.4l-6,1.3c6.3,4.7,11,5.6,16,3.4c1.7-0.7,3.6-1.3,6-2.4C52,23.8,50,22.1,43.5,19.4z"/>
		
			<linearGradient id="SVGID_16_" gradientUnits="userSpaceOnUse" x1="-1749.5702" y1="184.7794" x2="-1744.337" y2="176.7793" gradientTransform="matrix(-0.9988 4.880000e-002 4.880000e-002 0.9988 -1707.183 -75.0509)">
			<stop  offset="0" style="stop-color:#C54D9C"/>
			<stop  offset="0.5189" style="stop-color:#C54D9C"/>
			<stop  offset="1" style="stop-color:#C54D9C"/>
		</linearGradient>
		<path class="st18" d="M40.3,17.7l-6,1.3c6.3,4.7,10.5,5.9,16.1,3.7c1.7-0.7,4.5-1.9,6.8-3.1C49.8,21.8,46.8,20.4,40.3,17.7z"/>
		
			<linearGradient id="SVGID_17_" gradientUnits="userSpaceOnUse" x1="-1755.4652" y1="181.7146" x2="-1750.4956" y2="169.3708" gradientTransform="matrix(-0.9988 4.880000e-002 4.880000e-002 0.9988 -1707.183 -75.0509)">
			<stop  offset="0" style="stop-color:#C54D9C"/>
			<stop  offset="0.3892" style="stop-color:#C54D9C"/>
			<stop  offset="0.5784" style="stop-color:#C54D9C"/>
			<stop  offset="0.7892" style="stop-color:#F9A96F"/>
			<stop  offset="1" style="stop-color:#C54D9C"/>
		</linearGradient>
		<path class="st19" d="M49.3,8.9c9.6-3,13.3,8,8,10.7c0,0-3.8,2-6.8,3.1c3.7-2.6,3.7-8.4-2.4-11.3c-1.7-0.8-3.9-0.4-5.1,0
			C45.3,10.4,46.4,9.8,49.3,8.9z"/>
	</g>
	<g>
		
			<linearGradient id="SVGID_18_" gradientUnits="userSpaceOnUse" x1="-1732.0236" y1="181.2198" x2="-1731.2667" y2="166.4619" gradientTransform="matrix(-0.9988 4.880000e-002 4.880000e-002 0.9988 -1707.183 -75.0509)">
			<stop  offset="0" style="stop-color:#C54D9C"/>
			<stop  offset="0.5189" style="stop-color:#C54D9C"/>
			<stop  offset="1" style="stop-color:#C54D9C"/>
		</linearGradient>
		<path class="st20" d="M28.5,5.8l8.4-0.8c-4.7,3.1-5.3,7.4-5.1,13.4L26,19C23.5,14,21.7,7,28.5,5.8z"/>
		
			<linearGradient id="SVGID_19_" gradientUnits="userSpaceOnUse" x1="-1737.5304" y1="176.9676" x2="-1736.9358" y2="165.373" gradientTransform="matrix(-0.9988 4.880000e-002 4.880000e-002 0.9988 -1707.183 -75.0512)">
			<stop  offset="0" style="stop-color:#C54D9C"/>
			<stop  offset="0.3892" style="stop-color:#C54D9C"/>
			<stop  offset="0.5784" style="stop-color:#C54D9C"/>
			<stop  offset="0.7892" style="stop-color:#F9A96F"/>
			<stop  offset="1" style="stop-color:#C54D9C"/>
		</linearGradient>
		<path class="st21" d="M41,17c3.9-1.2,3.9-12.1-2.6-12.1c-5.9,0.4-10,1-10,1c6.1-0.2,8.2,9.8,1.6,12.4C36,17.7,37,17.7,41,17z"/>
	</g>
	<g>
		<defs>
			<filter id="Adobe_OpacityMaskFilter_2_" filterUnits="userSpaceOnUse" x="10" y="20.8" width="19.8" height="6.9">
				<feFlood  style="flood-color:white;flood-opacity:1" result="back"/>
				<feBlend  in="SourceGraphic" in2="back" mode="normal"/>
			</filter>
		</defs>
		<mask maskUnits="userSpaceOnUse" x="10" y="20.8" width="19.8" height="6.9" id="SVGID_20_">
			<g class="st22">
				<defs>
					<filter id="Adobe_OpacityMaskFilter_3_" filterUnits="userSpaceOnUse" x="9.5" y="20.8" width="20.3" height="7">
						<feFlood  style="flood-color:white;flood-opacity:1" result="back"/>
						<feBlend  in="SourceGraphic" in2="back" mode="normal"/>
					</filter>
				</defs>
				<mask maskUnits="userSpaceOnUse" x="9.5" y="20.8" width="20.3" height="7" id="SVGID_20_">
					<g class="st23">
					</g>
				</mask>
				
					<linearGradient id="SVGID_21_" gradientUnits="userSpaceOnUse" x1="-1924.9629" y1="35.4625" x2="-1920.1664" y2="36.5694" gradientTransform="matrix(-0.9988 -4.920000e-002 -4.920000e-002 0.9988 -1900.7943 -105.3789)">
					<stop  offset="0" style="stop-color:#FFFFFF"/>
					<stop  offset="0.6112" style="stop-color:#646464"/>
					<stop  offset="1" style="stop-color:#000000"/>
				</linearGradient>
				<path class="st24" d="M29.7,22.3l-3.8-1.5c-6.9,4.1-10.5,5.8-16.4,4.9l7.4,1.9C19.8,28.3,23.1,27.1,29.7,22.3z"/>
			</g>
		</mask>
		
			<linearGradient id="SVGID_22_" gradientUnits="userSpaceOnUse" x1="-1925.1746" y1="35.3748" x2="-1920.4875" y2="36.4564" gradientTransform="matrix(-0.9988 -4.920000e-002 -4.920000e-002 0.9988 -1900.7943 -105.3787)">
			<stop  offset="0" style="stop-color:#731548"/>
			<stop  offset="1" style="stop-color:#731548"/>
		</linearGradient>
		<path class="st25" d="M29.7,22.3l-3.8-1.5c-6.9,4.1-10,5.9-15.9,5l7.2,1.7C20.1,28.2,23.1,27.1,29.7,22.3z"/>
		
			<linearGradient id="SVGID_23_" gradientUnits="userSpaceOnUse" x1="-1664.076" y1="-159.2878" x2="-1665.821" y2="-166.8229" gradientTransform="matrix(-0.9987 -5.080000e-002 -5.080000e-002 0.9987 -1648.5975 100.3042)">
			<stop  offset="0" style="stop-color:#C54D9C"/>
			<stop  offset="0.5189" style="stop-color:#C54D9C"/>
			<stop  offset="1" style="stop-color:#C54D9C"/>
		</linearGradient>
		<path class="st26" d="M32.3,19.7l-4-1.1c-6.4,4.7-9.9,6.8-15.9,6.5l7.6,1.2C23,26.7,26.2,25.2,32.3,19.7z"/>
		
			<linearGradient id="SVGID_24_" gradientUnits="userSpaceOnUse" x1="-1668.1987" y1="-171.2105" x2="-1668.6582" y2="-165.0856" gradientTransform="matrix(-0.9987 -5.080000e-002 -5.080000e-002 0.9987 -1648.5975 100.3042)">
			<stop  offset="0" style="stop-color:#C54D9C"/>
			<stop  offset="0.5189" style="stop-color:#C54D9C"/>
			<stop  offset="1" style="stop-color:#C54D9C"/>
		</linearGradient>
		<path class="st27" d="M25.2,12.4c2.9,0.8,7,4.8,8.1,7.6l-3.4-0.7c-2.8-2.4-2.8-5.4-10.9-7.9C22.6,12.2,23.2,11.9,25.2,12.4z"/>
		
			<linearGradient id="SVGID_25_" gradientUnits="userSpaceOnUse" x1="-1656.8157" y1="-159.2228" x2="-1659.5681" y2="-173.9567" gradientTransform="matrix(-0.9987 -5.080000e-002 -5.080000e-002 0.9987 -1648.5975 100.3042)">
			<stop  offset="0" style="stop-color:#C54D9C"/>
			<stop  offset="0.3892" style="stop-color:#C54D9C"/>
			<stop  offset="0.5784" style="stop-color:#C54D9C"/>
			<stop  offset="0.7892" style="stop-color:#F9A96F"/>
			<stop  offset="1" style="stop-color:#C54D9C"/>
		</linearGradient>
		<path class="st28" d="M20,26.3c-6.9-2.6-4.7-15.7,5.2-13.9c0,0-2.6-0.6-6.2-0.9C5.2,9.6,6,24.8,12.5,25.1L20,26.3z"/>
	</g>
	<defs>
		<filter id="Adobe_OpacityMaskFilter_4_" filterUnits="userSpaceOnUse" x="26.9" y="15.9" width="12.9" height="12.3">
			<feFlood  style="flood-color:white;flood-opacity:1" result="back"/>
			<feBlend  in="SourceGraphic" in2="back" mode="normal"/>
		</filter>
	</defs>
	<mask maskUnits="userSpaceOnUse" x="26.9" y="15.9" width="12.9" height="12.3" id="SVGID_26_">
		<g class="st29">
			<defs>
				<filter id="Adobe_OpacityMaskFilter_5_" filterUnits="userSpaceOnUse" x="26.9" y="15.9" width="13.2" height="12.6">
					<feFlood  style="flood-color:white;flood-opacity:1" result="back"/>
					<feBlend  in="SourceGraphic" in2="back" mode="normal"/>
				</filter>
			</defs>
			<mask maskUnits="userSpaceOnUse" x="26.9" y="15.9" width="13.2" height="12.6" id="SVGID_26_">
				<g class="st30">
				</g>
			</mask>
			
				<linearGradient id="SVGID_27_" gradientUnits="userSpaceOnUse" x1="-1733.705" y1="186.2473" x2="-1733.705" y2="187.732" gradientTransform="matrix(-0.9988 4.880000e-002 4.880000e-002 0.9988 -1707.183 -75.0512)">
				<stop  offset="0" style="stop-color:#FFFFFF"/>
				<stop  offset="0.6112" style="stop-color:#646464"/>
				<stop  offset="1" style="stop-color:#000000"/>
			</linearGradient>
			<path class="st31" d="M27.4,28.5c-0.7-3.3-1.2-9.8,1.6-12.3c7.2-0.3,8.6-0.3,8.6-0.3c1.9,2.3,2.7,8.8,2.4,11.4
				C34.4,28.1,32.5,28,27.4,28.5z"/>
		</g>
	</mask>
	
		<linearGradient id="SVGID_28_" gradientUnits="userSpaceOnUse" x1="-1733.6276" y1="185.9997" x2="-1733.6276" y2="187.4489" gradientTransform="matrix(-0.9988 4.880000e-002 4.880000e-002 0.9988 -1707.183 -75.0509)">
		<stop  offset="0" style="stop-color:#731548"/>
		<stop  offset="1" style="stop-color:#731548"/>
	</linearGradient>
	<path class="st32" d="M27.5,28.2c-0.7-3.3-1.3-9.5,1.5-12c7.2-0.3,8.6-0.3,8.6-0.3c1.9,2.3,2.5,8.6,2.1,11.3
		C34.1,28,32.6,27.7,27.5,28.2z"/>
	
		<linearGradient id="SVGID_29_" gradientUnits="userSpaceOnUse" x1="5207.3965" y1="624.2131" x2="5208.0273" y2="611.9081" gradientTransform="matrix(0.9847 -0.1742 0.1742 0.9847 -5202.8857 318.1753)">
		<stop  offset="0" style="stop-color:#C54D9C"/>
		<stop  offset="0.3892" style="stop-color:#C54D9C"/>
		<stop  offset="0.5784" style="stop-color:#C54D9C"/>
		<stop  offset="0.7892" style="stop-color:#F9A96F"/>
		<stop  offset="1" style="stop-color:#C54D9C"/>
	</linearGradient>
	<path class="st33" d="M27.3,26.8c-2-3.1-2.4-10.6,0.3-13.1c7.2-0.3,10.9-0.6,10.9-0.6c1.9,2.3,1.7,9.9,1.4,12.5
		C34.3,26.4,32.5,26.3,27.3,26.8z"/>
	
		<linearGradient id="SVGID_30_" gradientUnits="userSpaceOnUse" x1="-1713.9205" y1="231.6823" x2="-1713.9205" y2="187.1049" gradientTransform="matrix(-0.9988 4.880000e-002 4.880000e-002 0.9988 -1707.183 -75.0509)">
		<stop  offset="0" style="stop-color:#C54D9C"/>
		<stop  offset="0.3297" style="stop-color:#C54D9C"/>
		<stop  offset="0.7351" style="stop-color:#C54D9C"/>
		<stop  offset="1" style="stop-color:#F9A96F"/>
	</linearGradient>
	<path class="st34" d="M20,73.3l0.4,1c0,0-0.1,0-0.1,0c-0.3,0-0.6-0.1-1-0.1c-2.7-0.4-5.2-0.9-7.4-1.5l-0.4-1.1L9.4,28
		c2.5,0.7,5.3,1.2,8.4,1.5L20,73.3z"/>
	<path class="st5" d="M62.7,22.7l0.4,0.7c-2.1,1.2-4.9,2.4-8.1,3.3L54.8,26C57.9,25,60.6,23.9,62.7,22.7z"/>
	
		<linearGradient id="SVGID_31_" gradientUnits="userSpaceOnUse" x1="-1759.0287" y1="231.705" x2="-1759.0287" y2="187.1075" gradientTransform="matrix(-0.9988 4.880000e-002 4.880000e-002 0.9988 -1707.183 -75.0509)">
		<stop  offset="0" style="stop-color:#C54D9C"/>
		<stop  offset="0.3297" style="stop-color:#C54D9C"/>
		<stop  offset="0.7351" style="stop-color:#C54D9C"/>
		<stop  offset="1" style="stop-color:#F9A96F"/>
	</linearGradient>
	<path class="st35" d="M54.9,26.7C54.9,26.7,54.9,26.7,54.9,26.7c3.3-1,6-2.1,8.1-3.3l2.1,43.4L64.8,68c-1.8,1.2-4.1,2.2-7,3.2
		c-0.4,0.1-0.7,0.2-1.1,0.3c0,0,0,0,0,0l0.3-1.1L54.9,26.7z"/>
</g>
</svg>
