<?xml version="1.0" encoding="utf-8"?>
<!-- Generator: Adobe Illustrator 19.0.0, SVG Export Plug-In . SVG Version: 6.00 Build 0)  -->
<svg version="1.1" id="Layer_2" xmlns="http://www.w3.org/2000/svg" xmlns:xlink="http://www.w3.org/1999/xlink" x="0px" y="0px"
	 viewBox="0 0 141.7 105.2" style="enable-background:new 0 0 141.7 105.2;" xml:space="preserve" preserveAspectRatio="none">
<style type="text/css">
	.st0{fill:url(#SVGID_1_);}
	.st1{fill:url(#SVGID_2_);}
	.st2{enable-background:new    ;}
	.st3{fill:url(#SVGID_3_);}
	.st4{fill:url(#SVGID_4_);}
	.st5{fill:url(#SVGID_5_);}
	.st6{opacity:0.5;fill:#923737;}
	.st7{fill:url(#SVGID_6_);}
	.st8{fill:url(#SVGID_7_);}
	.st9{fill:url(#SVGID_8_);}
	.st10{fill:url(#SVGID_9_);}
	.st11{fill:url(#SVGID_10_);}
	.st12{fill:url(#SVGID_11_);}
	.st13{fill:url(#SVGID_12_);}
	.st14{filter:url(#Adobe_OpacityMaskFilter);}
	.st15{filter:url(#Adobe_OpacityMaskFilter_1_);}
	.st16{mask:url(#SVGID_13_);fill:url(#SVGID_14_);}
	.st17{opacity:0.5;fill:url(#SVGID_15_);}
	.st18{fill:url(#SVGID_16_);}
	.st19{fill:url(#SVGID_17_);}
	.st20{fill:url(#SVGID_18_);}
	.st21{fill:url(#SVGID_19_);}
	.st22{fill:url(#SVGID_20_);}
	.st23{fill:url(#SVGID_21_);}
	.st24{fill:url(#SVGID_22_);}
	.st25{filter:url(#Adobe_OpacityMaskFilter_2_);}
	.st26{filter:url(#Adobe_OpacityMaskFilter_3_);}
	.st27{mask:url(#SVGID_23_);fill:url(#SVGID_24_);}
	.st28{opacity:0.5;fill:url(#SVGID_25_);}
	.st29{fill:url(#SVGID_26_);}
	.st30{fill:url(#SVGID_27_);}
	.st31{fill:url(#SVGID_28_);}
	.st32{filter:url(#Adobe_OpacityMaskFilter_4_);}
	.st33{filter:url(#Adobe_OpacityMaskFilter_5_);}
	.st34{mask:url(#SVGID_29_);fill:url(#SVGID_30_);}
	.st35{opacity:0.5;fill:url(#SVGID_31_);}
	.st36{fill:url(#SVGID_32_);}
	.st37{fill:url(#SVGID_33_);}
	.st38{fill:url(#SVGID_34_);}
	.st39{fill:url(#SVGID_35_);}
	.st40{fill:url(#SVGID_36_);}
	.st41{fill:url(#SVGID_37_);}
	.st42{filter:url(#Adobe_OpacityMaskFilter_6_);}
	.st43{filter:url(#Adobe_OpacityMaskFilter_7_);}
	.st44{mask:url(#SVGID_38_);fill:url(#SVGID_39_);}
	.st45{opacity:0.5;fill:url(#SVGID_40_);}
	.st46{fill:url(#SVGID_41_);}
	.st47{fill:url(#SVGID_42_);}
	.st48{fill:#FFF6DA;}
	.st49{opacity:0.3;fill:#923737;}
	.st50{opacity:0.5;}
	.st51{filter:url(#Adobe_OpacityMaskFilter_8_);}
	.st52{filter:url(#Adobe_OpacityMaskFilter_9_);}
	.st53{mask:url(#SVGID_43_);fill:url(#SVGID_44_);}
	.st54{opacity:0.5;fill:url(#SVGID_45_);}
	.st55{fill:url(#SVGID_46_);}
	.st56{fill:url(#SVGID_47_);}
	.st57{fill:url(#SVGID_48_);}
	.st58{fill:url(#SVGID_49_);}
</style>
<g>
	
		<linearGradient id="SVGID_1_" gradientUnits="userSpaceOnUse" x1="1338.2213" y1="335.0718" x2="1300.7107" y2="229.1679" gradientTransform="matrix(-0.9915 -0.1302 -0.1302 0.9915 1454.8105 -3.8833)">
		<stop  offset="0" style="stop-color:#913636"/>
		<stop  offset="1" style="stop-color:#E65661"/>
	</linearGradient>
	<polygon class="st0" points="139,55.7 130.8,124.2 130.1,125.6 84.2,154.7 93.8,74.1 	"/>
	
		<linearGradient id="SVGID_2_" gradientUnits="userSpaceOnUse" x1="1363.7854" y1="199.584" x2="1363.4521" y2="184.9207" gradientTransform="matrix(-0.9915 -0.1302 -0.1302 0.9915 1454.8105 -3.8833)">
		<stop  offset="0" style="stop-color:#654725"/>
		<stop  offset="9.223300e-002" style="stop-color:#CEA44C"/>
		<stop  offset="0.1885" style="stop-color:#E9CA81"/>
		<stop  offset="0.2184" style="stop-color:#F3D793"/>
		<stop  offset="0.3973" style="stop-color:#D8B362"/>
		<stop  offset="0.4903" style="stop-color:#CEA44C"/>
		<stop  offset="0.8108" style="stop-color:#F4ECD2"/>
		<stop  offset="0.836" style="stop-color:#F1E5C5"/>
		<stop  offset="0.8838" style="stop-color:#E8D3A4"/>
		<stop  offset="0.9488" style="stop-color:#D9B975"/>
		<stop  offset="1" style="stop-color:#CEA44C"/>
	</linearGradient>
	<path class="st1" d="M81,28C87.3,18,88.7,7.1,86.8,4.7c-0.9-1.4-15.8-4-17.5-2.6c-1.7,1.5-0.9,15.2,4.9,25L81,28z"/>
	<g>
		<g class="st2">
			
				<linearGradient id="SVGID_3_" gradientUnits="userSpaceOnUse" x1="1423.1633" y1="326.7612" x2="1342.7722" y2="255.8143" gradientTransform="matrix(-0.9915 -0.1302 -0.1302 0.9915 1454.8105 -3.8833)">
				<stop  offset="0" style="stop-color:#913636"/>
				<stop  offset="1" style="stop-color:#E65661"/>
			</linearGradient>
			<polygon class="st3" points="92.6,74.2 83.2,155 0.5,130.5 0,129.5 8.7,54.4 			"/>
			
				<linearGradient id="SVGID_4_" gradientUnits="userSpaceOnUse" x1="1360.2048" y1="313.6883" x2="1319.9558" y2="278.1677" gradientTransform="matrix(-0.9915 -0.1302 -0.1302 0.9915 1454.8105 -3.8833)">
				<stop  offset="0" style="stop-color:#A53E3E"/>
				<stop  offset="1" style="stop-color:#E65661"/>
			</linearGradient>
			<polygon class="st4" points="93.8,74.1 84.2,154.7 83.2,155 92.6,74.2 			"/>
		</g>
	</g>
	
		<linearGradient id="SVGID_5_" gradientUnits="userSpaceOnUse" x1="1339.337" y1="242.4819" x2="1339.337" y2="378.8836" gradientTransform="matrix(-0.9915 -0.1302 -0.1302 0.9915 1454.8105 -3.8833)">
		<stop  offset="0" style="stop-color:#E65661"/>
		<stop  offset="4.056111e-002" style="stop-color:#E75962"/>
		<stop  offset="7.759979e-002" style="stop-color:#E76366"/>
		<stop  offset="0.1133" style="stop-color:#E9726E"/>
		<stop  offset="0.1481" style="stop-color:#EB8579"/>
		<stop  offset="0.182" style="stop-color:#ED9D89"/>
		<stop  offset="0.2" style="stop-color:#EFAD93"/>
		<stop  offset="0.5488" style="stop-color:#EB887B"/>
		<stop  offset="1" style="stop-color:#E65661"/>
	</linearGradient>
	<polygon class="st5" points="83.3,154.1 92.6,74.2 93.8,74.1 84.3,153.9 83.8,154 	"/>
	<polygon class="st6" points="93,79 8.4,56.8 8.7,54.4 93.5,74.5 	"/>
	<polygon class="st6" points="93.6,74.2 139,55.7 138.7,57.8 93,79 	"/>
	
		<linearGradient id="SVGID_6_" gradientUnits="userSpaceOnUse" x1="1410.5289" y1="267.3178" x2="1357.3473" y2="220.3838" gradientTransform="matrix(-0.9915 -0.1302 -0.1302 0.9915 1454.8105 -3.8833)">
		<stop  offset="0" style="stop-color:#923737"/>
		<stop  offset="1" style="stop-color:#CF4E55"/>
	</linearGradient>
	<polygon class="st7" points="10.2,37 9.7,37.4 7.8,55.1 92.7,77.4 93.2,77.3 95.6,57.7 	"/>
	
		<linearGradient id="SVGID_7_" gradientUnits="userSpaceOnUse" x1="1327.7224" y1="261.5855" x2="1309.0403" y2="208.8403" gradientTransform="matrix(-0.9915 -0.1302 -0.1302 0.9915 1454.8105 -3.8833)">
		<stop  offset="0" style="stop-color:#923737"/>
		<stop  offset="1" style="stop-color:#CF4E55"/>
	</linearGradient>
	<polygon class="st8" points="93.2,77.3 93.7,77.2 139.3,56.1 141.7,38.9 141.3,38.6 95.6,57.7 	"/>
	
		<linearGradient id="SVGID_8_" gradientUnits="userSpaceOnUse" x1="1339.5388" y1="222.0882" x2="1339.5388" y2="257.8529" gradientTransform="matrix(-0.9915 -0.1302 -0.1302 0.9915 1454.8105 -3.8833)">
		<stop  offset="0" style="stop-color:#E65661"/>
		<stop  offset="0.5" style="stop-color:#F1BBA4"/>
		<stop  offset="1" style="stop-color:#E65661"/>
	</linearGradient>
	<polygon class="st9" points="93.7,77.2 96,57.7 95.1,57.6 92.7,77.4 	"/>
	<g>
		
			<linearGradient id="SVGID_9_" gradientUnits="userSpaceOnUse" x1="1365.1084" y1="207.2151" x2="1358.5226" y2="235.0782" gradientTransform="matrix(-0.9915 -0.1302 -0.1302 0.9915 1454.8105 -3.8833)">
			<stop  offset="0" style="stop-color:#732B2B"/>
			<stop  offset="0.3751" style="stop-color:#983A3D"/>
			<stop  offset="0.7881" style="stop-color:#BF484F"/>
			<stop  offset="1" style="stop-color:#CF4E55"/>
		</linearGradient>
		<polygon class="st10" points="10.2,37 95.6,57.7 141.3,38.6 140.9,38.2 59,21.3 10.7,36.6 		"/>
		
			<linearGradient id="SVGID_10_" gradientUnits="userSpaceOnUse" x1="1296.3784" y1="225.6329" x2="1427.3888" y2="225.6329" gradientTransform="matrix(-0.9915 -0.1302 -0.1302 0.9915 1454.8105 -3.8833)">
			<stop  offset="0" style="stop-color:#E65661"/>
			<stop  offset="0.5" style="stop-color:#F1BBA4"/>
			<stop  offset="1" style="stop-color:#E65661"/>
		</linearGradient>
		<polygon class="st11" points="95.7,58.1 95.6,58.2 9.7,37.4 10.7,36.6 95.5,57.1 140.9,38.2 141.7,38.9 		"/>
	</g>
	<polygon class="st6" points="31.2,138.7 41.5,63.9 54.1,67.2 43.7,142.4 44,143.3 31.5,139.7 	"/>
	<polygon class="st6" points="53.3,67 40.8,63.7 43.1,45.5 55.6,48.5 	"/>
	<polygon class="st6" points="100.4,29.8 56.5,47.7 55.6,48.5 43.1,45.5 44,44.7 89,27.5 	"/>
	
		<linearGradient id="SVGID_11_" gradientUnits="userSpaceOnUse" x1="1390.17" y1="233.7585" x2="1345.5927" y2="210.8018" gradientTransform="matrix(-0.9915 -0.1302 -0.1302 0.9915 1454.8105 -3.8833)">
		<stop  offset="0" style="stop-color:#D0B07C"/>
		<stop  offset="0.2703" style="stop-color:#F3D793"/>
		<stop  offset="1" style="stop-color:#F3D793"/>
	</linearGradient>
	<polygon class="st12" points="99.8,29.7 56,47.6 43.4,44.5 88.5,27.4 	"/>
	<polygon class="st6" points="121.1,64.5 113.8,135.1 113.4,136.2 105.5,141.2 105.9,140.1 113.4,68.1 	"/>
	<polygon class="st6" points="121.7,64.3 114.1,67.8 116.2,49.6 123.8,46.4 	"/>
	<polygon class="st6" points="123,45.6 123.8,46.4 116.2,49.6 115.4,48.8 31.6,30 40.4,27.2 	"/>
	
		<linearGradient id="SVGID_12_" gradientUnits="userSpaceOnUse" x1="1398.2231" y1="217.0319" x2="1314.339" y2="224.6875" gradientTransform="matrix(-0.9915 -0.1302 -0.1302 0.9915 1454.8105 -3.8833)">
		<stop  offset="0" style="stop-color:#D0B07C"/>
		<stop  offset="0.2703" style="stop-color:#F3D793"/>
		<stop  offset="1" style="stop-color:#F3D793"/>
	</linearGradient>
	<polygon class="st13" points="40.8,27.1 123.4,45.5 115.8,48.7 31.9,29.9 	"/>
	<g>
		<defs>
			<filter id="Adobe_OpacityMaskFilter" filterUnits="userSpaceOnUse" x="83.6" y="30.1" width="38" height="7.5">
				<feFlood  style="flood-color:white;flood-opacity:1" result="back"/>
				<feBlend  in="SourceGraphic" in2="back" mode="normal"/>
			</filter>
		</defs>
		<mask maskUnits="userSpaceOnUse" x="83.6" y="30.1" width="38" height="7.5" id="SVGID_13_">
			<g class="st14">
				<defs>
					<filter id="Adobe_OpacityMaskFilter_1_" filterUnits="userSpaceOnUse" x="83.6" y="30.1" width="38" height="7.5">
						<feFlood  style="flood-color:white;flood-opacity:1" result="back"/>
						<feBlend  in="SourceGraphic" in2="back" mode="normal"/>
					</filter>
				</defs>
				<mask maskUnits="userSpaceOnUse" x="83.6" y="30.1" width="38" height="7.5" id="SVGID_13_">
					<g class="st15">
					</g>
				</mask>
				
					<linearGradient id="SVGID_14_" gradientUnits="userSpaceOnUse" x1="1339.6206" y1="213.8369" x2="1326.7986" y2="212.4398" gradientTransform="matrix(-0.9915 -0.1302 -0.1302 0.9915 1454.8105 -3.8828)">
					<stop  offset="0" style="stop-color:#FFFFFF"/>
					<stop  offset="0.6112" style="stop-color:#646464"/>
					<stop  offset="1" style="stop-color:#000000"/>
				</linearGradient>
				<path class="st16" d="M83.6,31.9c5.8,0.4,12.4-0.1,18.2-1.8l19.8,4.1c-2.9,1.7-7.8,3.2-10.2,3.4c-6.3,0.4-23.6-4.3-23.6-4.3
					L83.6,31.9z"/>
			</g>
		</mask>
		
			<linearGradient id="SVGID_15_" gradientUnits="userSpaceOnUse" x1="1339.6206" y1="213.8374" x2="1326.7985" y2="212.4403" gradientTransform="matrix(-0.9915 -0.1302 -0.1302 0.9915 1454.8105 -3.8833)">
			<stop  offset="0" style="stop-color:#987338"/>
			<stop  offset="1" style="stop-color:#987338"/>
		</linearGradient>
		<path class="st17" d="M83.6,31.9c5.8,0.4,12.4-0.1,18.2-1.8l19.8,4.1c-2.9,1.7-7.8,3.2-10.2,3.4c-6.3,0.4-23.6-4.3-23.6-4.3
			L83.6,31.9z"/>
		
			<linearGradient id="SVGID_16_" gradientUnits="userSpaceOnUse" x1="1336.0197" y1="214.3641" x2="1334.995" y2="194.3826" gradientTransform="matrix(-0.9915 -0.1302 -0.1302 0.9915 1454.8105 -3.8828)">
			<stop  offset="0" style="stop-color:#654725"/>
			<stop  offset="0.5189" style="stop-color:#CEA44C"/>
			<stop  offset="1" style="stop-color:#654725"/>
		</linearGradient>
		<path class="st18" d="M102.5,14c0,0,14.4,1.7,18.1,6.2c6.6,7.9-2.6,14.7-8.8,15.6c-6.2,0.8-23.9-2.5-23.9-2.5l-4.3-1.1
			C99.7,32,114,26.6,102.5,14z"/>
		
			<linearGradient id="SVGID_17_" gradientUnits="userSpaceOnUse" x1="1337.7014" y1="214.2713" x2="1336.671" y2="194.1792" gradientTransform="matrix(-0.9915 -0.1302 -0.1302 0.9915 1454.8105 -3.8833)">
			<stop  offset="0" style="stop-color:#654725"/>
			<stop  offset="9.223300e-002" style="stop-color:#CEA44C"/>
			<stop  offset="0.1885" style="stop-color:#E9CA81"/>
			<stop  offset="0.2184" style="stop-color:#F3D793"/>
			<stop  offset="0.3973" style="stop-color:#D8B362"/>
			<stop  offset="0.4903" style="stop-color:#CEA44C"/>
			<stop  offset="0.8108" style="stop-color:#F4ECD2"/>
			<stop  offset="0.836" style="stop-color:#F1E5C5"/>
			<stop  offset="0.8838" style="stop-color:#E8D3A4"/>
			<stop  offset="0.9488" style="stop-color:#D9B975"/>
			<stop  offset="1" style="stop-color:#CEA44C"/>
		</linearGradient>
		<path class="st19" d="M87.9,33.3c14-12.1,25.8-20.4,32.7-13.1c-3.3-4.3-15.6-6-18.1-6.2c-11.1-0.9-17.1,12.7-19,18.2L87.9,33.3z"
			/>
	</g>
	<g>
		
			<linearGradient id="SVGID_18_" gradientUnits="userSpaceOnUse" x1="1100.1389" y1="229.3771" x2="1099.1143" y2="209.3956" gradientTransform="matrix(0.9629 0.2697 -0.2697 0.9629 -938.6489 -495.9686)">
			<stop  offset="0" style="stop-color:#654725"/>
			<stop  offset="0.5189" style="stop-color:#CEA44C"/>
			<stop  offset="1" style="stop-color:#654725"/>
		</linearGradient>
		<path class="st20" d="M66.7,2.5c0,0-13.9-4-19.1-1.4c-9.2,4.7-3.4,14.6,2,17.8C55,22.1,72.6,26,72.6,26l4.4,0.7
			C62.2,20.2,51.2,9.6,66.7,2.5z"/>
		
			<linearGradient id="SVGID_19_" gradientUnits="userSpaceOnUse" x1="1101.464" y1="222.3296" x2="1100.7335" y2="208.0854" gradientTransform="matrix(0.9629 0.2697 -0.2697 0.9629 -938.6487 -495.9681)">
			<stop  offset="0" style="stop-color:#654725"/>
			<stop  offset="9.223300e-002" style="stop-color:#CEA44C"/>
			<stop  offset="0.1885" style="stop-color:#E9CA81"/>
			<stop  offset="0.2184" style="stop-color:#F3D793"/>
			<stop  offset="0.3973" style="stop-color:#D8B362"/>
			<stop  offset="0.4903" style="stop-color:#CEA44C"/>
			<stop  offset="0.8108" style="stop-color:#F4ECD2"/>
			<stop  offset="0.836" style="stop-color:#F1E5C5"/>
			<stop  offset="0.8838" style="stop-color:#E8D3A4"/>
			<stop  offset="0.9488" style="stop-color:#D9B975"/>
			<stop  offset="1" style="stop-color:#CEA44C"/>
		</linearGradient>
		<path class="st21" d="M72.6,26C64.4,9.3,56.8-3,47.6,1c4.7-2.7,16.7,0.6,19.1,1.4C77.3,6,77.4,20.8,77,26.7L72.6,26z"/>
	</g>
	<g>
		
			<linearGradient id="SVGID_20_" gradientUnits="userSpaceOnUse" x1="1449.189" y1="173.8301" x2="1448.1642" y2="153.8484" gradientTransform="matrix(-0.8597 5.120000e-002 -2.920000e-002 0.9884 1342.3381 -221.103)">
			<stop  offset="0" style="stop-color:#654725"/>
			<stop  offset="0.5189" style="stop-color:#CEA44C"/>
			<stop  offset="1" style="stop-color:#654725"/>
		</linearGradient>
		<path class="st22" d="M89.9,4.7c0,0,12.5-0.9,16,2.8c6.3,6.5-1,14.8-6.3,16.8C94.4,26.2,79,26.1,79,26.1l-3.8-0.3
			C89,22.8,100.8,14.9,89.9,4.7z"/>
		
			<linearGradient id="SVGID_21_" gradientUnits="userSpaceOnUse" x1="1450.5198" y1="166.8016" x2="1449.7931" y2="152.6308" gradientTransform="matrix(-0.8597 5.120000e-002 -2.920000e-002 0.9884 1342.3422 -221.103)">
			<stop  offset="0" style="stop-color:#654725"/>
			<stop  offset="9.223300e-002" style="stop-color:#CEA44C"/>
			<stop  offset="0.1885" style="stop-color:#E9CA81"/>
			<stop  offset="0.2184" style="stop-color:#F3D793"/>
			<stop  offset="0.3973" style="stop-color:#D8B362"/>
			<stop  offset="0.4903" style="stop-color:#CEA44C"/>
			<stop  offset="0.8108" style="stop-color:#F4ECD2"/>
			<stop  offset="0.836" style="stop-color:#F1E5C5"/>
			<stop  offset="0.8838" style="stop-color:#E8D3A4"/>
			<stop  offset="0.9488" style="stop-color:#D9B975"/>
			<stop  offset="1" style="stop-color:#CEA44C"/>
		</linearGradient>
		<path class="st23" d="M79,26.1C90,11.8,99.4,1.6,105.9,7.5c-3.2-3.6-13.9-3.1-16-2.8c-9.6,1.1-13.6,15.4-14.7,21.2L79,26.1z"/>
	</g>
	<g>
		
			<linearGradient id="SVGID_22_" gradientUnits="userSpaceOnUse" x1="1134.3649" y1="210.5842" x2="1146.0779" y2="220.8177" gradientTransform="matrix(0.9828 0.1845 -0.1845 0.9828 -1020.6295 -399.558)">
			<stop  offset="0" style="stop-color:#976A38"/>
			<stop  offset="0.5189" style="stop-color:#F2BA5A"/>
			<stop  offset="1" style="stop-color:#976A38"/>
		</linearGradient>
		<path class="st24" d="M56.7,16.7c7.1,5.2,13,13.4,17.5,18.9l-3.6-1.6C64,25.7,56.8,18.2,47.5,11.7C52.8,14.8,53.9,15.5,56.7,16.7z
			"/>
		<defs>
			<filter id="Adobe_OpacityMaskFilter_2_" filterUnits="userSpaceOnUse" x="32.4" y="30.4" width="41.9" height="7.6">
				<feFlood  style="flood-color:white;flood-opacity:1" result="back"/>
				<feBlend  in="SourceGraphic" in2="back" mode="normal"/>
			</filter>
		</defs>
		<mask maskUnits="userSpaceOnUse" x="32.4" y="30.4" width="41.9" height="7.6" id="SVGID_23_">
			<g class="st25">
				<defs>
					<filter id="Adobe_OpacityMaskFilter_3_" filterUnits="userSpaceOnUse" x="31.9" y="30.2" width="42.3" height="8">
						<feFlood  style="flood-color:white;flood-opacity:1" result="back"/>
						<feBlend  in="SourceGraphic" in2="back" mode="normal"/>
					</filter>
				</defs>
				<mask maskUnits="userSpaceOnUse" x="31.9" y="30.2" width="42.3" height="8" id="SVGID_23_">
					<g class="st26">
					</g>
				</mask>
				
					<linearGradient id="SVGID_24_" gradientUnits="userSpaceOnUse" x1="1369.4862" y1="214.6849" x2="1387.2863" y2="219.7885" gradientTransform="matrix(-0.9915 -0.1302 -0.1302 0.9915 1454.8105 -3.8828)">
					<stop  offset="0" style="stop-color:#FFFFFF"/>
					<stop  offset="0.6112" style="stop-color:#646464"/>
					<stop  offset="1" style="stop-color:#000000"/>
				</linearGradient>
				<path class="st27" d="M70.5,34.5l3.7,1.2c-14,2.8-23.1,3.9-31.6,0.2c-2.5-1.1-7.1-3.7-10.7-5.6C43.3,33.9,57.9,34,70.5,34.5z"/>
			</g>
		</mask>
		
			<linearGradient id="SVGID_25_" gradientUnits="userSpaceOnUse" x1="1369.4142" y1="214.7835" x2="1387.0444" y2="219.8383" gradientTransform="matrix(-0.9915 -0.1302 -0.1302 0.9915 1454.8105 -3.8833)">
			<stop  offset="0" style="stop-color:#241D1B"/>
			<stop  offset="1" style="stop-color:#241D1B"/>
		</linearGradient>
		<path class="st28" d="M70.5,34.5l3.7,1.2c-14,2.8-23.1,3.6-31.5-0.1c-2.5-1.1-6.7-3.2-10.3-5.1C43.7,34.1,57.9,34,70.5,34.5z"/>
		
			<linearGradient id="SVGID_26_" gradientUnits="userSpaceOnUse" x1="1123.1176" y1="227.1504" x2="1151.4751" y2="224.9311" gradientTransform="matrix(0.9828 0.1845 -0.1845 0.9828 -1020.6296 -399.5582)">
			<stop  offset="0" style="stop-color:#654725"/>
			<stop  offset="0.5189" style="stop-color:#CEA44C"/>
			<stop  offset="1" style="stop-color:#654725"/>
		</linearGradient>
		<path class="st29" d="M70.6,34.1l3.6,1.6C60,37,50.9,36.9,42.8,32.4c-2.4-1.4-6.4-3.9-9.8-6.1C44,31.1,58.2,32.4,70.6,34.1z"/>
		
			<linearGradient id="SVGID_27_" gradientUnits="userSpaceOnUse" x1="1117.7139" y1="225.7188" x2="1125.358" y2="206.7315" gradientTransform="matrix(0.9828 0.1845 -0.1845 0.9828 -1020.6296 -399.5582)">
			<stop  offset="0" style="stop-color:#654725"/>
			<stop  offset="9.223300e-002" style="stop-color:#CEA44C"/>
			<stop  offset="0.1885" style="stop-color:#E9CA81"/>
			<stop  offset="0.2184" style="stop-color:#F3D793"/>
			<stop  offset="0.3973" style="stop-color:#D8B362"/>
			<stop  offset="0.4903" style="stop-color:#CEA44C"/>
			<stop  offset="0.8108" style="stop-color:#F4ECD2"/>
			<stop  offset="0.836" style="stop-color:#F1E5C5"/>
			<stop  offset="0.8838" style="stop-color:#E8D3A4"/>
			<stop  offset="0.9488" style="stop-color:#D9B975"/>
			<stop  offset="1" style="stop-color:#CEA44C"/>
		</linearGradient>
		<path class="st30" d="M47.5,11.7c-14.1-6.7-22,9.4-14.4,14.6c0,0,5.3,3.8,9.8,6.1c-5.1-4.8-3.9-13.6,6-16.7c2.8-0.9,6,0.3,7.8,1
			C53.2,14.8,51.7,13.7,47.5,11.7z"/>
	</g>
	<g>
		
			<linearGradient id="SVGID_28_" gradientUnits="userSpaceOnUse" x1="1338.7975" y1="205.1647" x2="1350.5094" y2="215.3972" gradientTransform="matrix(-0.9915 -0.1302 -0.1302 0.9915 1454.8105 -3.8833)">
			<stop  offset="0" style="stop-color:#654725"/>
			<stop  offset="0.5189" style="stop-color:#CEA44C"/>
			<stop  offset="1" style="stop-color:#654725"/>
		</linearGradient>
		<path class="st31" d="M99.4,24.8c-8.3,2.7-16.6,8.7-22.5,12.5l3.9-0.4c8.9-5.9,18.1-10.8,29-14.1C103.7,24.2,102.4,24.6,99.4,24.8
			z"/>
		<defs>
			<filter id="Adobe_OpacityMaskFilter_4_" filterUnits="userSpaceOnUse" x="81.7" y="38.6" width="41.5" height="9">
				<feFlood  style="flood-color:white;flood-opacity:1" result="back"/>
				<feBlend  in="SourceGraphic" in2="back" mode="normal"/>
			</filter>
		</defs>
		<mask maskUnits="userSpaceOnUse" x="81.7" y="38.6" width="41.5" height="9" id="SVGID_29_">
			<g class="st32">
				<defs>
					<filter id="Adobe_OpacityMaskFilter_5_" filterUnits="userSpaceOnUse" x="83.4" y="39.3" width="40.1" height="8.4">
						<feFlood  style="flood-color:white;flood-opacity:1" result="back"/>
						<feBlend  in="SourceGraphic" in2="back" mode="normal"/>
					</filter>
				</defs>
				<mask maskUnits="userSpaceOnUse" x="83.4" y="39.3" width="40.1" height="8.4" id="SVGID_29_">
					<g class="st33">
					</g>
				</mask>
				
					<linearGradient id="SVGID_30_" gradientUnits="userSpaceOnUse" x1="1215.1293" y1="173.6318" x2="1214.1956" y2="176.0996" gradientTransform="matrix(-0.9936 -0.1126 -0.1126 0.9936 1331.3334 9.4202)">
					<stop  offset="0" style="stop-color:#FFFFFF"/>
					<stop  offset="0.6112" style="stop-color:#646464"/>
					<stop  offset="1" style="stop-color:#000000"/>
				</linearGradient>
				<path class="st34" d="M86.7,39.3l-3.3,0.3c12.7,5.3,21.1,8.5,27.8,8.1c1-0.1,10.1-3.8,12.3-5C112,44.1,98.7,41.3,86.7,39.3z"/>
			</g>
		</mask>
		
			<linearGradient id="SVGID_31_" gradientUnits="userSpaceOnUse" x1="1333.5659" y1="224.3403" x2="1332.597" y2="226.9009" gradientTransform="matrix(-0.9915 -0.1302 -0.1302 0.9915 1454.8105 -3.8833)">
			<stop  offset="0" style="stop-color:#987338"/>
			<stop  offset="1" style="stop-color:#987338"/>
		</linearGradient>
		<path class="st35" d="M85,38.6l-3.4,0.2c13.1,5.7,22.6,9,29.4,8.7c1.1,0,9.8-3.5,12.1-4.7C111.3,44,97.4,40.8,85,38.6z"/>
		
			<linearGradient id="SVGID_32_" gradientUnits="userSpaceOnUse" x1="1327.551" y1="221.7295" x2="1355.9056" y2="219.5105" gradientTransform="matrix(-0.9915 -0.1302 -0.1302 0.9915 1454.8105 -3.8833)">
			<stop  offset="0" style="stop-color:#654725"/>
			<stop  offset="0.5189" style="stop-color:#CEA44C"/>
			<stop  offset="1" style="stop-color:#654725"/>
		</linearGradient>
		<path class="st36" d="M80.8,37l-3.9,0.4c13.1,5.7,21.8,8.5,30.8,6.7c2.7-0.6,7.3-1.7,11.2-2.8C107,42.4,93.2,39.3,80.8,37z"/>
		
			<linearGradient id="SVGID_33_" gradientUnits="userSpaceOnUse" x1="1322.1469" y1="220.2977" x2="1329.7905" y2="201.3119" gradientTransform="matrix(-0.9915 -0.1302 -0.1302 0.9915 1454.8105 -3.8833)">
			<stop  offset="0" style="stop-color:#654725"/>
			<stop  offset="9.223300e-002" style="stop-color:#CEA44C"/>
			<stop  offset="0.1885" style="stop-color:#E9CA81"/>
			<stop  offset="0.2184" style="stop-color:#F3D793"/>
			<stop  offset="0.3973" style="stop-color:#D8B362"/>
			<stop  offset="0.4903" style="stop-color:#CEA44C"/>
			<stop  offset="0.8108" style="stop-color:#F4ECD2"/>
			<stop  offset="0.836" style="stop-color:#F1E5C5"/>
			<stop  offset="0.8838" style="stop-color:#E8D3A4"/>
			<stop  offset="0.9488" style="stop-color:#D9B975"/>
			<stop  offset="1" style="stop-color:#CEA44C"/>
		</linearGradient>
		<path class="st37" d="M109.7,22.9c15.4-2,17.9,15.8,9.2,18.4c0,0-6.2,1.9-11.2,2.8c6.4-3,8-11.7-0.5-17.7
			c-2.4-1.7-5.8-1.6-7.8-1.5C103.4,24.1,105.2,23.5,109.7,22.9z"/>
	</g>
	<g>
		
			<linearGradient id="SVGID_34_" gradientUnits="userSpaceOnUse" x1="1355.9464" y1="213.5658" x2="1357.1042" y2="190.9891" gradientTransform="matrix(-0.9915 -0.1302 -0.1302 0.9915 1454.8105 -3.8833)">
			<stop  offset="0" style="stop-color:#654725"/>
			<stop  offset="0.5189" style="stop-color:#CEA44C"/>
			<stop  offset="1" style="stop-color:#654725"/>
		</linearGradient>
		<path class="st38" d="M81.9,7l13.6,1.2c-8.3,3.4-12.8,9.4-14.2,18.5L72,25.9C72.3,19.5,72.9,6.7,81.9,7z"/>
		
			<linearGradient id="SVGID_35_" gradientUnits="userSpaceOnUse" x1="1347.027" y1="207.1645" x2="1347.9423" y2="189.3163" gradientTransform="matrix(-0.9915 -0.1302 -0.1302 0.9915 1454.8105 -3.8828)">
			<stop  offset="0" style="stop-color:#654725"/>
			<stop  offset="9.223300e-002" style="stop-color:#CEA44C"/>
			<stop  offset="0.1885" style="stop-color:#E9CA81"/>
			<stop  offset="0.2184" style="stop-color:#F3D793"/>
			<stop  offset="0.3973" style="stop-color:#D8B362"/>
			<stop  offset="0.4903" style="stop-color:#CEA44C"/>
			<stop  offset="0.8108" style="stop-color:#F4ECD2"/>
			<stop  offset="0.836" style="stop-color:#F1E5C5"/>
			<stop  offset="0.8838" style="stop-color:#E8D3A4"/>
			<stop  offset="0.9488" style="stop-color:#D9B975"/>
			<stop  offset="1" style="stop-color:#CEA44C"/>
		</linearGradient>
		<path class="st39" d="M98.8,27.4c6.5-0.6,9.6-17.1-0.7-19.1C88.5,7.4,81.9,7,81.9,7c5.2,0.7,8,15.7-0.9,19.3
			C90.6,27,92.2,27.4,98.8,27.4z"/>
	</g>
	<g>
		
			<linearGradient id="SVGID_36_" gradientUnits="userSpaceOnUse" x1="1373.3392" y1="228.0562" x2="1371.3386" y2="197.8795" gradientTransform="matrix(-0.9915 -0.1302 -0.1302 0.9915 1454.8105 -3.8833)">
			<stop  offset="0" style="stop-color:#654725"/>
			<stop  offset="0.5189" style="stop-color:#CEA44C"/>
			<stop  offset="1" style="stop-color:#654725"/>
		</linearGradient>
		<path class="st40" d="M77.7,8.1L62.1,5.3c3.6,1.5,5.9,12,5.3,21.8l6.7,1.3C76,25.3,80.3,9.3,77.7,8.1z"/>
		
			<linearGradient id="SVGID_37_" gradientUnits="userSpaceOnUse" x1="1136.6387" y1="210.2281" x2="1137.6117" y2="191.2546" gradientTransform="matrix(0.9915 0.1302 -0.1302 0.9915 -1036.6359 -331.2725)">
			<stop  offset="0" style="stop-color:#654725"/>
			<stop  offset="9.223300e-002" style="stop-color:#CEA44C"/>
			<stop  offset="0.1885" style="stop-color:#E9CA81"/>
			<stop  offset="0.2184" style="stop-color:#F3D793"/>
			<stop  offset="0.3973" style="stop-color:#D8B362"/>
			<stop  offset="0.4903" style="stop-color:#CEA44C"/>
			<stop  offset="0.8108" style="stop-color:#F4ECD2"/>
			<stop  offset="0.836" style="stop-color:#F1E5C5"/>
			<stop  offset="0.8838" style="stop-color:#E8D3A4"/>
			<stop  offset="0.9488" style="stop-color:#D9B975"/>
			<stop  offset="1" style="stop-color:#CEA44C"/>
		</linearGradient>
		<path class="st41" d="M57,24.6c-6.2-2.3-5.4-20.1,5-19.3c9.5,1.5,15.6,2.8,15.6,2.8c-1.6,1.8-6.1,15.1-3.6,20.3
			C64.6,26.6,63.4,26.3,57,24.6z"/>
	</g>
	<defs>
		<filter id="Adobe_OpacityMaskFilter_6_" filterUnits="userSpaceOnUse" x="68.5" y="40.5" width="23.9" height="9.8">
			<feFlood  style="flood-color:white;flood-opacity:1" result="back"/>
			<feBlend  in="SourceGraphic" in2="back" mode="normal"/>
		</filter>
	</defs>
	<mask maskUnits="userSpaceOnUse" x="68.5" y="40.5" width="23.9" height="9.8" id="SVGID_38_">
		<g class="st42">
			<defs>
				<filter id="Adobe_OpacityMaskFilter_7_" filterUnits="userSpaceOnUse" x="68.4" y="40.3" width="24.2" height="10.3">
					<feFlood  style="flood-color:white;flood-opacity:1" result="back"/>
					<feBlend  in="SourceGraphic" in2="back" mode="normal"/>
				</filter>
			</defs>
			<mask maskUnits="userSpaceOnUse" x="68.4" y="40.3" width="24.2" height="10.3" id="SVGID_38_">
				<g class="st43">
				</g>
			</mask>
			
				<linearGradient id="SVGID_39_" gradientUnits="userSpaceOnUse" x1="1251.0221" y1="201.0092" x2="1250.7852" y2="205.9051" gradientTransform="matrix(-0.9906 -0.1367 -0.1367 0.9906 1347.4915 16.1463)">
				<stop  offset="0" style="stop-color:#FFFFFF"/>
				<stop  offset="0.189" style="stop-color:#BFBFBF"/>
				<stop  offset="0.6025" style="stop-color:#373737"/>
				<stop  offset="0.7838" style="stop-color:#000000"/>
			</linearGradient>
			<path class="st44" d="M91.3,50.6c1.4,0.2,2.6-2.6-2.9-7.6l-19.2-2.7c-0.8,3.5-1.3,7.6-0.7,8.2C78.2,49.3,83.6,48.7,91.3,50.6z"/>
		</g>
	</mask>
	
		<linearGradient id="SVGID_40_" gradientUnits="userSpaceOnUse" x1="1356.1649" y1="226.6383" x2="1355.9385" y2="231.3194" gradientTransform="matrix(-0.9915 -0.1302 -0.1302 0.9915 1454.8105 -3.8833)">
		<stop  offset="0" style="stop-color:#241D1B"/>
		<stop  offset="1" style="stop-color:#241D1B"/>
	</linearGradient>
	<path class="st45" d="M91.2,50.2c1.4,0.2,2.6-2.3-3-7.3l-18.9-2.5c-0.8,3.5-1.1,7.2-0.5,7.8C78.4,49.1,83.4,48.5,91.2,50.2z"/>
	
		<linearGradient id="SVGID_41_" gradientUnits="userSpaceOnUse" x1="1386.8534" y1="327.9994" x2="1386.8534" y2="233.3341" gradientTransform="matrix(-0.9915 -0.1302 -0.1302 0.9915 1454.8105 -3.8833)">
		<stop  offset="0" style="stop-color:#CFAA7B"/>
		<stop  offset="0.2703" style="stop-color:#F3D793"/>
		<stop  offset="0.6919" style="stop-color:#CEA44C"/>
		<stop  offset="1" style="stop-color:#FFF2BC"/>
	</linearGradient>
	<polygon class="st46" points="43.4,44.5 56,47.6 55.1,48.4 43.5,142.3 43.7,143.3 31.3,139.6 31,138.7 42.5,45.3 	"/>
	
		<linearGradient id="SVGID_42_" gradientUnits="userSpaceOnUse" x1="1316.1458" y1="316.3252" x2="1316.1458" y2="224.6236" gradientTransform="matrix(-0.9915 -0.1302 -0.1302 0.9915 1454.8105 -3.8833)">
		<stop  offset="0" style="stop-color:#CFAA7B"/>
		<stop  offset="0.2703" style="stop-color:#F3D793"/>
		<stop  offset="0.6919" style="stop-color:#CEA44C"/>
		<stop  offset="1" style="stop-color:#FFF2BC"/>
	</linearGradient>
	<polygon class="st47" points="115.8,48.7 123.4,45.5 124.1,46.2 124.1,46.2 124.1,46.2 113.8,135.1 113.4,136.2 105.5,141.2 
		105.9,140.1 116.5,49.4 	"/>
	<polygon class="st48" points="55.1,48.4 42.5,45.3 43.4,44.5 56,47.6 	"/>
	<polygon class="st48" points="124.1,46.2 116.5,49.4 115.8,48.7 123.4,45.5 	"/>
	<polygon class="st49" points="83.3,154.1 83.2,155 0.5,130.5 0,129.5 	"/>
	<g class="st50">
		<polygon class="st6" points="84.3,153.9 84.2,154.7 83.2,155 83.3,154.1 		"/>
		<polygon class="st49" points="130.8,124.2 130.2,125.6 84.2,154.7 84.3,153.9 		"/>
	</g>
	<g>
		<defs>
			<filter id="Adobe_OpacityMaskFilter_8_" filterUnits="userSpaceOnUse" x="39.4" y="37.3" width="34.8" height="9.7">
				<feFlood  style="flood-color:white;flood-opacity:1" result="back"/>
				<feBlend  in="SourceGraphic" in2="back" mode="normal"/>
			</filter>
		</defs>
		<mask maskUnits="userSpaceOnUse" x="39.4" y="37.3" width="34.8" height="9.7" id="SVGID_43_">
			<g class="st51">
				<defs>
					<filter id="Adobe_OpacityMaskFilter_9_" filterUnits="userSpaceOnUse" x="38.9" y="37.3" width="35.4" height="9.9">
						<feFlood  style="flood-color:white;flood-opacity:1" result="back"/>
						<feBlend  in="SourceGraphic" in2="back" mode="normal"/>
					</filter>
				</defs>
				<mask maskUnits="userSpaceOnUse" x="38.9" y="37.3" width="35.4" height="9.9" id="SVGID_43_">
					<g class="st52">
					</g>
				</mask>
				
					<linearGradient id="SVGID_44_" gradientUnits="userSpaceOnUse" x1="1381.0856" y1="231.2239" x2="1381.333" y2="233.1218" gradientTransform="matrix(-0.9915 -0.1302 -0.1302 0.9915 1454.8105 -3.8828)">
					<stop  offset="0" style="stop-color:#FFFFFF"/>
					<stop  offset="0.6112" style="stop-color:#646464"/>
					<stop  offset="1" style="stop-color:#000000"/>
				</linearGradient>
				<path class="st53" d="M74.2,38.8l-5.2-1.4c-10.4,6.5-21,7.2-30.2,6L53.5,47C58.1,48,62.6,45.9,74.2,38.8z"/>
			</g>
		</mask>
		
			<linearGradient id="SVGID_45_" gradientUnits="userSpaceOnUse" x1="1380.8046" y1="231.2176" x2="1381.0511" y2="233.1084" gradientTransform="matrix(-0.9915 -0.1302 -0.1302 0.9915 1454.8105 -3.8833)">
			<stop  offset="0" style="stop-color:#987338"/>
			<stop  offset="1" style="stop-color:#987338"/>
		</linearGradient>
		<path class="st54" d="M74.2,38.8l-5.2-1.4c-10.4,6.5-20.5,7.3-29.6,6.1L53,46.8C57.6,47.8,62.6,45.9,74.2,38.8z"/>
		
			<linearGradient id="SVGID_46_" gradientUnits="userSpaceOnUse" x1="1377.8821" y1="230.3039" x2="1375.1929" y2="218.6913" gradientTransform="matrix(-0.9915 -0.1302 -0.1302 0.9915 1454.8105 -3.8833)">
			<stop  offset="0" style="stop-color:#654725"/>
			<stop  offset="0.5189" style="stop-color:#CEA44C"/>
			<stop  offset="1" style="stop-color:#654725"/>
		</linearGradient>
		<path class="st55" d="M76.9,37.4l-5.2-1.4c-10.4,6.5-18.3,7.9-27.5,6.7l11.5,2.7C60.3,46.4,65.2,44.5,76.9,37.4z"/>
		
			<linearGradient id="SVGID_47_" gradientUnits="userSpaceOnUse" x1="1372.3563" y1="211.7818" x2="1371.6497" y2="221.2041" gradientTransform="matrix(-0.9915 -0.1302 -0.1302 0.9915 1454.8105 -3.8833)">
			<stop  offset="0" style="stop-color:#654725"/>
			<stop  offset="0.5189" style="stop-color:#CEA44C"/>
			<stop  offset="1" style="stop-color:#654725"/>
		</linearGradient>
		<path class="st56" d="M65.4,24.7c4.4,1.6,10.1,8.2,11.5,12.7l-5.2-1.4c-4-4.1-3.6-8.7-15.8-13.4C61.4,24.1,62.3,23.8,65.4,24.7z"
			/>
		
			<linearGradient id="SVGID_48_" gradientUnits="userSpaceOnUse" x1="1389.8665" y1="230.2203" x2="1385.6327" y2="207.5572" gradientTransform="matrix(-0.9915 -0.1302 -0.1302 0.9915 1454.8105 -3.8833)">
			<stop  offset="0" style="stop-color:#654725"/>
			<stop  offset="9.223300e-002" style="stop-color:#CEA44C"/>
			<stop  offset="0.1885" style="stop-color:#E9CA81"/>
			<stop  offset="0.2184" style="stop-color:#F3D793"/>
			<stop  offset="0.3973" style="stop-color:#D8B362"/>
			<stop  offset="0.4903" style="stop-color:#CEA44C"/>
			<stop  offset="0.8108" style="stop-color:#F4ECD2"/>
			<stop  offset="0.836" style="stop-color:#F1E5C5"/>
			<stop  offset="0.8838" style="stop-color:#E8D3A4"/>
			<stop  offset="0.9488" style="stop-color:#D9B975"/>
			<stop  offset="1" style="stop-color:#CEA44C"/>
		</linearGradient>
		<path class="st57" d="M55.7,45.4c-10.3-4.8-5.3-24.7,9.7-20.7c0,0-3.8-1.2-9.5-2.2C35,18.1,34.3,41.4,44.2,42.7L55.7,45.4z"/>
	</g>
	
		<linearGradient id="SVGID_49_" gradientUnits="userSpaceOnUse" x1="1355.0582" y1="227.7016" x2="1356.0441" y2="208.4774" gradientTransform="matrix(-0.9915 -0.1302 -0.1302 0.9915 1454.8105 -3.8833)">
		<stop  offset="0" style="stop-color:#654725"/>
		<stop  offset="9.223300e-002" style="stop-color:#CEA44C"/>
		<stop  offset="0.1885" style="stop-color:#E9CA81"/>
		<stop  offset="0.2184" style="stop-color:#F3D793"/>
		<stop  offset="0.3973" style="stop-color:#D8B362"/>
		<stop  offset="0.4903" style="stop-color:#CEA44C"/>
		<stop  offset="0.8108" style="stop-color:#F4ECD2"/>
		<stop  offset="0.836" style="stop-color:#F1E5C5"/>
		<stop  offset="0.8838" style="stop-color:#E8D3A4"/>
		<stop  offset="0.9488" style="stop-color:#D9B975"/>
		<stop  offset="1" style="stop-color:#CEA44C"/>
	</linearGradient>
	<path class="st58" d="M92.2,47.5c2.9-4.8,5.6-15.9,0-20.9c-9.6-1-20.1-1.4-20.1-1.4c-2.7,3.6-3.6,15.9-2.9,20
		C78.8,46,84.5,45.7,92.2,47.5z"/>
</g>
</svg>
