<?xml version="1.0" encoding="utf-8"?>
<!-- Generator: Adobe Illustrator 19.0.0, SVG Export Plug-In . SVG Version: 6.00 Build 0)  -->
<svg version="1.1" id="Layer_1" xmlns="http://www.w3.org/2000/svg" xmlns:xlink="http://www.w3.org/1999/xlink" x="0px" y="0px"
	 viewBox="0 0 77.7 89.9" style="enable-background:new 0 0 77.7 89.9;" xml:space="preserve" preserveAspectRatio="none">
<style type="text/css">
	.st0{fill:url(#SVGID_1_);}
	.st1{opacity:0.3;fill:#5A5858;}
	.st2{fill:url(#SVGID_2_);}
	.st3{fill:url(#SVGID_3_);}
	.st4{fill:url(#SVGID_4_);}
	.st5{fill:#FFF3C4;}
	.st6{fill:url(#SVGID_5_);}
	.st7{fill:url(#SVGID_6_);}
	.st8{fill:url(#SVGID_7_);}
	.st9{fill:url(#SVGID_8_);}
	.st10{filter:url(#Adobe_OpacityMaskFilter);}
	.st11{filter:url(#Adobe_OpacityMaskFilter_1_);}
	.st12{mask:url(#SVGID_9_);fill:url(#SVGID_10_);}
	.st13{opacity:0.5;fill:url(#SVGID_11_);}
	.st14{fill:url(#SVGID_12_);}
	.st15{filter:url(#Adobe_OpacityMaskFilter_2_);}
	.st16{filter:url(#Adobe_OpacityMaskFilter_3_);}
	.st17{mask:url(#SVGID_13_);fill:url(#SVGID_14_);}
	.st18{opacity:0.5;fill:url(#SVGID_15_);}
	.st19{fill:url(#SVGID_16_);}
	.st20{fill:url(#SVGID_17_);}
	.st21{filter:url(#Adobe_OpacityMaskFilter_4_);}
	.st22{filter:url(#Adobe_OpacityMaskFilter_5_);}
	.st23{mask:url(#SVGID_18_);fill:url(#SVGID_19_);}
	.st24{opacity:0.5;fill:url(#SVGID_20_);}
	.st25{fill:url(#SVGID_21_);}
	.st26{fill:url(#SVGID_22_);}
	.st27{fill:url(#SVGID_23_);}
	.st28{fill:url(#SVGID_24_);}
	.st29{fill:url(#SVGID_25_);}
	.st30{fill:url(#SVGID_26_);}
	.st31{fill:url(#SVGID_27_);}
	.st32{filter:url(#Adobe_OpacityMaskFilter_6_);}
	.st33{filter:url(#Adobe_OpacityMaskFilter_7_);}
	.st34{mask:url(#SVGID_28_);fill:url(#SVGID_29_);}
	.st35{opacity:0.5;fill:url(#SVGID_30_);}
	.st36{fill:url(#SVGID_31_);}
	.st37{fill:url(#SVGID_32_);}
	.st38{fill:url(#SVGID_33_);}
	.st39{filter:url(#Adobe_OpacityMaskFilter_8_);}
	.st40{filter:url(#Adobe_OpacityMaskFilter_9_);}
	.st41{mask:url(#SVGID_34_);fill:url(#SVGID_35_);}
	.st42{opacity:0.5;fill:url(#SVGID_36_);}
	.st43{fill:url(#SVGID_37_);}
	.st44{fill:url(#SVGID_38_);}
	.st45{fill:url(#SVGID_39_);}
	.st46{fill:url(#SVGID_40_);}
	.st47{fill:url(#SVGID_41_);}
	.st48{fill:url(#SVGID_42_);}
	.st49{filter:url(#Adobe_OpacityMaskFilter_10_);}
	.st50{filter:url(#Adobe_OpacityMaskFilter_11_);}
	.st51{mask:url(#SVGID_43_);fill:url(#SVGID_44_);}
	.st52{opacity:0.5;fill:url(#SVGID_45_);}
	.st53{fill:url(#SVGID_46_);}
	.st54{fill:url(#SVGID_47_);}
	.st55{fill:url(#SVGID_48_);}
	.st56{filter:url(#Adobe_OpacityMaskFilter_12_);}
	.st57{filter:url(#Adobe_OpacityMaskFilter_13_);}
	.st58{mask:url(#SVGID_49_);fill:url(#SVGID_50_);}
	.st59{opacity:0.5;fill:url(#SVGID_51_);}
	.st60{fill:url(#SVGID_52_);}
</style>
<g>
	<g>
		
			<linearGradient id="SVGID_1_" gradientUnits="userSpaceOnUse" x1="-132.0563" y1="385.9927" x2="-67.0867" y2="385.9927" gradientTransform="matrix(0.9878 0.1555 -0.1555 0.9878 197.3782 -311.664)">
			<stop  offset="0" style="stop-color:#2D83C0"/>
			<stop  offset="7.383631e-002" style="stop-color:#308EC7"/>
			<stop  offset="0.2219" style="stop-color:#39ACD9"/>
			<stop  offset="0.3243" style="stop-color:#40C5E8"/>
			<stop  offset="0.3557" style="stop-color:#3EB4D9"/>
			<stop  offset="0.4193" style="stop-color:#369AC3"/>
			<stop  offset="0.4876" style="stop-color:#3185B2"/>
			<stop  offset="0.5606" style="stop-color:#2D76A5"/>
			<stop  offset="0.6398" style="stop-color:#2A6B9D"/>
			<stop  offset="0.7283" style="stop-color:#276397"/>
			<stop  offset="0.8338" style="stop-color:#265F93"/>
			<stop  offset="1" style="stop-color:#255E92"/>
		</linearGradient>
		<path class="st0" d="M44.4,20c-17.7-2.8-32.1-5-32.7-1l-9,57C2,80,15.9,85.5,33.6,88.3c17.7,2.8,32.6,1.8,33.2-2.2l9-57
			C76.4,25.1,62.1,22.8,44.4,20z"/>
		<g>
			<path class="st1" d="M44.4,20c-17.7-2.8-32.1-5-32.7-1l-0.9,5.5c3.1,3.8,15.7,8.3,31.2,10.7c15.5,2.4,28.9,2.1,33-0.6l0.9-5.5
				C76.4,25.1,62.1,22.8,44.4,20z"/>
			
				<linearGradient id="SVGID_2_" gradientUnits="userSpaceOnUse" x1="-133.0469" y1="354.2032" x2="-66.0988" y2="354.2032" gradientTransform="matrix(0.9878 0.1555 -0.1555 0.9878 197.3782 -311.664)">
				<stop  offset="0" style="stop-color:#2D83C0"/>
				<stop  offset="7.383631e-002" style="stop-color:#308EC7"/>
				<stop  offset="0.2219" style="stop-color:#39ACD9"/>
				<stop  offset="0.3243" style="stop-color:#40C5E8"/>
				<stop  offset="0.3557" style="stop-color:#3EB4D9"/>
				<stop  offset="0.4193" style="stop-color:#369AC3"/>
				<stop  offset="0.4876" style="stop-color:#3185B2"/>
				<stop  offset="0.5606" style="stop-color:#2D76A5"/>
				<stop  offset="0.6398" style="stop-color:#2A6B9D"/>
				<stop  offset="0.7283" style="stop-color:#276397"/>
				<stop  offset="0.8338" style="stop-color:#265F93"/>
				<stop  offset="1" style="stop-color:#255E92"/>
			</linearGradient>
			<path class="st2" d="M45.8,11.1c-18.3-2.9-33.6-1.9-34.2,2.3l-1.3,8.4c-0.6,4.1,13.6,9.8,31.9,12.7c18.3,2.9,33.6,1.9,34.2-2.3
				l1.3-8.4C78.3,19.6,64,13.9,45.8,11.1z"/>
			<g>
				
					<linearGradient id="SVGID_3_" gradientUnits="userSpaceOnUse" x1="-105.4922" y1="362.1765" x2="-95.6727" y2="341.8677" gradientTransform="matrix(0.9878 0.1555 -0.1555 0.9878 197.3782 -311.664)">
					<stop  offset="0" style="stop-color:#40C5E8"/>
					<stop  offset="0.1959" style="stop-color:#3AA5CD"/>
					<stop  offset="0.4649" style="stop-color:#3183B1"/>
					<stop  offset="0.6984" style="stop-color:#2B6E9F"/>
					<stop  offset="0.8845" style="stop-color:#266296"/>
					<stop  offset="1" style="stop-color:#255E92"/>
				</linearGradient>
				<path class="st3" d="M77.7,23.7c-0.6,4.1-16,5.1-34.2,2.3c-18.3-2.9-32.5-8.5-31.9-12.7c0.6-4.1,16-5.1,34.2-2.3
					C64,13.9,78.3,19.6,77.7,23.7z"/>
			</g>
		</g>
		<g>
			
				<linearGradient id="SVGID_4_" gradientUnits="userSpaceOnUse" x1="-133.0472" y1="353.8947" x2="-66.0989" y2="353.8947" gradientTransform="matrix(0.9878 0.1555 -0.1555 0.9878 197.3782 -311.664)">
				<stop  offset="0" style="stop-color:#40C5E8"/>
				<stop  offset="0.3" style="stop-color:#40C5E8"/>
				<stop  offset="0.4666" style="stop-color:#3AAEDA"/>
				<stop  offset="0.6985" style="stop-color:#3297CC"/>
				<stop  offset="0.8845" style="stop-color:#2E88C3"/>
				<stop  offset="1" style="stop-color:#2D83C0"/>
			</linearGradient>
			<path class="st4" d="M43.4,26.2c16.5,2.6,30.3,2.1,34-0.9l0.2-1.5c-1.1,3.8-16.5,4.7-34.2,1.9c-17.6-2.8-32.1-8.4-31.9-12.3
				l-0.2,1.5C13.9,18.9,26.9,23.6,43.4,26.2z"/>
		</g>
		<path class="st1" d="M22.5,29.8c-1.8-0.6-3.5-1.2-5-1.9L8.9,81.6c1.1,0.5,2.3,0.9,3.6,1.4c0.3,0.1,0.7,0.3,1,0.4c0,0,0,0,0,0
			l-0.2-0.9L22.5,29.8z"/>
		<path class="st1" d="M60.8,36l-7.9,53.1c0,0-0.6,0.7-0.6,0.7c2.1,0,3.8-0.1,5.1-0.2l0.4-0.7l7.9-53.1C64.2,36,62.6,36.1,60.8,36z"
			/>
		<path class="st1" d="M67.4,27.8c0,0,0.1,0,0.1,0l-0.4-0.6h0L31.7,9.6c-1.8-0.1-3.5-0.1-5.1-0.2L62,27.4l0.3,0.6L61.1,36
			c1.9,0,3.6-0.1,5.2-0.2L67.4,27.8z"/>
		<path class="st5" d="M62.6,27.9c1.9,0,3.6-0.1,5.3-0.2l-0.3-0.6c-1.6,0.1-3.4,0.2-5.3,0.2L62.6,27.9z"/>
		<path class="st1" d="M65.4,15.7L19,19.2l-0.3,0.5l-1.3,8.1c1.4,0.6,2.9,1.2,4.6,1.8l1.5-8.1c-0.7-0.2-0.7-0.2,0,0c0,0,0,0,0,0
			l0.2-0.5l45.9-3.8C68.3,16.7,67,16.2,65.4,15.7z"/>
		<path class="st1" d="M33.7,87.6C16,84.8,2.2,79.3,2.8,75.3L2.7,76C2,80,15.9,85.5,33.6,88.3c17.7,2.8,32.6,1.8,33.2-2.2l0.1-0.7
			C66.3,89.4,51.5,90.4,33.7,87.6z"/>
		
			<linearGradient id="SVGID_5_" gradientUnits="userSpaceOnUse" x1="-111.4487" y1="342.2502" x2="-80.434" y2="357.5406" gradientTransform="matrix(0.9878 0.1555 -0.1555 0.9878 197.3782 -311.664)">
			<stop  offset="0" style="stop-color:#BD6828"/>
			<stop  offset="0.2703" style="stop-color:#F5AC1C"/>
			<stop  offset="1" style="stop-color:#F4AB1C"/>
		</linearGradient>
		<path class="st6" d="M62.3,27.3c1.9,0,3.7,0,5.3-0.2h0h0L31.8,9.6c-1.8-0.1-3.5-0.1-5.1-0.1L62.3,27.3z"/>
		
			<linearGradient id="SVGID_6_" gradientUnits="userSpaceOnUse" x1="-79.6876" y1="342.3798" x2="-120.6962" y2="356.4236" gradientTransform="matrix(0.9878 0.1555 -0.1555 0.9878 197.3782 -311.664)">
			<stop  offset="0" style="stop-color:#BD6828"/>
			<stop  offset="0.2703" style="stop-color:#F5AC1C"/>
			<stop  offset="1" style="stop-color:#F4AB1C"/>
		</linearGradient>
		<path class="st7" d="M65,15.5l-46.8,3.4c1.5,0.7,3.1,1.3,5,2l46-3.8C67.8,16.5,66.5,16,65,15.5z"/>
		
			<linearGradient id="SVGID_7_" gradientUnits="userSpaceOnUse" x1="-77.983" y1="416.728" x2="-77.983" y2="356.0106" gradientTransform="matrix(0.9878 0.1555 -0.1555 0.9878 197.3782 -311.664)">
			<stop  offset="0" style="stop-color:#BD6828"/>
			<stop  offset="0.2703" style="stop-color:#F3991F"/>
			<stop  offset="0.6919" style="stop-color:#F4AB1C"/>
			<stop  offset="1" style="stop-color:#FEE793"/>
		</linearGradient>
		<path class="st8" d="M53.1,89.2l-0.7,0.7c1.7,0,3.9-0.1,5.4-0.2l0.5-0.7l9.6-61.2c-1.6,0.1-3.4,0.2-5.3,0.2L53.1,89.2z"/>
		<path class="st5" d="M18.2,18.9l-0.3,0.5c1.5,0.7,3.2,1.4,5.1,2l0.2-0.5C21.3,20.2,19.6,19.6,18.2,18.9z"/>
		
			<linearGradient id="SVGID_8_" gradientUnits="userSpaceOnUse" x1="-123.0329" y1="417.8564" x2="-123.0329" y2="358.1335" gradientTransform="matrix(0.9878 0.1555 -0.1555 0.9878 197.3782 -311.664)">
			<stop  offset="0.5351" style="stop-color:#BD6828"/>
			<stop  offset="0.6919" style="stop-color:#F4AB1C"/>
			<stop  offset="1" style="stop-color:#FEE793"/>
		</linearGradient>
		<path class="st9" d="M23,21.4C22.9,21.4,22.9,21.4,23,21.4c-1.9-0.7-3.6-1.3-5.1-2L8.4,80.6c0,0,0,0.7,0.2,0.8
			c1.2,0.5,2.5,1.1,3.9,1.6c0.3,0.1,0.7,0.3,1.1,0.4c0,0,0,0,0,0l-0.2-0.9L23,21.4z"/>
	</g>
	<defs>
		<filter id="Adobe_OpacityMaskFilter" filterUnits="userSpaceOnUse" x="45.2" y="16.7" width="10.9" height="27.7">
			<feFlood  style="flood-color:white;flood-opacity:1" result="back"/>
			<feBlend  in="SourceGraphic" in2="back" mode="normal"/>
		</filter>
	</defs>
	<mask maskUnits="userSpaceOnUse" x="45.2" y="16.7" width="10.9" height="27.7" id="SVGID_9_">
		<g class="st10">
			<defs>
				<filter id="Adobe_OpacityMaskFilter_1_" filterUnits="userSpaceOnUse" x="45.2" y="16.7" width="11.2" height="27.9">
					<feFlood  style="flood-color:white;flood-opacity:1" result="back"/>
					<feBlend  in="SourceGraphic" in2="back" mode="normal"/>
				</filter>
			</defs>
			<mask maskUnits="userSpaceOnUse" x="45.2" y="16.7" width="11.2" height="27.9" id="SVGID_9_">
				<g class="st11">
				</g>
			</mask>
			
				<linearGradient id="SVGID_10_" gradientUnits="userSpaceOnUse" x1="-36.2517" y1="761.9741" x2="-31.1821" y2="777.3564" gradientTransform="matrix(0.8636 0.504 -0.504 0.8636 467.5407 -615.7759)">
				<stop  offset="0" style="stop-color:#FFFFFF"/>
				<stop  offset="0.6112" style="stop-color:#646464"/>
				<stop  offset="1" style="stop-color:#000000"/>
			</linearGradient>
			<path class="st12" d="M45.7,16.7c3.6,1.5,8.4,6.6,9.4,8.7c1.4,2.9,1.1,6.1-0.7,9c-1.9,2.9,1.2,9,2,9.3c-1.7,0.3-4.1-1.3-4.1-1.3
				c-0.5,0.6-0.5,1.3-0.8,2.3c-1.6-1.3-4.5-5.7-1.9-10.6c3.5-6.5,1.9-10.1-4.4-17L45.7,16.7z"/>
		</g>
	</mask>
	
		<linearGradient id="SVGID_11_" gradientUnits="userSpaceOnUse" x1="-36.4507" y1="761.981" x2="-31.4301" y2="777.2148" gradientTransform="matrix(0.8636 0.504 -0.504 0.8636 467.5407 -615.7759)">
		<stop  offset="0" style="stop-color:#5A5858"/>
		<stop  offset="1" style="stop-color:#5A5858"/>
	</linearGradient>
	<path class="st13" d="M45.7,16.7c3.6,1.5,8.4,6.6,9.4,8.7c1.4,2.9,0.9,6.1-0.9,9c-1.9,2.9,0.9,8.4,2,9c-1.8-0.2-3.6-1.4-3.6-1.4
		c-0.5,0.6-0.7,1.5-1,2.4c-1.6-1.3-4.3-5.3-1.7-10.2c3.5-6.5,1.8-10.2-4.6-17.1L45.7,16.7z"/>
	
		<linearGradient id="SVGID_12_" gradientUnits="userSpaceOnUse" x1="-85.9483" y1="237.5692" x2="-82.8872" y2="262.9569" gradientTransform="matrix(0.998 6.390000e-002 -6.390000e-002 0.998 152.8604 -214.7535)">
		<stop  offset="0" style="stop-color:#BD6828"/>
		<stop  offset="0.2595" style="stop-color:#F4AB1C"/>
		<stop  offset="0.4054" style="stop-color:#FEE793"/>
		<stop  offset="0.6054" style="stop-color:#F4AB1C"/>
		<stop  offset="0.7838" style="stop-color:#D67727"/>
		<stop  offset="0.8706" style="stop-color:#E49024"/>
		<stop  offset="0.9508" style="stop-color:#F0A41F"/>
		<stop  offset="1" style="stop-color:#F4AB1C"/>
	</linearGradient>
	<path class="st14" d="M45.7,16.7c3.8,1.1,9.2,5.6,10.5,7.6c1.7,2.7,1.9,5.9,0.4,9c-1.5,3.1,1.4,8.2,3.5,9.5c-2,0-3.9-1.6-3.9-1.6
		C56,41.9,56,43,56.1,44.4c-1.8-1.1-6.3-5.8-4.3-10.9c2.7-6.8,0.6-10.2-6.5-16.4L45.7,16.7z"/>
	<defs>
		<filter id="Adobe_OpacityMaskFilter_2_" filterUnits="userSpaceOnUse" x="10.2" y="14.1" width="32.9" height="14">
			<feFlood  style="flood-color:white;flood-opacity:1" result="back"/>
			<feBlend  in="SourceGraphic" in2="back" mode="normal"/>
		</filter>
	</defs>
	<mask maskUnits="userSpaceOnUse" x="10.2" y="14.1" width="32.9" height="14" id="SVGID_13_">
		<g class="st15">
			<defs>
				<filter id="Adobe_OpacityMaskFilter_3_" filterUnits="userSpaceOnUse" x="10.2" y="14" width="32.9" height="14.2">
					<feFlood  style="flood-color:white;flood-opacity:1" result="back"/>
					<feBlend  in="SourceGraphic" in2="back" mode="normal"/>
				</filter>
			</defs>
			<mask maskUnits="userSpaceOnUse" x="10.2" y="14" width="32.9" height="14.2" id="SVGID_13_">
				<g class="st16">
				</g>
			</mask>
			
				<linearGradient id="SVGID_14_" gradientUnits="userSpaceOnUse" x1="-112.5017" y1="346.9745" x2="-130.5055" y2="362.9377" gradientTransform="matrix(0.9878 0.1555 -0.1555 0.9878 197.3782 -311.664)">
				<stop  offset="0" style="stop-color:#FFFFFF"/>
				<stop  offset="0.6112" style="stop-color:#646464"/>
				<stop  offset="1" style="stop-color:#000000"/>
			</linearGradient>
			<path class="st17" d="M17.8,14.6c-2.6,0.8-4.8,2.4-6.1,4.6l-1.4,9.1c1.5-0.9,3-2.2,3.9-4.2c1.1-2.3,4.5-6.5,9-7
				c4.5-0.5,12.9-1.1,20-1.4l0-0.5C39.4,13.6,20.2,13.9,17.8,14.6z"/>
		</g>
	</mask>
	
		<linearGradient id="SVGID_15_" gradientUnits="userSpaceOnUse" x1="-112.3986" y1="347.0567" x2="-130.3537" y2="362.9767" gradientTransform="matrix(0.9878 0.1555 -0.1555 0.9878 197.3782 -311.664)">
		<stop  offset="0" style="stop-color:#5A5858"/>
		<stop  offset="1" style="stop-color:#5A5858"/>
	</linearGradient>
	<path class="st18" d="M18,14.7c-2.6,0.8-5,2.5-6.4,4.8l-1.4,8.6c1.5-0.9,3.1-2.5,4-4.5c1.1-2.3,4.4-6.1,8.9-6.6
		c4.5-0.5,12.9-1.1,20-1.4l0-0.5C39.4,13.6,20.4,14,18,14.7z"/>
	
		<linearGradient id="SVGID_16_" gradientUnits="userSpaceOnUse" x1="-115.8047" y1="345.8216" x2="-133.3076" y2="369.5648" gradientTransform="matrix(0.9878 0.1555 -0.1555 0.9878 197.3782 -311.664)">
		<stop  offset="0" style="stop-color:#BD6828"/>
		<stop  offset="9.249535e-002" style="stop-color:#CE7E26"/>
		<stop  offset="0.2259" style="stop-color:#E89D20"/>
		<stop  offset="0.2973" style="stop-color:#F4AB1C"/>
		<stop  offset="0.4649" style="stop-color:#FEE793"/>
		<stop  offset="0.6432" style="stop-color:#F4AB1C"/>
		<stop  offset="0.7784" style="stop-color:#D67727"/>
		<stop  offset="0.8271" style="stop-color:#DE8426"/>
		<stop  offset="0.9397" style="stop-color:#EEA020"/>
		<stop  offset="1" style="stop-color:#F4AB1C"/>
	</linearGradient>
	<path class="st19" d="M43.1,15c-3.4-1.8-21-2.6-25.1-1.8c-3.4,0.6-6.2,2.6-7.8,5.6c-1.8,3.4-7.7,5-10.2,4.7
		c1.7,0.8,4.1,1.3,4.1,1.3c-0.4,0.6-1.3,1.4-2.4,2.3c2.6-0.1,8.5-0.5,11.5-5c1.5-2.1,3.9-5.7,8.7-5.8c4.3-0.1,14.1-0.9,21.2-0.8
		L43.1,15z"/>
	<g>
		
			<linearGradient id="SVGID_17_" gradientUnits="userSpaceOnUse" x1="1926.123" y1="428.0005" x2="1926.2737" y2="423.2448" gradientTransform="matrix(-0.9731 -0.2304 -0.2304 0.9731 2018.9006 32.3019)">
			<stop  offset="0" style="stop-color:#BD6828"/>
			<stop  offset="0.2703" style="stop-color:#F5AC1C"/>
			<stop  offset="0.5189" style="stop-color:#F29820"/>
			<stop  offset="0.7892" style="stop-color:#FEE793"/>
			<stop  offset="1" style="stop-color:#F4AB1C"/>
		</linearGradient>
		<path class="st20" d="M47.4,12.4c1.5-6.1,1.7-10.2,2-11.4c-0.5-0.4-4-1.1-5.4-1c-0.2,0.2-1.3,6.8,1,11.7L47.4,12.4z"/>
		<g>
			<defs>
				<filter id="Adobe_OpacityMaskFilter_4_" filterUnits="userSpaceOnUse" x="47.8" y="15.7" width="15.5" height="3.7">
					<feFlood  style="flood-color:white;flood-opacity:1" result="back"/>
					<feBlend  in="SourceGraphic" in2="back" mode="normal"/>
				</filter>
			</defs>
			<mask maskUnits="userSpaceOnUse" x="47.8" y="15.7" width="15.5" height="3.7" id="SVGID_18_">
				<g class="st21">
					<defs>
						<filter id="Adobe_OpacityMaskFilter_5_" filterUnits="userSpaceOnUse" x="47.8" y="15.7" width="15.9" height="3.7">
							<feFlood  style="flood-color:white;flood-opacity:1" result="back"/>
							<feBlend  in="SourceGraphic" in2="back" mode="normal"/>
						</filter>
					</defs>
					<mask maskUnits="userSpaceOnUse" x="47.8" y="15.7" width="15.9" height="3.7" id="SVGID_18_">
						<g class="st22">
						</g>
					</mask>
					
						<linearGradient id="SVGID_19_" gradientUnits="userSpaceOnUse" x1="1964.3031" y1="506.8294" x2="1958.6886" y2="506.2177" gradientTransform="matrix(-0.9337 -0.2499 -0.282 1.0535 2031.0375 -25.8652)">
						<stop  offset="0" style="stop-color:#FFFFFF"/>
						<stop  offset="0.6112" style="stop-color:#646464"/>
						<stop  offset="1" style="stop-color:#000000"/>
					</linearGradient>
					<path class="st23" d="M47.8,15.7c2.6,0.5,5.8,0.7,8.6,0.2l7.4,2.4c-1.5,0.7-3.8,1.2-4.9,1.2C55.9,19.3,48.3,16,48.3,16
						L47.8,15.7z"/>
				</g>
			</mask>
			
				<linearGradient id="SVGID_20_" gradientUnits="userSpaceOnUse" x1="1964.4772" y1="506.8902" x2="1959.0151" y2="506.295" gradientTransform="matrix(-0.9337 -0.2499 -0.282 1.0535 2031.0375 -25.8652)">
				<stop  offset="0" style="stop-color:#5A5858"/>
				<stop  offset="1" style="stop-color:#5A5858"/>
			</linearGradient>
			<path class="st24" d="M47.8,15.7c2.6,0.5,5.9,0.9,8.7,0.3l6.8,2.2c-1.5,0.7-3.5,1.2-4.6,1.1C55.8,19.3,48.3,16,48.3,16L47.8,15.7
				z"/>
			
				<linearGradient id="SVGID_21_" gradientUnits="userSpaceOnUse" x1="1963.6827" y1="507.0889" x2="1963.191" y2="497.5002" gradientTransform="matrix(-0.9337 -0.2499 -0.282 1.0535 2031.0375 -25.8652)">
				<stop  offset="0" style="stop-color:#965223"/>
				<stop  offset="0.5189" style="stop-color:#F29820"/>
				<stop  offset="1" style="stop-color:#965223"/>
			</linearGradient>
			<path class="st25" d="M56.4,7c0,0,6.5,1.6,7.8,4.1c2.4,4.4-4.4,7-7.3,7.2c-3.5,0.2-8.7-2.2-8.7-2.2l-1.9-0.8
				C59.1,18.6,66.6,12.1,56.4,7z"/>
			
				<linearGradient id="SVGID_22_" gradientUnits="userSpaceOnUse" x1="1964.2885" y1="506.902" x2="1963.8016" y2="497.4079" gradientTransform="matrix(-0.9337 -0.2499 -0.282 1.0535 2031.0375 -25.8652)">
				<stop  offset="0" style="stop-color:#BD6828"/>
				<stop  offset="0.2703" style="stop-color:#F5AC1C"/>
				<stop  offset="0.5189" style="stop-color:#F29820"/>
				<stop  offset="0.7892" style="stop-color:#FEE793"/>
				<stop  offset="1" style="stop-color:#F4AB1C"/>
			</linearGradient>
			<path class="st26" d="M48.3,16c7.3-5.4,13.3-9,16-4.9c-1.2-2.4-6.7-3.9-7.8-4.1c-5-1.1-8.8,5.5-10,8.3L48.3,16z"/>
		</g>
		<g>
			
				<linearGradient id="SVGID_23_" gradientUnits="userSpaceOnUse" x1="549.1309" y1="849.4958" x2="548.6492" y2="840.1035" gradientTransform="matrix(0.8153 0.579 -0.579 0.8153 81.7466 -999.5375)">
				<stop  offset="0" style="stop-color:#965223"/>
				<stop  offset="0.5189" style="stop-color:#F29820"/>
				<stop  offset="1" style="stop-color:#965223"/>
			</linearGradient>
			<path class="st27" d="M42.7,2.9c0,0-4.1-3.1-6.8-2.8C31,0.7,32,6,33.9,8.3s9.1,6.8,9.1,6.8l1.9,1C35.2,9.7,34.3,0,42.7,2.9z"/>
			
				<linearGradient id="SVGID_24_" gradientUnits="userSpaceOnUse" x1="549.7684" y1="846.1828" x2="549.4251" y2="839.4891" gradientTransform="matrix(0.8153 0.579 -0.579 0.8153 81.7466 -999.5375)">
				<stop  offset="0" style="stop-color:#BD6828"/>
				<stop  offset="0.2703" style="stop-color:#F5AC1C"/>
				<stop  offset="0.5189" style="stop-color:#F29820"/>
				<stop  offset="0.7892" style="stop-color:#FEE793"/>
				<stop  offset="1" style="stop-color:#F4AB1C"/>
			</linearGradient>
			<path class="st28" d="M43,15.1c-1-8.7-2.4-15.3-7.2-15c2.5-0.4,5.9,2,6.8,2.8c4.2,3.2,3.4,10.8,2.2,13.3L43,15.1z"/>
		</g>
		<g>
			
				<linearGradient id="SVGID_25_" gradientUnits="userSpaceOnUse" x1="2022.9678" y1="61.1191" x2="2022.4879" y2="51.7615" gradientTransform="matrix(-0.8508 0.1335 6.570000e-002 0.9866 1769.3583 -317.8319)">
				<stop  offset="0" style="stop-color:#965223"/>
				<stop  offset="0.5189" style="stop-color:#F29820"/>
				<stop  offset="1" style="stop-color:#965223"/>
			</linearGradient>
			<path class="st29" d="M51.8,3.1c0,0,4.7-0.9,6.6,0.6c3.3,2.8,0.2,7-2.2,8.1c-2.4,1.1-9.7,1.8-9.7,1.8l-1.8,0
				C54.7,12.7,61.3,5,51.8,3.1z"/>
			
				<linearGradient id="SVGID_26_" gradientUnits="userSpaceOnUse" x1="2023.6047" y1="57.8274" x2="2023.2645" y2="51.193" gradientTransform="matrix(-0.8508 0.1335 6.570000e-002 0.9866 1769.3583 -317.8317)">
				<stop  offset="0" style="stop-color:#BD6828"/>
				<stop  offset="0.2703" style="stop-color:#F5AC1C"/>
				<stop  offset="0.5189" style="stop-color:#F29820"/>
				<stop  offset="0.7892" style="stop-color:#FEE793"/>
				<stop  offset="1" style="stop-color:#F4AB1C"/>
			</linearGradient>
			<path class="st30" d="M46.4,13.7c4.6-7.2,8.5-12.4,11.9-10c-1.7-1.6-5.6-0.8-6.6-0.6C47.3,4,44.9,11,44.6,13.7L46.4,13.7z"/>
		</g>
		<g>
			
				<linearGradient id="SVGID_27_" gradientUnits="userSpaceOnUse" x1="560.8124" y1="375.6751" x2="566.1079" y2="380.3017" gradientTransform="matrix(0.9778 0.2096 -0.2096 0.9778 -432.7586 -478.8944)">
				<stop  offset="0" style="stop-color:#965223"/>
				<stop  offset="0.5189" style="stop-color:#F29820"/>
				<stop  offset="1" style="stop-color:#965223"/>
			</linearGradient>
			<path class="st31" d="M37.5,5.8c3.1,2.5,5.6,6.4,7.5,9l-1.6-0.8c-2.8-4-6-7.6-10-10.6C35.8,5.1,36.3,5.3,37.5,5.8z"/>
			<defs>
				<filter id="Adobe_OpacityMaskFilter_6_" filterUnits="userSpaceOnUse" x="26.9" y="12.3" width="18.1" height="3.6">
					<feFlood  style="flood-color:white;flood-opacity:1" result="back"/>
					<feBlend  in="SourceGraphic" in2="back" mode="normal"/>
				</filter>
			</defs>
			<mask maskUnits="userSpaceOnUse" x="26.9" y="12.3" width="18.1" height="3.6" id="SVGID_28_">
				<g class="st32">
					<defs>
						<filter id="Adobe_OpacityMaskFilter_7_" filterUnits="userSpaceOnUse" x="26.4" y="12.1" width="18.6" height="3.8">
							<feFlood  style="flood-color:white;flood-opacity:1" result="back"/>
							<feBlend  in="SourceGraphic" in2="back" mode="normal"/>
						</filter>
					</defs>
					<mask maskUnits="userSpaceOnUse" x="26.4" y="12.1" width="18.6" height="3.8" id="SVGID_28_">
						<g class="st33">
						</g>
					</mask>
					
						<linearGradient id="SVGID_29_" gradientUnits="userSpaceOnUse" x1="1900.9016" y1="345.27" x2="1908.7437" y2="347.5184" gradientTransform="matrix(-0.9878 -0.1555 -0.1555 0.9878 1974.1669 -32.7657)">
						<stop  offset="0" style="stop-color:#FFFFFF"/>
						<stop  offset="0.6112" style="stop-color:#646464"/>
						<stop  offset="1" style="stop-color:#000000"/>
					</linearGradient>
					<path class="st34" d="M43.4,14.3l1.6,0.6c-6.3,1.2-11.7,1.5-14.6-0.1c-1.1-0.6-2.3-1.8-3.9-2.7C31.4,13.9,37.8,14,43.4,14.3z"
						/>
				</g>
			</mask>
			
				<linearGradient id="SVGID_30_" gradientUnits="userSpaceOnUse" x1="1900.8248" y1="345.3643" x2="1908.4744" y2="347.5576" gradientTransform="matrix(-0.9878 -0.1555 -0.1555 0.9878 1974.1669 -32.7657)">
				<stop  offset="0" style="stop-color:#5A5858"/>
				<stop  offset="1" style="stop-color:#5A5858"/>
			</linearGradient>
			<path class="st35" d="M43.4,14.3l1.6,0.6c-6.3,1.2-11.6,1.4-14.6-0.2c-1.1-0.6-2-1.5-3.5-2.5C31.9,14.1,37.8,14,43.4,14.3z"/>
			
				<linearGradient id="SVGID_31_" gradientUnits="userSpaceOnUse" x1="556.2968" y1="383.4019" x2="568.5237" y2="382.445" gradientTransform="matrix(0.9778 0.2096 -0.2096 0.9778 -432.7586 -478.8944)">
				<stop  offset="0" style="stop-color:#965223"/>
				<stop  offset="0.5189" style="stop-color:#F29820"/>
				<stop  offset="1" style="stop-color:#965223"/>
			</linearGradient>
			<path class="st36" d="M43.4,14.1l1.6,0.8c-6.3,0.5-10.4,0.4-13.9-1.8c-1.1-0.7-2.3-1.5-3.7-2.6C34,14.7,38.6,13.8,43.4,14.1z"/>
			
				<linearGradient id="SVGID_32_" gradientUnits="userSpaceOnUse" x1="553.5665" y1="382.6991" x2="557.1026" y2="373.9158" gradientTransform="matrix(0.9778 0.2096 -0.2096 0.9778 -432.7586 -478.8944)">
				<stop  offset="0" style="stop-color:#BD6828"/>
				<stop  offset="0.2703" style="stop-color:#F5AC1C"/>
				<stop  offset="0.5189" style="stop-color:#F29820"/>
				<stop  offset="0.7892" style="stop-color:#FEE793"/>
				<stop  offset="1" style="stop-color:#F4AB1C"/>
			</linearGradient>
			<path class="st37" d="M34,3.7c-6.1-3.4-9.9,4.3-6.6,6.8c0,0,1.8,1.5,3.7,2.6c-2.2-2.3-1.5-6.5,2.9-7.8c1.3-0.4,2.7,0.2,3.5,0.5
				C36,4.9,34.7,4.1,34,3.7z"/>
		</g>
		<g>
			
				<linearGradient id="SVGID_33_" gradientUnits="userSpaceOnUse" x1="2098.3176" y1="707.0557" x2="2103.6907" y2="711.7501" gradientTransform="matrix(-0.81 -0.376 -0.421 0.9071 2051.2612 159.6484)">
				<stop  offset="0" style="stop-color:#965223"/>
				<stop  offset="0.5189" style="stop-color:#F29820"/>
				<stop  offset="1" style="stop-color:#965223"/>
			</linearGradient>
			<path class="st38" d="M53.9,11.7c-3.8,0.2-8.1,1.9-11.1,2.9l1.6,0.3c4.5-1.6,8.4-2.8,13.3-3C55.2,11.9,55.2,12,53.9,11.7z"/>
			<defs>
				<filter id="Adobe_OpacityMaskFilter_8_" filterUnits="userSpaceOnUse" x="44.6" y="15.9" width="16" height="7.1">
					<feFlood  style="flood-color:white;flood-opacity:1" result="back"/>
					<feBlend  in="SourceGraphic" in2="back" mode="normal"/>
				</filter>
			</defs>
			<mask maskUnits="userSpaceOnUse" x="44.6" y="15.9" width="16" height="7.1" id="SVGID_34_">
				<g class="st39">
					<defs>
						<filter id="Adobe_OpacityMaskFilter_9_" filterUnits="userSpaceOnUse" x="44.6" y="15.9" width="16.4" height="7.2">
							<feFlood  style="flood-color:white;flood-opacity:1" result="back"/>
							<feBlend  in="SourceGraphic" in2="back" mode="normal"/>
						</filter>
					</defs>
					<mask maskUnits="userSpaceOnUse" x="44.6" y="15.9" width="16.4" height="7.2" id="SVGID_34_">
						<g class="st40">
						</g>
					</mask>
					
						<linearGradient id="SVGID_35_" gradientUnits="userSpaceOnUse" x1="2095.4517" y1="715.7593" x2="2095.0115" y2="716.9225" gradientTransform="matrix(-0.81 -0.376 -0.421 0.9071 2051.2612 159.6484)">
						<stop  offset="0" style="stop-color:#FFFFFF"/>
						<stop  offset="0.6112" style="stop-color:#646464"/>
						<stop  offset="1" style="stop-color:#000000"/>
					</linearGradient>
					<path class="st41" d="M46,16.2l-1.4-0.3c4.5,4.4,9.2,6.5,12.1,7.2c0.4,0.1,3.2-0.2,4.3-0.5C56,21.7,51.7,20.2,46,16.2z"/>
				</g>
			</mask>
			
				<linearGradient id="SVGID_36_" gradientUnits="userSpaceOnUse" x1="2095.6729" y1="715.7335" x2="2095.2417" y2="716.8726" gradientTransform="matrix(-0.81 -0.376 -0.421 0.9071 2051.2612 159.6484)">
				<stop  offset="0" style="stop-color:#5A5858"/>
				<stop  offset="1" style="stop-color:#5A5858"/>
			</linearGradient>
			<path class="st42" d="M46,16.2l-1.4-0.3c4.5,4.4,9.2,6.4,12,7.1c0.4,0.1,2.9-0.1,4-0.3C55.6,21.7,51.7,20.2,46,16.2z"/>
			
				<linearGradient id="SVGID_37_" gradientUnits="userSpaceOnUse" x1="2093.0437" y1="714.7476" x2="2106.0918" y2="713.7264" gradientTransform="matrix(-0.81 -0.376 -0.421 0.9071 2051.2612 159.6484)">
				<stop  offset="0" style="stop-color:#965223"/>
				<stop  offset="0.5189" style="stop-color:#F29820"/>
				<stop  offset="1" style="stop-color:#965223"/>
			</linearGradient>
			<path class="st43" d="M44.5,15l-1.6-0.3c4.5,4.1,7.7,6.4,11.6,6.7c1.2,0.1,2.6,0,4.4,0C52.9,21,49.1,17.9,44.5,15z"/>
			
				<linearGradient id="SVGID_38_" gradientUnits="userSpaceOnUse" x1="2090.4836" y1="714.2958" x2="2094.1182" y2="705.2684" gradientTransform="matrix(-0.81 -0.376 -0.421 0.9071 2051.2612 159.6484)">
				<stop  offset="0" style="stop-color:#BD6828"/>
				<stop  offset="0.2703" style="stop-color:#F5AC1C"/>
				<stop  offset="0.5189" style="stop-color:#F29820"/>
				<stop  offset="0.7892" style="stop-color:#FEE793"/>
				<stop  offset="1" style="stop-color:#F4AB1C"/>
			</linearGradient>
			<path class="st44" d="M57.8,12c6.6,1.1,4.1,9.4,0.1,9.5c0,0-1.3,0-3.5-0.2c3-0.6,6.3-4.5,3.2-7.9c-0.9-0.9-2.9-1.5-3.8-1.6
				C55.7,11.9,56.9,11.9,57.8,12z"/>
		</g>
		<g>
			
				<linearGradient id="SVGID_39_" gradientUnits="userSpaceOnUse" x1="1893.2393" y1="347.7538" x2="1893.7854" y2="337.1041" gradientTransform="matrix(-0.9878 -0.1555 -0.1555 0.9878 1974.1669 -32.7657)">
				<stop  offset="0" style="stop-color:#965223"/>
				<stop  offset="0.5189" style="stop-color:#F29820"/>
				<stop  offset="1" style="stop-color:#965223"/>
			</linearGradient>
			<path class="st45" d="M51,5l4.2,0.6c-5.9,0-5,5.6-4.7,8.7l-4.4-0.5C46.3,10.8,46.7,4.8,51,5z"/>
			
				<linearGradient id="SVGID_40_" gradientUnits="userSpaceOnUse" x1="1889.6272" y1="344.7371" x2="1890.0565" y2="336.367" gradientTransform="matrix(-0.9878 -0.1555 -0.1555 0.9878 1974.1669 -32.7657)">
				<stop  offset="0" style="stop-color:#BD6828"/>
				<stop  offset="0.2703" style="stop-color:#F5AC1C"/>
				<stop  offset="0.5189" style="stop-color:#F29820"/>
				<stop  offset="0.7892" style="stop-color:#FEE793"/>
				<stop  offset="1" style="stop-color:#F4AB1C"/>
			</linearGradient>
			<path class="st46" d="M55.3,14.5c3.1-0.2,4.7-8-0.1-9C53.9,5.3,51,5,51,5c2.5,0.4,3.7,7.5-0.6,9.1C52.7,14.3,54.1,14.4,55.3,14.5
				z"/>
		</g>
		<g>
			
				<linearGradient id="SVGID_41_" gradientUnits="userSpaceOnUse" x1="1898.9171" y1="353.8704" x2="1897.9642" y2="339.4978" gradientTransform="matrix(-0.9878 -0.1555 -0.1555 0.9878 1974.1669 -32.7657)">
				<stop  offset="0" style="stop-color:#965223"/>
				<stop  offset="0.5189" style="stop-color:#F29820"/>
				<stop  offset="1" style="stop-color:#965223"/>
			</linearGradient>
			<path class="st47" d="M48.9,4.6l-4-1c1.2,1.5-0.9,8.4-1.7,9.7l3.8,0.9C47.9,12.7,50.1,5.2,48.9,4.6z"/>
			
				<linearGradient id="SVGID_42_" gradientUnits="userSpaceOnUse" x1="552.8605" y1="344.465" x2="553.3271" y2="335.3642" gradientTransform="matrix(0.9878 0.1555 -0.1555 0.9878 -448.9481 -413.38)">
				<stop  offset="0" style="stop-color:#BD6828"/>
				<stop  offset="0.2703" style="stop-color:#F5AC1C"/>
				<stop  offset="0.5189" style="stop-color:#F29820"/>
				<stop  offset="0.7892" style="stop-color:#FEE793"/>
				<stop  offset="1" style="stop-color:#F4AB1C"/>
			</linearGradient>
			<path class="st48" d="M43.2,13.2c-2.9-1.2-3.4-9.5,1.7-9.7c1.1,0.2,4,1,4,1c-2.9,0.6-4.1,7.1-1.9,9.5
				C45.9,13.8,44,13.5,43.2,13.2z"/>
		</g>
		<g>
			<defs>
				<filter id="Adobe_OpacityMaskFilter_10_" filterUnits="userSpaceOnUse" x="30.5" y="16.4" width="15.5" height="4.2">
					<feFlood  style="flood-color:white;flood-opacity:1" result="back"/>
					<feBlend  in="SourceGraphic" in2="back" mode="normal"/>
				</filter>
			</defs>
			<mask maskUnits="userSpaceOnUse" x="30.5" y="16.4" width="15.5" height="4.2" id="SVGID_43_">
				<g class="st49">
					<defs>
						<filter id="Adobe_OpacityMaskFilter_11_" filterUnits="userSpaceOnUse" x="30" y="16.4" width="16.1" height="4.3">
							<feFlood  style="flood-color:white;flood-opacity:1" result="back"/>
							<feBlend  in="SourceGraphic" in2="back" mode="normal"/>
						</filter>
					</defs>
					<mask maskUnits="userSpaceOnUse" x="30" y="16.4" width="16.1" height="4.3" id="SVGID_43_">
						<g class="st50">
						</g>
					</mask>
					
						<linearGradient id="SVGID_44_" gradientUnits="userSpaceOnUse" x1="1905.0375" y1="353.4278" x2="1905.1537" y2="354.3191" gradientTransform="matrix(-0.9878 -0.1555 -0.1555 0.9878 1974.1669 -32.7657)">
						<stop  offset="0" style="stop-color:#FFFFFF"/>
						<stop  offset="0.6112" style="stop-color:#646464"/>
						<stop  offset="1" style="stop-color:#000000"/>
					</linearGradient>
					<path class="st51" d="M46.1,17.1l-2-0.6c-5,2.9-9.7,3.2-14,2.5l5.9,1.6C38.1,21.1,40.4,20.3,46.1,17.1z"/>
				</g>
			</mask>
			
				<linearGradient id="SVGID_45_" gradientUnits="userSpaceOnUse" x1="1904.7659" y1="353.3741" x2="1904.8802" y2="354.2507" gradientTransform="matrix(-0.9878 -0.1555 -0.1555 0.9878 1974.1669 -32.7657)">
				<stop  offset="0" style="stop-color:#5A5858"/>
				<stop  offset="1" style="stop-color:#5A5858"/>
			</linearGradient>
			<path class="st52" d="M46.1,17.1l-2-0.6c-5,2.9-9.1,3.2-13.5,2.5l5.3,1.5C38,21,40.4,20.3,46.1,17.1z"/>
			
				<linearGradient id="SVGID_46_" gradientUnits="userSpaceOnUse" x1="1903.876" y1="352.8718" x2="1902.6306" y2="347.4945" gradientTransform="matrix(-0.9878 -0.1555 -0.1555 0.9878 1974.1669 -32.7657)">
				<stop  offset="0" style="stop-color:#965223"/>
				<stop  offset="0.5189" style="stop-color:#F29820"/>
				<stop  offset="1" style="stop-color:#965223"/>
			</linearGradient>
			<path class="st53" d="M46.5,16.1l-2.2-0.6c-5,2.9-7.3,3.9-11.6,3.2l3.9,1C39.9,20.6,43.3,19.9,46.5,16.1z"/>
			
				<linearGradient id="SVGID_47_" gradientUnits="userSpaceOnUse" x1="1901.927" y1="344.1516" x2="1901.5934" y2="348.5993" gradientTransform="matrix(-0.9878 -0.1555 -0.1555 0.9878 1974.1669 -32.7657)">
				<stop  offset="0" style="stop-color:#965223"/>
				<stop  offset="0.5189" style="stop-color:#F29820"/>
				<stop  offset="1" style="stop-color:#965223"/>
			</linearGradient>
			<path class="st54" d="M41.4,10.1c2.1,0.8,4.7,4,5.3,6.1l-2.4-0.7c-1.9-2-1.6-4.1-7.4-6.5C39.5,9.8,39.9,9.7,41.4,10.1z"/>
			
				<linearGradient id="SVGID_48_" gradientUnits="userSpaceOnUse" x1="1909.4657" y1="352.8588" x2="1907.4913" y2="342.2903" gradientTransform="matrix(-0.9878 -0.1555 -0.1555 0.9878 1974.1669 -32.7657)">
				<stop  offset="0" style="stop-color:#BD6828"/>
				<stop  offset="0.2703" style="stop-color:#F5AC1C"/>
				<stop  offset="0.5189" style="stop-color:#F29820"/>
				<stop  offset="0.7892" style="stop-color:#FEE793"/>
				<stop  offset="1" style="stop-color:#F4AB1C"/>
			</linearGradient>
			<path class="st55" d="M36.5,19.8c-4.9-2.4-2.2-11.7,4.9-9.6c0,0-1.8-0.6-4.5-1.1c-7.9-1.9-9,9-4.3,9.7L36.5,19.8z"/>
		</g>
		<defs>
			<filter id="Adobe_OpacityMaskFilter_12_" filterUnits="userSpaceOnUse" x="42" y="17.6" width="5.5" height="7.6">
				<feFlood  style="flood-color:white;flood-opacity:1" result="back"/>
				<feBlend  in="SourceGraphic" in2="back" mode="normal"/>
			</filter>
		</defs>
		<mask maskUnits="userSpaceOnUse" x="42" y="17.6" width="5.5" height="7.6" id="SVGID_49_">
			<g class="st56">
				<defs>
					<filter id="Adobe_OpacityMaskFilter_13_" filterUnits="userSpaceOnUse" x="41.8" y="17.6" width="5.7" height="7.8">
						<feFlood  style="flood-color:white;flood-opacity:1" result="back"/>
						<feBlend  in="SourceGraphic" in2="back" mode="normal"/>
					</filter>
				</defs>
				<mask maskUnits="userSpaceOnUse" x="41.8" y="17.6" width="5.7" height="7.8" id="SVGID_49_">
					<g class="st57">
					</g>
				</mask>
				
					<linearGradient id="SVGID_50_" gradientUnits="userSpaceOnUse" x1="-110.7677" y1="353.3102" x2="-110.7677" y2="355.8411" gradientTransform="matrix(0.9878 0.1555 -0.1555 0.9878 209.2322 -309.7984)">
					<stop  offset="0" style="stop-color:#FFFFFF"/>
					<stop  offset="0.6112" style="stop-color:#646464"/>
					<stop  offset="1" style="stop-color:#000000"/>
				</linearGradient>
				<path class="st58" d="M47.1,25.3c0.2-1.7,0.9-5.7-0.4-7.4c-1.9-0.3-2.8-0.4-2.8-0.4c-1.3,1.7-2,5.2-2.1,6.7
					C43.6,24.5,44.9,24.9,47.1,25.3z"/>
			</g>
		</mask>
		
			<linearGradient id="SVGID_51_" gradientUnits="userSpaceOnUse" x1="-110.7737" y1="353.1875" x2="-110.7737" y2="355.6458" gradientTransform="matrix(0.9878 0.1555 -0.1555 0.9878 209.2322 -309.7984)">
			<stop  offset="0" style="stop-color:#5A5858"/>
			<stop  offset="1" style="stop-color:#5A5858"/>
		</linearGradient>
		<path class="st59" d="M47,25.1c0.2-1.7,1-5.4-0.3-7.2c-1.9-0.3-2.8-0.4-2.8-0.4c-1.3,1.7-1.8,5.1-2,6.6
			C43.8,24.4,44.7,24.7,47,25.1z"/>
		
			<linearGradient id="SVGID_52_" gradientUnits="userSpaceOnUse" x1="1897.111" y1="353.7401" x2="1897.5894" y2="344.4121" gradientTransform="matrix(-0.9878 -0.1555 -0.1555 0.9878 1974.1669 -32.7657)">
			<stop  offset="0" style="stop-color:#BD6828"/>
			<stop  offset="0.2703" style="stop-color:#F5AC1C"/>
			<stop  offset="0.5189" style="stop-color:#F29820"/>
			<stop  offset="0.7892" style="stop-color:#FEE793"/>
			<stop  offset="1" style="stop-color:#F4AB1C"/>
		</linearGradient>
		<path class="st60" d="M47.4,22.5c1-2,2.7-8.3,1.1-9.9c-1.9-0.3-5-0.7-5-0.7c-1.3,1.7-1.5,7.9-1.2,9.8C44.2,21.9,45.2,22,47.4,22.5
			z"/>
	</g>
</g>
</svg>
