<?xml version="1.0" encoding="utf-8"?>
<!-- Generator: Adobe Illustrator 19.0.0, SVG Export Plug-In . SVG Version: 6.00 Build 0)  -->
<svg version="1.1" id="Layer_1" xmlns="http://www.w3.org/2000/svg" xmlns:xlink="http://www.w3.org/1999/xlink" x="0px" y="0px"
	 viewBox="0 0 84.6 93.3" style="enable-background:new 0 0 84.6 93.3;" xml:space="preserve" preserveAspectRatio="none">
<style type="text/css">
	.st0{fill:url(#SVGID_1_);}
	.st1{fill:url(#SVGID_2_);}
	.st2{fill:url(#SVGID_3_);}
	.st3{fill:url(#SVGID_4_);}
	.st4{fill:url(#SVGID_5_);}
	.st5{fill:url(#SVGID_6_);}
	.st6{fill:url(#SVGID_7_);}
	.st7{fill:url(#SVGID_8_);}
	.st8{fill:url(#SVGID_9_);}
	.st9{fill:url(#SVGID_10_);}
	.st10{fill:url(#SVGID_11_);}
	.st11{clip-path:url(#SVGID_13_);}
	.st12{fill:url(#SVGID_14_);}
	.st13{fill:url(#SVGID_15_);}
	.st14{fill:url(#SVGID_16_);}
	.st15{fill:none;}
	.st16{fill:url(#SVGID_17_);}
	.st17{fill:#956A69;}
	.st18{fill:url(#SVGID_18_);}
	.st19{fill:url(#SVGID_19_);}
	.st20{fill:url(#SVGID_20_);}
	.st21{fill:url(#SVGID_21_);}
	.st22{fill:url(#SVGID_22_);}
	.st23{fill:url(#SVGID_23_);}
	.st24{fill:url(#SVGID_24_);}
	.st25{fill:url(#SVGID_25_);}
	.st26{fill:url(#SVGID_26_);}
	.st27{fill:url(#SVGID_27_);}
	.st28{fill:url(#SVGID_28_);}
	.st29{fill:url(#SVGID_29_);}
	.st30{fill:url(#SVGID_30_);}
</style>
<g>
	<linearGradient id="SVGID_1_" gradientUnits="userSpaceOnUse" x1="20.7232" y1="121.5689" x2="20.7232" y2="56.4311">
		<stop  offset="0" style="stop-color:#E88F28"/>
		<stop  offset="0.5" style="stop-color:#C36527"/>
		<stop  offset="1" style="stop-color:#A84224"/>
	</linearGradient>
	<polygon class="st0" points="2.7,39.4 4.7,73.6 38.3,93.3 38.8,50.4 	"/>
	<linearGradient id="SVGID_2_" gradientUnits="userSpaceOnUse" x1="60.2912" y1="105.3689" x2="60.2912" y2="6.143">
		<stop  offset="0" style="stop-color:#E88F28"/>
		<stop  offset="0.2233" style="stop-color:#DD8428"/>
		<stop  offset="0.6108" style="stop-color:#C96B28"/>
		<stop  offset="1" style="stop-color:#B24E26"/>
	</linearGradient>
	<polygon class="st1" points="38.8,50.4 82.3,40 80,74.6 38.3,93.3 	"/>
	<linearGradient id="SVGID_3_" gradientUnits="userSpaceOnUse" x1="63.4865" y1="66.4471" x2="59.4361" y2="39.4442">
		<stop  offset="7.222200e-002" style="stop-color:#E88F28"/>
		<stop  offset="1" style="stop-color:#A84224"/>
	</linearGradient>
	<polygon class="st2" points="38.8,49 38.7,54.9 82,43.3 82.4,38.9 	"/>
	
		<linearGradient id="SVGID_4_" gradientUnits="userSpaceOnUse" x1="-1368.7019" y1="49.3867" x2="-1360.156" y2="83.0244" gradientTransform="matrix(-1 0 0 1 -1348.6661 0)">
		<stop  offset="7.222200e-002" style="stop-color:#842E1A"/>
		<stop  offset="1" style="stop-color:#A84224"/>
	</linearGradient>
	<polygon class="st3" points="38.7,54.9 2.9,42.8 2.6,38.9 38.8,49 	"/>
	<linearGradient id="SVGID_5_" gradientUnits="userSpaceOnUse" x1="61.5396" y1="72.9697" x2="61.5396" y2="13.2301">
		<stop  offset="0" style="stop-color:#E88F28"/>
		<stop  offset="0.2233" style="stop-color:#DD8428"/>
		<stop  offset="0.6108" style="stop-color:#C96B28"/>
		<stop  offset="1" style="stop-color:#B24E26"/>
	</linearGradient>
	<polygon class="st4" points="38.6,31.2 84.6,24.8 83.8,39.6 38.5,50.4 	"/>
	<linearGradient id="SVGID_6_" gradientUnits="userSpaceOnUse" x1="19.3035" y1="121.5707" x2="19.3035" y2="56.4314">
		<stop  offset="0" style="stop-color:#E88F28"/>
		<stop  offset="0.204" style="stop-color:#E38A28"/>
		<stop  offset="0.427" style="stop-color:#D77D27"/>
		<stop  offset="0.659" style="stop-color:#C76A27"/>
		<stop  offset="0.8958" style="stop-color:#B25025"/>
		<stop  offset="1" style="stop-color:#A84224"/>
	</linearGradient>
	<polygon class="st5" points="0,24.5 38.6,31.2 38.5,50.4 0.9,38.8 	"/>
	
		<linearGradient id="SVGID_7_" gradientUnits="userSpaceOnUse" x1="1017.7344" y1="25.8937" x2="1102.3145" y2="25.8937" gradientTransform="matrix(1 0 0 1 -1017.7344 0)">
		<stop  offset="0" style="stop-color:#E88F28"/>
		<stop  offset="0.5056" style="stop-color:#A84224"/>
		<stop  offset="0.7438" style="stop-color:#E88F28"/>
		<stop  offset="1" style="stop-color:#FFF1A7"/>
	</linearGradient>
	<polygon class="st6" points="0,24.5 45.1,20.6 84.6,24.8 38.6,31.2 	"/>
	
		<linearGradient id="SVGID_8_" gradientUnits="userSpaceOnUse" x1="-1364.9496" y1="86.4708" x2="-1371.495" y2="-14.9818" gradientTransform="matrix(-1 0 0 1 -1348.6661 0)">
		<stop  offset="0" style="stop-color:#956A69"/>
		<stop  offset="0.5333" style="stop-color:#D8AEAE"/>
	</linearGradient>
	<polygon class="st7" points="14.5,27 15.6,80 22.1,83.8 21.9,28.3 	"/>
	
		<linearGradient id="SVGID_9_" gradientUnits="userSpaceOnUse" x1="-1414.6763" y1="102.7511" x2="-1409.5852" y2="20.5663" gradientTransform="matrix(-1 0 0 1 -1348.6661 0)">
		<stop  offset="0" style="stop-color:#956A69"/>
		<stop  offset="0.5278" style="stop-color:#D8AEAE"/>
		<stop  offset="0.662" style="stop-color:#DAB0B0"/>
		<stop  offset="0.75" style="stop-color:#DEB8B8"/>
		<stop  offset="0.8248" style="stop-color:#E6C6C6"/>
		<stop  offset="0.8918" style="stop-color:#F3DADB"/>
		<stop  offset="0.9222" style="stop-color:#FDE8E8"/>
	</linearGradient>
	<polygon class="st8" points="59.1,28.4 57.7,84.6 65.9,80.9 68.5,27.1 	"/>
	
		<radialGradient id="SVGID_10_" cx="1044.7848" cy="57.5279" r="24.8589" gradientTransform="matrix(1 0 0 1 -1017.7344 0)" gradientUnits="userSpaceOnUse">
		<stop  offset="0.1222" style="stop-color:#842E1A"/>
		<stop  offset="1" style="stop-color:#A84224"/>
	</radialGradient>
	<polygon class="st9" points="21.9,83.7 22.1,83.8 22.2,28.4 21.9,28.3 	"/>
	
		<radialGradient id="SVGID_11_" cx="1077.031" cy="28.341" r="24.6938" gradientTransform="matrix(0.9997 2.520000e-002 -2.550000e-002 1.011 -1014.3314 2.323)" gradientUnits="userSpaceOnUse">
		<stop  offset="0.1222" style="stop-color:#842E1A"/>
		<stop  offset="1" style="stop-color:#A84224"/>
	</radialGradient>
	<polygon class="st10" points="57.5,84.7 57.7,84.6 59.1,28.4 59,28.4 	"/>
	<g>
		<defs>
			<polygon id="SVGID_12_" points="0,24.5 45.1,20.6 84.6,24.8 38.6,31.2 			"/>
		</defs>
		<clipPath id="SVGID_13_">
			<use xlink:href="#SVGID_12_"  style="overflow:visible;"/>
		</clipPath>
		<g class="st11">
			
				<linearGradient id="SVGID_14_" gradientUnits="userSpaceOnUse" x1="-1647.5571" y1="177.2419" x2="-1644.2843" y2="141.7861" gradientTransform="matrix(-1 0 0 1 -1603.5411 -142.6738)">
				<stop  offset="7.222200e-002" style="stop-color:#842E1A"/>
				<stop  offset="1" style="stop-color:#A84224"/>
			</linearGradient>
			<path class="st12" d="M36.4,28.5c0,0,0.3,0,1.2-0.3c0.8-0.3,1.4-0.1,1.7,0.1c0.1,0.1,0.2,0.1,0.3,0.2c0,0,0.6-0.2,3.4-2.1
				c2,0.5,5.5,1.2,11.4,2.2c0,0,0.6,0.2,3.3-1.3c2.3-1.3,1.5-1.7,1.4-1.9c-0.1-0.2-0.6-1.2-1.2-2.4c2.1-0.6,5.4-1.6,7.2-2.3
				c1.7-0.5,1.1-2.4,1.1-2.6c0,0-8.4-3.9-9.5-4.9c0,0-0.2,2.4-0.1,3.8c0,0.5-0.2,1.5-0.4,2.6c-0.6-1.1-1-2-1-2s-3,1.4-6.9,3.6
				c-3.3-2.2-14.8-3.3-18.8-0.2c-0.1,0-0.2-0.1-0.3-0.1c-0.3-1.2-0.7-2.3-0.7-2.9c0-1.4-0.3-3.8-0.3-3.8c-1.1,1-9.2,5.5-9.2,5.5
				c0,0.2-0.4,2.1,1.3,2.5c0.5,0.2,1.2,0.4,1.9,0.5c-0.8,1.6-1.6,3.3-1.9,4.2c0,0,0.5,0.2,1.6,0.8c1.1,0.6,3.1,0.5,4,0.3
				c0.5-0.1,4.6-0.7,8.2-1.4C35,27.7,35.9,28.3,36.4,28.5z"/>
		</g>
	</g>
	<g>
		
			<linearGradient id="SVGID_15_" gradientUnits="userSpaceOnUse" x1="1032.2354" y1="25.1027" x2="1083.4971" y2="25.1027" gradientTransform="matrix(1 0 0 1 -1017.7344 0)">
			<stop  offset="0" style="stop-color:#956A69"/>
			<stop  offset="0.5278" style="stop-color:#D8AEAE"/>
			<stop  offset="0.662" style="stop-color:#DAB0B0"/>
			<stop  offset="0.75" style="stop-color:#DEB8B8"/>
			<stop  offset="0.8248" style="stop-color:#E6C6C6"/>
			<stop  offset="0.8918" style="stop-color:#F3DADB"/>
			<stop  offset="0.9222" style="stop-color:#FDE8E8"/>
		</linearGradient>
		<polygon class="st13" points="14.5,27 58.7,21.9 65.8,22.7 21.9,28.3 		"/>
		
			<linearGradient id="SVGID_16_" gradientUnits="userSpaceOnUse" x1="1040.1978" y1="25.1334" x2="1086.2646" y2="25.1334" gradientTransform="matrix(1 0 0 1 -1017.7344 0)">
			<stop  offset="0" style="stop-color:#956A69"/>
			<stop  offset="0.5278" style="stop-color:#D8AEAE"/>
			<stop  offset="0.662" style="stop-color:#DAB0B0"/>
			<stop  offset="0.75" style="stop-color:#DEB8B8"/>
			<stop  offset="0.8248" style="stop-color:#E6C6C6"/>
			<stop  offset="0.8918" style="stop-color:#F3DADB"/>
			<stop  offset="0.9222" style="stop-color:#FDE8E8"/>
		</linearGradient>
		<polygon class="st14" points="22.5,22.6 59.1,28.4 68.5,27.1 30.6,21.9 		"/>
	</g>
	<g>
		<polygon class="st15" points="14.5,27 58.7,21.9 65.8,22.7 21.9,28.3 		"/>
		<polygon class="st15" points="22.5,22.6 59.1,28.4 68.5,27.1 30.6,21.9 		"/>
	</g>
	<g>
		
			<radialGradient id="SVGID_17_" cx="-1386.4441" cy="23.4389" r="24.9878" gradientTransform="matrix(-1 0 0 1 -1348.6661 0)" gradientUnits="userSpaceOnUse">
			<stop  offset="0" style="stop-color:#2B1010"/>
			<stop  offset="1" style="stop-color:#AE8283"/>
		</radialGradient>
		<path class="st16" d="M59.3,25.9l-8.8-1.2l7.6-1c-0.1-0.2-0.2-0.3-0.3-0.5c0.9-0.3,2-0.6,3.2-1l-2.4-0.3l-15.1,1.7l-12.9-1.8
			l-8.1,0.7l12.9,2l-14.7,1.7c-0.1,0.3-0.3,0.6-0.3,0.8c0,0,0.5,0.2,1.6,0.8c0.2,0.1,0.5,0.2,0.8,0.3l19.5-2.5L56.6,28
			c0.3-0.1,0.7-0.3,1.1-0.5C59.2,26.6,59.4,26.1,59.3,25.9z"/>
	</g>
	<g>
		<path class="st17" d="M57.9,12.7c1.5,4.6-1.4,9-6.6,9.8c-5.1,0.8-10.5-2.3-12-6.9c-1.5-4.6,1.4-9,6.6-9.8
			C51.1,5.1,56.4,8.1,57.9,12.7z"/>
		
			<linearGradient id="SVGID_18_" gradientUnits="userSpaceOnUse" x1="1063.2507" y1="-116.5113" x2="1056.5844" y2="-124.1707" gradientTransform="matrix(0.9934 0.1149 -0.1149 0.9934 -1014.6597 4.4082)">
			<stop  offset="5.555000e-003" style="stop-color:#A0A0A0"/>
			<stop  offset="0.2944" style="stop-color:#F5F5F5"/>
			<stop  offset="0.5111" style="stop-color:#FFFFFF"/>
			<stop  offset="0.6444" style="stop-color:#DDDDDD"/>
			<stop  offset="1" style="stop-color:#8C8C8C"/>
		</linearGradient>
		<path class="st18" d="M43.2,6.4c1-0.5,10.3-2.6,11.3,7.7c0,0,3.8-4.2,4.6-9.8c0,0-0.4-1.6-1.3-1.4C57,3.1,44.7,5.9,43.2,6.4z"/>
		<path class="st17" d="M48,10.8c0.6,4.5-2.9,8.3-7.9,8.6c-4.9,0.3-9.4-3.1-10-7.6c-0.6-4.5,2.9-8.3,7.9-8.6
			C42.9,2.9,47.4,6.3,48,10.8z"/>
		
			<linearGradient id="SVGID_19_" gradientUnits="userSpaceOnUse" x1="1071.1249" y1="-114.8932" x2="1070.3571" y2="-106.4467" gradientTransform="matrix(0.9934 0.1149 -0.1149 0.9934 -1014.6597 4.4082)">
			<stop  offset="5.555000e-003" style="stop-color:#A0A0A0"/>
			<stop  offset="0.2944" style="stop-color:#F5F5F5"/>
			<stop  offset="0.5111" style="stop-color:#FFFFFF"/>
			<stop  offset="0.6444" style="stop-color:#DDDDDD"/>
			<stop  offset="1" style="stop-color:#8C8C8C"/>
		</linearGradient>
		<path class="st19" d="M56.9,22.6c0,0,6.2-1.8,8.9-2.9c1.7-0.5,1.1-2.5,1.1-2.7c0,0-8.3-4-9.4-5c0,0-0.2,2.5-0.1,3.9
			C57.5,17.3,55.8,22.3,56.9,22.6z"/>
		
			<linearGradient id="SVGID_20_" gradientUnits="userSpaceOnUse" x1="-1361.2086" y1="23.3589" x2="-1373.1132" y2="19.9576" gradientTransform="matrix(-1 0 0 1 -1348.6661 0)">
			<stop  offset="5.555000e-003" style="stop-color:#A0A0A0"/>
			<stop  offset="0.2944" style="stop-color:#F5F5F5"/>
			<stop  offset="0.5111" style="stop-color:#FFFFFF"/>
			<stop  offset="0.6444" style="stop-color:#DDDDDD"/>
			<stop  offset="1" style="stop-color:#8C8C8C"/>
		</linearGradient>
		<path class="st20" d="M30.6,23.7c0,0-6.3-1.4-9.1-2.4c-1.7-0.4-1.2-2.4-1.3-2.6c0,0,8-4.5,9.1-5.6c0,0,0.4,2.5,0.3,3.9
			C29.6,18.4,31.6,23.3,30.6,23.7z"/>
		
			<linearGradient id="SVGID_21_" gradientUnits="userSpaceOnUse" x1="1042.693" y1="-123.8423" x2="1036.374" y2="-114.9713" gradientTransform="matrix(0.9934 0.1149 -0.1149 0.9934 -1014.6597 4.4082)">
			<stop  offset="5.555000e-003" style="stop-color:#A0A0A0"/>
			<stop  offset="0.2944" style="stop-color:#F5F5F5"/>
			<stop  offset="0.5111" style="stop-color:#FFFFFF"/>
			<stop  offset="0.6444" style="stop-color:#DDDDDD"/>
			<stop  offset="1" style="stop-color:#8C8C8C"/>
		</linearGradient>
		<path class="st21" d="M31.5,12.8c0,0-0.4-7.5,6.2-9.8c0,0-8-1.1-9.3-1c0,0-0.9,0.2-1,1.1C27.4,3.1,30.6,11.2,31.5,12.8z"/>
		
			<linearGradient id="SVGID_22_" gradientUnits="userSpaceOnUse" x1="1057.9684" y1="-98.3913" x2="1067.3137" y2="-109.6057" gradientTransform="matrix(0.9934 0.1149 -0.1149 0.9934 -1014.6597 4.4082)">
			<stop  offset="5.555000e-003" style="stop-color:#A0A0A0"/>
			<stop  offset="0.2944" style="stop-color:#F5F5F5"/>
			<stop  offset="0.5111" style="stop-color:#FFFFFF"/>
			<stop  offset="0.6444" style="stop-color:#DDDDDD"/>
			<stop  offset="1" style="stop-color:#8C8C8C"/>
		</linearGradient>
		<path class="st22" d="M41.7,25c0,0,2.9,0.9,13.5,2.8c0,0,0.6,0.2,3.3-1.3c2.3-1.3,1.5-1.8,1.4-2c-0.4-0.8-3.8-8-3.8-8
			S48.7,20.2,41.7,25z"/>
		
			<linearGradient id="SVGID_23_" gradientUnits="userSpaceOnUse" x1="1043.4001" y1="-119.4653" x2="1052.8671" y2="-121.9084" gradientTransform="matrix(0.9934 0.1149 -0.1149 0.9934 -1014.6597 4.4082)">
			<stop  offset="5.555000e-003" style="stop-color:#A0A0A0"/>
			<stop  offset="0.2944" style="stop-color:#F5F5F5"/>
			<stop  offset="0.5111" style="stop-color:#FFFFFF"/>
			<stop  offset="0.6444" style="stop-color:#DDDDDD"/>
			<stop  offset="1" style="stop-color:#8C8C8C"/>
		</linearGradient>
		<path class="st23" d="M32.1,11.3c1.4-5.6,14-4.1,16.2-2.3c0,0-6.6-7.8-8.7-8.9c0,0-1.5-0.2-1.8,0.3C34.3,6.9,31.7,9.7,32.1,11.3z"
			/>
		
			<linearGradient id="SVGID_24_" gradientUnits="userSpaceOnUse" x1="-1373.9307" y1="4.2016" x2="-1374.2997" y2="14.7729" gradientTransform="matrix(-1 0 0 1 -1348.6661 0)">
			<stop  offset="5.555000e-003" style="stop-color:#A0A0A0"/>
			<stop  offset="0.2944" style="stop-color:#F5F5F5"/>
			<stop  offset="0.5111" style="stop-color:#FFFFFF"/>
			<stop  offset="0.6444" style="stop-color:#DDDDDD"/>
			<stop  offset="1" style="stop-color:#8C8C8C"/>
		</linearGradient>
		<path class="st24" d="M19.7,10.7c0,0-0.5,2.5,1,3.9c1.6,1.3,6.3,5.6,9.2,6.6c2.9,1.1,1.3-11.3,1.3-11.3S20.5,10.6,19.7,10.7z"/>
		
			<linearGradient id="SVGID_25_" gradientUnits="userSpaceOnUse" x1="1050.009" y1="-118.1223" x2="1050.6644" y2="-109.4928" gradientTransform="matrix(0.9934 0.1149 -0.1149 0.9934 -1014.6597 4.4082)">
			<stop  offset="5.555000e-003" style="stop-color:#A0A0A0"/>
			<stop  offset="0.2944" style="stop-color:#F5F5F5"/>
			<stop  offset="0.5111" style="stop-color:#FFFFFF"/>
			<stop  offset="0.6444" style="stop-color:#DDDDDD"/>
			<stop  offset="1" style="stop-color:#8C8C8C"/>
		</linearGradient>
		<path class="st25" d="M34.4,8.9c0,0,4.2-1.6,6.3,9.3l6.6,1c0,0,2.9-7.7,1.9-9.7C47.1,7.4,35.5,7.7,34.4,8.9z"/>
		
			<linearGradient id="SVGID_26_" gradientUnits="userSpaceOnUse" x1="-1357.0228" y1="34.8857" x2="-1380.2615" y2="22.155" gradientTransform="matrix(-1 0 0 1 -1348.6661 0)">
			<stop  offset="5.555000e-003" style="stop-color:#A0A0A0"/>
			<stop  offset="0.2944" style="stop-color:#F5F5F5"/>
			<stop  offset="0.5111" style="stop-color:#FFFFFF"/>
			<stop  offset="0.6444" style="stop-color:#DDDDDD"/>
			<stop  offset="1" style="stop-color:#8C8C8C"/>
		</linearGradient>
		<path class="st26" d="M21.5,26.2c0,0,0.5,0.2,1.6,0.8c1.1,0.6,3,0.5,3.9,0.3c0.9-0.2,13.1-2.2,13.6-2.5c0,0-15.1-7.5-15.5-6.7
			C25.1,18.1,22.1,24.2,21.5,26.2z"/>
		
			<linearGradient id="SVGID_27_" gradientUnits="userSpaceOnUse" x1="1039.6962" y1="-113.7811" x2="1042.371" y2="-106.521" gradientTransform="matrix(0.9934 0.1149 -0.1149 0.9934 -1014.6597 4.4082)">
			<stop  offset="5.555000e-003" style="stop-color:#A0A0A0"/>
			<stop  offset="0.2944" style="stop-color:#F5F5F5"/>
			<stop  offset="0.5111" style="stop-color:#FFFFFF"/>
			<stop  offset="0.6444" style="stop-color:#DDDDDD"/>
			<stop  offset="1" style="stop-color:#8C8C8C"/>
		</linearGradient>
		<path class="st27" d="M25,14.9c0,0,6.2-3.8,8.6-5.1c0,0,6.5,1.9,6.9,10.6c0,0-11-1.1-12.6-2.2C26.4,17.2,26.3,15.3,25,14.9z"/>
		
			<linearGradient id="SVGID_28_" gradientUnits="userSpaceOnUse" x1="1059.7275" y1="-116.7316" x2="1062.9866" y2="-108.0411" gradientTransform="matrix(0.9934 0.1149 -0.1149 0.9934 -1014.6597 4.4082)">
			<stop  offset="5.555000e-003" style="stop-color:#A0A0A0"/>
			<stop  offset="0.2944" style="stop-color:#F5F5F5"/>
			<stop  offset="0.5111" style="stop-color:#FFFFFF"/>
			<stop  offset="0.6444" style="stop-color:#DDDDDD"/>
			<stop  offset="1" style="stop-color:#8C8C8C"/>
		</linearGradient>
		<path class="st28" d="M46.7,20.6c0,0,0.1-3.9,0-6c-0.2-2.1-0.5-5.8,2.1-6.8c0,0,5.9,0.7,9.7,0.9c0,0,0.2,2-0.2,2.9
			c-0.4,1-0.8,3.8-5.7,6.6C47.7,20.8,46.7,20.6,46.7,20.6z"/>
		
			<linearGradient id="SVGID_29_" gradientUnits="userSpaceOnUse" x1="-1388.8668" y1="26.5505" x2="-1386.0527" y2="26.5505" gradientTransform="matrix(-1 0 0 1 -1348.6661 0)">
			<stop  offset="5.555000e-003" style="stop-color:#A0A0A0"/>
			<stop  offset="0.2944" style="stop-color:#F5F5F5"/>
			<stop  offset="0.5111" style="stop-color:#FFFFFF"/>
			<stop  offset="0.6444" style="stop-color:#DDDDDD"/>
			<stop  offset="1" style="stop-color:#8C8C8C"/>
		</linearGradient>
		<path class="st29" d="M37.4,26.9c0,0,0.3,0,1.1-0.3c0.8-0.4,1.4-0.1,1.7,0.1C40.2,26.7,38.8,25.4,37.4,26.9z"/>
		
			<linearGradient id="SVGID_30_" gradientUnits="userSpaceOnUse" x1="1044.0326" y1="-102.8081" x2="1054.2263" y2="-104.1466" gradientTransform="matrix(0.9934 0.1149 -0.1149 0.9934 -1014.6597 4.4082)">
			<stop  offset="5.555000e-003" style="stop-color:#A0A0A0"/>
			<stop  offset="0.2944" style="stop-color:#F5F5F5"/>
			<stop  offset="0.5111" style="stop-color:#FFFFFF"/>
			<stop  offset="0.6444" style="stop-color:#DDDDDD"/>
			<stop  offset="1" style="stop-color:#8C8C8C"/>
		</linearGradient>
		<path class="st30" d="M37.4,26.9c0,0,1.4-1.7,3.1,0c0,0,1.4-0.4,9.5-6.7c-1.9-2.9-16.9-4.6-20.1,0C29.8,20.2,35.8,26.1,37.4,26.9z
			"/>
	</g>
</g>
</svg>
