<?xml version="1.0" encoding="utf-8"?>
<!-- Generator: Adobe Illustrator 19.0.0, SVG Export Plug-In . SVG Version: 6.00 Build 0)  -->
<svg version="1.1" id="Layer_1" xmlns="http://www.w3.org/2000/svg" xmlns:xlink="http://www.w3.org/1999/xlink" x="0px" y="0px"
	 viewBox="0 0 82.8 82.5" style="enable-background:new 0 0 82.8 82.5;" xml:space="preserve" preserveAspectRatio="none">
<style type="text/css">
	.st0{fill:url(#SVGID_1_);}
	.st1{enable-background:new    ;}
	.st2{fill:url(#SVGID_2_);}
	.st3{fill:url(#SVGID_3_);}
	.st4{fill:url(#SVGID_4_);}
	.st5{opacity:0.5;fill:#C54D9C;}
	.st6{fill:url(#SVGID_5_);}
	.st7{fill:url(#SVGID_6_);}
	.st8{fill:url(#SVGID_7_);}
	.st9{fill:url(#SVGID_8_);}
	.st10{fill:url(#SVGID_9_);}
	.st11{opacity:0.5;fill:#4D1A17;}
	.st12{fill:url(#SVGID_10_);}
	.st13{fill:url(#SVGID_11_);}
	.st14{fill:url(#SVGID_12_);}
	.st15{fill:url(#SVGID_13_);}
	.st16{fill:#FFF0E7;}
	.st17{opacity:0.5;}
	.st18{filter:url(#Adobe_OpacityMaskFilter);}
	.st19{filter:url(#Adobe_OpacityMaskFilter_1_);}
	.st20{mask:url(#SVGID_14_);fill:url(#SVGID_15_);}
	.st21{opacity:0.5;fill:url(#SVGID_16_);}
	.st22{fill:url(#SVGID_17_);}
	.st23{fill:url(#SVGID_18_);}
	.st24{filter:url(#Adobe_OpacityMaskFilter_2_);}
	.st25{filter:url(#Adobe_OpacityMaskFilter_3_);}
	.st26{mask:url(#SVGID_19_);fill:url(#SVGID_20_);}
	.st27{opacity:0.5;fill:url(#SVGID_21_);}
	.st28{fill:url(#SVGID_22_);}
	.st29{filter:url(#Adobe_OpacityMaskFilter_4_);}
	.st30{filter:url(#Adobe_OpacityMaskFilter_5_);}
	.st31{mask:url(#SVGID_23_);fill:url(#SVGID_24_);}
	.st32{opacity:0.5;fill:url(#SVGID_25_);}
	.st33{filter:url(#Adobe_OpacityMaskFilter_6_);}
	.st34{filter:url(#Adobe_OpacityMaskFilter_7_);}
	.st35{mask:url(#SVGID_26_);fill:url(#SVGID_27_);}
	.st36{opacity:0.5;fill:url(#SVGID_28_);}
	.st37{filter:url(#Adobe_OpacityMaskFilter_8_);}
	.st38{filter:url(#Adobe_OpacityMaskFilter_9_);}
	.st39{mask:url(#SVGID_29_);fill:url(#SVGID_30_);}
	.st40{opacity:0.5;fill:url(#SVGID_31_);}
	.st41{fill:url(#SVGID_32_);}
	.st42{fill:url(#SVGID_33_);}
	.st43{fill:url(#SVGID_34_);}
	.st44{filter:url(#Adobe_OpacityMaskFilter_10_);}
	.st45{filter:url(#Adobe_OpacityMaskFilter_11_);}
	.st46{mask:url(#SVGID_35_);fill:url(#SVGID_36_);}
	.st47{opacity:0.5;fill:url(#SVGID_37_);}
	.st48{filter:url(#Adobe_OpacityMaskFilter_12_);}
	.st49{filter:url(#Adobe_OpacityMaskFilter_13_);}
	.st50{mask:url(#SVGID_38_);fill:url(#SVGID_39_);}
	.st51{opacity:0.3;fill:url(#SVGID_40_);}
	.st52{filter:url(#Adobe_OpacityMaskFilter_14_);}
	.st53{filter:url(#Adobe_OpacityMaskFilter_15_);}
	.st54{mask:url(#SVGID_41_);fill:url(#SVGID_42_);}
	.st55{opacity:0.5;fill:url(#SVGID_43_);}
	.st56{fill:url(#SVGID_44_);}
	.st57{filter:url(#Adobe_OpacityMaskFilter_16_);}
	.st58{filter:url(#Adobe_OpacityMaskFilter_17_);}
	.st59{mask:url(#SVGID_45_);fill:url(#SVGID_46_);}
	.st60{opacity:0.5;fill:url(#SVGID_47_);}
	.st61{filter:url(#Adobe_OpacityMaskFilter_18_);}
	.st62{filter:url(#Adobe_OpacityMaskFilter_19_);}
	.st63{mask:url(#SVGID_48_);fill:url(#SVGID_49_);}
	.st64{opacity:0.5;fill:url(#SVGID_50_);}
</style>
<g>
	
		<linearGradient id="SVGID_1_" gradientUnits="userSpaceOnUse" x1="2014.3367" y1="683.3363" x2="1998.0167" y2="637.2603" gradientTransform="matrix(-0.9629 0.2698 0.2698 0.9629 1814.2806 -1124.0177)">
		<stop  offset="0" style="stop-color:#C54D9C"/>
		<stop  offset="1" style="stop-color:#C54D9C"/>
	</linearGradient>
	<polygon class="st0" points="65.7,28.8 73.6,56.8 73.5,57.2 59,77.7 48.3,41.2 	"/>
	<g>
		<g class="st1">
			
				<linearGradient id="SVGID_2_" gradientUnits="userSpaceOnUse" x1="2053.6726" y1="679.8769" x2="2016.0831" y2="646.7034" gradientTransform="matrix(-0.9629 0.2698 0.2698 0.9629 1814.2806 -1124.0177)">
				<stop  offset="0" style="stop-color:#C54D9C"/>
				<stop  offset="1" style="stop-color:#C54D9C"/>
			</linearGradient>
			<polygon class="st2" points="47.8,41.5 58.6,77.9 18.5,82.5 18.2,82.4 8.6,50.2 			"/>
			
				<linearGradient id="SVGID_3_" gradientUnits="userSpaceOnUse" x1="2024.7013" y1="673.2241" x2="2005.9231" y2="656.6519" gradientTransform="matrix(-0.9629 0.2698 0.2698 0.9629 1814.2806 -1124.0177)">
				<stop  offset="0" style="stop-color:#C54D9C"/>
				<stop  offset="1" style="stop-color:#C54D9C"/>
			</linearGradient>
			<polygon class="st3" points="48.3,41.2 59,77.7 58.6,77.9 47.8,41.5 			"/>
		</g>
	</g>
	
		<linearGradient id="SVGID_4_" gradientUnits="userSpaceOnUse" x1="2014.9655" y1="639.9576" x2="2014.9655" y2="703.9574" gradientTransform="matrix(-0.9629 0.2698 0.2698 0.9629 1814.2806 -1124.0177)">
		<stop  offset="0" style="stop-color:#C54D9C"/>
		<stop  offset="3.171833e-002" style="stop-color:#C64F9A"/>
		<stop  offset="6.068333e-002" style="stop-color:#C95497"/>
		<stop  offset="8.858257e-002" style="stop-color:#CE5C92"/>
		<stop  offset="0.1158" style="stop-color:#D4678B"/>
		<stop  offset="0.1426" style="stop-color:#DC7480"/>
		<stop  offset="0.169" style="stop-color:#E68270"/>
		<stop  offset="0.1947" style="stop-color:#F39358"/>
		<stop  offset="0.2" style="stop-color:#F79751"/>
		<stop  offset="0.726" style="stop-color:#D5688A"/>
		<stop  offset="1" style="stop-color:#C54D9C"/>
	</linearGradient>
	<polygon class="st4" points="58.5,77.7 47.8,41.5 48.3,41.3 58.9,77.5 58.7,77.6 	"/>
	<polygon class="st5" points="48.5,42.5 8.8,50.8 8.6,50.2 48.2,41.4 	"/>
	<polygon class="st5" points="48.2,41.3 65.7,28.8 65.8,29.3 48.5,42.5 	"/>
	
		<linearGradient id="SVGID_5_" gradientUnits="userSpaceOnUse" x1="2048.8271" y1="652.6492" x2="2023.0282" y2="629.8812" gradientTransform="matrix(-0.9629 0.2698 0.2698 0.9629 1814.2806 -1124.0177)">
		<stop  offset="0" style="stop-color:#C54D9C"/>
		<stop  offset="1" style="stop-color:#C54D9C"/>
	</linearGradient>
	<polygon class="st6" points="6.1,42.5 5.9,42.6 8.3,50.5 48.2,42.1 48.4,42 46,33.7 	"/>
	
		<linearGradient id="SVGID_6_" gradientUnits="userSpaceOnUse" x1="2008.6119" y1="648.5387" x2="2001.7754" y2="629.2372" gradientTransform="matrix(-0.9629 0.2698 0.2698 0.9629 1814.2806 -1124.0177)">
		<stop  offset="0" style="stop-color:#C54D9C"/>
		<stop  offset="1" style="stop-color:#C54D9C"/>
	</linearGradient>
	<polygon class="st7" points="48.4,42 48.6,41.9 65.9,28.9 63.8,22.4 63.6,22.4 46,33.7 	"/>
	
		<linearGradient id="SVGID_7_" gradientUnits="userSpaceOnUse" x1="2015.0604" y1="630.6565" x2="2015.0604" y2="646.4152" gradientTransform="matrix(-0.9629 0.2698 0.2698 0.9629 1814.2806 -1124.0177)">
		<stop  offset="0" style="stop-color:#C54D9C"/>
		<stop  offset="0.5" style="stop-color:#F9A96F"/>
		<stop  offset="1" style="stop-color:#C54D9C"/>
	</linearGradient>
	<polygon class="st8" points="48.6,41.9 46.2,33.6 45.7,33.7 48.2,42.1 	"/>
	<g>
		
			<linearGradient id="SVGID_8_" gradientUnits="userSpaceOnUse" x1="2026.4615" y1="629.4113" x2="2024.5045" y2="637.6906" gradientTransform="matrix(-0.9629 0.2698 0.2698 0.9629 1814.2806 -1124.0177)">
			<stop  offset="0" style="stop-color:#C54D9C"/>
			<stop  offset="1" style="stop-color:#C54D9C"/>
		</linearGradient>
		<polygon class="st9" points="6.1,42.5 46,33.7 63.6,22.4 63.4,22.4 25.5,31.5 6.2,42.3 		"/>
		
			<linearGradient id="SVGID_9_" gradientUnits="userSpaceOnUse" x1="1994.8965" y1="634.6385" x2="2056.1045" y2="634.6385" gradientTransform="matrix(-0.9629 0.2698 0.2698 0.9629 1814.2806 -1124.0177)">
			<stop  offset="0" style="stop-color:#C54D9C"/>
			<stop  offset="0.5" style="stop-color:#F9A96F"/>
			<stop  offset="1" style="stop-color:#C54D9C"/>
		</linearGradient>
		<polygon class="st10" points="46.1,33.7 46,33.8 5.9,42.6 6.2,42.3 45.9,33.6 63.4,22.4 63.8,22.4 		"/>
	</g>
	<polygon class="st5" points="23.9,47.2 33.1,80.8 41.9,79.8 32.6,45.4 	"/>
	<polygon class="st5" points="32.2,45.5 23.6,47.3 21.2,39.2 29.9,37.4 	"/>
	<polygon class="st11" points="35.2,30.1 30.1,37 29.9,37.4 21.2,39.2 21.5,38.9 31.3,30.8 	"/>
	
		<linearGradient id="SVGID_10_" gradientUnits="userSpaceOnUse" x1="2038.911" y1="637.9029" x2="2026.566" y2="631.5454" gradientTransform="matrix(-0.9629 0.2698 0.2698 0.9629 1814.2806 -1124.0177)">
		<stop  offset="0" style="stop-color:#F89955"/>
		<stop  offset="0.2703" style="stop-color:#FCC39B"/>
		<stop  offset="1" style="stop-color:#FCC39B"/>
	</linearGradient>
	<polygon class="st12" points="35,30.1 29.9,37.1 21.3,39 31,30.9 	"/>
	<polygon class="st5" points="56.2,36.2 66.1,67.7 69.1,63.3 60.1,33.3 	"/>
	<polygon class="st5" points="58.3,25.9 54.4,28.4 56.6,35.9 60.4,33 	"/>
	<polygon class="st11" points="57.9,25.8 58.3,25.9 54.4,28.4 54,28.4 33.9,30.7 38.2,28.2 	"/>
	
		<linearGradient id="SVGID_11_" gradientUnits="userSpaceOnUse" x1="2023.7183" y1="631.5546" x2="2001.5067" y2="633.5817" gradientTransform="matrix(-0.9629 0.2698 0.2698 0.9629 1814.2806 -1124.0177)">
		<stop  offset="0" style="stop-color:#F7944C"/>
		<stop  offset="0.2703" style="stop-color:#F9A971"/>
		<stop  offset="1" style="stop-color:#F9A66C"/>
	</linearGradient>
	<polygon class="st13" points="38.4,28.2 58,25.8 54.1,28.3 34,30.6 	"/>
	
		<linearGradient id="SVGID_12_" gradientUnits="userSpaceOnUse" x1="22.2201" y1="679.4587" x2="22.2201" y2="636.0535" gradientTransform="matrix(0.9629 -0.2698 0.2698 0.9629 -167.4814 -567.92)">
		<stop  offset="0" style="stop-color:#F7944C"/>
		<stop  offset="0.2703" style="stop-color:#FCC39B"/>
		<stop  offset="0.6919" style="stop-color:#F7944C"/>
		<stop  offset="1" style="stop-color:#FEE3D1"/>
	</linearGradient>
	<polygon class="st14" points="29.6,37.4 29.9,37.1 21.3,39 21,39.3 32.9,80.9 41.8,79.8 	"/>
	
		<linearGradient id="SVGID_13_" gradientUnits="userSpaceOnUse" x1="55.2142" y1="673.59" x2="55.2142" y2="633.6955" gradientTransform="matrix(0.9629 -0.2698 0.2698 0.9629 -167.4814 -567.92)">
		<stop  offset="0" style="stop-color:#F7944C"/>
		<stop  offset="0.2703" style="stop-color:#FCC39B"/>
		<stop  offset="0.6919" style="stop-color:#F7944C"/>
		<stop  offset="1" style="stop-color:#FEE3D1"/>
	</linearGradient>
	<polygon class="st15" points="58.5,25.8 57.3,26.2 54.1,28.3 54.5,28.3 66.1,67.6 69.4,62.9 	"/>
	<polygon class="st16" points="29.6,37.4 21,39.3 21.3,39 29.9,37.1 	"/>
	<polygon class="st16" points="58.5,25.8 54.5,28.3 54.1,28.3 58,25.8 	"/>
	<polygon class="st5" points="58.5,77.7 58.6,77.9 18.5,82.5 18.2,82.4 	"/>
	<g class="st17">
		<polygon class="st5" points="58.9,77.5 59,77.7 58.6,77.9 58.5,77.7 		"/>
		<polygon class="st5" points="73.6,56.8 73.5,57.2 59,77.7 58.9,77.5 		"/>
	</g>
	<g>
		<defs>
			<filter id="Adobe_OpacityMaskFilter" filterUnits="userSpaceOnUse" x="36.5" y="26.4" width="44.9" height="26.9">
				<feFlood  style="flood-color:white;flood-opacity:1" result="back"/>
				<feBlend  in="SourceGraphic" in2="back" mode="normal"/>
			</filter>
		</defs>
		<mask maskUnits="userSpaceOnUse" x="36.5" y="26.4" width="44.9" height="26.9" id="SVGID_14_">
			<g class="st18">
				<defs>
					<filter id="Adobe_OpacityMaskFilter_1_" filterUnits="userSpaceOnUse" x="36.5" y="26.4" width="45.3" height="27.1">
						<feFlood  style="flood-color:white;flood-opacity:1" result="back"/>
						<feBlend  in="SourceGraphic" in2="back" mode="normal"/>
					</filter>
				</defs>
				<mask maskUnits="userSpaceOnUse" x="36.5" y="26.4" width="45.3" height="27.1" id="SVGID_14_">
					<g class="st19">
					</g>
				</mask>
				
					<linearGradient id="SVGID_15_" gradientUnits="userSpaceOnUse" x1="13.5341" y1="516.8832" x2="20.3911" y2="537.6888" gradientTransform="matrix(0.932 -0.3623 0.3623 0.932 -147.8226 -447.7098)">
					<stop  offset="0" style="stop-color:#FFFFFF"/>
					<stop  offset="0.6112" style="stop-color:#646464"/>
					<stop  offset="1" style="stop-color:#000000"/>
				</linearGradient>
				<path class="st20" d="M36.5,28.9c5.8-2.9,18-3,22.1-1.7c5.6,1.7,10.1,6,12.6,12c2.5,6,9.3,7,10.6,6.4c-1.2,2.7-5.9,3.8-5.9,3.8
					c0.4,1.5,1.4,2.3,2.5,3.9c-3.5,0.6-7.8,1.4-12.4-8.1c-6.1-12.6-13.1-15-29.5-15.1L36.5,28.9z"/>
			</g>
		</mask>
		
			<linearGradient id="SVGID_16_" gradientUnits="userSpaceOnUse" x1="13.292" y1="516.865" x2="20.0851" y2="537.477" gradientTransform="matrix(0.932 -0.3623 0.3623 0.932 -147.8226 -447.7101)">
			<stop  offset="0" style="stop-color:#F7944C"/>
			<stop  offset="1" style="stop-color:#F7944C"/>
		</linearGradient>
		<path class="st21" d="M36.5,28.9c5.8-2.9,18-3,22.1-1.7c5.6,1.7,10.1,6.3,12.6,12.3c2.5,6,8.9,7,10.3,6.3
			c-1.2,2.7-5.9,3.3-5.9,3.3c0.4,1.5,1.4,2.3,2.5,3.9c-3.5,0.6-7.3,1.3-11.9-8.2C60.1,32.3,52.9,30.1,36.5,30L36.5,28.9z"/>
		
			<linearGradient id="SVGID_17_" gradientUnits="userSpaceOnUse" x1="48.3173" y1="629.9691" x2="65.0131" y2="655.5378" gradientTransform="matrix(0.9629 -0.2698 0.2698 0.9629 -167.4814 -567.9203)">
			<stop  offset="0" style="stop-color:#F7944C"/>
			<stop  offset="0.1568" style="stop-color:#F7944C"/>
			<stop  offset="0.255" style="stop-color:#FAB380"/>
			<stop  offset="0.3027" style="stop-color:#FCC39B"/>
			<stop  offset="0.3867" style="stop-color:#FDD6BA"/>
			<stop  offset="0.4595" style="stop-color:#FEE4D2"/>
			<stop  offset="0.5048" style="stop-color:#FDD3B5"/>
			<stop  offset="0.5879" style="stop-color:#FBB786"/>
			<stop  offset="0.6597" style="stop-color:#F9A467"/>
			<stop  offset="0.7165" style="stop-color:#F89854"/>
			<stop  offset="0.7514" style="stop-color:#F7944C"/>
			<stop  offset="0.9243" style="stop-color:#F7944C"/>
			<stop  offset="1" style="stop-color:#F7944C"/>
		</linearGradient>
		<path class="st22" d="M36.4,28.9c5.4-3.6,17.4-5.2,21.6-4.5c5.7,1,10.6,4.7,13.7,10.5c3.1,5.7,9.9,5.9,11.1,5.1
			c-0.9,2.8-5.4,4.5-5.4,4.5c0.6,1.4,1.6,2.1,2.9,3.6c-3.4,1.1-7.5,2.3-13.1-6.6C59.9,29.6,52.7,28.1,36.5,30L36.4,28.9z"/>
		
			<linearGradient id="SVGID_18_" gradientUnits="userSpaceOnUse" x1="-7.9417" y1="584.9014" x2="22.6567" y2="584.9014" gradientTransform="matrix(0.9516 -0.3074 0.3074 0.9516 -169.3877 -527.6047)">
			<stop  offset="0" style="stop-color:#F7944C"/>
			<stop  offset="0.5189" style="stop-color:#F7944C"/>
			<stop  offset="1" style="stop-color:#F7944C"/>
		</linearGradient>
		<path class="st23" d="M34.6,30.7C28.5,33.5,5.1,41.2,3.4,33c-0.2-3.2-0.9-6.4-3-10.7c3.7,6.4,17.6,9.1,33.3,5.2L34.6,30.7z"/>
		<defs>
			<filter id="Adobe_OpacityMaskFilter_2_" filterUnits="userSpaceOnUse" x="8" y="28.2" width="26.5" height="42.3">
				<feFlood  style="flood-color:white;flood-opacity:1" result="back"/>
				<feBlend  in="SourceGraphic" in2="back" mode="normal"/>
			</filter>
		</defs>
		<mask maskUnits="userSpaceOnUse" x="8" y="28.2" width="26.5" height="42.3" id="SVGID_19_">
			<g class="st24">
				<defs>
					<filter id="Adobe_OpacityMaskFilter_3_" filterUnits="userSpaceOnUse" x="7.8" y="28.2" width="26.6" height="42.7">
						<feFlood  style="flood-color:white;flood-opacity:1" result="back"/>
						<feBlend  in="SourceGraphic" in2="back" mode="normal"/>
					</filter>
				</defs>
				<mask maskUnits="userSpaceOnUse" x="7.8" y="28.2" width="26.6" height="42.7" id="SVGID_19_">
					<g class="st25">
					</g>
				</mask>
				
					<linearGradient id="SVGID_20_" gradientUnits="userSpaceOnUse" x1="-8.0736" y1="485.4446" x2="-33.0874" y2="500.7111" gradientTransform="matrix(0.8964 -0.4432 0.4432 0.8964 -179.0438 -404.1601)">
					<stop  offset="0" style="stop-color:#FFFFFF"/>
					<stop  offset="0.6112" style="stop-color:#646464"/>
					<stop  offset="1" style="stop-color:#000000"/>
				</linearGradient>
				<path class="st26" d="M32.5,28.2l2,2.1c-1.5,3.6-9.5,9-12.6,12.7c-4.6,5.3-8.8,15.7-4.6,27.9c-3-3.3-5.7-5.6-5.7-5.6
					c-0.6,2.2-2.2,5.5-2.2,5.5C6.8,63,6.8,48.4,14.6,39.9C19.9,34.1,27.4,31,32.5,28.2z"/>
			</g>
		</mask>
		
			<linearGradient id="SVGID_21_" gradientUnits="userSpaceOnUse" x1="-8.0575" y1="485.2964" x2="-32.7596" y2="500.3727" gradientTransform="matrix(0.8964 -0.4432 0.4432 0.8964 -179.0438 -404.1606)">
			<stop  offset="0" style="stop-color:#F7944C"/>
			<stop  offset="1" style="stop-color:#F7944C"/>
		</linearGradient>
		<path class="st27" d="M32.5,28.2l2,2.1c-1.5,3.6-9.5,9-12.6,12.7c-4.6,5.3-9,15.3-4.8,27.5c-3-3.3-5.6-6-5.6-6
			c-0.6,2.2-2,5.6-2,5.6c-2.5-7.8-2.3-21.8,5.5-30.3C20.2,34,27.4,31,32.5,28.2z"/>
		
			<linearGradient id="SVGID_22_" gradientUnits="userSpaceOnUse" x1="25.5055" y1="625.1564" x2="-1.5534" y2="656.3782" gradientTransform="matrix(0.9629 -0.2698 0.2698 0.9629 -167.4814 -567.9203)">
			<stop  offset="0" style="stop-color:#F7944C"/>
			<stop  offset="0.1568" style="stop-color:#F7944C"/>
			<stop  offset="0.2659" style="stop-color:#FAB380"/>
			<stop  offset="0.3189" style="stop-color:#FCC39B"/>
			<stop  offset="0.3942" style="stop-color:#FDD6BA"/>
			<stop  offset="0.4595" style="stop-color:#FEE4D2"/>
			<stop  offset="0.6192" style="stop-color:#FDD0B0"/>
			<stop  offset="0.7405" style="stop-color:#FCC39B"/>
			<stop  offset="0.7523" style="stop-color:#FCC197"/>
			<stop  offset="0.921" style="stop-color:#F9A062"/>
			<stop  offset="1" style="stop-color:#F7944C"/>
		</linearGradient>
		<path class="st28" d="M32.9,27.9l1.9,2.2c-2,3.3-11,7.5-14.6,10.6c-5.4,4.5-11,14-8.6,26.8C9,63.7,6.7,61,6.7,61
			c-0.9,2-3,5.1-3,5.1C2.4,58,4.5,43.7,13.4,36.5C19.6,31.7,27.4,29.8,32.9,27.9z"/>
		<defs>
			<filter id="Adobe_OpacityMaskFilter_4_" filterUnits="userSpaceOnUse" x="36.3" y="21" width="24.7" height="8.9">
				<feFlood  style="flood-color:white;flood-opacity:1" result="back"/>
				<feBlend  in="SourceGraphic" in2="back" mode="normal"/>
			</filter>
		</defs>
		<mask maskUnits="userSpaceOnUse" x="36.3" y="21" width="24.7" height="8.9" id="SVGID_23_">
			<g class="st29">
				<defs>
					<filter id="Adobe_OpacityMaskFilter_5_" filterUnits="userSpaceOnUse" x="36.3" y="20.6" width="25.3" height="9.4">
						<feFlood  style="flood-color:white;flood-opacity:1" result="back"/>
						<feBlend  in="SourceGraphic" in2="back" mode="normal"/>
					</filter>
				</defs>
				<mask maskUnits="userSpaceOnUse" x="36.3" y="20.6" width="25.3" height="9.4" id="SVGID_23_">
					<g class="st30">
					</g>
				</mask>
				
					<linearGradient id="SVGID_24_" gradientUnits="userSpaceOnUse" x1="29.6352" y1="592.0714" x2="43.9401" y2="592.215" gradientTransform="matrix(0.9516 -0.3074 0.3074 0.9516 -169.3877 -527.6047)">
					<stop  offset="0" style="stop-color:#FFFFFF"/>
					<stop  offset="0.6112" style="stop-color:#646464"/>
					<stop  offset="1" style="stop-color:#000000"/>
				</linearGradient>
				<path class="st31" d="M61.6,21.9l-12-1.3c-4.1,2.4-9.1,4.4-13.3,5.8L37,30C50.8,27.7,58.1,25,61.6,21.9z"/>
			</g>
		</mask>
		
			<linearGradient id="SVGID_25_" gradientUnits="userSpaceOnUse" x1="29.5286" y1="592.1627" x2="43.5048" y2="592.303" gradientTransform="matrix(0.9516 -0.3074 0.3074 0.9516 -169.3877 -527.6047)">
			<stop  offset="0" style="stop-color:#F7944C"/>
			<stop  offset="1" style="stop-color:#F7944C"/>
		</linearGradient>
		<path class="st32" d="M61,22l-11.3-1c-4.1,2.4-9.2,3.9-13.4,5.3L37,30C50.7,27.2,56.9,25.1,61,22z"/>
		<defs>
			<filter id="Adobe_OpacityMaskFilter_6_" filterUnits="userSpaceOnUse" x="13.4" y="29.2" width="20" height="13.5">
				<feFlood  style="flood-color:white;flood-opacity:1" result="back"/>
				<feBlend  in="SourceGraphic" in2="back" mode="normal"/>
			</filter>
		</defs>
		<mask maskUnits="userSpaceOnUse" x="13.4" y="29.2" width="20" height="13.5" id="SVGID_26_">
			<g class="st33">
				<defs>
					<filter id="Adobe_OpacityMaskFilter_7_" filterUnits="userSpaceOnUse" x="12.8" y="29.2" width="20.6" height="14.3">
						<feFlood  style="flood-color:white;flood-opacity:1" result="back"/>
						<feBlend  in="SourceGraphic" in2="back" mode="normal"/>
					</filter>
				</defs>
				<mask maskUnits="userSpaceOnUse" x="12.8" y="29.2" width="20.6" height="14.3" id="SVGID_26_">
					<g class="st34">
					</g>
				</mask>
				
					<linearGradient id="SVGID_27_" gradientUnits="userSpaceOnUse" x1="21.4321" y1="635.3102" x2="19.2349" y2="631.7616" gradientTransform="matrix(0.9629 -0.2698 0.2698 0.9629 -167.4814 -567.92)">
					<stop  offset="0" style="stop-color:#FFFFFF"/>
					<stop  offset="0.6112" style="stop-color:#646464"/>
					<stop  offset="1" style="stop-color:#000000"/>
				</linearGradient>
				<path class="st35" d="M33.4,29.9c-7.9,4.8-14.6,8.4-20.6,13.6c2.1-7.3,16.2-13.7,18.5-14.3L33.4,29.9z"/>
			</g>
		</mask>
		
			<linearGradient id="SVGID_28_" gradientUnits="userSpaceOnUse" x1="21.8915" y1="635.0711" x2="19.7794" y2="631.66" gradientTransform="matrix(0.9629 -0.2698 0.2698 0.9629 -167.4814 -567.9203)">
			<stop  offset="0" style="stop-color:#F7944C"/>
			<stop  offset="1" style="stop-color:#F7944C"/>
		</linearGradient>
		<path class="st36" d="M33.4,29.9c-7.9,4.8-14,7.7-20,12.8c2.9-7,15.5-12.9,17.8-13.5L33.4,29.9z"/>
		<defs>
			<filter id="Adobe_OpacityMaskFilter_8_" filterUnits="userSpaceOnUse" x="40" y="24.6" width="20.1" height="4.3">
				<feFlood  style="flood-color:white;flood-opacity:1" result="back"/>
				<feBlend  in="SourceGraphic" in2="back" mode="normal"/>
			</filter>
		</defs>
		<mask maskUnits="userSpaceOnUse" x="40" y="24.6" width="20.1" height="4.3" id="SVGID_29_">
			<g class="st37">
				<defs>
					<filter id="Adobe_OpacityMaskFilter_9_" filterUnits="userSpaceOnUse" x="40" y="24.4" width="20.5" height="4.9">
						<feFlood  style="flood-color:white;flood-opacity:1" result="back"/>
						<feBlend  in="SourceGraphic" in2="back" mode="normal"/>
					</filter>
				</defs>
				<mask maskUnits="userSpaceOnUse" x="40" y="24.4" width="20.5" height="4.9" id="SVGID_29_">
					<g class="st38">
					</g>
				</mask>
				
					<linearGradient id="SVGID_30_" gradientUnits="userSpaceOnUse" x1="1951.38" y1="634.2617" x2="1948.5156" y2="631.1071" gradientTransform="matrix(-0.9629 0.2698 0.2698 0.9629 1757.972 -1108.2384)">
					<stop  offset="0" style="stop-color:#FFFFFF"/>
					<stop  offset="0.6112" style="stop-color:#646464"/>
					<stop  offset="1" style="stop-color:#000000"/>
				</linearGradient>
				<path class="st39" d="M40,28.2c10.3-1.6,14.8-2.2,20.5,1.1c-5.7-7.8-15-4.3-19-2.7L40,28.2z"/>
			</g>
		</mask>
		
			<linearGradient id="SVGID_31_" gradientUnits="userSpaceOnUse" x1="1951.624" y1="634.1848" x2="1948.84" y2="631.1187" gradientTransform="matrix(-0.9629 0.2698 0.2698 0.9629 1757.972 -1108.2384)">
			<stop  offset="0" style="stop-color:#F7944C"/>
			<stop  offset="1" style="stop-color:#F7944C"/>
		</linearGradient>
		<path class="st40" d="M40,28.2c10.3-1.6,14.4-2.5,20.1,0.8c-5.6-6.8-14.6-4-18.6-2.5L40,28.2z"/>
		
			<linearGradient id="SVGID_32_" gradientUnits="userSpaceOnUse" x1="14.9226" y1="553.5658" x2="45.511" y2="553.5658" gradientTransform="matrix(0.9405 -0.3398 0.3398 0.9405 -167.5772 -492.3857)">
			<stop  offset="0" style="stop-color:#F7944C"/>
			<stop  offset="0.5189" style="stop-color:#F7944C"/>
			<stop  offset="1" style="stop-color:#F7944C"/>
		</linearGradient>
		<path class="st41" d="M61.8,10.6c2.3,1.7,2.1,4.7,0.7,7.3c-2.3,4.1-9.2,8-25.4,12.1l-0.9-3.6c10.2-4.3,24.7-13.1,20-19.5
			C56.1,6.9,58.5,8.9,61.8,10.6z"/>
		
			<linearGradient id="SVGID_33_" gradientUnits="userSpaceOnUse" x1="22.6111" y1="581.9991" x2="-6.8834" y2="581.1198" gradientTransform="matrix(0.9516 -0.3074 0.3074 0.9516 -169.3887 -527.6047)">
			<stop  offset="0" style="stop-color:#F7944C"/>
			<stop  offset="9.223300e-002" style="stop-color:#F7944C"/>
			<stop  offset="0.1772" style="stop-color:#FAB380"/>
			<stop  offset="0.2184" style="stop-color:#FCC39B"/>
			<stop  offset="0.2308" style="stop-color:#FCC197"/>
			<stop  offset="0.4075" style="stop-color:#F9A062"/>
			<stop  offset="0.4903" style="stop-color:#F7944C"/>
			<stop  offset="0.8108" style="stop-color:#FEE4D2"/>
			<stop  offset="0.8365" style="stop-color:#FEDCC5"/>
			<stop  offset="0.8853" style="stop-color:#FCC9A4"/>
			<stop  offset="0.9516" style="stop-color:#FAAB73"/>
			<stop  offset="1" style="stop-color:#F7944C"/>
		</linearGradient>
		<path class="st42" d="M32.5,26.9C25.8,24.8,20.8,13,11,13c-6.5,0-12.7,3.8-10.6,9.3C3.2,28,3,31.7,3.4,33
			c-0.2-6.1,8.1-8.2,12.2-7.5c4.2,0.7,15.3,5.8,19,5.4L32.5,26.9z"/>
		
			<linearGradient id="SVGID_34_" gradientUnits="userSpaceOnUse" x1="21.8658" y1="582.7122" x2="53.4996" y2="580.3301" gradientTransform="matrix(0.9516 -0.3074 0.3074 0.9516 -169.3887 -527.6047)">
			<stop  offset="0" style="stop-color:#F7944C"/>
			<stop  offset="9.223300e-002" style="stop-color:#F7944C"/>
			<stop  offset="0.1772" style="stop-color:#FAB380"/>
			<stop  offset="0.2184" style="stop-color:#FCC39B"/>
			<stop  offset="0.2308" style="stop-color:#FCC197"/>
			<stop  offset="0.4075" style="stop-color:#F9A062"/>
			<stop  offset="0.4903" style="stop-color:#F7944C"/>
			<stop  offset="0.8108" style="stop-color:#FEE4D2"/>
			<stop  offset="0.8365" style="stop-color:#FEDCC5"/>
			<stop  offset="0.8853" style="stop-color:#FCC9A4"/>
			<stop  offset="0.9516" style="stop-color:#FAAB73"/>
			<stop  offset="1" style="stop-color:#F7944C"/>
		</linearGradient>
		<path class="st43" d="M35.5,26c4.8-3.7,4-14,5.7-18.2c2.1-5.1,7.7-8.7,12.4-7.5c5.4,1.4,2.1,3.5,8.2,10.3
			C50.2,5.6,48,25.9,36.7,29.9L35.5,26z"/>
		<defs>
			<filter id="Adobe_OpacityMaskFilter_10_" filterUnits="userSpaceOnUse" x="17.8" y="20.7" width="15.9" height="9">
				<feFlood  style="flood-color:white;flood-opacity:1" result="back"/>
				<feBlend  in="SourceGraphic" in2="back" mode="normal"/>
			</filter>
		</defs>
		<mask maskUnits="userSpaceOnUse" x="17.8" y="20.7" width="15.9" height="9" id="SVGID_35_">
			<g class="st44">
				<defs>
					<filter id="Adobe_OpacityMaskFilter_11_" filterUnits="userSpaceOnUse" x="17.2" y="20.4" width="16.5" height="9.3">
						<feFlood  style="flood-color:white;flood-opacity:1" result="back"/>
						<feBlend  in="SourceGraphic" in2="back" mode="normal"/>
					</filter>
				</defs>
				<mask maskUnits="userSpaceOnUse" x="17.2" y="20.4" width="16.5" height="9.3" id="SVGID_35_">
					<g class="st45">
					</g>
				</mask>
				
					<linearGradient id="SVGID_36_" gradientUnits="userSpaceOnUse" x1="23.3924" y1="681.2384" x2="24.3845" y2="679.7505" gradientTransform="matrix(0.9778 -0.2095 0.2095 0.9778 -140.7338 -634.6425)">
					<stop  offset="0" style="stop-color:#FFFFFF"/>
					<stop  offset="0.6112" style="stop-color:#646464"/>
					<stop  offset="1" style="stop-color:#000000"/>
				</linearGradient>
				<path class="st46" d="M33.7,29.7c-6.3-0.6-14.5-7.1-16.5-9.3c4,0.1,13.5,6.3,16,7.8L33.7,29.7z"/>
			</g>
		</mask>
		
			<linearGradient id="SVGID_37_" gradientUnits="userSpaceOnUse" x1="23.6624" y1="681.4506" x2="24.5624" y2="680.1008" gradientTransform="matrix(0.9778 -0.2095 0.2095 0.9778 -140.7341 -634.6425)">
			<stop  offset="0" style="stop-color:#F7944C"/>
			<stop  offset="1" style="stop-color:#F7944C"/>
		</linearGradient>
		<path class="st47" d="M33.7,29.7c-6.3-0.6-13.4-6.6-15.9-9c4.2,0.8,12.9,6,15.4,7.4L33.7,29.7z"/>
		<defs>
			<filter id="Adobe_OpacityMaskFilter_12_" filterUnits="userSpaceOnUse" x="35.7" y="13.1" width="8.2" height="14.5">
				<feFlood  style="flood-color:white;flood-opacity:1" result="back"/>
				<feBlend  in="SourceGraphic" in2="back" mode="normal"/>
			</filter>
		</defs>
		<mask maskUnits="userSpaceOnUse" x="35.7" y="13.1" width="8.2" height="14.5" id="SVGID_38_">
			<g class="st48">
				<defs>
					<filter id="Adobe_OpacityMaskFilter_13_" filterUnits="userSpaceOnUse" x="35.7" y="12.3" width="8.7" height="15.3">
						<feFlood  style="flood-color:white;flood-opacity:1" result="back"/>
						<feBlend  in="SourceGraphic" in2="back" mode="normal"/>
					</filter>
				</defs>
				<mask maskUnits="userSpaceOnUse" x="35.7" y="12.3" width="8.7" height="15.3" id="SVGID_38_">
					<g class="st49">
					</g>
				</mask>
				
					<linearGradient id="SVGID_39_" gradientUnits="userSpaceOnUse" x1="42.3485" y1="625.3683" x2="42.0122" y2="624.3594" gradientTransform="matrix(0.9629 -0.2698 0.2698 0.9629 -167.4814 -567.92)">
					<stop  offset="0" style="stop-color:#FFFFFF"/>
					<stop  offset="0.6112" style="stop-color:#646464"/>
					<stop  offset="1" style="stop-color:#000000"/>
				</linearGradient>
				<path class="st50" d="M35.7,27.6c3.2-1.8,6.7-9.2,8.7-15.3c-2.8,3.2-5.1,10.6-8.7,13.7L35.7,27.6z"/>
			</g>
		</mask>
		
			<linearGradient id="SVGID_40_" gradientUnits="userSpaceOnUse" x1="41.9422" y1="625.5313" x2="41.6227" y2="624.5725" gradientTransform="matrix(0.9629 -0.2698 0.2698 0.9629 -167.4814 -567.9203)">
			<stop  offset="0" style="stop-color:#F7944C"/>
			<stop  offset="1" style="stop-color:#F7944C"/>
		</linearGradient>
		<path class="st51" d="M35.7,27.6c3.2-1.8,6.1-8.4,8.2-14.5c-2.3,3.7-4.6,10.1-8.2,13.2L35.7,27.6z"/>
		<defs>
			<filter id="Adobe_OpacityMaskFilter_14_" filterUnits="userSpaceOnUse" x="36.3" y="19.1" width="9.8" height="10.9">
				<feFlood  style="flood-color:white;flood-opacity:1" result="back"/>
				<feBlend  in="SourceGraphic" in2="back" mode="normal"/>
			</filter>
		</defs>
		<mask maskUnits="userSpaceOnUse" x="36.3" y="19.1" width="9.8" height="10.9" id="SVGID_41_">
			<g class="st52">
				<defs>
					<filter id="Adobe_OpacityMaskFilter_15_" filterUnits="userSpaceOnUse" x="36.3" y="18.5" width="10.1" height="11.5">
						<feFlood  style="flood-color:white;flood-opacity:1" result="back"/>
						<feBlend  in="SourceGraphic" in2="back" mode="normal"/>
					</filter>
				</defs>
				<mask maskUnits="userSpaceOnUse" x="36.3" y="18.5" width="10.1" height="11.5" id="SVGID_41_">
					<g class="st53">
					</g>
				</mask>
				
					<linearGradient id="SVGID_42_" gradientUnits="userSpaceOnUse" x1="41.2025" y1="626.2585" x2="41.8126" y2="627.0255" gradientTransform="matrix(0.9629 -0.2698 0.2698 0.9629 -167.4814 -567.92)">
					<stop  offset="0" style="stop-color:#FFFFFF"/>
					<stop  offset="0.6112" style="stop-color:#646464"/>
					<stop  offset="1" style="stop-color:#000000"/>
				</linearGradient>
				<path class="st54" d="M36.3,28.4c5.1-3.3,6.8-6.1,10.1-9.9c-3.2,6-5.6,9.2-9.8,11.5L36.3,28.4z"/>
			</g>
		</mask>
		
			<linearGradient id="SVGID_43_" gradientUnits="userSpaceOnUse" x1="40.8916" y1="626.4085" x2="41.4674" y2="627.1323" gradientTransform="matrix(0.9629 -0.2698 0.2698 0.9629 -167.4814 -567.9203)">
			<stop  offset="0" style="stop-color:#F7944C"/>
			<stop  offset="1" style="stop-color:#F7944C"/>
		</linearGradient>
		<path class="st55" d="M36.3,28.4c5.1-3.3,6.5-5.3,9.8-9.3c-3.3,5.6-5.5,8.5-9.5,10.9L36.3,28.4z"/>
		
			<linearGradient id="SVGID_44_" gradientUnits="userSpaceOnUse" x1="23.3276" y1="594.3475" x2="23.3276" y2="588.8715" gradientTransform="matrix(0.9516 -0.3074 0.3074 0.9516 -169.3877 -527.6047)">
			<stop  offset="0" style="stop-color:#F7944C"/>
			<stop  offset="9.223300e-002" style="stop-color:#F7944C"/>
			<stop  offset="0.1772" style="stop-color:#FAB380"/>
			<stop  offset="0.2184" style="stop-color:#FCC39B"/>
			<stop  offset="0.2308" style="stop-color:#FCC197"/>
			<stop  offset="0.4075" style="stop-color:#F9A062"/>
			<stop  offset="0.4903" style="stop-color:#F7944C"/>
			<stop  offset="0.8108" style="stop-color:#FEE4D2"/>
			<stop  offset="0.8365" style="stop-color:#FEDCC5"/>
			<stop  offset="0.8853" style="stop-color:#FCC9A4"/>
			<stop  offset="0.9516" style="stop-color:#FAAB73"/>
			<stop  offset="1" style="stop-color:#F7944C"/>
		</linearGradient>
		<path class="st56" d="M31.9,27.1c-0.3-0.9,0.6-1.2,1.1-0.9c0.4-0.6,1.1-0.7,1.7-0.5c0.3-0.1,1.3-0.5,1.5-0.3
			c0.7,2.3,1.2,3.3,1.1,4.8c-0.1,0.2-0.6-0.2-1.1-0.1c-0.3,0.6-0.7,0.8-1.2,0.7c-0.1,0.3-0.7,0.3-0.7,0.3
			C33.3,31.2,32.6,29.2,31.9,27.1z"/>
		<defs>
			<filter id="Adobe_OpacityMaskFilter_16_" filterUnits="userSpaceOnUse" x="33.2" y="27" width="1.9" height="4.2">
				<feFlood  style="flood-color:white;flood-opacity:1" result="back"/>
				<feBlend  in="SourceGraphic" in2="back" mode="normal"/>
			</filter>
		</defs>
		<mask maskUnits="userSpaceOnUse" x="33.2" y="27" width="1.9" height="4.2" id="SVGID_45_">
			<g class="st57">
				<defs>
					<filter id="Adobe_OpacityMaskFilter_17_" filterUnits="userSpaceOnUse" x="33" y="26.7" width="2" height="4.4">
						<feFlood  style="flood-color:white;flood-opacity:1" result="back"/>
						<feBlend  in="SourceGraphic" in2="back" mode="normal"/>
					</filter>
				</defs>
				<mask maskUnits="userSpaceOnUse" x="33" y="26.7" width="2" height="4.4" id="SVGID_45_">
					<g class="st58">
					</g>
				</mask>
				
					<linearGradient id="SVGID_46_" gradientUnits="userSpaceOnUse" x1="33.4753" y1="629.0665" x2="32.7278" y2="629.0288" gradientTransform="matrix(0.9629 -0.2698 0.2698 0.9629 -167.4814 -567.92)">
					<stop  offset="0" style="stop-color:#FFFFFF"/>
					<stop  offset="0.6112" style="stop-color:#646464"/>
					<stop  offset="1" style="stop-color:#000000"/>
				</linearGradient>
				<path class="st59" d="M35,30.8C35,30.8,35,30.8,35,30.8c-0.9-1.8-1.7-3.5-1.8-4.1c-0.5,0.6,0.3,3.3,1,4.4c0,0,0.1,0,0.1,0
					C34.3,31.1,34.9,31.1,35,30.8z"/>
			</g>
		</mask>
		
			<linearGradient id="SVGID_47_" gradientUnits="userSpaceOnUse" x1="33.4849" y1="629.1807" x2="32.8371" y2="629.148" gradientTransform="matrix(0.9629 -0.2698 0.2698 0.9629 -167.4814 -567.9203)">
			<stop  offset="0" style="stop-color:#F7944C"/>
			<stop  offset="1" style="stop-color:#F7944C"/>
		</linearGradient>
		<path class="st60" d="M35,30.8C35,30.8,35,30.8,35,30.8c-0.9-1.8-1.7-3.3-1.8-3.9c-0.1,0.9,0.6,3.2,1,4.2c0,0,0.1,0,0.1,0
			C34.3,31.1,34.9,31.1,35,30.8z"/>
		<defs>
			<filter id="Adobe_OpacityMaskFilter_18_" filterUnits="userSpaceOnUse" x="34.9" y="25.7" width="2.2" height="4.6">
				<feFlood  style="flood-color:white;flood-opacity:1" result="back"/>
				<feBlend  in="SourceGraphic" in2="back" mode="normal"/>
			</filter>
		</defs>
		<mask maskUnits="userSpaceOnUse" x="34.9" y="25.7" width="2.2" height="4.6" id="SVGID_48_">
			<g class="st61">
				<defs>
					<filter id="Adobe_OpacityMaskFilter_19_" filterUnits="userSpaceOnUse" x="34.7" y="25.4" width="2.4" height="4.9">
						<feFlood  style="flood-color:white;flood-opacity:1" result="back"/>
						<feBlend  in="SourceGraphic" in2="back" mode="normal"/>
					</filter>
				</defs>
				<mask maskUnits="userSpaceOnUse" x="34.7" y="25.4" width="2.4" height="4.9" id="SVGID_48_">
					<g class="st62">
					</g>
				</mask>
				
					<linearGradient id="SVGID_49_" gradientUnits="userSpaceOnUse" x1="34.0237" y1="630.0856" x2="34.7804" y2="629.0768" gradientTransform="matrix(0.9629 -0.2698 0.2698 0.9629 -167.4814 -567.92)">
					<stop  offset="0" style="stop-color:#FFFFFF"/>
					<stop  offset="0.6112" style="stop-color:#646464"/>
					<stop  offset="1" style="stop-color:#000000"/>
				</linearGradient>
				<path class="st63" d="M36.5,30.1c0.1,0,0.1,0,0.2,0c0,0,0,0,0,0c0.1,0,0.1,0,0.2,0.1c0.1,0,0.1,0,0.2,0c0,0,0,0,0,0
					c-0.1-1.1-0.1-3.3-1.6-4.8c-0.3,0.1-0.6,0.2-0.8,0.3c0.8,2,1.2,3.5,1.4,4.7c0-0.1,0.1-0.1,0.1-0.2
					C36.3,30.1,36.4,30.1,36.5,30.1C36.5,30.1,36.5,30.1,36.5,30.1z"/>
			</g>
		</mask>
		
			<linearGradient id="SVGID_50_" gradientUnits="userSpaceOnUse" x1="34.1087" y1="630.174" x2="34.8228" y2="629.2219" gradientTransform="matrix(0.9629 -0.2698 0.2698 0.9629 -167.4814 -567.9203)">
			<stop  offset="0" style="stop-color:#F7944C"/>
			<stop  offset="1" style="stop-color:#F7944C"/>
		</linearGradient>
		<path class="st64" d="M36.5,30.1c0.1,0,0.1,0,0.2,0c0,0,0,0,0,0c0.1,0,0.1,0,0.2,0.1c0.1,0,0.1,0,0.2,0c0,0,0,0,0,0
			c-0.1-1.1-0.6-3.2-1.5-4.5c-0.3,0.1-0.5,0.1-0.7,0.1c0.8,2,1.1,3.3,1.2,4.5c0-0.1,0.1-0.1,0.1-0.2C36.3,30.1,36.4,30.1,36.5,30.1
			C36.5,30.1,36.5,30.1,36.5,30.1z"/>
	</g>
</g>
</svg>
