<?xml version="1.0" encoding="utf-8"?>
<!-- Generator: Adobe Illustrator 19.0.0, SVG Export Plug-In . SVG Version: 6.00 Build 0)  -->
<svg version="1.1" id="Layer_1" xmlns="http://www.w3.org/2000/svg" xmlns:xlink="http://www.w3.org/1999/xlink" x="0px" y="0px"
	 viewBox="0 0 114.1 88.7" style="enable-background:new 0 0 114.1 88.7;" xml:space="preserve" preserveAspectRatio="none">
<style type="text/css">
	.st0{fill:url(#SVGID_1_);}
	.st1{fill:url(#SVGID_2_);}
	.st2{fill:#F4CAC9;}
	.st3{fill:#AE8283;}
	.st4{fill:url(#SVGID_3_);}
	.st5{fill:url(#SVGID_4_);}
	.st6{fill:url(#SVGID_5_);}
	.st7{fill:url(#SVGID_6_);}
	.st8{fill:url(#SVGID_7_);}
	.st9{fill:#842E1A;}
	.st10{fill:#B24826;}
	.st11{clip-path:url(#SVGID_9_);}
	.st12{fill:url(#SVGID_10_);}
	.st13{fill:url(#SVGID_11_);}
	.st14{fill:url(#SVGID_12_);}
	.st15{fill:none;}
	.st16{fill:url(#SVGID_13_);}
	.st17{fill:url(#SVGID_14_);}
	.st18{fill:url(#SVGID_15_);}
	.st19{fill:url(#SVGID_16_);}
	.st20{fill:url(#SVGID_17_);}
	.st21{fill:url(#SVGID_18_);}
	.st22{fill:url(#SVGID_19_);}
	.st23{fill:url(#SVGID_20_);}
	.st24{fill:url(#SVGID_21_);}
	.st25{fill:url(#SVGID_22_);}
	.st26{fill:url(#SVGID_23_);}
	.st27{fill:url(#SVGID_24_);}
	.st28{fill:url(#SVGID_25_);}
	.st29{fill:url(#SVGID_26_);}
	.st30{fill:#383838;}
	.st31{fill:url(#SVGID_27_);}
	.st32{fill:url(#SVGID_28_);}
	.st33{fill:url(#SVGID_29_);}
	.st34{fill:url(#SVGID_30_);}
	.st35{fill:url(#SVGID_31_);}
	.st36{fill:url(#SVGID_32_);}
	.st37{fill:url(#SVGID_33_);}
	.st38{fill:url(#SVGID_34_);}
	.st39{fill:url(#SVGID_35_);}
</style>
<g>
	<g>
		
			<linearGradient id="SVGID_1_" gradientUnits="userSpaceOnUse" x1="1186.0386" y1="123.6929" x2="1187.51" y2="-51.9029" gradientTransform="matrix(1 0 0 1 -1158.6172 0)">
			<stop  offset="0" style="stop-color:#956A69"/>
			<stop  offset="0.5333" style="stop-color:#D8AEAE"/>
		</linearGradient>
		<polygon class="st0" points="3.6,53.1 6.4,99.3 51.6,125.9 52.3,67.9 		"/>
		
			<linearGradient id="SVGID_2_" gradientUnits="userSpaceOnUse" x1="1265.5265" y1="269.016" x2="1233.0723" y2="41.8362" gradientTransform="matrix(1 0 0 1 -1158.6172 0)">
			<stop  offset="0" style="stop-color:#956A69"/>
			<stop  offset="0.5333" style="stop-color:#D8AEAE"/>
			<stop  offset="0.6734" style="stop-color:#D9B0B0"/>
			<stop  offset="0.7653" style="stop-color:#DDB8B7"/>
			<stop  offset="0.8434" style="stop-color:#E2C4C3"/>
			<stop  offset="0.9137" style="stop-color:#EBD7D6"/>
			<stop  offset="0.9783" style="stop-color:#F7F1EF"/>
			<stop  offset="1" style="stop-color:#FFFFFF"/>
		</linearGradient>
		<polygon class="st1" points="52.3,67.9 111,53.9 107.9,100.6 51.6,125.9 		"/>
		<polygon class="st2" points="52.3,66.1 52.2,74 110.6,58.4 111.1,52.5 		"/>
		<polygon class="st3" points="52.2,74 3.9,57.8 3.6,52.4 52.3,66.1 		"/>
		
			<linearGradient id="SVGID_3_" gradientUnits="userSpaceOnUse" x1="1272.6134" y1="267.6338" x2="1240.2401" y2="41.0206" gradientTransform="matrix(1 0 0 1 -1158.6172 0)">
			<stop  offset="0" style="stop-color:#956A69"/>
			<stop  offset="0.5333" style="stop-color:#D8AEAE"/>
			<stop  offset="0.6734" style="stop-color:#D9B0B0"/>
			<stop  offset="0.7653" style="stop-color:#DDB8B7"/>
			<stop  offset="0.8434" style="stop-color:#E2C4C3"/>
			<stop  offset="0.9137" style="stop-color:#EBD7D6"/>
			<stop  offset="0.9783" style="stop-color:#F7F1EF"/>
			<stop  offset="1" style="stop-color:#FFFFFF"/>
		</linearGradient>
		<polygon class="st4" points="52.1,42 114.1,33.4 112.9,53.3 51.9,68 		"/>
		
			<linearGradient id="SVGID_4_" gradientUnits="userSpaceOnUse" x1="1183.9678" y1="123.6799" x2="1185.4392" y2="-51.921" gradientTransform="matrix(1 0 0 1 -1158.6172 0)">
			<stop  offset="0" style="stop-color:#956A69"/>
			<stop  offset="0.5333" style="stop-color:#D8AEAE"/>
		</linearGradient>
		<polygon class="st5" points="0,33 52.1,42 51.9,68 1.2,52.3 		"/>
		
			<radialGradient id="SVGID_5_" cx="1068.1128" cy="13.3346" r="67.6402" gradientTransform="matrix(1 0 0 1 -1017.7344 0)" gradientUnits="userSpaceOnUse">
			<stop  offset="0" style="stop-color:#8C6262"/>
			<stop  offset="0.4667" style="stop-color:#CDA2A2"/>
			<stop  offset="0.478" style="stop-color:#CFA7A7"/>
			<stop  offset="0.5476" style="stop-color:#DEC3C2"/>
			<stop  offset="0.6192" style="stop-color:#EADBD9"/>
			<stop  offset="0.6929" style="stop-color:#F4EDEB"/>
			<stop  offset="0.7699" style="stop-color:#FCF9F8"/>
			<stop  offset="0.8556" style="stop-color:#FFFFFF"/>
		</radialGradient>
		<polygon class="st6" points="0,33 60.8,27.8 114.1,33.4 52.1,42 		"/>
		
			<linearGradient id="SVGID_6_" gradientUnits="userSpaceOnUse" x1="1042.3322" y1="40.6278" x2="1043.6168" y2="111.2833" gradientTransform="matrix(1 0 0 1 -1017.7344 0)">
			<stop  offset="0" style="stop-color:#D57A28"/>
			<stop  offset="0.6889" style="stop-color:#A84224"/>
			<stop  offset="1" style="stop-color:#842E1A"/>
		</linearGradient>
		<polygon class="st7" points="19.6,36.4 21,107.9 29.8,113 29.5,38.1 		"/>
		
			<linearGradient id="SVGID_7_" gradientUnits="userSpaceOnUse" x1="1101.0027" y1="41.2771" x2="1105.4991" y2="124.1417" gradientTransform="matrix(1 0 0 1 -1017.7344 0)">
			<stop  offset="0" style="stop-color:#FDBD68"/>
			<stop  offset="0.1389" style="stop-color:#E88F28"/>
			<stop  offset="0.1966" style="stop-color:#E88F28"/>
			<stop  offset="0.7833" style="stop-color:#E88F28"/>
			<stop  offset="0.9389" style="stop-color:#A84224"/>
			<stop  offset="1" style="stop-color:#842E1A"/>
		</linearGradient>
		<polygon class="st8" points="79.8,38.3 77.8,114.1 88.9,109.2 92.4,36.6 		"/>
		<polygon class="st9" points="29.5,112.9 29.8,113 29.9,38.3 29.5,38.1 		"/>
		<polygon class="st10" points="77.6,114.2 77.8,114.1 79.8,38.3 79.5,38.3 		"/>
		<g>
			<defs>
				<polygon id="SVGID_8_" points="0,33 60.8,27.8 114.1,33.4 52.1,42 				"/>
			</defs>
			<clipPath id="SVGID_9_">
				<use xlink:href="#SVGID_8_"  style="overflow:visible;"/>
			</clipPath>
			<g class="st11">
				
					<linearGradient id="SVGID_10_" gradientUnits="userSpaceOnUse" x1="1468.9821" y1="207.383" x2="1470.9441" y2="170.8383" gradientTransform="matrix(1 0 0 1 -1413.4941 -142.6738)">
					<stop  offset="0" style="stop-color:#D8AEAE"/>
					<stop  offset="0.7333" style="stop-color:#956A69"/>
					<stop  offset="0.7381" style="stop-color:#906665"/>
					<stop  offset="0.7688" style="stop-color:#734F4F"/>
					<stop  offset="0.801" style="stop-color:#5C3D3C"/>
					<stop  offset="0.8345" style="stop-color:#4B2E2E"/>
					<stop  offset="0.8695" style="stop-color:#3D2222"/>
					<stop  offset="0.9067" style="stop-color:#331919"/>
					<stop  offset="0.9478" style="stop-color:#2D1213"/>
					<stop  offset="1" style="stop-color:#2B1010"/>
				</linearGradient>
				<path class="st12" d="M89.3,24.6c0,0-11.3-5.3-12.8-6.6c0,0-0.3,3.3-0.1,5.1c0.1,0.7-0.2,2.1-0.5,3.5c-0.8-1.5-1.3-2.7-1.3-2.7
					s-4,1.9-9.3,4.8c-4.5-3-19.9-4.4-25.4-0.2c-0.1-0.1-0.3-0.1-0.4-0.2c-0.4-1.6-0.9-3.1-0.9-3.9c0.1-1.9-0.4-5.1-0.4-5.1
					c-1.4,1.4-12.3,7.4-12.3,7.4c0.1,0.2-0.6,2.8,1.7,3.4c0.7,0.2,1.6,0.5,2.5,0.7c-1,2.2-2.1,4.5-2.6,5.7c0,0,0.7,0.2,2.2,1.1
					c1.5,0.8,4.1,0.6,5.4,0.4c0.7-0.1,6.2-1,11.1-1.8c1.3,1.1,2.5,2,3.1,2.3c0,0,0.1-0.1,0.3-0.3c-0.1,0.1-0.2,0.2-0.3,0.3
					c0,0,0.4,0.1,1.6-0.4c1.1-0.5,1.8-0.1,2.3,0.2c0.1,0.1,0.2,0.2,0.3,0.3c0,0,0.9-0.2,4.6-2.8c2.7,0.6,7.4,1.6,15.4,3
					c0,0,0.9,0.2,4.5-1.7c3.2-1.7,2.1-2.3,1.9-2.6c-0.2-0.3-0.8-1.6-1.6-3.2c2.8-0.8,7.2-2.2,9.7-3.1C90.1,27.4,89.2,24.8,89.3,24.6
					z M49.6,38C49.6,38.1,49.6,38.1,49.6,38C49.6,38.1,49.6,38.1,49.6,38z M51.1,37.5c-0.1,0-0.1,0-0.2,0C51,37.5,51,37.5,51.1,37.5
					z M51.2,37.5c0.4,0,0.9,0.1,1.3,0.4C52.2,37.8,51.7,37.6,51.2,37.5z"/>
			</g>
		</g>
		<g>
			
				<radialGradient id="SVGID_11_" cx="1071.864" cy="33.8585" r="24.632" gradientTransform="matrix(1 0 0 1 -1017.7344 0)" gradientUnits="userSpaceOnUse">
				<stop  offset="0.3222" style="stop-color:#842E1A"/>
				<stop  offset="0.7889" style="stop-color:#A84224"/>
			</radialGradient>
			<polygon class="st13" points="19.6,36.4 79.1,29.6 88.7,30.6 29.5,38.1 			"/>
			
				<radialGradient id="SVGID_12_" cx="1069.1278" cy="29.6426" r="36.2829" gradientTransform="matrix(1 0 0 1 -1017.7344 0)" gradientUnits="userSpaceOnUse">
				<stop  offset="0.1222" style="stop-color:#842E1A"/>
				<stop  offset="0.5722" style="stop-color:#A84224"/>
				<stop  offset="1" style="stop-color:#E88F28"/>
			</radialGradient>
			<polygon class="st14" points="30.3,30.4 79.8,38.3 92.4,36.6 41.3,29.5 			"/>
		</g>
		<g>
			<polygon class="st15" points="19.6,36.4 79.1,29.6 88.7,30.6 29.5,38.1 			"/>
			<polygon class="st15" points="30.3,30.4 79.8,38.3 92.4,36.6 41.3,29.5 			"/>
		</g>
		<g>
			
				<linearGradient id="SVGID_13_" gradientUnits="userSpaceOnUse" x1="1209.661" y1="50.8941" x2="1215.5332" y2="23.7151" gradientTransform="matrix(1 0 0 1 -1158.6172 0)">
				<stop  offset="0.3167" style="stop-color:#842E1A"/>
				<stop  offset="1" style="stop-color:#2B1010"/>
			</linearGradient>
			<path class="st16" d="M80,34.9l-11.8-1.6l10.3-1.3c-0.1-0.2-0.2-0.5-0.3-0.7c1.2-0.4,2.7-0.8,4.3-1.3l-3.2-0.3l-20.4,2.3
				l-17.5-2.4l-11,0.9l17.3,2.8l-19.8,2.3c-0.2,0.4-0.3,0.8-0.4,1.1c0,0,0.7,0.2,2.2,1.1c0.3,0.2,0.7,0.3,1,0.4l26.3-3.3l19.5,3.1
				c0.4-0.2,0.9-0.4,1.4-0.7C79.8,35.9,80.1,35.3,80,34.9z"/>
		</g>
		<g>
			
				<radialGradient id="SVGID_14_" cx="971.0077" cy="-63.3924" r="13.3252" gradientTransform="matrix(1.0965 4.020000e-002 -3.960000e-002 0.778 -1001.604 29.3923)" gradientUnits="userSpaceOnUse">
				<stop  offset="0" style="stop-color:#A84224"/>
				<stop  offset="1" style="stop-color:#341212"/>
			</radialGradient>
			<path class="st17" d="M78.2,17.2c2,6.2-1.9,12.1-8.9,13.2c-6.9,1.1-14.2-3.1-16.2-9.3C51,14.9,55,9,61.9,7.9
				C68.9,6.8,76.1,11,78.2,17.2z"/>
			
				<linearGradient id="SVGID_15_" gradientUnits="userSpaceOnUse" x1="1080.941" y1="-113.2573" x2="1071.9497" y2="-123.5879" gradientTransform="matrix(0.9934 0.1149 -0.1149 0.9934 -1012.6896 2.9219)">
				<stop  offset="0" style="stop-color:#A84224"/>
				<stop  offset="0.3678" style="stop-color:#E88F28"/>
				<stop  offset="0.4611" style="stop-color:#FFF1A7"/>
				<stop  offset="0.6167" style="stop-color:#E88F28"/>
				<stop  offset="0.8778" style="stop-color:#A84224"/>
			</linearGradient>
			<path class="st18" d="M58.2,8.7C59.6,8.1,72.1,5.1,73.4,19c0,0,5.1-5.6,6.3-13.2c0,0-0.6-2.1-1.7-1.9C76.8,4.2,60.2,7.9,58.2,8.7
				z"/>
			
				<radialGradient id="SVGID_16_" cx="959.0099" cy="-67.7647" r="12.633" gradientTransform="matrix(1.0965 4.020000e-002 -3.960000e-002 0.778 -1001.604 29.3923)" gradientUnits="userSpaceOnUse">
				<stop  offset="0" style="stop-color:#842E1A"/>
				<stop  offset="1" style="stop-color:#341212"/>
			</radialGradient>
			<path class="st19" d="M64.7,14.5c0.8,6-3.9,11.2-10.6,11.6c-6.7,0.4-12.7-4.2-13.5-10.2c-0.8-6,3.9-11.2,10.6-11.6
				C57.8,3.9,63.9,8.5,64.7,14.5z"/>
			
				<linearGradient id="SVGID_17_" gradientUnits="userSpaceOnUse" x1="1091.5621" y1="-111.0754" x2="1090.5264" y2="-99.6824" gradientTransform="matrix(0.9934 0.1149 -0.1149 0.9934 -1012.6896 2.9219)">
				<stop  offset="0" style="stop-color:#A84224"/>
				<stop  offset="0.3678" style="stop-color:#E88F28"/>
				<stop  offset="0.4611" style="stop-color:#FFF1A7"/>
				<stop  offset="0.6167" style="stop-color:#E88F28"/>
				<stop  offset="0.8778" style="stop-color:#A84224"/>
			</linearGradient>
			<path class="st20" d="M76.7,30.5c0,0,8.3-2.4,12.1-4c2.2-0.7,1.4-3.3,1.5-3.6c0,0-11.2-5.4-12.7-6.8c0,0-0.3,3.3-0.1,5.2
				C77.6,23.3,75.3,30.1,76.7,30.5z"/>
			
				<linearGradient id="SVGID_18_" gradientUnits="userSpaceOnUse" x1="1165.4459" y1="32.2069" x2="1203.1022" y2="23.8932" gradientTransform="matrix(1 0 0 1 -1158.6172 0)">
				<stop  offset="1.111100e-002" style="stop-color:#842E1A"/>
				<stop  offset="0.4833" style="stop-color:#E88F28"/>
				<stop  offset="0.7355" style="stop-color:#A84224"/>
				<stop  offset="0.8778" style="stop-color:#2B1010"/>
			</linearGradient>
			<path class="st21" d="M41.3,31.9c0,0-8.5-1.9-12.3-3.2c-2.3-0.6-1.6-3.2-1.7-3.5c0,0,10.8-6.1,12.2-7.6c0,0,0.5,3.3,0.4,5.2
				C39.9,24.8,42.7,31.4,41.3,31.9z"/>
			
				<linearGradient id="SVGID_19_" gradientUnits="userSpaceOnUse" x1="1053.2129" y1="-123.1458" x2="1044.6899" y2="-111.1809" gradientTransform="matrix(0.9934 0.1149 -0.1149 0.9934 -1012.6896 2.9219)">
				<stop  offset="0" style="stop-color:#A84224"/>
				<stop  offset="0.3678" style="stop-color:#E88F28"/>
				<stop  offset="0.4611" style="stop-color:#FFF1A7"/>
				<stop  offset="0.6167" style="stop-color:#E88F28"/>
				<stop  offset="0.8778" style="stop-color:#A84224"/>
			</linearGradient>
			<path class="st22" d="M42.5,17.2c0,0-0.5-10.1,8.4-13.2c0,0-10.8-1.5-12.6-1.4c0,0-1.2,0.3-1.4,1.5C36.9,4.1,41.3,15.1,42.5,17.2
				z"/>
			
				<linearGradient id="SVGID_20_" gradientUnits="userSpaceOnUse" x1="1073.8165" y1="-88.8173" x2="1086.422" y2="-103.9439" gradientTransform="matrix(0.9934 0.1149 -0.1149 0.9934 -1012.6896 2.9219)">
				<stop  offset="0" style="stop-color:#A84224"/>
				<stop  offset="0.3678" style="stop-color:#E88F28"/>
				<stop  offset="0.4611" style="stop-color:#FFF1A7"/>
				<stop  offset="0.6167" style="stop-color:#E88F28"/>
				<stop  offset="0.8778" style="stop-color:#A84224"/>
			</linearGradient>
			<path class="st23" d="M56.2,33.7c0,0,3.8,1.2,18.2,3.8c0,0,0.9,0.2,4.4-1.8c3.1-1.8,2.1-2.4,1.9-2.7c-0.5-1-5.1-10.7-5.1-10.7
				S65.6,27.2,56.2,33.7z"/>
			
				<linearGradient id="SVGID_21_" gradientUnits="userSpaceOnUse" x1="1054.1661" y1="-117.2418" x2="1066.9351" y2="-120.537" gradientTransform="matrix(0.9934 0.1149 -0.1149 0.9934 -1012.6896 2.9219)">
				<stop  offset="0" style="stop-color:#A84224"/>
				<stop  offset="0.3678" style="stop-color:#E88F28"/>
				<stop  offset="0.4611" style="stop-color:#FFF1A7"/>
				<stop  offset="0.6167" style="stop-color:#E88F28"/>
				<stop  offset="0.8778" style="stop-color:#A84224"/>
			</linearGradient>
			<path class="st24" d="M43.3,15.2c1.9-7.5,18.8-5.5,21.9-3.2c0,0-8.9-10.6-11.7-12c0,0-2.1-0.3-2.4,0.3
				C46.2,9.2,42.8,13.1,43.3,15.2z"/>
			
				<linearGradient id="SVGID_22_" gradientUnits="userSpaceOnUse" x1="1013.1768" y1="-255.6812" x2="1012.1902" y2="-270.6761" gradientTransform="matrix(0.9738 0.2272 -0.2272 0.9738 -1011.0267 43.5817)">
				<stop  offset="1.111100e-002" style="stop-color:#A84224"/>
				<stop  offset="0.3611" style="stop-color:#E88F28"/>
				<stop  offset="0.3733" style="stop-color:#E99630"/>
				<stop  offset="0.3947" style="stop-color:#EEA949"/>
				<stop  offset="0.4226" style="stop-color:#F5CA75"/>
				<stop  offset="0.4504" style="stop-color:#FFF1A7"/>
				<stop  offset="0.6322" style="stop-color:#E88F28"/>
				<stop  offset="0.7521" style="stop-color:#A84224"/>
				<stop  offset="0.843" style="stop-color:#842E1A"/>
				<stop  offset="1" style="stop-color:#2B1010"/>
			</linearGradient>
			<path class="st25" d="M26.5,14.4c0,0-0.7,3.4,1.4,5.2c2.1,1.8,8.5,7.5,12.4,9C44.2,30,42,13.3,42,13.3S27.6,14.2,26.5,14.4z"/>
			
				<linearGradient id="SVGID_23_" gradientUnits="userSpaceOnUse" x1="1063.0804" y1="-115.4302" x2="1063.9645" y2="-103.7913" gradientTransform="matrix(0.9934 0.1149 -0.1149 0.9934 -1012.6896 2.9219)">
				<stop  offset="1.111100e-002" style="stop-color:#842E1A"/>
				<stop  offset="0.2722" style="stop-color:#E88F28"/>
				<stop  offset="0.4556" style="stop-color:#FFF1A7"/>
				<stop  offset="0.6944" style="stop-color:#E88F28"/>
				<stop  offset="0.8778" style="stop-color:#A84224"/>
			</linearGradient>
			<path class="st26" d="M46.4,12c0,0,5.7-2.2,8.5,12.5l9,1.3c0,0,4-10.4,2.6-13.1C63.5,10,47.9,10.4,46.4,12z"/>
			
				<linearGradient id="SVGID_24_" gradientUnits="userSpaceOnUse" x1="1184.9102" y1="45.1477" x2="1204.1782" y2="27.8388" gradientTransform="matrix(1 0 0 1 -1158.6172 0)">
				<stop  offset="1.111100e-002" style="stop-color:#A84224"/>
				<stop  offset="0.3611" style="stop-color:#E88F28"/>
				<stop  offset="0.4157" style="stop-color:#DD8327"/>
				<stop  offset="0.5116" style="stop-color:#C66927"/>
				<stop  offset="0.6322" style="stop-color:#A84224"/>
				<stop  offset="0.7355" style="stop-color:#842E1A"/>
				<stop  offset="1" style="stop-color:#2B1010"/>
			</linearGradient>
			<path class="st27" d="M29,35.3c0,0,0.7,0.3,2.1,1.1c1.5,0.8,4.1,0.6,5.3,0.4c1.2-0.2,17.7-2.9,18.4-3.3c0,0-20.3-10.1-20.9-9
				C33.9,24.4,29.9,32.7,29,35.3z"/>
			
				<linearGradient id="SVGID_25_" gradientUnits="userSpaceOnUse" x1="1049.1708" y1="-109.5755" x2="1052.7788" y2="-99.7822" gradientTransform="matrix(0.9934 0.1149 -0.1149 0.9934 -1012.6896 2.9219)">
				<stop  offset="0" style="stop-color:#A84224"/>
				<stop  offset="0.3678" style="stop-color:#E88F28"/>
				<stop  offset="0.4611" style="stop-color:#FFF1A7"/>
				<stop  offset="0.6167" style="stop-color:#E88F28"/>
				<stop  offset="0.8778" style="stop-color:#A84224"/>
			</linearGradient>
			<path class="st28" d="M33.7,20.2c0,0,8.4-5.1,11.6-6.9c0,0,8.8,2.6,9.4,14.3c0,0-14.9-1.5-17-2.9C35.6,23.2,35.5,20.7,33.7,20.2z
				"/>
			
				<linearGradient id="SVGID_26_" gradientUnits="userSpaceOnUse" x1="1076.1891" y1="-113.5541" x2="1080.5846" y2="-101.8328" gradientTransform="matrix(0.9934 0.1149 -0.1149 0.9934 -1012.6896 2.9219)">
				<stop  offset="0" style="stop-color:#A84224"/>
				<stop  offset="0.3678" style="stop-color:#E88F28"/>
				<stop  offset="0.4611" style="stop-color:#FFF1A7"/>
				<stop  offset="0.6167" style="stop-color:#E88F28"/>
				<stop  offset="0.8778" style="stop-color:#A84224"/>
			</linearGradient>
			<path class="st29" d="M63,27.7c0,0,0.2-5.3-0.1-8.1c-0.2-2.8-0.7-7.9,2.8-9.2c0,0,8,0.9,13.1,1.1c0,0,0.3,2.7-0.2,4
				c-0.5,1.3-1.1,5.2-7.6,8.8C64.4,28,63,27.7,63,27.7z"/>
			<path class="st30" d="M50.4,36.3c0,0,0.4,0.1,1.5-0.4c1.1-0.5,1.8-0.1,2.3,0.2C54.2,36.1,52.4,34.3,50.4,36.3z"/>
			
				<linearGradient id="SVGID_27_" gradientUnits="userSpaceOnUse" x1="1055.1064" y1="-95.0096" x2="1068.78" y2="-96.8051" gradientTransform="matrix(0.9934 0.1149 -0.1149 0.9934 -1012.6896 2.9219)">
				<stop  offset="1.111100e-002" style="stop-color:#A84224"/>
				<stop  offset="0.3278" style="stop-color:#E88F28"/>
				<stop  offset="0.3378" style="stop-color:#EB9B37"/>
				<stop  offset="0.3598" style="stop-color:#F0B458"/>
				<stop  offset="0.3828" style="stop-color:#F5CA75"/>
				<stop  offset="0.4067" style="stop-color:#FADB8A"/>
				<stop  offset="0.4321" style="stop-color:#FDE79A"/>
				<stop  offset="0.4599" style="stop-color:#FFEEA4"/>
				<stop  offset="0.4944" style="stop-color:#FFF1A7"/>
				<stop  offset="0.6889" style="stop-color:#E88F28"/>
				<stop  offset="0.8556" style="stop-color:#A84224"/>
				<stop  offset="1" style="stop-color:#842E1A"/>
			</linearGradient>
			<path class="st31" d="M50.4,36.3c0,0,2-2.3,4.1,0.1c0,0,2-0.5,12.8-9.1c-2.5-4-22.6-6.9-27-0.8C40.3,26.5,48.2,35.2,50.4,36.3z"
				/>
		</g>
	</g>
	<g>
		
			<linearGradient id="SVGID_28_" gradientUnits="userSpaceOnUse" x1="2166.5713" y1="850.3408" x2="2176.99" y2="850.3408" gradientTransform="matrix(0.9992 -3.980000e-002 -3.980000e-002 -0.9992 -2095.4148 979.4506)">
			<stop  offset="0" style="stop-color:#7E421C"/>
			<stop  offset="0.1338" style="stop-color:#81441D"/>
			<stop  offset="0.2349" style="stop-color:#8B4B1F"/>
			<stop  offset="0.3253" style="stop-color:#9C5822"/>
			<stop  offset="0.4094" style="stop-color:#B56A25"/>
			<stop  offset="0.4884" style="stop-color:#DA8527"/>
			<stop  offset="0.5083" style="stop-color:#E88F28"/>
			<stop  offset="1" style="stop-color:#6A1E0F"/>
		</linearGradient>
		<path class="st32" d="M35.7,39.3c0,0,12.8,2.2,10,8.1c0,0,0-3.4-9.2-5.9C36.5,41.5,34.8,40.1,35.7,39.3z"/>
		
			<linearGradient id="SVGID_29_" gradientUnits="userSpaceOnUse" x1="151.6459" y1="-263.5568" x2="168.5081" y2="-263.5568" gradientTransform="matrix(-0.9996 2.840000e-002 2.840000e-002 0.9996 209.6852 320.3523)">
			<stop  offset="0" style="stop-color:#E88F28"/>
			<stop  offset="6.092058e-002" style="stop-color:#E8912A"/>
			<stop  offset="0.1069" style="stop-color:#E99731"/>
			<stop  offset="0.1481" style="stop-color:#ECA13F"/>
			<stop  offset="0.1864" style="stop-color:#F0B154"/>
			<stop  offset="0.2227" style="stop-color:#F4C56F"/>
			<stop  offset="0.2571" style="stop-color:#FBDF8F"/>
			<stop  offset="0.2769" style="stop-color:#FFF1A7"/>
			<stop  offset="0.3045" style="stop-color:#FADB8B"/>
			<stop  offset="0.3484" style="stop-color:#F3BF67"/>
			<stop  offset="0.3916" style="stop-color:#EEA949"/>
			<stop  offset="0.4334" style="stop-color:#EA9A36"/>
			<stop  offset="0.473" style="stop-color:#E8922B"/>
			<stop  offset="0.5083" style="stop-color:#E88F28"/>
			<stop  offset="1" style="stop-color:#511210"/>
		</linearGradient>
		<path class="st33" d="M45.1,59c0,0,0.2,5.1-8.6,5.7c0,0-2.4-2.2-0.4-2.6c2-0.4,6.1,0.1,8.3-3.9L45.1,59z"/>
		
			<linearGradient id="SVGID_30_" gradientUnits="userSpaceOnUse" x1="167.3443" y1="-255.9718" x2="156.3508" y2="-255.9718" gradientTransform="matrix(-0.9996 2.840000e-002 2.840000e-002 0.9996 209.6852 320.3523)">
			<stop  offset="0" style="stop-color:#E88F28"/>
			<stop  offset="6.092058e-002" style="stop-color:#E8912A"/>
			<stop  offset="0.1069" style="stop-color:#E99731"/>
			<stop  offset="0.1481" style="stop-color:#ECA13F"/>
			<stop  offset="0.1864" style="stop-color:#F0B154"/>
			<stop  offset="0.2227" style="stop-color:#F4C56F"/>
			<stop  offset="0.2571" style="stop-color:#FBDF8F"/>
			<stop  offset="0.2769" style="stop-color:#FFF1A7"/>
			<stop  offset="0.3045" style="stop-color:#FADB8B"/>
			<stop  offset="0.3484" style="stop-color:#F3BF67"/>
			<stop  offset="0.3916" style="stop-color:#EEA949"/>
			<stop  offset="0.4334" style="stop-color:#EA9A36"/>
			<stop  offset="0.473" style="stop-color:#E8922B"/>
			<stop  offset="0.5083" style="stop-color:#E88F28"/>
			<stop  offset="1" style="stop-color:#A84224"/>
		</linearGradient>
		<path class="st34" d="M39.9,69.2c-3.4,0.2-4.6,2.6-4.3,4.4c0.3,2.6,6.3,3.7,6.7-1.4c0.5-6.2-7-9.7-7-9.7s-0.7,2.4,0,3.3
			c0,0,7.2,3.8,6.2,7.4c-1,3.7-5.8,2.2-5.2-0.3c0.6-2.5,3.6-2.7,4.5-2.7L39.9,69.2z"/>
		
			<linearGradient id="SVGID_31_" gradientUnits="userSpaceOnUse" x1="2179.9746" y1="828.5854" x2="2166.1057" y2="828.5854" gradientTransform="matrix(0.9996 -2.840000e-002 -2.840000e-002 -0.9996 -2101.2703 965.9789)">
			<stop  offset="0" style="stop-color:#8E351E"/>
			<stop  offset="0.1265" style="stop-color:#91381E"/>
			<stop  offset="0.2405" style="stop-color:#9A4220"/>
			<stop  offset="0.3498" style="stop-color:#AA5223"/>
			<stop  offset="0.4559" style="stop-color:#C26B26"/>
			<stop  offset="0.5592" style="stop-color:#E68E28"/>
			<stop  offset="0.562" style="stop-color:#E88F28"/>
			<stop  offset="0.6736" style="stop-color:#FFF1A7"/>
			<stop  offset="0.8223" style="stop-color:#E88F28"/>
			<stop  offset="0.8626" style="stop-color:#CB7427"/>
			<stop  offset="0.9547" style="stop-color:#9C4420"/>
			<stop  offset="1" style="stop-color:#8B321D"/>
		</linearGradient>
		<path class="st35" d="M42,69.4c6.3,1.5,5.5,12.9-2,13.5c0,0-3.2,0.3-4.3-0.4c0,0-0.2-1.4,0.3-1.9c0.5-0.4,4.4,0.8,7.6-1.4
			c2.2-1.6,2.9-6.5-1.4-8.7C42.3,70.6,41.8,69.6,42,69.4z"/>
		
			<linearGradient id="SVGID_32_" gradientUnits="userSpaceOnUse" x1="166.9588" y1="-240.8333" x2="153.5918" y2="-240.0243" gradientTransform="matrix(-0.9996 2.840000e-002 2.840000e-002 0.9996 209.6852 320.3526)">
			<stop  offset="0" style="stop-color:#E88F28"/>
			<stop  offset="6.092058e-002" style="stop-color:#E8912A"/>
			<stop  offset="0.1069" style="stop-color:#E99731"/>
			<stop  offset="0.1481" style="stop-color:#ECA13F"/>
			<stop  offset="0.1864" style="stop-color:#F0B154"/>
			<stop  offset="0.2227" style="stop-color:#F4C56F"/>
			<stop  offset="0.2571" style="stop-color:#FBDF8F"/>
			<stop  offset="0.2769" style="stop-color:#FFF1A7"/>
			<stop  offset="0.3045" style="stop-color:#FADB8B"/>
			<stop  offset="0.3484" style="stop-color:#F3BF67"/>
			<stop  offset="0.3916" style="stop-color:#EEA949"/>
			<stop  offset="0.4334" style="stop-color:#EA9A36"/>
			<stop  offset="0.473" style="stop-color:#E8922B"/>
			<stop  offset="0.5083" style="stop-color:#E88F28"/>
			<stop  offset="1" style="stop-color:#A84224"/>
		</linearGradient>
		<path class="st36" d="M36.4,80.4c0,0,9.1-1.6,9.2,8.3c0,0-1.7-6.7-9.8-6.5C35.8,82.3,35.5,80.9,36.4,80.4z"/>
		
			<linearGradient id="SVGID_33_" gradientUnits="userSpaceOnUse" x1="2165.7917" y1="856.4819" x2="2176.1199" y2="856.8968" gradientTransform="matrix(0.9996 -2.840000e-002 -2.840000e-002 -0.9996 -2101.2703 965.9789)">
			<stop  offset="0" style="stop-color:#842E1A"/>
			<stop  offset="0.1299" style="stop-color:#87311B"/>
			<stop  offset="0.2281" style="stop-color:#8F3A1D"/>
			<stop  offset="0.3158" style="stop-color:#9E4920"/>
			<stop  offset="0.3975" style="stop-color:#B45F24"/>
			<stop  offset="0.4742" style="stop-color:#D37C27"/>
			<stop  offset="0.5083" style="stop-color:#E88F28"/>
			<stop  offset="0.6736" style="stop-color:#FFF1A7"/>
			<stop  offset="0.8223" style="stop-color:#E88F28"/>
			<stop  offset="0.8501" style="stop-color:#D97F27"/>
			<stop  offset="0.9506" style="stop-color:#B55325"/>
			<stop  offset="1" style="stop-color:#A84224"/>
		</linearGradient>
		<path class="st37" d="M42.4,41.5c6.3,1.5,5,12.8-2.4,13.4c0,0-3.2,0.3-4.3-0.4c0,0-0.2-1.4,0.3-1.9c0.5-0.4,4.4,0.9,7.6-1.4
			C45.5,49.8,47.6,43.6,42.4,41.5z"/>
		
			<linearGradient id="SVGID_34_" gradientUnits="userSpaceOnUse" x1="166.2564" y1="-268.9851" x2="153.383" y2="-268.2059" gradientTransform="matrix(-0.9996 2.840000e-002 2.840000e-002 0.9996 209.6852 320.3523)">
			<stop  offset="0" style="stop-color:#E88F28"/>
			<stop  offset="6.092058e-002" style="stop-color:#E8912A"/>
			<stop  offset="0.1069" style="stop-color:#E99731"/>
			<stop  offset="0.1481" style="stop-color:#ECA13F"/>
			<stop  offset="0.1864" style="stop-color:#F0B154"/>
			<stop  offset="0.2227" style="stop-color:#F4C56F"/>
			<stop  offset="0.2571" style="stop-color:#FBDF8F"/>
			<stop  offset="0.2769" style="stop-color:#FFF1A7"/>
			<stop  offset="0.3045" style="stop-color:#FADB8B"/>
			<stop  offset="0.3484" style="stop-color:#F3BF67"/>
			<stop  offset="0.3916" style="stop-color:#EEA949"/>
			<stop  offset="0.4334" style="stop-color:#EA9A36"/>
			<stop  offset="0.473" style="stop-color:#E8922B"/>
			<stop  offset="0.5083" style="stop-color:#E88F28"/>
			<stop  offset="1" style="stop-color:#A84224"/>
		</linearGradient>
		<path class="st38" d="M36.3,52.4c0,0,11-0.5,8.6,7.9c0,0-0.3-6.4-9.2-6.1C35.7,54.2,35.4,52.9,36.3,52.4z"/>
		
			<linearGradient id="SVGID_35_" gradientUnits="userSpaceOnUse" x1="2169.9053" y1="855.8301" x2="2179.4792" y2="858.0537" gradientTransform="matrix(0.9992 -3.980000e-002 -3.980000e-002 -0.9992 -2095.4148 979.4506)">
			<stop  offset="0" style="stop-color:#E88F28"/>
			<stop  offset="6.092058e-002" style="stop-color:#E8912A"/>
			<stop  offset="0.1069" style="stop-color:#E99731"/>
			<stop  offset="0.1481" style="stop-color:#ECA13F"/>
			<stop  offset="0.1864" style="stop-color:#F0B154"/>
			<stop  offset="0.2227" style="stop-color:#F4C56F"/>
			<stop  offset="0.2571" style="stop-color:#FBDF8F"/>
			<stop  offset="0.2769" style="stop-color:#FFF1A7"/>
			<stop  offset="0.3045" style="stop-color:#FADB8B"/>
			<stop  offset="0.3484" style="stop-color:#F3BF67"/>
			<stop  offset="0.3916" style="stop-color:#EEA949"/>
			<stop  offset="0.4334" style="stop-color:#EA9A36"/>
			<stop  offset="0.473" style="stop-color:#E8922B"/>
			<stop  offset="0.5083" style="stop-color:#E88F28"/>
			<stop  offset="0.6736" style="stop-color:#FFF1A7"/>
			<stop  offset="0.8223" style="stop-color:#E88F28"/>
			<stop  offset="0.8501" style="stop-color:#D97F27"/>
			<stop  offset="0.9506" style="stop-color:#B55325"/>
			<stop  offset="1" style="stop-color:#A84224"/>
		</linearGradient>
		<path class="st39" d="M46.2,33c0,0,1.8,8.1-10.8,8.6c0,0-0.6-1.9,0.3-2.3c0.9-0.4,10.5,0.7,10.2-6.7C45.8,32.6,46,32.6,46.2,33z"
			/>
	</g>
</g>
</svg>
