<?xml version="1.0" encoding="utf-8"?>
<!-- Generator: Adobe Illustrator 19.0.0, SVG Export Plug-In . SVG Version: 6.00 Build 0)  -->
<svg version="1.1" id="Layer_1" xmlns="http://www.w3.org/2000/svg" xmlns:xlink="http://www.w3.org/1999/xlink" x="0px" y="0px"
	 viewBox="0 0 55.4 61.2" style="enable-background:new 0 0 55.4 61.2;" xml:space="preserve" preserveAspectRatio="none">
<style type="text/css">
	.st0{fill:url(#SVGID_1_);}
	.st1{fill:url(#SVGID_2_);}
	.st2{fill:#C9C9C9;}
	.st3{fill:#838383;}
	.st4{fill:url(#SVGID_3_);}
	.st5{fill:url(#SVGID_4_);}
	.st6{fill:url(#SVGID_5_);}
	.st7{fill:url(#SVGID_6_);}
	.st8{fill:url(#SVGID_7_);}
	.st9{fill:#592D0F;}
	.st10{fill:#87471F;}
	.st11{clip-path:url(#SVGID_9_);}
	.st12{fill:url(#SVGID_10_);}
	.st13{fill:url(#SVGID_11_);}
	.st14{fill:url(#SVGID_12_);}
	.st15{fill:none;}
	.st16{fill:url(#SVGID_13_);}
	.st17{fill:url(#SVGID_14_);}
	.st18{fill:url(#SVGID_15_);}
	.st19{fill:url(#SVGID_16_);}
	.st20{fill:url(#SVGID_17_);}
	.st21{fill:url(#SVGID_18_);}
	.st22{fill:url(#SVGID_19_);}
	.st23{fill:url(#SVGID_20_);}
	.st24{fill:url(#SVGID_21_);}
	.st25{fill:url(#SVGID_22_);}
	.st26{fill:url(#SVGID_23_);}
	.st27{fill:url(#SVGID_24_);}
	.st28{fill:url(#SVGID_25_);}
	.st29{fill:url(#SVGID_26_);}
	.st30{fill:#383838;}
	.st31{fill:url(#SVGID_27_);}
	.st32{fill:url(#SVGID_28_);}
	.st33{fill:url(#SVGID_29_);}
	.st34{fill:url(#SVGID_30_);}
	.st35{fill:url(#SVGID_31_);}
	.st36{fill:url(#SVGID_32_);}
	.st37{fill:url(#SVGID_33_);}
	.st38{fill:url(#SVGID_34_);}
	.st39{fill:url(#SVGID_35_);}
</style>
<g>
	<g>
		
			<linearGradient id="SVGID_1_" gradientUnits="userSpaceOnUse" x1="1171.9393" y1="60.0929" x2="1172.6542" y2="-25.2158" gradientTransform="matrix(1 0 0 1 -1158.6172 0)">
			<stop  offset="0" style="stop-color:#6A6A6A"/>
			<stop  offset="0.5333" style="stop-color:#AEAEAE"/>
		</linearGradient>
		<polygon class="st0" points="1.8,25.8 3.1,48.3 25.1,61.2 25.4,33 		"/>
		
			<linearGradient id="SVGID_2_" gradientUnits="userSpaceOnUse" x1="1210.5562" y1="130.6942" x2="1194.7892" y2="20.3251" gradientTransform="matrix(1 0 0 1 -1158.6172 0)">
			<stop  offset="0" style="stop-color:#6A6A6A"/>
			<stop  offset="0.5333" style="stop-color:#AEAEAE"/>
			<stop  offset="0.674" style="stop-color:#B0B0B0"/>
			<stop  offset="0.7663" style="stop-color:#B8B7B7"/>
			<stop  offset="0.8447" style="stop-color:#C5C4C3"/>
			<stop  offset="0.9153" style="stop-color:#D7D6D6"/>
			<stop  offset="0.9801" style="stop-color:#F2F1F0"/>
			<stop  offset="1" style="stop-color:#FFFFFF"/>
		</linearGradient>
		<polygon class="st1" points="25.4,33 53.9,26.2 52.4,48.9 25.1,61.2 		"/>
		<polygon class="st2" points="25.4,32.1 25.4,36 53.7,28.4 54,25.5 		"/>
		<polygon class="st3" points="25.4,36 1.9,28.1 1.7,25.5 25.4,32.1 		"/>
		
			<linearGradient id="SVGID_3_" gradientUnits="userSpaceOnUse" x1="1213.9989" y1="130.0223" x2="1198.2714" y2="19.9292" gradientTransform="matrix(1 0 0 1 -1158.6172 0)">
			<stop  offset="0" style="stop-color:#6A6A6A"/>
			<stop  offset="0.5333" style="stop-color:#AEAEAE"/>
			<stop  offset="0.674" style="stop-color:#B0B0B0"/>
			<stop  offset="0.7663" style="stop-color:#B8B7B7"/>
			<stop  offset="0.8447" style="stop-color:#C5C4C3"/>
			<stop  offset="0.9153" style="stop-color:#D7D6D6"/>
			<stop  offset="0.9801" style="stop-color:#F2F1F0"/>
			<stop  offset="1" style="stop-color:#FFFFFF"/>
		</linearGradient>
		<polygon class="st4" points="25.3,20.4 55.4,16.2 54.8,25.9 25.2,33 		"/>
		
			<linearGradient id="SVGID_4_" gradientUnits="userSpaceOnUse" x1="1170.9329" y1="60.0877" x2="1171.6478" y2="-25.2255" gradientTransform="matrix(1 0 0 1 -1158.6172 0)">
			<stop  offset="0" style="stop-color:#6A6A6A"/>
			<stop  offset="0.5333" style="stop-color:#AEAEAE"/>
		</linearGradient>
		<polygon class="st5" points="0,16.1 25.3,20.4 25.2,33 0.6,25.4 		"/>
		
			<radialGradient id="SVGID_5_" cx="1042.2094" cy="6.4781" r="32.8614" gradientTransform="matrix(1 0 0 1 -1017.7344 0)" gradientUnits="userSpaceOnUse">
			<stop  offset="0" style="stop-color:#616262"/>
			<stop  offset="0.4667" style="stop-color:#A1A1A0"/>
			<stop  offset="0.4815" style="stop-color:#A8A7A7"/>
			<stop  offset="0.5504" style="stop-color:#C4C2C1"/>
			<stop  offset="0.6213" style="stop-color:#DBD9D9"/>
			<stop  offset="0.6944" style="stop-color:#EDECEB"/>
			<stop  offset="0.7707" style="stop-color:#F9F8F8"/>
			<stop  offset="0.8556" style="stop-color:#FFFFFF"/>
		</radialGradient>
		<polygon class="st6" points="0,16.1 29.5,13.5 55.4,16.2 25.3,20.4 		"/>
		
			<linearGradient id="SVGID_6_" gradientUnits="userSpaceOnUse" x1="1029.6844" y1="19.7379" x2="1030.3086" y2="54.0644" gradientTransform="matrix(1 0 0 1 -1017.7344 0)">
			<stop  offset="0" style="stop-color:#AB7A2B"/>
			<stop  offset="0.6889" style="stop-color:#7D411C"/>
			<stop  offset="1" style="stop-color:#592D0F"/>
		</linearGradient>
		<polygon class="st7" points="9.5,17.7 10.2,52.4 14.5,54.9 14.3,18.5 		"/>
		
			<linearGradient id="SVGID_7_" gradientUnits="userSpaceOnUse" x1="1058.1882" y1="20.054" x2="1060.3727" y2="60.3111" gradientTransform="matrix(1 0 0 1 -1017.7344 0)">
			<stop  offset="0" style="stop-color:#DCBE66"/>
			<stop  offset="0.1389" style="stop-color:#BD8F2D"/>
			<stop  offset="0.1966" style="stop-color:#BD8F2D"/>
			<stop  offset="0.7833" style="stop-color:#BD8F2D"/>
			<stop  offset="0.9389" style="stop-color:#7D411C"/>
			<stop  offset="1" style="stop-color:#592D0F"/>
		</linearGradient>
		<polygon class="st8" points="38.8,18.6 37.8,55.5 43.2,53 44.9,17.8 		"/>
		<polygon class="st9" points="14.3,54.8 14.5,54.9 14.5,18.6 14.3,18.5 		"/>
		<polygon class="st10" points="37.7,55.5 37.8,55.5 38.8,18.6 38.6,18.6 		"/>
		<g>
			<defs>
				<polygon id="SVGID_8_" points="0,16.1 29.5,13.5 55.4,16.2 25.3,20.4 				"/>
			</defs>
			<clipPath id="SVGID_9_">
				<use xlink:href="#SVGID_8_"  style="overflow:visible;"/>
			</clipPath>
			<g class="st11">
				
					<linearGradient id="SVGID_10_" gradientUnits="userSpaceOnUse" x1="1440.4509" y1="174.1119" x2="1441.4042" y2="156.3578" gradientTransform="matrix(1 0 0 1 -1413.4937 -142.6743)">
					<stop  offset="0" style="stop-color:#AEAEAE"/>
					<stop  offset="0.7333" style="stop-color:#6A6A6A"/>
					<stop  offset="0.7446" style="stop-color:#606060"/>
					<stop  offset="0.7745" style="stop-color:#494A4A"/>
					<stop  offset="0.806" style="stop-color:#363737"/>
					<stop  offset="0.8386" style="stop-color:#272828"/>
					<stop  offset="0.8727" style="stop-color:#1A1B1B"/>
					<stop  offset="0.909" style="stop-color:#0E0F0E"/>
					<stop  offset="0.9491" style="stop-color:#040404"/>
					<stop  offset="1" style="stop-color:#010101"/>
				</linearGradient>
				<path class="st12" d="M43.4,11.9c0,0-5.5-2.6-6.2-3.2c0,0-0.1,1.6-0.1,2.5c0,0.3-0.1,1-0.3,1.7c-0.4-0.7-0.6-1.3-0.6-1.3
					s-1.9,0.9-4.5,2.4c-2.2-1.5-9.7-2.1-12.3-0.1c-0.1,0-0.1-0.1-0.2-0.1c-0.2-0.8-0.4-1.5-0.4-1.9c0-0.9-0.2-2.5-0.2-2.5
					c-0.7,0.7-6,3.6-6,3.6c0,0.1-0.3,1.4,0.8,1.7c0.3,0.1,0.8,0.2,1.2,0.4c-0.5,1.1-1,2.2-1.2,2.8c0,0,0.3,0.1,1.1,0.5
					c0.7,0.4,2,0.3,2.6,0.2c0.3-0.1,3-0.5,5.4-0.9c0.6,0.5,1.2,1,1.5,1.1c0,0,0.1-0.1,0.2-0.1c-0.1,0-0.1,0.1-0.2,0.1
					c0,0,0.2,0,0.8-0.2c0.5-0.2,0.9-0.1,1.1,0.1c0.1,0,0.1,0.1,0.2,0.2c0,0,0.4-0.1,2.3-1.4c1.3,0.3,3.6,0.8,7.5,1.5
					c0,0,0.4,0.1,2.2-0.8c1.5-0.8,1-1.1,0.9-1.3c-0.1-0.2-0.4-0.8-0.8-1.6c1.4-0.4,3.5-1,4.7-1.5C43.8,13.3,43.4,12.1,43.4,11.9z
					 M24.1,18.5C24.1,18.5,24.1,18.5,24.1,18.5C24.1,18.5,24.1,18.5,24.1,18.5z M24.8,18.2c0,0-0.1,0-0.1,0
					C24.8,18.2,24.8,18.2,24.8,18.2z M24.9,18.2c0.2,0,0.4,0.1,0.7,0.2C25.4,18.4,25.1,18.2,24.9,18.2z"/>
			</g>
		</g>
		<g>
			
				<radialGradient id="SVGID_11_" cx="1044.0319" cy="16.4493" r="11.9668" gradientTransform="matrix(1 0 0 1 -1017.7344 0)" gradientUnits="userSpaceOnUse">
				<stop  offset="0.3222" style="stop-color:#592D0F"/>
				<stop  offset="0.7889" style="stop-color:#7D411C"/>
			</radialGradient>
			<polygon class="st13" points="9.5,17.7 38.4,14.4 43.1,14.9 14.3,18.5 			"/>
			
				<radialGradient id="SVGID_12_" cx="1042.7026" cy="14.4014" r="17.6271" gradientTransform="matrix(1 0 0 1 -1017.7344 0)" gradientUnits="userSpaceOnUse">
				<stop  offset="0.1222" style="stop-color:#592D0F"/>
				<stop  offset="0.5722" style="stop-color:#7D411C"/>
				<stop  offset="1" style="stop-color:#BD8F2D"/>
			</radialGradient>
			<polygon class="st14" points="14.7,14.8 38.8,18.6 44.9,17.8 20.1,14.3 			"/>
		</g>
		<g>
			<polygon class="st15" points="9.5,17.7 38.4,14.4 43.1,14.9 14.3,18.5 			"/>
			<polygon class="st15" points="14.7,14.8 38.8,18.6 44.9,17.8 20.1,14.3 			"/>
		</g>
		<g>
			
				<linearGradient id="SVGID_13_" gradientUnits="userSpaceOnUse" x1="1183.4156" y1="24.7251" x2="1186.2684" y2="11.5211" gradientTransform="matrix(1 0 0 1 -1158.6172 0)">
				<stop  offset="0.3167" style="stop-color:#592D0F"/>
				<stop  offset="1" style="stop-color:#010101"/>
			</linearGradient>
			<path class="st16" d="M38.8,16.9l-5.7-0.8l5-0.6c-0.1-0.1-0.1-0.2-0.2-0.3c0.6-0.2,1.3-0.4,2.1-0.6l-1.6-0.2l-9.9,1.1l-8.5-1.2
				l-5.3,0.5l8.4,1.3l-9.6,1.1c-0.1,0.2-0.2,0.4-0.2,0.5c0,0,0.3,0.1,1.1,0.5c0.1,0.1,0.3,0.1,0.5,0.2l12.8-1.6l9.5,1.5
				c0.2-0.1,0.4-0.2,0.7-0.4C38.8,17.4,38.9,17.1,38.8,16.9z"/>
		</g>
		<g>
			
				<radialGradient id="SVGID_14_" cx="938.7219" cy="-66.6038" r="6.4736" gradientTransform="matrix(1.0965 4.020000e-002 -3.960000e-002 0.778 -1000.0681 23.3641)" gradientUnits="userSpaceOnUse">
				<stop  offset="0" style="stop-color:#7D411C"/>
				<stop  offset="1" style="stop-color:#12090A"/>
			</radialGradient>
			<path class="st17" d="M38,8.3c1,3-0.9,5.9-4.3,6.4c-3.4,0.5-6.9-1.5-7.9-4.5c-1-3,0.9-5.9,4.3-6.4C33.5,3.3,37,5.3,38,8.3z"/>
			
				<linearGradient id="SVGID_15_" gradientUnits="userSpaceOnUse" x1="1045.7488" y1="-119.9148" x2="1041.3807" y2="-124.9333" gradientTransform="matrix(0.9934 0.1149 -0.1149 0.9934 -1016.6109 6.0662)">
				<stop  offset="0" style="stop-color:#7D411C"/>
				<stop  offset="0.3678" style="stop-color:#BD8F2D"/>
				<stop  offset="0.4611" style="stop-color:#FEF2A7"/>
				<stop  offset="0.6167" style="stop-color:#BD8F2D"/>
				<stop  offset="0.8778" style="stop-color:#7D411C"/>
			</linearGradient>
			<path class="st18" d="M28.3,4.2c0.7-0.3,6.7-1.7,7.4,5c0,0,2.5-2.7,3-6.4c0,0-0.3-1-0.8-0.9C37.3,2,29.3,3.8,28.3,4.2z"/>
			
				<radialGradient id="SVGID_16_" cx="932.8932" cy="-68.728" r="6.1374" gradientTransform="matrix(1.0965 4.020000e-002 -3.960000e-002 0.778 -1000.0681 23.3641)" gradientUnits="userSpaceOnUse">
				<stop  offset="0" style="stop-color:#592D0F"/>
				<stop  offset="1" style="stop-color:#12090A"/>
			</radialGradient>
			<path class="st19" d="M31.4,7.1c0.4,2.9-1.9,5.4-5.2,5.6c-3.2,0.2-6.2-2-6.6-5c-0.4-2.9,1.9-5.4,5.2-5.6
				C28.1,1.9,31,4.1,31.4,7.1z"/>
			
				<linearGradient id="SVGID_17_" gradientUnits="userSpaceOnUse" x1="1050.9089" y1="-118.8552" x2="1050.4058" y2="-113.3204" gradientTransform="matrix(0.9934 0.1149 -0.1149 0.9934 -1016.6109 6.0662)">
				<stop  offset="0" style="stop-color:#7D411C"/>
				<stop  offset="0.3678" style="stop-color:#BD8F2D"/>
				<stop  offset="0.4611" style="stop-color:#FEF2A7"/>
				<stop  offset="0.6167" style="stop-color:#BD8F2D"/>
				<stop  offset="0.8778" style="stop-color:#7D411C"/>
			</linearGradient>
			<path class="st20" d="M37.3,14.8c0,0,4-1.2,5.9-1.9c1.1-0.3,0.7-1.6,0.7-1.7c0,0-5.4-2.6-6.2-3.3c0,0-0.1,1.6-0.1,2.5
				C37.7,11.3,36.6,14.6,37.3,14.8z"/>
			
				<linearGradient id="SVGID_18_" gradientUnits="userSpaceOnUse" x1="1161.9351" y1="15.6472" x2="1180.2291" y2="11.6083" gradientTransform="matrix(1 0 0 1 -1158.6172 0)">
				<stop  offset="1.111100e-002" style="stop-color:#592D0F"/>
				<stop  offset="0.4833" style="stop-color:#BD8F2D"/>
				<stop  offset="0.7355" style="stop-color:#7D411C"/>
				<stop  offset="0.8778" style="stop-color:#010101"/>
			</linearGradient>
			<path class="st21" d="M20.1,15.5c0,0-4.1-0.9-6-1.6c-1.1-0.3-0.8-1.6-0.8-1.7c0,0,5.2-3,5.9-3.7c0,0,0.2,1.6,0.2,2.5
				C19.4,12,20.7,15.3,20.1,15.5z"/>
			
				<linearGradient id="SVGID_19_" gradientUnits="userSpaceOnUse" x1="1032.2777" y1="-124.7189" x2="1028.1372" y2="-118.9062" gradientTransform="matrix(0.9934 0.1149 -0.1149 0.9934 -1016.6109 6.0662)">
				<stop  offset="0" style="stop-color:#7D411C"/>
				<stop  offset="0.3678" style="stop-color:#BD8F2D"/>
				<stop  offset="0.4611" style="stop-color:#FEF2A7"/>
				<stop  offset="0.6167" style="stop-color:#BD8F2D"/>
				<stop  offset="0.8778" style="stop-color:#7D411C"/>
			</linearGradient>
			<path class="st22" d="M20.7,8.4c0,0-0.2-4.9,4.1-6.4c0,0-5.3-0.7-6.1-0.7c0,0-0.6,0.2-0.7,0.7C17.9,2,20,7.3,20.7,8.4z"/>
			
				<linearGradient id="SVGID_20_" gradientUnits="userSpaceOnUse" x1="1042.2877" y1="-108.0418" x2="1048.4117" y2="-115.3905" gradientTransform="matrix(0.9934 0.1149 -0.1149 0.9934 -1016.6109 6.0662)">
				<stop  offset="0" style="stop-color:#7D411C"/>
				<stop  offset="0.3678" style="stop-color:#BD8F2D"/>
				<stop  offset="0.4611" style="stop-color:#FEF2A7"/>
				<stop  offset="0.6167" style="stop-color:#BD8F2D"/>
				<stop  offset="0.8778" style="stop-color:#7D411C"/>
			</linearGradient>
			<path class="st23" d="M27.3,16.4c0,0,1.9,0.6,8.8,1.9c0,0,0.4,0.1,2.1-0.9c1.5-0.9,1-1.1,0.9-1.3c-0.2-0.5-2.5-5.2-2.5-5.2
				S31.9,13.2,27.3,16.4z"/>
			
				<linearGradient id="SVGID_21_" gradientUnits="userSpaceOnUse" x1="1032.7411" y1="-121.851" x2="1038.9445" y2="-123.4519" gradientTransform="matrix(0.9934 0.1149 -0.1149 0.9934 -1016.6109 6.0662)">
				<stop  offset="0" style="stop-color:#7D411C"/>
				<stop  offset="0.3678" style="stop-color:#BD8F2D"/>
				<stop  offset="0.4611" style="stop-color:#FEF2A7"/>
				<stop  offset="0.6167" style="stop-color:#BD8F2D"/>
				<stop  offset="0.8778" style="stop-color:#7D411C"/>
			</linearGradient>
			<path class="st24" d="M21,7.4c0.9-3.7,9.1-2.7,10.6-1.5c0,0-4.3-5.1-5.7-5.8c0,0-1-0.2-1.2,0.2C22.5,4.5,20.8,6.4,21,7.4z"/>
			
				<linearGradient id="SVGID_22_" gradientUnits="userSpaceOnUse" x1="1000.0169" y1="-271.6484" x2="999.5377" y2="-278.9331" gradientTransform="matrix(0.9738 0.2272 -0.2272 0.9738 -1019.1648 49.3727)">
				<stop  offset="1.111100e-002" style="stop-color:#7D411C"/>
				<stop  offset="0.3611" style="stop-color:#BD8F2D"/>
				<stop  offset="0.3729" style="stop-color:#C19532"/>
				<stop  offset="0.3936" style="stop-color:#CCA648"/>
				<stop  offset="0.4208" style="stop-color:#E0C471"/>
				<stop  offset="0.4504" style="stop-color:#FEF2A7"/>
				<stop  offset="0.6322" style="stop-color:#BD8F2D"/>
				<stop  offset="0.7521" style="stop-color:#7D411C"/>
				<stop  offset="0.843" style="stop-color:#592D0F"/>
				<stop  offset="1" style="stop-color:#010101"/>
			</linearGradient>
			<path class="st25" d="M12.9,7c0,0-0.3,1.6,0.7,2.5c1,0.9,4.1,3.7,6,4.3c1.9,0.7,0.8-7.4,0.8-7.4S13.4,6.9,12.9,7z"/>
			
				<linearGradient id="SVGID_23_" gradientUnits="userSpaceOnUse" x1="1037.072" y1="-120.9704" x2="1037.5015" y2="-115.3158" gradientTransform="matrix(0.9934 0.1149 -0.1149 0.9934 -1016.6109 6.0662)">
				<stop  offset="1.111100e-002" style="stop-color:#592D0F"/>
				<stop  offset="0.2722" style="stop-color:#BD8F2D"/>
				<stop  offset="0.4556" style="stop-color:#FEF2A7"/>
				<stop  offset="0.6944" style="stop-color:#BD8F2D"/>
				<stop  offset="0.8778" style="stop-color:#7D411C"/>
			</linearGradient>
			<path class="st26" d="M22.5,5.8c0,0,2.8-1.1,4.1,6.1l4.4,0.6c0,0,1.9-5.1,1.2-6.4C30.9,4.9,23.3,5,22.5,5.8z"/>
			
				<linearGradient id="SVGID_24_" gradientUnits="userSpaceOnUse" x1="1171.3911" y1="21.9338" x2="1180.752" y2="13.5249" gradientTransform="matrix(1 0 0 1 -1158.6172 0)">
				<stop  offset="1.111100e-002" style="stop-color:#7D411C"/>
				<stop  offset="0.3611" style="stop-color:#BD8F2D"/>
				<stop  offset="0.4167" style="stop-color:#B4842B"/>
				<stop  offset="0.5144" style="stop-color:#9D6826"/>
				<stop  offset="0.6322" style="stop-color:#7D411C"/>
				<stop  offset="0.7355" style="stop-color:#592D0F"/>
				<stop  offset="1" style="stop-color:#010101"/>
			</linearGradient>
			<path class="st27" d="M14.1,17.2c0,0,0.3,0.1,1,0.5c0.7,0.4,2,0.3,2.6,0.2c0.6-0.1,8.6-1.4,8.9-1.6c0,0-9.9-4.9-10.1-4.4
				C16.5,11.9,14.5,15.9,14.1,17.2z"/>
			
				<linearGradient id="SVGID_25_" gradientUnits="userSpaceOnUse" x1="1030.3142" y1="-118.1262" x2="1032.0669" y2="-113.3687" gradientTransform="matrix(0.9934 0.1149 -0.1149 0.9934 -1016.6109 6.0662)">
				<stop  offset="0" style="stop-color:#7D411C"/>
				<stop  offset="0.3678" style="stop-color:#BD8F2D"/>
				<stop  offset="0.4611" style="stop-color:#FEF2A7"/>
				<stop  offset="0.6167" style="stop-color:#BD8F2D"/>
				<stop  offset="0.8778" style="stop-color:#7D411C"/>
			</linearGradient>
			<path class="st28" d="M16.4,9.8c0,0,4.1-2.5,5.6-3.3c0,0,4.3,1.3,4.6,6.9c0,0-7.2-0.7-8.2-1.4C17.3,11.3,17.3,10.1,16.4,9.8z"/>
			
				<linearGradient id="SVGID_26_" gradientUnits="userSpaceOnUse" x1="1043.4401" y1="-120.0589" x2="1045.5754" y2="-114.3646" gradientTransform="matrix(0.9934 0.1149 -0.1149 0.9934 -1016.6109 6.0662)">
				<stop  offset="0" style="stop-color:#7D411C"/>
				<stop  offset="0.3678" style="stop-color:#BD8F2D"/>
				<stop  offset="0.4611" style="stop-color:#FEF2A7"/>
				<stop  offset="0.6167" style="stop-color:#BD8F2D"/>
				<stop  offset="0.8778" style="stop-color:#7D411C"/>
			</linearGradient>
			<path class="st29" d="M30.6,13.5c0,0,0.1-2.6,0-3.9c-0.1-1.4-0.3-3.8,1.4-4.5c0,0,3.9,0.5,6.3,0.6c0,0,0.1,1.3-0.1,1.9
				c-0.3,0.6-0.5,2.5-3.7,4.3C31.3,13.6,30.6,13.5,30.6,13.5z"/>
			<path class="st30" d="M24.5,17.6c0,0,0.2,0,0.8-0.2c0.5-0.2,0.9,0,1.1,0.1C26.3,17.5,25.4,16.6,24.5,17.6z"/>
			
				<linearGradient id="SVGID_27_" gradientUnits="userSpaceOnUse" x1="1033.1979" y1="-111.0498" x2="1039.8409" y2="-111.9222" gradientTransform="matrix(0.9934 0.1149 -0.1149 0.9934 -1016.6109 6.0662)">
				<stop  offset="1.111100e-002" style="stop-color:#7D411C"/>
				<stop  offset="0.3278" style="stop-color:#BD8F2D"/>
				<stop  offset="0.3405" style="stop-color:#C69E3C"/>
				<stop  offset="0.362" style="stop-color:#D5B45B"/>
				<stop  offset="0.3846" style="stop-color:#E2C876"/>
				<stop  offset="0.4082" style="stop-color:#EED98A"/>
				<stop  offset="0.4332" style="stop-color:#F6E69A"/>
				<stop  offset="0.4605" style="stop-color:#FCEEA4"/>
				<stop  offset="0.4944" style="stop-color:#FEF2A7"/>
				<stop  offset="0.6889" style="stop-color:#BD8F2D"/>
				<stop  offset="0.8556" style="stop-color:#7D411C"/>
				<stop  offset="1" style="stop-color:#592D0F"/>
			</linearGradient>
			<path class="st31" d="M24.5,17.6c0,0,0.9-1.1,2,0c0,0,0.9-0.3,6.2-4.4c-1.2-1.9-11-3.3-13.1-0.4C19.6,12.9,23.4,17.1,24.5,17.6z"
				/>
		</g>
	</g>
	<g>
		
			<linearGradient id="SVGID_28_" gradientUnits="userSpaceOnUse" x1="2147.8684" y1="807.4135" x2="2152.9302" y2="807.4135" gradientTransform="matrix(0.9992 -3.980000e-002 -3.980000e-002 -0.9992 -2096.7295 913.4156)">
			<stop  offset="0" style="stop-color:#534118"/>
			<stop  offset="0.1203" style="stop-color:#554319"/>
			<stop  offset="0.2112" style="stop-color:#5C491B"/>
			<stop  offset="0.2924" style="stop-color:#69521F"/>
			<stop  offset="0.368" style="stop-color:#7D6124"/>
			<stop  offset="0.439" style="stop-color:#987429"/>
			<stop  offset="0.5069" style="stop-color:#BC8F2D"/>
			<stop  offset="0.5083" style="stop-color:#BD8F2D"/>
			<stop  offset="1" style="stop-color:#3D1C0D"/>
		</linearGradient>
		<path class="st32" d="M17.4,19.1c0,0,6.2,1.1,4.8,3.9c0,0,0-1.7-4.5-2.9C17.7,20.2,16.9,19.5,17.4,19.1z"/>
		
			<linearGradient id="SVGID_29_" gradientUnits="userSpaceOnUse" x1="119.2367" y1="-294.9377" x2="127.4281" y2="-294.9377" gradientTransform="matrix(-0.9996 2.840000e-002 2.840000e-002 0.9996 152.1546 321.1698)">
			<stop  offset="0" style="stop-color:#BD8F2D"/>
			<stop  offset="5.993695e-002" style="stop-color:#BE912E"/>
			<stop  offset="0.1052" style="stop-color:#C19633"/>
			<stop  offset="0.1457" style="stop-color:#C89F3F"/>
			<stop  offset="0.1834" style="stop-color:#D1AD51"/>
			<stop  offset="0.2191" style="stop-color:#DDC06B"/>
			<stop  offset="0.2529" style="stop-color:#EED98A"/>
			<stop  offset="0.2769" style="stop-color:#FEF2A7"/>
			<stop  offset="0.309" style="stop-color:#EBD586"/>
			<stop  offset="0.352" style="stop-color:#D9BA63"/>
			<stop  offset="0.3943" style="stop-color:#CCA648"/>
			<stop  offset="0.4351" style="stop-color:#C49937"/>
			<stop  offset="0.4738" style="stop-color:#BE922F"/>
			<stop  offset="0.5083" style="stop-color:#BD8F2D"/>
			<stop  offset="1" style="stop-color:#2A100F"/>
		</linearGradient>
		<path class="st33" d="M21.9,28.7c0,0,0.1,2.5-4.2,2.8c0,0-1.2-1.1-0.2-1.3c1-0.2,3,0,4-1.9L21.9,28.7z"/>
		
			<linearGradient id="SVGID_30_" gradientUnits="userSpaceOnUse" x1="126.863" y1="-291.2527" x2="121.5221" y2="-291.2527" gradientTransform="matrix(-0.9996 2.840000e-002 2.840000e-002 0.9996 152.1546 321.1698)">
			<stop  offset="0" style="stop-color:#BD8F2D"/>
			<stop  offset="5.993695e-002" style="stop-color:#BE912E"/>
			<stop  offset="0.1052" style="stop-color:#C19633"/>
			<stop  offset="0.1457" style="stop-color:#C89F3F"/>
			<stop  offset="0.1834" style="stop-color:#D1AD51"/>
			<stop  offset="0.2191" style="stop-color:#DDC06B"/>
			<stop  offset="0.2529" style="stop-color:#EED98A"/>
			<stop  offset="0.2769" style="stop-color:#FEF2A7"/>
			<stop  offset="0.309" style="stop-color:#EBD586"/>
			<stop  offset="0.352" style="stop-color:#D9BA63"/>
			<stop  offset="0.3943" style="stop-color:#CCA648"/>
			<stop  offset="0.4351" style="stop-color:#C49937"/>
			<stop  offset="0.4738" style="stop-color:#BE922F"/>
			<stop  offset="0.5083" style="stop-color:#BD8F2D"/>
			<stop  offset="1" style="stop-color:#7D411C"/>
		</linearGradient>
		<path class="st34" d="M19.4,33.6c-1.7,0.1-2.2,1.3-2.1,2.1c0.2,1.3,3.1,1.8,3.3-0.7c0.3-3-3.4-4.7-3.4-4.7s-0.3,1.2,0,1.6
			c0,0,3.5,1.8,3,3.6c-0.5,1.8-2.8,1.1-2.5-0.1c0.3-1.2,1.8-1.3,2.2-1.3L19.4,33.6z"/>
		
			<linearGradient id="SVGID_31_" gradientUnits="userSpaceOnUse" x1="2152.2395" y1="802.6293" x2="2145.502" y2="802.6293" gradientTransform="matrix(0.9996 -2.840000e-002 -2.840000e-002 -0.9996 -2102.2036 900.2643)">
			<stop  offset="0" style="stop-color:#633414"/>
			<stop  offset="0.1143" style="stop-color:#663715"/>
			<stop  offset="0.2174" style="stop-color:#6D3E18"/>
			<stop  offset="0.3162" style="stop-color:#7A4B1D"/>
			<stop  offset="0.4123" style="stop-color:#8E5F23"/>
			<stop  offset="0.5055" style="stop-color:#A97A2A"/>
			<stop  offset="0.562" style="stop-color:#BD8F2D"/>
			<stop  offset="0.6736" style="stop-color:#FEF2A7"/>
			<stop  offset="0.8223" style="stop-color:#BD8F2D"/>
			<stop  offset="0.8879" style="stop-color:#946525"/>
			<stop  offset="0.963" style="stop-color:#6E4019"/>
			<stop  offset="1" style="stop-color:#613213"/>
		</linearGradient>
		<path class="st35" d="M20.4,33.7c3.1,0.7,2.6,6.3-1,6.6c0,0-1.6,0.2-2.1-0.2c0,0-0.1-0.7,0.2-0.9c0.3-0.2,2.1,0.4,3.7-0.7
			c1.1-0.8,1.4-3.2-0.7-4.2C20.5,34.3,20.3,33.8,20.4,33.7z"/>
		
			<linearGradient id="SVGID_32_" gradientUnits="userSpaceOnUse" x1="126.6757" y1="-283.8977" x2="120.1817" y2="-283.5046" gradientTransform="matrix(-0.9996 2.840000e-002 2.840000e-002 0.9996 152.1546 321.1698)">
			<stop  offset="0" style="stop-color:#BD8F2D"/>
			<stop  offset="5.993695e-002" style="stop-color:#BE912E"/>
			<stop  offset="0.1052" style="stop-color:#C19633"/>
			<stop  offset="0.1457" style="stop-color:#C89F3F"/>
			<stop  offset="0.1834" style="stop-color:#D1AD51"/>
			<stop  offset="0.2191" style="stop-color:#DDC06B"/>
			<stop  offset="0.2529" style="stop-color:#EED98A"/>
			<stop  offset="0.2769" style="stop-color:#FEF2A7"/>
			<stop  offset="0.309" style="stop-color:#EBD586"/>
			<stop  offset="0.352" style="stop-color:#D9BA63"/>
			<stop  offset="0.3943" style="stop-color:#CCA648"/>
			<stop  offset="0.4351" style="stop-color:#C49937"/>
			<stop  offset="0.4738" style="stop-color:#BE922F"/>
			<stop  offset="0.5083" style="stop-color:#BD8F2D"/>
			<stop  offset="1" style="stop-color:#7D411C"/>
		</linearGradient>
		<path class="st36" d="M17.7,39.1c0,0,4.4-0.8,4.5,4c0,0-0.8-3.3-4.8-3.1C17.4,40,17.2,39.3,17.7,39.1z"/>
		
			<linearGradient id="SVGID_33_" gradientUnits="userSpaceOnUse" x1="2145.3491" y1="816.1824" x2="2150.3667" y2="816.3839" gradientTransform="matrix(0.9996 -2.840000e-002 -2.840000e-002 -0.9996 -2102.2036 900.2643)">
			<stop  offset="0" style="stop-color:#592D0F"/>
			<stop  offset="0.1151" style="stop-color:#5A2F10"/>
			<stop  offset="0.2021" style="stop-color:#613614"/>
			<stop  offset="0.2798" style="stop-color:#6C4019"/>
			<stop  offset="0.3521" style="stop-color:#7C501F"/>
			<stop  offset="0.4207" style="stop-color:#936625"/>
			<stop  offset="0.4857" style="stop-color:#B1832B"/>
			<stop  offset="0.5083" style="stop-color:#BD8F2D"/>
			<stop  offset="0.6736" style="stop-color:#FEF2A7"/>
			<stop  offset="0.8223" style="stop-color:#BD8F2D"/>
			<stop  offset="0.847" style="stop-color:#B2822B"/>
			<stop  offset="0.9496" style="stop-color:#8C5221"/>
			<stop  offset="1" style="stop-color:#7D411C"/>
		</linearGradient>
		<path class="st37" d="M20.6,20.2c3.1,0.7,2.4,6.2-1.2,6.5c0,0-1.6,0.2-2.1-0.2c0,0-0.1-0.7,0.2-0.9c0.3-0.2,2.2,0.5,3.7-0.7
			C22.1,24.2,23.1,21.2,20.6,20.2z"/>
		
			<linearGradient id="SVGID_34_" gradientUnits="userSpaceOnUse" x1="126.3341" y1="-297.5748" x2="120.0803" y2="-297.1963" gradientTransform="matrix(-0.9996 2.840000e-002 2.840000e-002 0.9996 152.1546 321.1698)">
			<stop  offset="0" style="stop-color:#BD8F2D"/>
			<stop  offset="5.993695e-002" style="stop-color:#BE912E"/>
			<stop  offset="0.1052" style="stop-color:#C19633"/>
			<stop  offset="0.1457" style="stop-color:#C89F3F"/>
			<stop  offset="0.1834" style="stop-color:#D1AD51"/>
			<stop  offset="0.2191" style="stop-color:#DDC06B"/>
			<stop  offset="0.2529" style="stop-color:#EED98A"/>
			<stop  offset="0.2769" style="stop-color:#FEF2A7"/>
			<stop  offset="0.309" style="stop-color:#EBD586"/>
			<stop  offset="0.352" style="stop-color:#D9BA63"/>
			<stop  offset="0.3943" style="stop-color:#CCA648"/>
			<stop  offset="0.4351" style="stop-color:#C49937"/>
			<stop  offset="0.4738" style="stop-color:#BE922F"/>
			<stop  offset="0.5083" style="stop-color:#BD8F2D"/>
			<stop  offset="1" style="stop-color:#7D411C"/>
		</linearGradient>
		<path class="st38" d="M17.6,25.5c0,0,5.3-0.2,4.2,3.8c0,0-0.1-3.1-4.5-2.9C17.3,26.4,17.2,25.7,17.6,25.5z"/>
		
			<linearGradient id="SVGID_35_" gradientUnits="userSpaceOnUse" x1="2149.4883" y1="810.0803" x2="2154.1394" y2="811.1606" gradientTransform="matrix(0.9992 -3.980000e-002 -3.980000e-002 -0.9992 -2096.7295 913.4156)">
			<stop  offset="0" style="stop-color:#BD8F2D"/>
			<stop  offset="5.993695e-002" style="stop-color:#BE912E"/>
			<stop  offset="0.1052" style="stop-color:#C19633"/>
			<stop  offset="0.1457" style="stop-color:#C89F3F"/>
			<stop  offset="0.1834" style="stop-color:#D1AD51"/>
			<stop  offset="0.2191" style="stop-color:#DDC06B"/>
			<stop  offset="0.2529" style="stop-color:#EED98A"/>
			<stop  offset="0.2769" style="stop-color:#FEF2A7"/>
			<stop  offset="0.309" style="stop-color:#EBD586"/>
			<stop  offset="0.352" style="stop-color:#D9BA63"/>
			<stop  offset="0.3943" style="stop-color:#CCA648"/>
			<stop  offset="0.4351" style="stop-color:#C49937"/>
			<stop  offset="0.4738" style="stop-color:#BE922F"/>
			<stop  offset="0.5083" style="stop-color:#BD8F2D"/>
			<stop  offset="0.6736" style="stop-color:#FEF2A7"/>
			<stop  offset="0.8223" style="stop-color:#BD8F2D"/>
			<stop  offset="0.847" style="stop-color:#B2822B"/>
			<stop  offset="0.9496" style="stop-color:#8C5221"/>
			<stop  offset="1" style="stop-color:#7D411C"/>
		</linearGradient>
		<path class="st39" d="M22.4,16.1c0,0,0.9,3.9-5.3,4.2c0,0-0.3-0.9,0.1-1.1c0.4-0.2,5.1,0.3,4.9-3.2C22.2,15.8,22.4,15.8,22.4,16.1
			z"/>
	</g>
</g>
</svg>
