<?xml version="1.0" encoding="utf-8"?>
<!-- Generator: Adobe Illustrator 19.0.0, SVG Export Plug-In . SVG Version: 6.00 Build 0)  -->
<svg version="1.1" id="Layer_1" xmlns="http://www.w3.org/2000/svg" xmlns:xlink="http://www.w3.org/1999/xlink" x="0px" y="0px"
	 viewBox="0 0 86.6 94.7" style="enable-background:new 0 0 86.6 94.7;" xml:space="preserve" preserveAspectRatio="none">
<style type="text/css">
	.st0{fill:url(#SVGID_1_);}
	.st1{fill:url(#SVGID_2_);}
	.st2{enable-background:new    ;}
	.st3{fill:url(#SVGID_3_);}
	.st4{fill:url(#SVGID_4_);}
	.st5{fill:url(#SVGID_5_);}
	.st6{opacity:0.5;fill:#C54D9C;}
	.st7{fill:url(#SVGID_6_);}
	.st8{fill:url(#SVGID_7_);}
	.st9{fill:url(#SVGID_8_);}
	.st10{fill:url(#SVGID_9_);}
	.st11{fill:url(#SVGID_10_);}
	.st12{fill:url(#SVGID_11_);}
	.st13{fill:url(#SVGID_12_);}
	.st14{filter:url(#Adobe_OpacityMaskFilter);}
	.st15{filter:url(#Adobe_OpacityMaskFilter_1_);}
	.st16{mask:url(#SVGID_13_);fill:url(#SVGID_14_);}
	.st17{opacity:0.5;fill:url(#SVGID_15_);}
	.st18{fill:url(#SVGID_16_);}
	.st19{fill:url(#SVGID_17_);}
	.st20{fill:url(#SVGID_18_);}
	.st21{fill:url(#SVGID_19_);}
	.st22{fill:url(#SVGID_20_);}
	.st23{fill:url(#SVGID_21_);}
	.st24{fill:url(#SVGID_22_);}
	.st25{filter:url(#Adobe_OpacityMaskFilter_2_);}
	.st26{filter:url(#Adobe_OpacityMaskFilter_3_);}
	.st27{mask:url(#SVGID_23_);fill:url(#SVGID_24_);}
	.st28{opacity:0.5;fill:url(#SVGID_25_);}
	.st29{fill:url(#SVGID_26_);}
	.st30{fill:url(#SVGID_27_);}
	.st31{fill:url(#SVGID_28_);}
	.st32{filter:url(#Adobe_OpacityMaskFilter_4_);}
	.st33{filter:url(#Adobe_OpacityMaskFilter_5_);}
	.st34{mask:url(#SVGID_29_);fill:url(#SVGID_30_);}
	.st35{opacity:0.5;fill:url(#SVGID_31_);}
	.st36{fill:url(#SVGID_32_);}
	.st37{fill:url(#SVGID_33_);}
	.st38{fill:url(#SVGID_34_);}
	.st39{fill:url(#SVGID_35_);}
	.st40{fill:url(#SVGID_36_);}
	.st41{fill:url(#SVGID_37_);}
	.st42{filter:url(#Adobe_OpacityMaskFilter_6_);}
	.st43{filter:url(#Adobe_OpacityMaskFilter_7_);}
	.st44{mask:url(#SVGID_38_);fill:url(#SVGID_39_);}
	.st45{opacity:0.5;fill:url(#SVGID_40_);}
	.st46{fill:url(#SVGID_41_);}
	.st47{fill:url(#SVGID_42_);}
	.st48{fill:#FFF0E7;}
	.st49{opacity:0.3;fill:#C54D9C;}
	.st50{opacity:0.5;}
	.st51{filter:url(#Adobe_OpacityMaskFilter_8_);}
	.st52{filter:url(#Adobe_OpacityMaskFilter_9_);}
	.st53{mask:url(#SVGID_43_);fill:url(#SVGID_44_);}
	.st54{opacity:0.5;fill:url(#SVGID_45_);}
	.st55{fill:url(#SVGID_46_);}
	.st56{fill:url(#SVGID_47_);}
	.st57{fill:url(#SVGID_48_);}
	.st58{fill:url(#SVGID_49_);}
</style>
<g>
	
		<linearGradient id="SVGID_1_" gradientUnits="userSpaceOnUse" x1="1321.9761" y1="276.2276" x2="1299.052" y2="211.5062" gradientTransform="matrix(-0.9915 -0.1302 -0.1302 0.9915 1398.2462 -7.5805)">
		<stop  offset="0" style="stop-color:#C54D9C"/>
		<stop  offset="1" style="stop-color:#C54D9C"/>
	</linearGradient>
	<polygon class="st0" points="84.9,34 79.9,75.9 79.5,76.8 51.5,94.6 57.3,45.3 	"/>
	
		<linearGradient id="SVGID_2_" gradientUnits="userSpaceOnUse" x1="1337.5992" y1="193.4265" x2="1337.3955" y2="184.465" gradientTransform="matrix(-0.9915 -0.1302 -0.1302 0.9915 1398.2462 -7.5805)">
		<stop  offset="0" style="stop-color:#F7944C"/>
		<stop  offset="9.223300e-002" style="stop-color:#F7944C"/>
		<stop  offset="0.1772" style="stop-color:#FAB380"/>
		<stop  offset="0.2184" style="stop-color:#FCC39B"/>
		<stop  offset="0.2308" style="stop-color:#FCC197"/>
		<stop  offset="0.4075" style="stop-color:#F9A062"/>
		<stop  offset="0.4903" style="stop-color:#F7944C"/>
		<stop  offset="0.8108" style="stop-color:#FEE4D2"/>
		<stop  offset="0.8365" style="stop-color:#FEDCC5"/>
		<stop  offset="0.8853" style="stop-color:#FCC9A4"/>
		<stop  offset="0.9516" style="stop-color:#FAAB73"/>
		<stop  offset="1" style="stop-color:#F7944C"/>
	</linearGradient>
	<path class="st1" d="M49.5,17.1c3.8-6.1,4.7-12.8,3.6-14.3C52.5,2,43.4,0.4,42.4,1.3c-1.1,0.9-0.5,9.3,3,15.3L49.5,17.1z"/>
	<g>
		<g class="st2">
			
				<linearGradient id="SVGID_3_" gradientUnits="userSpaceOnUse" x1="1373.8877" y1="271.1486" x2="1324.7578" y2="227.7903" gradientTransform="matrix(-0.9915 -0.1302 -0.1302 0.9915 1398.2462 -7.5805)">
				<stop  offset="0" style="stop-color:#C54D9C"/>
				<stop  offset="1" style="stop-color:#C54D9C"/>
			</linearGradient>
			<polygon class="st3" points="56.6,45.4 50.8,94.7 0.3,79.8 0,79.2 5.3,33.2 			"/>
			
				<linearGradient id="SVGID_4_" gradientUnits="userSpaceOnUse" x1="1335.4111" y1="263.1595" x2="1310.814" y2="241.4519" gradientTransform="matrix(-0.9915 -0.1302 -0.1302 0.9915 1398.2462 -7.5805)">
				<stop  offset="0" style="stop-color:#C54D9C"/>
				<stop  offset="1" style="stop-color:#C54D9C"/>
			</linearGradient>
			<polygon class="st4" points="57.3,45.3 51.5,94.6 50.8,94.7 56.6,45.4 			"/>
		</g>
	</g>
	
		<linearGradient id="SVGID_5_" gradientUnits="userSpaceOnUse" x1="1322.6581" y1="219.6427" x2="1322.6581" y2="303.0024" gradientTransform="matrix(-0.9915 -0.1302 -0.1302 0.9915 1398.2462 -7.5805)">
		<stop  offset="0" style="stop-color:#C54D9C"/>
		<stop  offset="3.171833e-002" style="stop-color:#C64F9A"/>
		<stop  offset="6.068333e-002" style="stop-color:#C95497"/>
		<stop  offset="8.858257e-002" style="stop-color:#CE5C92"/>
		<stop  offset="0.1158" style="stop-color:#D4678B"/>
		<stop  offset="0.1426" style="stop-color:#DC7480"/>
		<stop  offset="0.169" style="stop-color:#E68270"/>
		<stop  offset="0.1947" style="stop-color:#F39358"/>
		<stop  offset="0.2" style="stop-color:#F79751"/>
		<stop  offset="0.726" style="stop-color:#D5688A"/>
		<stop  offset="1" style="stop-color:#C54D9C"/>
	</linearGradient>
	<polygon class="st5" points="50.9,94.2 56.6,45.4 57.3,45.3 51.5,94 51.2,94.1 	"/>
	<polygon class="st6" points="56.8,48.3 5.1,34.7 5.3,33.2 57.2,45.5 	"/>
	<polygon class="st6" points="57.2,45.3 84.9,34 84.8,35.3 56.8,48.3 	"/>
	
		<linearGradient id="SVGID_6_" gradientUnits="userSpaceOnUse" x1="1366.1659" y1="234.8206" x2="1333.665" y2="206.1379" gradientTransform="matrix(-0.9915 -0.1302 -0.1302 0.9915 1398.2462 -7.5805)">
		<stop  offset="0" style="stop-color:#C54D9C"/>
		<stop  offset="1" style="stop-color:#C54D9C"/>
	</linearGradient>
	<polygon class="st7" points="6.2,22.6 5.9,22.8 4.8,33.7 56.7,47.3 57,47.2 58.4,35.2 	"/>
	
		<linearGradient id="SVGID_7_" gradientUnits="userSpaceOnUse" x1="1315.5596" y1="231.3176" x2="1304.1423" y2="199.0833" gradientTransform="matrix(-0.9915 -0.1302 -0.1302 0.9915 1398.2462 -7.5805)">
		<stop  offset="0" style="stop-color:#C54D9C"/>
		<stop  offset="1" style="stop-color:#C54D9C"/>
	</linearGradient>
	<polygon class="st8" points="57,47.2 57.3,47.2 85.1,34.3 86.6,23.8 86.3,23.6 58.4,35.2 	"/>
	
		<linearGradient id="SVGID_8_" gradientUnits="userSpaceOnUse" x1="1322.7816" y1="207.1791" x2="1322.7816" y2="229.0367" gradientTransform="matrix(-0.9915 -0.1302 -0.1302 0.9915 1398.2462 -7.5805)">
		<stop  offset="0" style="stop-color:#C54D9C"/>
		<stop  offset="0.5" style="stop-color:#F9A96F"/>
		<stop  offset="1" style="stop-color:#C54D9C"/>
	</linearGradient>
	<polygon class="st9" points="57.3,47.2 58.7,35.3 58.1,35.2 56.7,47.3 	"/>
	<g>
		
			<linearGradient id="SVGID_9_" gradientUnits="userSpaceOnUse" x1="1338.408" y1="198.0902" x2="1334.3831" y2="215.1186" gradientTransform="matrix(-0.9915 -0.1302 -0.1302 0.9915 1398.2462 -7.5805)">
			<stop  offset="0" style="stop-color:#C54D9C"/>
			<stop  offset="1" style="stop-color:#C54D9C"/>
		</linearGradient>
		<polygon class="st10" points="6.2,22.6 58.4,35.2 86.3,23.6 86.1,23.3 36.1,13 6.5,22.4 		"/>
		
			<linearGradient id="SVGID_10_" gradientUnits="userSpaceOnUse" x1="1296.4044" y1="209.3455" x2="1376.4696" y2="209.3455" gradientTransform="matrix(-0.9915 -0.1302 -0.1302 0.9915 1398.2462 -7.5805)">
			<stop  offset="0" style="stop-color:#C54D9C"/>
			<stop  offset="0.5" style="stop-color:#F9A96F"/>
			<stop  offset="1" style="stop-color:#C54D9C"/>
		</linearGradient>
		<polygon class="st11" points="58.5,35.5 58.4,35.5 5.9,22.8 6.5,22.4 58.4,34.9 86.1,23.3 86.6,23.8 		"/>
	</g>
	<polygon class="st6" points="19.1,84.8 25.4,39.1 33.1,41.1 26.7,87 26.9,87.6 19.3,85.4 	"/>
	<polygon class="st6" points="32.6,41 25,39 26.3,27.8 34,29.6 	"/>
	<polygon class="st6" points="61.3,18.2 34.5,29.1 34,29.6 26.3,27.8 26.9,27.3 54.4,16.8 	"/>
	
		<linearGradient id="SVGID_11_" gradientUnits="userSpaceOnUse" x1="1353.724" y1="214.312" x2="1326.4813" y2="200.2824" gradientTransform="matrix(-0.9915 -0.1302 -0.1302 0.9915 1398.2462 -7.5805)">
		<stop  offset="0" style="stop-color:#F89955"/>
		<stop  offset="0.2703" style="stop-color:#FCC39B"/>
		<stop  offset="1" style="stop-color:#FCC39B"/>
	</linearGradient>
	<polygon class="st12" points="61,18.2 34.2,29.1 26.5,27.2 54.1,16.7 	"/>
	<polygon class="st6" points="74,39.4 69.5,82.5 69.3,83.3 64.5,86.3 64.7,85.6 69.3,41.6 	"/>
	<polygon class="st6" points="74.4,39.3 69.7,41.4 71,30.3 75.7,28.3 	"/>
	<polygon class="st6" points="75.2,27.9 75.7,28.3 71,30.3 70.5,29.8 19.3,18.3 24.7,16.6 	"/>
	
		<linearGradient id="SVGID_12_" gradientUnits="userSpaceOnUse" x1="1358.6456" y1="204.0897" x2="1307.3807" y2="208.7684" gradientTransform="matrix(-0.9915 -0.1302 -0.1302 0.9915 1398.2462 -7.5805)">
		<stop  offset="0" style="stop-color:#F89955"/>
		<stop  offset="0.2703" style="stop-color:#FCC39B"/>
		<stop  offset="1" style="stop-color:#FCC39B"/>
	</linearGradient>
	<polygon class="st13" points="24.9,16.6 75.4,27.8 70.7,29.8 19.5,18.3 	"/>
	<g>
		<defs>
			<filter id="Adobe_OpacityMaskFilter" filterUnits="userSpaceOnUse" x="51.1" y="18.4" width="23.2" height="4.6">
				<feFlood  style="flood-color:white;flood-opacity:1" result="back"/>
				<feBlend  in="SourceGraphic" in2="back" mode="normal"/>
			</filter>
		</defs>
		<mask maskUnits="userSpaceOnUse" x="51.1" y="18.4" width="23.2" height="4.6" id="SVGID_13_">
			<g class="st14">
				<defs>
					<filter id="Adobe_OpacityMaskFilter_1_" filterUnits="userSpaceOnUse" x="51.1" y="18.4" width="23.2" height="4.6">
						<feFlood  style="flood-color:white;flood-opacity:1" result="back"/>
						<feBlend  in="SourceGraphic" in2="back" mode="normal"/>
					</filter>
				</defs>
				<mask maskUnits="userSpaceOnUse" x="51.1" y="18.4" width="23.2" height="4.6" id="SVGID_13_">
					<g class="st15">
					</g>
				</mask>
				
					<linearGradient id="SVGID_14_" gradientUnits="userSpaceOnUse" x1="1322.8314" y1="202.1378" x2="1314.9954" y2="201.284" gradientTransform="matrix(-0.9915 -0.1302 -0.1302 0.9915 1398.2462 -7.5805)">
					<stop  offset="0" style="stop-color:#FFFFFF"/>
					<stop  offset="0.6112" style="stop-color:#646464"/>
					<stop  offset="1" style="stop-color:#000000"/>
				</linearGradient>
				<path class="st16" d="M51.1,19.5c3.6,0.2,7.6,0,11.1-1.1l12.1,2.5c-1.8,1.1-4.8,2-6.2,2.1c-3.8,0.2-14.4-2.6-14.4-2.6L51.1,19.5
					z"/>
			</g>
		</mask>
		
			<linearGradient id="SVGID_15_" gradientUnits="userSpaceOnUse" x1="1322.8314" y1="202.1378" x2="1314.9954" y2="201.284" gradientTransform="matrix(-0.9915 -0.1302 -0.1302 0.9915 1398.2462 -7.5805)">
			<stop  offset="0" style="stop-color:#F7944C"/>
			<stop  offset="1" style="stop-color:#F7944C"/>
		</linearGradient>
		<path class="st17" d="M51.1,19.5c3.6,0.2,7.6,0,11.1-1.1l12.1,2.5c-1.8,1.1-4.8,2-6.2,2.1c-3.8,0.2-14.4-2.6-14.4-2.6L51.1,19.5z"
			/>
		
			<linearGradient id="SVGID_16_" gradientUnits="userSpaceOnUse" x1="1320.6306" y1="202.4589" x2="1320.0044" y2="190.2483" gradientTransform="matrix(-0.9915 -0.1302 -0.1302 0.9915 1398.2462 -7.5805)">
			<stop  offset="0" style="stop-color:#F7944C"/>
			<stop  offset="0.5189" style="stop-color:#F7944C"/>
			<stop  offset="1" style="stop-color:#F7944C"/>
		</linearGradient>
		<path class="st18" d="M62.7,8.6c0,0,8.8,1.1,11.1,3.8c4,4.9-1.6,9-5.4,9.5c-3.8,0.5-14.6-1.5-14.6-1.5l-2.7-0.7
			C60.9,19.6,69.7,16.3,62.7,8.6z"/>
		
			<linearGradient id="SVGID_17_" gradientUnits="userSpaceOnUse" x1="1321.6584" y1="202.4019" x2="1321.0287" y2="190.1233" gradientTransform="matrix(-0.9915 -0.1302 -0.1302 0.9915 1398.2462 -7.5805)">
			<stop  offset="0" style="stop-color:#F7944C"/>
			<stop  offset="9.223300e-002" style="stop-color:#F7944C"/>
			<stop  offset="0.1772" style="stop-color:#FAB380"/>
			<stop  offset="0.2184" style="stop-color:#FCC39B"/>
			<stop  offset="0.2308" style="stop-color:#FCC197"/>
			<stop  offset="0.4075" style="stop-color:#F9A062"/>
			<stop  offset="0.4903" style="stop-color:#F7944C"/>
			<stop  offset="0.8108" style="stop-color:#FEE4D2"/>
			<stop  offset="0.8365" style="stop-color:#FEDCC5"/>
			<stop  offset="0.8853" style="stop-color:#FCC9A4"/>
			<stop  offset="0.9516" style="stop-color:#FAAB73"/>
			<stop  offset="1" style="stop-color:#F7944C"/>
		</linearGradient>
		<path class="st19" d="M53.7,20.4c8.6-7.4,15.8-12.5,20-8c-2-2.6-9.5-3.7-11.1-3.8C55.9,8,52.2,16.3,51.1,19.7L53.7,20.4z"/>
	</g>
	<g>
		
			<linearGradient id="SVGID_18_" gradientUnits="userSpaceOnUse" x1="1082.8275" y1="219.2213" x2="1082.2013" y2="207.0108" gradientTransform="matrix(0.9629 0.2697 -0.2697 0.9629 -947.5882 -489.9232)">
			<stop  offset="0" style="stop-color:#F7944C"/>
			<stop  offset="0.5189" style="stop-color:#F7944C"/>
			<stop  offset="1" style="stop-color:#F7944C"/>
		</linearGradient>
		<path class="st20" d="M40.7,1.5c0,0-8.5-2.5-11.7-0.9c-5.6,2.9-2.1,8.9,1.2,10.9c3.3,2,14,4.3,14,4.3l2.7,0.4
			C38,12.3,31.3,5.8,40.7,1.5z"/>
		
			<linearGradient id="SVGID_19_" gradientUnits="userSpaceOnUse" x1="1083.6376" y1="214.9148" x2="1083.1912" y2="206.2101" gradientTransform="matrix(0.9629 0.2697 -0.2697 0.9629 -947.5882 -489.9232)">
			<stop  offset="0" style="stop-color:#F7944C"/>
			<stop  offset="9.223300e-002" style="stop-color:#F7944C"/>
			<stop  offset="0.1772" style="stop-color:#FAB380"/>
			<stop  offset="0.2184" style="stop-color:#FCC39B"/>
			<stop  offset="0.2308" style="stop-color:#FCC197"/>
			<stop  offset="0.4075" style="stop-color:#F9A062"/>
			<stop  offset="0.4903" style="stop-color:#F7944C"/>
			<stop  offset="0.8108" style="stop-color:#FEE4D2"/>
			<stop  offset="0.8365" style="stop-color:#FEDCC5"/>
			<stop  offset="0.8853" style="stop-color:#FCC9A4"/>
			<stop  offset="0.9516" style="stop-color:#FAAB73"/>
			<stop  offset="1" style="stop-color:#F7944C"/>
		</linearGradient>
		<path class="st21" d="M44.3,15.9c-5-10.2-9.6-17.7-15.2-15.2C32-1,39.3,1,40.7,1.5c6.5,2.1,6.6,11.2,6.3,14.8L44.3,15.9z"/>
	</g>
	<g>
		
			<linearGradient id="SVGID_20_" gradientUnits="userSpaceOnUse" x1="1432.5972" y1="163.8644" x2="1431.9709" y2="151.6527" gradientTransform="matrix(-0.8597 5.120000e-002 -2.920000e-002 0.9884 1292.2429 -220.09)">
			<stop  offset="0" style="stop-color:#F7944C"/>
			<stop  offset="0.5189" style="stop-color:#F7944C"/>
			<stop  offset="1" style="stop-color:#F7944C"/>
		</linearGradient>
		<path class="st22" d="M55,2.9c0,0,7.6-0.5,9.8,1.7c3.9,4-0.6,9.1-3.8,10.2C57.7,16,48.3,16,48.3,16L46,15.8
			C54.4,13.9,61.6,9.1,55,2.9z"/>
		
			<linearGradient id="SVGID_21_" gradientUnits="userSpaceOnUse" x1="1433.4124" y1="159.5686" x2="1432.9681" y2="150.9084" gradientTransform="matrix(-0.8597 5.120000e-002 -2.920000e-002 0.9884 1292.2469 -220.0896)">
			<stop  offset="0" style="stop-color:#F7944C"/>
			<stop  offset="9.223300e-002" style="stop-color:#F7944C"/>
			<stop  offset="0.1772" style="stop-color:#FAB380"/>
			<stop  offset="0.2184" style="stop-color:#FCC39B"/>
			<stop  offset="0.2308" style="stop-color:#FCC197"/>
			<stop  offset="0.4075" style="stop-color:#F9A062"/>
			<stop  offset="0.4903" style="stop-color:#F7944C"/>
			<stop  offset="0.8108" style="stop-color:#FEE4D2"/>
			<stop  offset="0.8365" style="stop-color:#FEDCC5"/>
			<stop  offset="0.8853" style="stop-color:#FCC9A4"/>
			<stop  offset="0.9516" style="stop-color:#FAAB73"/>
			<stop  offset="1" style="stop-color:#F7944C"/>
		</linearGradient>
		<path class="st23" d="M48.3,16C55,7.2,60.7,1,64.7,4.6c-1.9-2.2-8.5-1.9-9.8-1.7c-5.9,0.7-8.3,9.4-9,12.9L48.3,16z"/>
	</g>
	<g>
		
			<linearGradient id="SVGID_22_" gradientUnits="userSpaceOnUse" x1="1116.9944" y1="202.7864" x2="1124.1526" y2="209.0404" gradientTransform="matrix(0.9828 0.1845 -0.1845 0.9828 -1026.5283 -395.1812)">
			<stop  offset="0" style="stop-color:#F7944C"/>
			<stop  offset="0.5189" style="stop-color:#F89A56"/>
			<stop  offset="1" style="stop-color:#F7944C"/>
		</linearGradient>
		<path class="st24" d="M34.7,10.2c4.3,3.2,8,8.2,10.7,11.6l-2.2-1c-4-5.1-8.4-9.7-14.1-13.7C32.3,9.1,33,9.5,34.7,10.2z"/>
		<defs>
			<filter id="Adobe_OpacityMaskFilter_2_" filterUnits="userSpaceOnUse" x="19.8" y="18.6" width="25.6" height="4.7">
				<feFlood  style="flood-color:white;flood-opacity:1" result="back"/>
				<feBlend  in="SourceGraphic" in2="back" mode="normal"/>
			</filter>
		</defs>
		<mask maskUnits="userSpaceOnUse" x="19.8" y="18.6" width="25.6" height="4.7" id="SVGID_23_">
			<g class="st25">
				<defs>
					<filter id="Adobe_OpacityMaskFilter_3_" filterUnits="userSpaceOnUse" x="19.5" y="18.5" width="25.8" height="4.9">
						<feFlood  style="flood-color:white;flood-opacity:1" result="back"/>
						<feBlend  in="SourceGraphic" in2="back" mode="normal"/>
					</filter>
				</defs>
				<mask maskUnits="userSpaceOnUse" x="19.5" y="18.5" width="25.8" height="4.9" id="SVGID_23_">
					<g class="st26">
					</g>
				</mask>
				
					<linearGradient id="SVGID_24_" gradientUnits="userSpaceOnUse" x1="1341.0833" y1="202.6558" x2="1351.9615" y2="205.7748" gradientTransform="matrix(-0.9915 -0.1302 -0.1302 0.9915 1398.2462 -7.5805)">
					<stop  offset="0" style="stop-color:#FFFFFF"/>
					<stop  offset="0.6112" style="stop-color:#646464"/>
					<stop  offset="1" style="stop-color:#000000"/>
				</linearGradient>
				<path class="st27" d="M43.1,21.1l2.3,0.7c-8.5,1.7-14.1,2.4-19.3,0.1c-1.6-0.7-4.4-2.3-6.5-3.4C26.5,20.7,35.4,20.8,43.1,21.1z"
					/>
			</g>
		</mask>
		
			<linearGradient id="SVGID_25_" gradientUnits="userSpaceOnUse" x1="1341.0392" y1="202.7159" x2="1351.8136" y2="205.8051" gradientTransform="matrix(-0.9915 -0.1302 -0.1302 0.9915 1398.2462 -7.5805)">
			<stop  offset="0" style="stop-color:#4D1A17"/>
			<stop  offset="1" style="stop-color:#4D1A17"/>
		</linearGradient>
		<path class="st28" d="M43.1,21.1l2.3,0.7c-8.5,1.7-14.1,2.2-19.3-0.1c-1.6-0.7-4.1-2-6.3-3.1C26.7,20.8,35.4,20.8,43.1,21.1z"/>
		
			<linearGradient id="SVGID_26_" gradientUnits="userSpaceOnUse" x1="1110.1205" y1="212.91" x2="1127.4508" y2="211.5537" gradientTransform="matrix(0.9828 0.1845 -0.1845 0.9828 -1026.5283 -395.1812)">
			<stop  offset="0" style="stop-color:#F7944C"/>
			<stop  offset="0.5189" style="stop-color:#F7944C"/>
			<stop  offset="1" style="stop-color:#F7944C"/>
		</linearGradient>
		<path class="st29" d="M43.2,20.8l2.2,1c-8.7,0.8-14.3,0.8-19.2-2c-1.5-0.8-3.9-2.4-6-3.7C26.9,19,35.5,19.8,43.2,20.8z"/>
		
			<linearGradient id="SVGID_27_" gradientUnits="userSpaceOnUse" x1="1106.8184" y1="212.0353" x2="1111.49" y2="200.4315" gradientTransform="matrix(0.9828 0.1845 -0.1845 0.9828 -1026.5283 -395.1812)">
			<stop  offset="0" style="stop-color:#F7944C"/>
			<stop  offset="9.223300e-002" style="stop-color:#F7944C"/>
			<stop  offset="0.1772" style="stop-color:#FAB380"/>
			<stop  offset="0.2184" style="stop-color:#FCC39B"/>
			<stop  offset="0.2308" style="stop-color:#FCC197"/>
			<stop  offset="0.4075" style="stop-color:#F9A062"/>
			<stop  offset="0.4903" style="stop-color:#F7944C"/>
			<stop  offset="0.8108" style="stop-color:#FEE4D2"/>
			<stop  offset="0.8365" style="stop-color:#FEDCC5"/>
			<stop  offset="0.8853" style="stop-color:#FCC9A4"/>
			<stop  offset="0.9516" style="stop-color:#FAAB73"/>
			<stop  offset="1" style="stop-color:#F7944C"/>
		</linearGradient>
		<path class="st30" d="M29,7.1c-8.6-4.1-13.4,5.8-8.8,8.9c0,0,3.2,2.3,6,3.7c-3.1-2.9-2.4-8.3,3.7-10.2c1.7-0.5,3.7,0.2,4.8,0.6
			C32.5,9,31.6,8.3,29,7.1z"/>
	</g>
	<g>
		
			<linearGradient id="SVGID_28_" gradientUnits="userSpaceOnUse" x1="1322.3282" y1="196.8368" x2="1329.486" y2="203.0904" gradientTransform="matrix(-0.9915 -0.1302 -0.1302 0.9915 1398.2462 -7.5805)">
			<stop  offset="0" style="stop-color:#F7944C"/>
			<stop  offset="0.5189" style="stop-color:#F7944C"/>
			<stop  offset="1" style="stop-color:#F7944C"/>
		</linearGradient>
		<path class="st31" d="M60.8,15.2c-5.1,1.7-10.1,5.3-13.8,7.7l2.4-0.2C54.8,19,60.4,16,67.1,14C63.4,14.8,62.6,15,60.8,15.2z"/>
		<defs>
			<filter id="Adobe_OpacityMaskFilter_4_" filterUnits="userSpaceOnUse" x="49.9" y="23.6" width="25.4" height="5.5">
				<feFlood  style="flood-color:white;flood-opacity:1" result="back"/>
				<feBlend  in="SourceGraphic" in2="back" mode="normal"/>
			</filter>
		</defs>
		<mask maskUnits="userSpaceOnUse" x="49.9" y="23.6" width="25.4" height="5.5" id="SVGID_29_">
			<g class="st32">
				<defs>
					<filter id="Adobe_OpacityMaskFilter_5_" filterUnits="userSpaceOnUse" x="51" y="24" width="24.5" height="5.1">
						<feFlood  style="flood-color:white;flood-opacity:1" result="back"/>
						<feBlend  in="SourceGraphic" in2="back" mode="normal"/>
					</filter>
				</defs>
				<mask maskUnits="userSpaceOnUse" x="51" y="24" width="24.5" height="5.1" id="SVGID_29_">
					<g class="st33">
					</g>
				</mask>
				
					<linearGradient id="SVGID_30_" gradientUnits="userSpaceOnUse" x1="1201.3542" y1="157.6032" x2="1200.7836" y2="159.1114" gradientTransform="matrix(-0.9936 -0.1126 -0.1126 0.9936 1275.2327 6.2504)">
					<stop  offset="0" style="stop-color:#FFFFFF"/>
					<stop  offset="0.6112" style="stop-color:#646464"/>
					<stop  offset="1" style="stop-color:#000000"/>
				</linearGradient>
				<path class="st34" d="M53,24l-2,0.2c7.8,3.2,12.9,5.2,17,4.9c0.6,0,6.2-2.3,7.5-3C68.4,26.9,60.3,25.2,53,24z"/>
			</g>
		</mask>
		
			<linearGradient id="SVGID_31_" gradientUnits="userSpaceOnUse" x1="1319.1313" y1="208.5555" x2="1318.5393" y2="210.1203" gradientTransform="matrix(-0.9915 -0.1302 -0.1302 0.9915 1398.2462 -7.5805)">
			<stop  offset="0" style="stop-color:#F7944C"/>
			<stop  offset="1" style="stop-color:#F7944C"/>
		</linearGradient>
		<path class="st35" d="M52,23.6l-2.1,0.1c8,3.5,13.8,5.5,18,5.3c0.6,0,6-2.1,7.4-2.9C68,26.9,59.5,24.9,52,23.6z"/>
		
			<linearGradient id="SVGID_32_" gradientUnits="userSpaceOnUse" x1="1315.4554" y1="206.9605" x2="1332.7839" y2="205.6044" gradientTransform="matrix(-0.9915 -0.1302 -0.1302 0.9915 1398.2462 -7.5805)">
			<stop  offset="0" style="stop-color:#F7944C"/>
			<stop  offset="0.5189" style="stop-color:#F7944C"/>
			<stop  offset="1" style="stop-color:#F7944C"/>
		</linearGradient>
		<path class="st36" d="M49.4,22.6L47,22.8c8,3.5,13.3,5.2,18.8,4.1c1.7-0.3,4.4-1,6.8-1.7C65.4,25.9,56.9,24,49.4,22.6z"/>
		
			<linearGradient id="SVGID_33_" gradientUnits="userSpaceOnUse" x1="1312.1526" y1="206.0856" x2="1316.8239" y2="194.4827" gradientTransform="matrix(-0.9915 -0.1302 -0.1302 0.9915 1398.2462 -7.5805)">
			<stop  offset="0" style="stop-color:#F7944C"/>
			<stop  offset="9.223300e-002" style="stop-color:#F7944C"/>
			<stop  offset="0.1772" style="stop-color:#FAB380"/>
			<stop  offset="0.2184" style="stop-color:#FCC39B"/>
			<stop  offset="0.2308" style="stop-color:#FCC197"/>
			<stop  offset="0.4075" style="stop-color:#F9A062"/>
			<stop  offset="0.4903" style="stop-color:#F7944C"/>
			<stop  offset="0.8108" style="stop-color:#FEE4D2"/>
			<stop  offset="0.8365" style="stop-color:#FEDCC5"/>
			<stop  offset="0.8853" style="stop-color:#FCC9A4"/>
			<stop  offset="0.9516" style="stop-color:#FAAB73"/>
			<stop  offset="1" style="stop-color:#F7944C"/>
		</linearGradient>
		<path class="st37" d="M67.1,14c9.4-1.2,11,9.6,5.6,11.2c0,0-3.8,1.2-6.8,1.7c3.9-1.8,4.9-7.2-0.3-10.8c-1.5-1-3.5-1-4.7-0.9
			C63.2,14.7,64.3,14.4,67.1,14z"/>
	</g>
	<g>
		
			<linearGradient id="SVGID_34_" gradientUnits="userSpaceOnUse" x1="1332.8087" y1="201.972" x2="1333.5162" y2="188.1736" gradientTransform="matrix(-0.9915 -0.1302 -0.1302 0.9915 1398.2462 -7.5805)">
			<stop  offset="0" style="stop-color:#F7944C"/>
			<stop  offset="0.5189" style="stop-color:#F7944C"/>
			<stop  offset="1" style="stop-color:#F7944C"/>
		</linearGradient>
		<path class="st38" d="M50,4.3L58.4,5c-5.1,2.1-7.8,5.8-8.7,11.3L44,15.8C44.2,11.9,44.5,4.1,50,4.3z"/>
		
			<linearGradient id="SVGID_35_" gradientUnits="userSpaceOnUse" x1="1327.3578" y1="198.0592" x2="1327.9171" y2="187.1516" gradientTransform="matrix(-0.9915 -0.1302 -0.1302 0.9915 1398.2462 -7.5805)">
			<stop  offset="0" style="stop-color:#F7944C"/>
			<stop  offset="9.223300e-002" style="stop-color:#F7944C"/>
			<stop  offset="0.1772" style="stop-color:#FAB380"/>
			<stop  offset="0.2184" style="stop-color:#FCC39B"/>
			<stop  offset="0.2308" style="stop-color:#FCC197"/>
			<stop  offset="0.4075" style="stop-color:#F9A062"/>
			<stop  offset="0.4903" style="stop-color:#F7944C"/>
			<stop  offset="0.8108" style="stop-color:#FEE4D2"/>
			<stop  offset="0.8365" style="stop-color:#FEDCC5"/>
			<stop  offset="0.8853" style="stop-color:#FCC9A4"/>
			<stop  offset="0.9516" style="stop-color:#FAAB73"/>
			<stop  offset="1" style="stop-color:#F7944C"/>
		</linearGradient>
		<path class="st39" d="M60.4,16.8c4-0.4,5.8-10.5-0.4-11.7C54.1,4.5,50,4.3,50,4.3c3.2,0.4,4.9,9.6-0.5,11.8
			C55.4,16.5,56.3,16.7,60.4,16.8z"/>
	</g>
	<g>
		
			<linearGradient id="SVGID_36_" gradientUnits="userSpaceOnUse" x1="1343.4382" y1="210.8278" x2="1342.2155" y2="192.3846" gradientTransform="matrix(-0.9915 -0.1302 -0.1302 0.9915 1398.2462 -7.5805)">
			<stop  offset="0" style="stop-color:#F7944C"/>
			<stop  offset="0.5189" style="stop-color:#F7944C"/>
			<stop  offset="1" style="stop-color:#F7944C"/>
		</linearGradient>
		<path class="st40" d="M47.5,5l-9.6-1.7c2.2,0.9,3.6,7.3,3.3,13.3l4.1,0.8C46.5,15.5,49.1,5.7,47.5,5z"/>
		
			<linearGradient id="SVGID_37_" gradientUnits="userSpaceOnUse" x1="1114.7028" y1="200.018" x2="1115.2975" y2="188.4221" gradientTransform="matrix(0.9915 0.1302 -0.1302 0.9915 -1040.7023 -328.0764)">
			<stop  offset="0" style="stop-color:#F7944C"/>
			<stop  offset="9.223300e-002" style="stop-color:#F7944C"/>
			<stop  offset="0.1772" style="stop-color:#FAB380"/>
			<stop  offset="0.2184" style="stop-color:#FCC39B"/>
			<stop  offset="0.2308" style="stop-color:#FCC197"/>
			<stop  offset="0.4075" style="stop-color:#F9A062"/>
			<stop  offset="0.4903" style="stop-color:#F7944C"/>
			<stop  offset="0.8108" style="stop-color:#FEE4D2"/>
			<stop  offset="0.8365" style="stop-color:#FEDCC5"/>
			<stop  offset="0.8853" style="stop-color:#FCC9A4"/>
			<stop  offset="0.9516" style="stop-color:#FAAB73"/>
			<stop  offset="1" style="stop-color:#F7944C"/>
		</linearGradient>
		<path class="st41" d="M34.9,15.1c-3.8-1.4-3.3-12.3,3.1-11.8C43.7,4.2,47.5,5,47.5,5c-1,1.1-3.8,9.2-2.2,12.4
			C39.5,16.3,38.8,16.1,34.9,15.1z"/>
	</g>
	<defs>
		<filter id="Adobe_OpacityMaskFilter_6_" filterUnits="userSpaceOnUse" x="41.8" y="24.8" width="14.6" height="6">
			<feFlood  style="flood-color:white;flood-opacity:1" result="back"/>
			<feBlend  in="SourceGraphic" in2="back" mode="normal"/>
		</filter>
	</defs>
	<mask maskUnits="userSpaceOnUse" x="41.8" y="24.8" width="14.6" height="6" id="SVGID_38_">
		<g class="st42">
			<defs>
				<filter id="Adobe_OpacityMaskFilter_7_" filterUnits="userSpaceOnUse" x="41.8" y="24.6" width="14.8" height="6.3">
					<feFlood  style="flood-color:white;flood-opacity:1" result="back"/>
					<feBlend  in="SourceGraphic" in2="back" mode="normal"/>
				</filter>
			</defs>
			<mask maskUnits="userSpaceOnUse" x="41.8" y="24.6" width="14.8" height="6.3" id="SVGID_38_">
				<g class="st43">
				</g>
			</mask>
			
				<linearGradient id="SVGID_39_" gradientUnits="userSpaceOnUse" x1="1227.7482" y1="184.3594" x2="1227.6034" y2="187.3515" gradientTransform="matrix(-0.9906 -0.1367 -0.1367 0.9906 1290.7593 12.2499)">
				<stop  offset="0" style="stop-color:#FFFFFF"/>
				<stop  offset="0.189" style="stop-color:#BFBFBF"/>
				<stop  offset="0.6025" style="stop-color:#373737"/>
				<stop  offset="0.7838" style="stop-color:#000000"/>
			</linearGradient>
			<path class="st44" d="M55.8,30.9c0.8,0.1,1.6-1.6-1.8-4.6l-11.7-1.7c-0.5,2.2-0.8,4.6-0.4,5C47.8,30.1,51.1,29.8,55.8,30.9z"/>
		</g>
	</mask>
	
		<linearGradient id="SVGID_40_" gradientUnits="userSpaceOnUse" x1="1332.9421" y1="209.9602" x2="1332.8037" y2="212.8211" gradientTransform="matrix(-0.9915 -0.1302 -0.1302 0.9915 1398.2462 -7.5805)">
		<stop  offset="0" style="stop-color:#4D1A17"/>
		<stop  offset="1" style="stop-color:#4D1A17"/>
	</linearGradient>
	<path class="st45" d="M55.7,30.7c0.8,0.1,1.6-1.4-1.8-4.4l-11.5-1.5c-0.5,2.2-0.7,4.4-0.3,4.8C47.9,30,51,29.6,55.7,30.7z"/>
	
		<linearGradient id="SVGID_41_" gradientUnits="userSpaceOnUse" x1="1351.697" y1="271.9055" x2="1351.697" y2="214.0524" gradientTransform="matrix(-0.9915 -0.1302 -0.1302 0.9915 1398.2462 -7.5805)">
		<stop  offset="0" style="stop-color:#F7944C"/>
		<stop  offset="0.2703" style="stop-color:#FCC39B"/>
		<stop  offset="0.6919" style="stop-color:#F7944C"/>
		<stop  offset="1" style="stop-color:#FEE3D1"/>
	</linearGradient>
	<polygon class="st46" points="26.5,27.2 34.2,29.1 33.7,29.6 26.6,87 26.7,87.6 19.1,85.3 18.9,84.7 26,27.7 	"/>
	
		<linearGradient id="SVGID_42_" gradientUnits="userSpaceOnUse" x1="1308.4852" y1="264.7713" x2="1308.4852" y2="208.7294" gradientTransform="matrix(-0.9915 -0.1302 -0.1302 0.9915 1398.2462 -7.5805)">
		<stop  offset="0" style="stop-color:#F7944C"/>
		<stop  offset="0.2703" style="stop-color:#FCC39B"/>
		<stop  offset="0.6919" style="stop-color:#F7944C"/>
		<stop  offset="1" style="stop-color:#FEE3D1"/>
	</linearGradient>
	<polygon class="st47" points="70.7,29.8 75.4,27.8 75.9,28.3 75.9,28.3 75.9,28.3 69.5,82.6 69.3,83.3 64.5,86.3 64.8,85.6 
		71.2,30.2 	"/>
	<polygon class="st48" points="33.7,29.6 26,27.7 26.5,27.2 34.2,29.1 	"/>
	<polygon class="st48" points="75.9,28.3 71.2,30.2 70.7,29.8 75.4,27.8 	"/>
	<polygon class="st49" points="50.9,94.1 50.8,94.7 0.3,79.8 0,79.2 	"/>
	<g class="st50">
		<polygon class="st6" points="51.5,94 51.5,94.6 50.8,94.7 50.9,94.1 		"/>
		<polygon class="st49" points="79.9,75.9 79.6,76.7 51.5,94.6 51.5,94 		"/>
	</g>
	<g>
		<defs>
			<filter id="Adobe_OpacityMaskFilter_8_" filterUnits="userSpaceOnUse" x="24.1" y="22.8" width="21.3" height="5.9">
				<feFlood  style="flood-color:white;flood-opacity:1" result="back"/>
				<feBlend  in="SourceGraphic" in2="back" mode="normal"/>
			</filter>
		</defs>
		<mask maskUnits="userSpaceOnUse" x="24.1" y="22.8" width="21.3" height="5.9" id="SVGID_43_">
			<g class="st51">
				<defs>
					<filter id="Adobe_OpacityMaskFilter_9_" filterUnits="userSpaceOnUse" x="23.8" y="22.8" width="21.6" height="6">
						<feFlood  style="flood-color:white;flood-opacity:1" result="back"/>
						<feBlend  in="SourceGraphic" in2="back" mode="normal"/>
					</filter>
				</defs>
				<mask maskUnits="userSpaceOnUse" x="23.8" y="22.8" width="21.6" height="6" id="SVGID_43_">
					<g class="st52">
					</g>
				</mask>
				
					<linearGradient id="SVGID_44_" gradientUnits="userSpaceOnUse" x1="1348.1721" y1="212.7632" x2="1348.3234" y2="213.9232" gradientTransform="matrix(-0.9915 -0.1302 -0.1302 0.9915 1398.2462 -7.5805)">
					<stop  offset="0" style="stop-color:#FFFFFF"/>
					<stop  offset="0.6112" style="stop-color:#646464"/>
					<stop  offset="1" style="stop-color:#000000"/>
				</linearGradient>
				<path class="st53" d="M45.4,23.7l-3.2-0.9c-6.4,4-12.9,4.4-18.5,3.6l8.9,2.3C35.5,29.3,38.3,28.1,45.4,23.7z"/>
			</g>
		</mask>
		
			<linearGradient id="SVGID_45_" gradientUnits="userSpaceOnUse" x1="1348.0005" y1="212.7593" x2="1348.1511" y2="213.9149" gradientTransform="matrix(-0.9915 -0.1302 -0.1302 0.9915 1398.2462 -7.5805)">
			<stop  offset="0" style="stop-color:#F7944C"/>
			<stop  offset="1" style="stop-color:#F7944C"/>
		</linearGradient>
		<path class="st54" d="M45.4,23.7l-3.2-0.9c-6.4,4-12.5,4.4-18.1,3.7l8.3,2.1C35.2,29.2,38.3,28.1,45.4,23.7z"/>
		
			<linearGradient id="SVGID_46_" gradientUnits="userSpaceOnUse" x1="1346.2146" y1="212.2008" x2="1344.5712" y2="205.1038" gradientTransform="matrix(-0.9915 -0.1302 -0.1302 0.9915 1398.2462 -7.5805)">
			<stop  offset="0" style="stop-color:#F7944C"/>
			<stop  offset="0.5189" style="stop-color:#F7944C"/>
			<stop  offset="1" style="stop-color:#F7944C"/>
		</linearGradient>
		<path class="st55" d="M47,22.8L43.8,22c-6.4,4-11.2,4.8-16.8,4.1l7,1.7C36.8,28.3,39.9,27.2,47,22.8z"/>
		
			<linearGradient id="SVGID_47_" gradientUnits="userSpaceOnUse" x1="1342.8374" y1="200.881" x2="1342.4055" y2="206.6395" gradientTransform="matrix(-0.9915 -0.1302 -0.1302 0.9915 1398.2462 -7.5805)">
			<stop  offset="0" style="stop-color:#F7944C"/>
			<stop  offset="0.5189" style="stop-color:#F7944C"/>
			<stop  offset="1" style="stop-color:#F7944C"/>
		</linearGradient>
		<path class="st56" d="M40,15.1c2.7,1,6.2,5,7,7.7L43.8,22c-2.5-2.5-2.2-5.3-9.6-8.2C37.5,14.7,38.1,14.6,40,15.1z"/>
		
			<linearGradient id="SVGID_48_" gradientUnits="userSpaceOnUse" x1="1353.5385" y1="212.1497" x2="1350.951" y2="198.3" gradientTransform="matrix(-0.9915 -0.1302 -0.1302 0.9915 1398.2462 -7.5805)">
			<stop  offset="0" style="stop-color:#F7944C"/>
			<stop  offset="9.223300e-002" style="stop-color:#F7944C"/>
			<stop  offset="0.1772" style="stop-color:#FAB380"/>
			<stop  offset="0.2184" style="stop-color:#FCC39B"/>
			<stop  offset="0.2308" style="stop-color:#FCC197"/>
			<stop  offset="0.4075" style="stop-color:#F9A062"/>
			<stop  offset="0.4903" style="stop-color:#F7944C"/>
			<stop  offset="0.8108" style="stop-color:#FEE4D2"/>
			<stop  offset="0.8365" style="stop-color:#FEDCC5"/>
			<stop  offset="0.8853" style="stop-color:#FCC9A4"/>
			<stop  offset="0.9516" style="stop-color:#FAAB73"/>
			<stop  offset="1" style="stop-color:#F7944C"/>
		</linearGradient>
		<path class="st57" d="M34,27.7c-6.3-3-3.2-15.1,5.9-12.6c0,0-2.4-0.7-5.8-1.3C21.4,11,21,25.3,27,26.1L34,27.7z"/>
	</g>
	
		<linearGradient id="SVGID_49_" gradientUnits="userSpaceOnUse" x1="1332.2659" y1="210.6104" x2="1332.8684" y2="198.8616" gradientTransform="matrix(-0.9915 -0.1302 -0.1302 0.9915 1398.2462 -7.5805)">
		<stop  offset="0" style="stop-color:#F7944C"/>
		<stop  offset="9.223300e-002" style="stop-color:#F7944C"/>
		<stop  offset="0.1772" style="stop-color:#FAB380"/>
		<stop  offset="0.2184" style="stop-color:#FCC39B"/>
		<stop  offset="0.2308" style="stop-color:#FCC197"/>
		<stop  offset="0.4075" style="stop-color:#F9A062"/>
		<stop  offset="0.4903" style="stop-color:#F7944C"/>
		<stop  offset="0.8108" style="stop-color:#FEE4D2"/>
		<stop  offset="0.8365" style="stop-color:#FEDCC5"/>
		<stop  offset="0.8853" style="stop-color:#FCC9A4"/>
		<stop  offset="0.9516" style="stop-color:#FAAB73"/>
		<stop  offset="1" style="stop-color:#F7944C"/>
	</linearGradient>
	<path class="st58" d="M56.4,29c1.8-3,3.4-9.7,0-12.8c-5.8-0.6-12.3-0.9-12.3-0.9c-1.7,2.2-2.2,9.7-1.8,12.2
		C48.2,28.1,51.6,27.9,56.4,29z"/>
</g>
</svg>
