<?xml version="1.0" encoding="utf-8"?>
<!-- Generator: Adobe Illustrator 19.0.0, SVG Export Plug-In . SVG Version: 6.00 Build 0)  -->
<svg version="1.1" id="Layer_1" xmlns="http://www.w3.org/2000/svg" xmlns:xlink="http://www.w3.org/1999/xlink" x="0px" y="0px"
	 viewBox="0 0 68.3 74.9" style="enable-background:new 0 0 68.3 74.9;" xml:space="preserve" preserveAspectRatio="none">
<style type="text/css">
	.st0{fill:url(#SVGID_1_);}
	.st1{opacity:0.3;fill:#5A5858;}
	.st2{fill:url(#SVGID_2_);}
	.st3{fill:url(#SVGID_3_);}
	.st4{fill:url(#SVGID_4_);}
	.st5{fill:#F9C6AD;}
	.st6{fill:url(#SVGID_5_);}
	.st7{fill:url(#SVGID_6_);}
	.st8{fill:url(#SVGID_7_);}
	.st9{fill:url(#SVGID_8_);}
	.st10{fill:url(#SVGID_9_);}
	.st11{fill:url(#SVGID_10_);}
	.st12{fill:url(#SVGID_11_);}
	.st13{fill:url(#SVGID_12_);}
	.st14{filter:url(#Adobe_OpacityMaskFilter);}
	.st15{filter:url(#Adobe_OpacityMaskFilter_1_);}
	.st16{mask:url(#SVGID_13_);fill:url(#SVGID_14_);}
	.st17{opacity:0.5;fill:url(#SVGID_15_);}
	.st18{fill:url(#SVGID_16_);}
	.st19{fill:url(#SVGID_17_);}
	.st20{fill:url(#SVGID_18_);}
	.st21{fill:url(#SVGID_19_);}
	.st22{filter:url(#Adobe_OpacityMaskFilter_2_);}
	.st23{filter:url(#Adobe_OpacityMaskFilter_3_);}
	.st24{mask:url(#SVGID_20_);fill:url(#SVGID_21_);}
	.st25{opacity:0.5;fill:url(#SVGID_22_);}
	.st26{fill:url(#SVGID_23_);}
	.st27{fill:url(#SVGID_24_);}
	.st28{fill:url(#SVGID_25_);}
	.st29{filter:url(#Adobe_OpacityMaskFilter_4_);}
	.st30{filter:url(#Adobe_OpacityMaskFilter_5_);}
	.st31{mask:url(#SVGID_26_);fill:url(#SVGID_27_);}
	.st32{opacity:0.5;fill:url(#SVGID_28_);}
	.st33{fill:url(#SVGID_29_);}
	.st34{fill:url(#SVGID_30_);}
	.st35{fill:url(#SVGID_31_);}
</style>
<g>
	
		<linearGradient id="SVGID_1_" gradientUnits="userSpaceOnUse" x1="79.593" y1="117.7763" x2="144.7341" y2="117.7763" gradientTransform="matrix(0.9988 4.880000e-002 -4.880000e-002 0.9988 -72.929 -75.0639)">
		<stop  offset="0" style="stop-color:#1C9647"/>
		<stop  offset="0.1005" style="stop-color:#3EA049"/>
		<stop  offset="0.3022" style="stop-color:#77BD56"/>
		<stop  offset="0.3243" style="stop-color:#7CC358"/>
		<stop  offset="0.3577" style="stop-color:#6DAB4F"/>
		<stop  offset="0.4324" style="stop-color:#548940"/>
		<stop  offset="0.5132" style="stop-color:#407035"/>
		<stop  offset="0.601" style="stop-color:#325E2D"/>
		<stop  offset="0.699" style="stop-color:#285227"/>
		<stop  offset="0.8159" style="stop-color:#224C24"/>
		<stop  offset="1" style="stop-color:#204A23"/>
	</linearGradient>
	<path class="st0" d="M34.7,21.3c-18-0.9-32.8,2.9-33,8.5L0,63.2c-0.3,5.6,14.1,10.8,32,11.6c18,0.9,32.8-2.9,33-8.5l1.6-33.5
		C67,27.4,52.6,22.1,34.7,21.3z"/>
	<g>
		<path class="st1" d="M34.7,21.3c-18-0.9-32.8,2.9-33,8.5l-0.4,7.6C4.7,42,17.7,46,33.4,46.8c15.7,0.8,29.1-1.9,32.9-6.3l0.4-7.6
			C67,27.4,52.6,22.1,34.7,21.3z"/>
		
			<linearGradient id="SVGID_2_" gradientUnits="userSpaceOnUse" x1="78.5999" y1="96.9857" x2="145.7275" y2="96.9857" gradientTransform="matrix(0.9988 4.880000e-002 -4.880000e-002 0.9988 -72.929 -75.0639)">
			<stop  offset="0" style="stop-color:#1C9647"/>
			<stop  offset="0.1005" style="stop-color:#3EA049"/>
			<stop  offset="0.3022" style="stop-color:#77BD56"/>
			<stop  offset="0.3243" style="stop-color:#7CC358"/>
			<stop  offset="0.3577" style="stop-color:#6DAB4F"/>
			<stop  offset="0.4324" style="stop-color:#548940"/>
			<stop  offset="0.5132" style="stop-color:#407035"/>
			<stop  offset="0.601" style="stop-color:#325E2D"/>
			<stop  offset="0.699" style="stop-color:#285227"/>
			<stop  offset="0.8159" style="stop-color:#224C24"/>
			<stop  offset="1" style="stop-color:#204A23"/>
		</linearGradient>
		<path class="st2" d="M35.3,8.9c-18.5-0.9-33.8,3-34,8.7L0.5,33.7c-0.3,5.7,14.5,11.1,33,12c18.5,0.9,33.8-3,34-8.7l0.8-16.1
			C68.6,15.2,53.8,9.8,35.3,8.9z"/>
		<g>
			
				<linearGradient id="SVGID_3_" gradientUnits="userSpaceOnUse" x1="97.1364" y1="99.9594" x2="124.2052" y2="80.109" gradientTransform="matrix(0.9988 4.880000e-002 -4.880000e-002 0.9988 -72.929 -75.0639)">
				<stop  offset="0" style="stop-color:#7CC358"/>
				<stop  offset="0.3326" style="stop-color:#52863F"/>
				<stop  offset="0.6238" style="stop-color:#36632F"/>
				<stop  offset="0.8559" style="stop-color:#265026"/>
				<stop  offset="1" style="stop-color:#204A23"/>
			</linearGradient>
			<path class="st3" d="M68.3,20.9c-0.3,5.7-15.5,9.6-34,8.7c-18.5-0.9-33.3-6.3-33-12c0.3-5.7,15.5-9.6,34-8.7
				C53.8,9.8,68.6,15.2,68.3,20.9z"/>
		</g>
	</g>
	<g>
		
			<linearGradient id="SVGID_4_" gradientUnits="userSpaceOnUse" x1="78.6006" y1="94.378" x2="145.7281" y2="94.378" gradientTransform="matrix(0.9988 4.880000e-002 -4.880000e-002 0.9988 -72.929 -75.0639)">
			<stop  offset="0" style="stop-color:#358E43"/>
			<stop  offset="0.3" style="stop-color:#7CC358"/>
			<stop  offset="0.5735" style="stop-color:#5BA84C"/>
			<stop  offset="0.8366" style="stop-color:#3F9846"/>
			<stop  offset="1" style="stop-color:#329344"/>
		</linearGradient>
		<path class="st4" d="M34.2,30c16.7,0.8,30.5-2.1,33.9-6.9l0.1-2c-0.7,5.3-16.1,9.1-34,8.2c-17.9-0.9-32.8-6.1-33-11.5l-0.1,2
			C4.1,24.9,17.5,29.1,34.2,30z"/>
	</g>
	<path class="st1" d="M13.5,42.6c-3.2-0.9-5.9-2-8.1-3.1l-2.2,27l0.3,1.2c1.7,1.2,4,2.4,6.8,3.4c0.4,0.1,0.7,0.3,1.1,0.4
		c0,0,0,0,0,0l-0.3-1.1L13.5,42.6z"/>
	<path class="st1" d="M48.9,45.3l-0.6,28l-0.4,1c0,0,0.1,0,0.1,0c0.3,0,0.6-0.1,1-0.2c2.7-0.4,5.2-1,7.3-1.7l0.4-1.1l0.6-27.6
		C54.7,44.5,51.9,44.9,48.9,45.3z"/>
	<path class="st1" d="M58.4,28.1c0,0,0.1,0,0.1,0L58,27.3h0L21,9.2c-3.3,0.3-6.4,0.8-9,1.4l37.8,18.2l0.2,0.8l-0.6,15.6
		c3.1-0.4,5.9-0.9,8.4-1.5L58.4,28.1z"/>
	<path class="st5" d="M50.5,29.5c3.1-0.4,5.9-0.9,8.4-1.5l-0.3-0.7c-2.4,0.6-5.2,1.1-8.2,1.5L50.5,29.5z"/>
	<path class="st1" d="M51.4,11.1L6,23l-0.3,0.7L4.8,39.1c2.1,1.2,4.9,2.4,8.2,3.3l1-15.6c-0.7-0.2-0.7-0.2,0,0c0,0,0,0,0,0l0.2-0.8
		l45.5-12.7C57.2,12.5,54.4,11.8,51.4,11.1z"/>
	<path class="st1" d="M32.1,73.9c-18-0.9-32.3-6.1-32-11.6l0,1c-0.3,5.6,14.1,10.8,32,11.6c18,0.9,32.8-2.9,33-8.5l0-1
		C64.8,71,50.1,74.7,32.1,73.9z"/>
	
		<linearGradient id="SVGID_5_" gradientUnits="userSpaceOnUse" x1="96.933" y1="80.6974" x2="131.3407" y2="97.6605" gradientTransform="matrix(0.9988 4.880000e-002 -4.880000e-002 0.9988 -72.929 -75.0639)">
		<stop  offset="0" style="stop-color:#801517"/>
		<stop  offset="0.3297" style="stop-color:#B72025"/>
		<stop  offset="0.7351" style="stop-color:#E51E25"/>
		<stop  offset="1" style="stop-color:#F29B77"/>
	</linearGradient>
	<path class="st6" d="M50.3,28.8c3-0.4,5.8-0.9,8.2-1.5h0h0l-37-18.1c-3.3,0.3-6.4,0.8-9,1.4L50.3,28.8
		C50.3,28.8,50.3,28.8,50.3,28.8z"/>
	
		<linearGradient id="SVGID_6_" gradientUnits="userSpaceOnUse" x1="132.1168" y1="80.1155" x2="88.2052" y2="95.1535" gradientTransform="matrix(0.9988 4.880000e-002 -4.880000e-002 0.9988 -72.929 -75.0639)">
		<stop  offset="0" style="stop-color:#801517"/>
		<stop  offset="0.3297" style="stop-color:#B72025"/>
		<stop  offset="0.7351" style="stop-color:#E51E25"/>
		<stop  offset="1" style="stop-color:#F29B77"/>
	</linearGradient>
	<path class="st7" d="M51,10.9L5.6,22.7c2.1,1.2,4.7,2.3,7.9,3.2l45.6-12.8C56.8,12.3,54.1,11.5,51,10.9z"/>
	
		<linearGradient id="SVGID_7_" gradientUnits="userSpaceOnUse" x1="113.8149" y1="75.9454" x2="113.6792" y2="69.9735" gradientTransform="matrix(0.9988 4.880000e-002 -4.880000e-002 0.9988 -72.929 -75.0639)">
		<stop  offset="0" style="stop-color:#801517"/>
		<stop  offset="0.3892" style="stop-color:#B72025"/>
		<stop  offset="0.5784" style="stop-color:#D91F26"/>
		<stop  offset="0.7892" style="stop-color:#F29B77"/>
		<stop  offset="1" style="stop-color:#D91F26"/>
	</linearGradient>
	<path class="st8" d="M32.8,16.4C30,9.3,30.4,1.7,31.9,0.4c0.7-0.8,10.4-0.3,11.4,0.8c0.9,1.1-1.2,9.8-6.1,15.4L32.8,16.4z"/>
	<g>
		
			<linearGradient id="SVGID_8_" gradientUnits="userSpaceOnUse" x1="30.5251" y1="477.2344" x2="29.8588" y2="464.2432" gradientTransform="matrix(0.9594 0.282 -0.282 0.9594 127.9383 -451.2987)">
			<stop  offset="0" style="stop-color:#521210"/>
			<stop  offset="0.5189" style="stop-color:#AB1E23"/>
			<stop  offset="1" style="stop-color:#521210"/>
		</linearGradient>
		<path class="st9" d="M27.9,2.8c0,0-9-2.7-12.4-1.1c-6,3-2.3,9.5,1.2,11.6c3.5,2.1,14.8,4.8,14.8,4.8l2.9,0.5
			C23.1,14.2,15.9,5.5,27.9,2.8z"/>
		
			<linearGradient id="SVGID_9_" gradientUnits="userSpaceOnUse" x1="31.6187" y1="477.1738" x2="30.9488" y2="464.1104" gradientTransform="matrix(0.9594 0.282 -0.282 0.9594 127.9383 -451.2987)">
			<stop  offset="0" style="stop-color:#801517"/>
			<stop  offset="0.3892" style="stop-color:#B72025"/>
			<stop  offset="0.5784" style="stop-color:#D91F26"/>
			<stop  offset="0.7892" style="stop-color:#F29B77"/>
			<stop  offset="1" style="stop-color:#D91F26"/>
		</linearGradient>
		<path class="st10" d="M31.5,18.1c-5.2-10.9-10-18.9-16-16.4C18.6,0,26.4,2.2,27.9,2.8c5.8,2.2,6.7,12.6,6.5,15.8L31.5,18.1z"/>
	</g>
	<g>
		
			<linearGradient id="SVGID_10_" gradientUnits="userSpaceOnUse" x1="2258.082" y1="-63.3467" x2="2257.416" y2="-76.3349" gradientTransform="matrix(-0.9957 9.350000e-002 9.350000e-002 0.9957 2303.1018 -129.4802)">
			<stop  offset="0" style="stop-color:#521210"/>
			<stop  offset="0.5189" style="stop-color:#AB1E23"/>
			<stop  offset="1" style="stop-color:#521210"/>
		</linearGradient>
		<path class="st11" d="M46,5.4c0,0,9.4-1,12.4,1.3c5.3,4.1,0.5,9.7-3.4,11.2c-3.8,1.4-15.5,1.9-15.5,1.9l-2.9,0
			C46.8,17.3,55.1,11.8,46,5.4z"/>
		
			<linearGradient id="SVGID_11_" gradientUnits="userSpaceOnUse" x1="2258.9434" y1="-67.9275" x2="2258.4685" y2="-77.1865" gradientTransform="matrix(-0.9957 9.350000e-002 9.350000e-002 0.9957 2303.1018 -129.4802)">
			<stop  offset="0" style="stop-color:#801517"/>
			<stop  offset="0.3892" style="stop-color:#B72025"/>
			<stop  offset="0.5784" style="stop-color:#D91F26"/>
			<stop  offset="0.7892" style="stop-color:#F29B77"/>
			<stop  offset="1" style="stop-color:#D91F26"/>
		</linearGradient>
		<path class="st12" d="M39.5,19.8c7.1-9.7,13.4-16.7,18.8-13C55.6,4.5,47.6,5.2,46,5.4c-7.2,1-9,10.5-9.4,14.3L39.5,19.8z"/>
	</g>
	<g>
		
			<linearGradient id="SVGID_12_" gradientUnits="userSpaceOnUse" x1="101.5728" y1="81.6853" x2="109.1876" y2="88.3382" gradientTransform="matrix(0.9988 4.880000e-002 -4.880000e-002 0.9988 -72.929 -75.0639)">
			<stop  offset="0" style="stop-color:#521210"/>
			<stop  offset="0.5189" style="stop-color:#AB1E23"/>
			<stop  offset="1" style="stop-color:#521210"/>
		</linearGradient>
		<path class="st13" d="M25.4,11.4c5,2.7,9.6,7.5,13,10.6l-2.5-0.7c-5-4.8-10.3-9-16.9-12.4C22.7,10.5,23.5,10.9,25.4,11.4z"/>
		<defs>
			<filter id="Adobe_OpacityMaskFilter" filterUnits="userSpaceOnUse" x="8.8" y="19.4" width="21.9" height="5.8">
				<feFlood  style="flood-color:white;flood-opacity:1" result="back"/>
				<feBlend  in="SourceGraphic" in2="back" mode="normal"/>
			</filter>
		</defs>
		<mask maskUnits="userSpaceOnUse" x="8.8" y="19.4" width="21.9" height="5.8" id="SVGID_13_">
			<g class="st14">
				<defs>
					<filter id="Adobe_OpacityMaskFilter_1_" filterUnits="userSpaceOnUse" x="7.8" y="19.4" width="22.9" height="6">
						<feFlood  style="flood-color:white;flood-opacity:1" result="back"/>
						<feBlend  in="SourceGraphic" in2="back" mode="normal"/>
					</filter>
				</defs>
				<mask maskUnits="userSpaceOnUse" x="7.8" y="19.4" width="22.9" height="6" id="SVGID_13_">
					<g class="st15">
					</g>
				</mask>
				
					<linearGradient id="SVGID_14_" gradientUnits="userSpaceOnUse" x1="98.5253" y1="91.2975" x2="93.3758" y2="93.6687" gradientTransform="matrix(0.9988 4.880000e-002 -4.880000e-002 0.9988 -72.929 -75.0639)">
					<stop  offset="0" style="stop-color:#FFFFFF"/>
					<stop  offset="0.6112" style="stop-color:#646464"/>
					<stop  offset="1" style="stop-color:#000000"/>
				</linearGradient>
				<path class="st16" d="M24.8,19.4l6,1.3c-6.3,4.7-10.5,5.9-16.1,3.7c-1.7-0.7-4.5-1.9-6.8-3.1C15.3,23.5,18.3,22.1,24.8,19.4z"/>
			</g>
		</mask>
		
			<linearGradient id="SVGID_15_" gradientUnits="userSpaceOnUse" x1="98.943" y1="91.4136" x2="93.9808" y2="93.6986" gradientTransform="matrix(0.9988 4.880000e-002 -4.880000e-002 0.9988 -72.929 -75.0639)">
			<stop  offset="0" style="stop-color:#535454"/>
			<stop  offset="1" style="stop-color:#535454"/>
		</linearGradient>
		<path class="st17" d="M24.8,19.4l6,1.3c-6.3,4.7-11,5.6-16,3.4c-1.7-0.7-3.6-1.3-6-2.4C16.3,23.8,18.3,22.1,24.8,19.4z"/>
		
			<linearGradient id="SVGID_16_" gradientUnits="userSpaceOnUse" x1="96.6431" y1="94.5889" x2="101.8762" y2="86.5888" gradientTransform="matrix(0.9988 4.880000e-002 -4.880000e-002 0.9988 -72.929 -75.0639)">
			<stop  offset="0" style="stop-color:#521210"/>
			<stop  offset="0.5189" style="stop-color:#AB1E23"/>
			<stop  offset="1" style="stop-color:#521210"/>
		</linearGradient>
		<path class="st18" d="M28,17.7l6,1.3c-6.3,4.7-10.5,5.9-16.1,3.7c-1.7-0.7-4.5-1.9-6.8-3.1C18.5,21.8,21.5,20.4,28,17.7z"/>
		
			<linearGradient id="SVGID_17_" gradientUnits="userSpaceOnUse" x1="90.748" y1="91.5242" x2="95.7175" y2="79.1804" gradientTransform="matrix(0.9988 4.880000e-002 -4.880000e-002 0.9988 -72.929 -75.0639)">
			<stop  offset="0" style="stop-color:#801517"/>
			<stop  offset="0.3892" style="stop-color:#B72025"/>
			<stop  offset="0.5784" style="stop-color:#D91F26"/>
			<stop  offset="0.7892" style="stop-color:#F29B77"/>
			<stop  offset="1" style="stop-color:#D91F26"/>
		</linearGradient>
		<path class="st19" d="M19,8.9c-9.6-3-13.3,8-8,10.7c0,0,3.8,2,6.8,3.1c-3.7-2.6-3.7-8.4,2.4-11.3c1.7-0.8,3.9-0.4,5.1,0
			C23,10.4,21.9,9.8,19,8.9z"/>
	</g>
	<g>
		
			<linearGradient id="SVGID_18_" gradientUnits="userSpaceOnUse" x1="114.1897" y1="91.0294" x2="114.9465" y2="76.2715" gradientTransform="matrix(0.9988 4.880000e-002 -4.880000e-002 0.9988 -72.929 -75.0639)">
			<stop  offset="0" style="stop-color:#521210"/>
			<stop  offset="0.5189" style="stop-color:#AB1E23"/>
			<stop  offset="1" style="stop-color:#521210"/>
		</linearGradient>
		<path class="st20" d="M39.8,5.8l-8.4-0.8c4.7,3.1,5.3,7.4,5.1,13.4l5.7,0.5C44.7,14,46.6,7,39.8,5.8z"/>
		
			<linearGradient id="SVGID_19_" gradientUnits="userSpaceOnUse" x1="108.6829" y1="86.7769" x2="109.2775" y2="75.1823" gradientTransform="matrix(0.9988 4.880000e-002 -4.880000e-002 0.9988 -72.929 -75.0639)">
			<stop  offset="0" style="stop-color:#801517"/>
			<stop  offset="0.3892" style="stop-color:#B72025"/>
			<stop  offset="0.5784" style="stop-color:#D91F26"/>
			<stop  offset="0.7892" style="stop-color:#F29B77"/>
			<stop  offset="1" style="stop-color:#D91F26"/>
		</linearGradient>
		<path class="st21" d="M27.3,17c-3.9-1.2-3.9-12.1,2.6-12.1c5.9,0.4,10,1,10,1c-6.1-0.2-8.2,9.8-1.6,12.4
			C32.3,17.7,31.3,17.7,27.3,17z"/>
	</g>
	<g>
		<defs>
			<filter id="Adobe_OpacityMaskFilter_2_" filterUnits="userSpaceOnUse" x="38.6" y="20.8" width="19.8" height="6.9">
				<feFlood  style="flood-color:white;flood-opacity:1" result="back"/>
				<feBlend  in="SourceGraphic" in2="back" mode="normal"/>
			</filter>
		</defs>
		<mask maskUnits="userSpaceOnUse" x="38.6" y="20.8" width="19.8" height="6.9" id="SVGID_20_">
			<g class="st22">
				<defs>
					<filter id="Adobe_OpacityMaskFilter_3_" filterUnits="userSpaceOnUse" x="38.6" y="20.8" width="20.3" height="7">
						<feFlood  style="flood-color:white;flood-opacity:1" result="back"/>
						<feBlend  in="SourceGraphic" in2="back" mode="normal"/>
					</filter>
				</defs>
				<mask maskUnits="userSpaceOnUse" x="38.6" y="20.8" width="20.3" height="7" id="SVGID_20_">
					<g class="st23">
					</g>
				</mask>
				
					<linearGradient id="SVGID_21_" gradientUnits="userSpaceOnUse" x1="-78.7846" y1="126.3899" x2="-73.9882" y2="127.4967" gradientTransform="matrix(0.9988 -4.920000e-002 4.920000e-002 0.9988 120.6449 -105.3652)">
					<stop  offset="0" style="stop-color:#FFFFFF"/>
					<stop  offset="0.6112" style="stop-color:#646464"/>
					<stop  offset="1" style="stop-color:#000000"/>
				</linearGradient>
				<path class="st24" d="M38.6,22.3l3.8-1.5c6.9,4.1,10.5,5.8,16.4,4.9l-7.4,1.9C48.4,28.3,45.2,27.1,38.6,22.3z"/>
			</g>
		</mask>
		
			<linearGradient id="SVGID_22_" gradientUnits="userSpaceOnUse" x1="-78.9963" y1="126.3024" x2="-74.3093" y2="127.384" gradientTransform="matrix(0.9988 -4.920000e-002 4.920000e-002 0.9988 120.6449 -105.3652)">
			<stop  offset="0" style="stop-color:#535454"/>
			<stop  offset="1" style="stop-color:#535454"/>
		</linearGradient>
		<path class="st25" d="M38.6,22.3l3.8-1.5c6.9,4.1,10,5.9,15.9,5l-7.2,1.7C48.2,28.2,45.2,27.1,38.6,22.3z"/>
		
			<linearGradient id="SVGID_23_" gradientUnits="userSpaceOnUse" x1="181.9914" y1="-65.3997" x2="180.2464" y2="-72.9348" gradientTransform="matrix(0.9987 -5.080000e-002 5.080000e-002 0.9987 -131.5525 100.3185)">
			<stop  offset="0" style="stop-color:#521210"/>
			<stop  offset="0.5189" style="stop-color:#AB1E23"/>
			<stop  offset="1" style="stop-color:#521210"/>
		</linearGradient>
		<path class="st26" d="M36,19.7l4-1.1c6.4,4.7,9.9,6.8,15.9,6.5l-7.6,1.2C45.2,26.7,42.1,25.2,36,19.7z"/>
		
			<linearGradient id="SVGID_24_" gradientUnits="userSpaceOnUse" x1="177.8686" y1="-77.3224" x2="177.4093" y2="-71.1975" gradientTransform="matrix(0.9987 -5.080000e-002 5.080000e-002 0.9987 -131.5525 100.3185)">
			<stop  offset="0" style="stop-color:#521210"/>
			<stop  offset="0.5189" style="stop-color:#AB1E23"/>
			<stop  offset="1" style="stop-color:#521210"/>
		</linearGradient>
		<path class="st27" d="M43,12.4c-2.9,0.8-7,4.8-8.1,7.6l3.4-0.7c2.8-2.4,2.8-5.4,10.9-7.9C45.7,12.2,45.1,11.9,43,12.4z"/>
		
			<linearGradient id="SVGID_25_" gradientUnits="userSpaceOnUse" x1="189.2518" y1="-65.3348" x2="186.4993" y2="-80.0686" gradientTransform="matrix(0.9987 -5.080000e-002 5.080000e-002 0.9987 -131.5525 100.3185)">
			<stop  offset="0" style="stop-color:#801517"/>
			<stop  offset="0.3892" style="stop-color:#B72025"/>
			<stop  offset="0.5784" style="stop-color:#D91F26"/>
			<stop  offset="0.7892" style="stop-color:#F29B77"/>
			<stop  offset="1" style="stop-color:#D91F26"/>
		</linearGradient>
		<path class="st28" d="M48.3,26.3c6.9-2.6,4.7-15.7-5.2-13.9c0,0,2.6-0.6,6.2-0.9c13.8-1.8,13,13.3,6.6,13.6L48.3,26.3z"/>
	</g>
	<defs>
		<filter id="Adobe_OpacityMaskFilter_4_" filterUnits="userSpaceOnUse" x="28.5" y="15.9" width="12.9" height="12.3">
			<feFlood  style="flood-color:white;flood-opacity:1" result="back"/>
			<feBlend  in="SourceGraphic" in2="back" mode="normal"/>
		</filter>
	</defs>
	<mask maskUnits="userSpaceOnUse" x="28.5" y="15.9" width="12.9" height="12.3" id="SVGID_26_">
		<g class="st29">
			<defs>
				<filter id="Adobe_OpacityMaskFilter_5_" filterUnits="userSpaceOnUse" x="28.2" y="15.9" width="13.2" height="12.6">
					<feFlood  style="flood-color:white;flood-opacity:1" result="back"/>
					<feBlend  in="SourceGraphic" in2="back" mode="normal"/>
				</filter>
			</defs>
			<mask maskUnits="userSpaceOnUse" x="28.2" y="15.9" width="13.2" height="12.6" id="SVGID_26_">
				<g class="st30">
				</g>
			</mask>
			
				<linearGradient id="SVGID_27_" gradientUnits="userSpaceOnUse" x1="112.5083" y1="96.0566" x2="112.5083" y2="97.5413" gradientTransform="matrix(0.9988 4.880000e-002 -4.880000e-002 0.9988 -72.929 -75.0639)">
				<stop  offset="0" style="stop-color:#FFFFFF"/>
				<stop  offset="0.6112" style="stop-color:#646464"/>
				<stop  offset="1" style="stop-color:#000000"/>
			</linearGradient>
			<path class="st31" d="M40.9,28.5c0.7-3.3,1.2-9.8-1.6-12.3c-7.2-0.3-8.6-0.3-8.6-0.3c-1.9,2.3-2.7,8.8-2.4,11.4
				C33.9,28.1,35.7,28,40.9,28.5z"/>
		</g>
	</mask>
	
		<linearGradient id="SVGID_28_" gradientUnits="userSpaceOnUse" x1="112.5856" y1="95.8093" x2="112.5856" y2="97.2585" gradientTransform="matrix(0.9988 4.880000e-002 -4.880000e-002 0.9988 -72.929 -75.0639)">
		<stop  offset="0" style="stop-color:#535454"/>
		<stop  offset="1" style="stop-color:#535454"/>
	</linearGradient>
	<path class="st32" d="M40.8,28.2c0.7-3.3,1.3-9.5-1.5-12c-7.2-0.3-8.6-0.3-8.6-0.3c-1.9,2.3-2.5,8.6-2.1,11.3
		C34.2,28,35.6,27.7,40.8,28.2z"/>
	
		<linearGradient id="SVGID_29_" gradientUnits="userSpaceOnUse" x1="3387.8245" y1="302.2648" x2="3388.4556" y2="289.9599" gradientTransform="matrix(-0.9847 -0.1742 -0.1742 0.9847 3423.3567 318.2284)">
		<stop  offset="0" style="stop-color:#801517"/>
		<stop  offset="0.3892" style="stop-color:#B72025"/>
		<stop  offset="0.5784" style="stop-color:#D91F26"/>
		<stop  offset="0.7892" style="stop-color:#F29B77"/>
		<stop  offset="1" style="stop-color:#D91F26"/>
	</linearGradient>
	<path class="st33" d="M41,26.8c2-3.1,2.4-10.6-0.3-13.1c-7.2-0.3-10.9-0.6-10.9-0.6c-1.9,2.3-1.7,9.9-1.4,12.5
		C34,26.4,35.8,26.3,41,26.8z"/>
	
		<linearGradient id="SVGID_30_" gradientUnits="userSpaceOnUse" x1="132.2927" y1="141.4919" x2="132.2927" y2="96.9144" gradientTransform="matrix(0.9988 4.880000e-002 -4.880000e-002 0.9988 -72.929 -75.0639)">
		<stop  offset="0" style="stop-color:#801517"/>
		<stop  offset="0.3297" style="stop-color:#B72025"/>
		<stop  offset="0.7351" style="stop-color:#E51E25"/>
		<stop  offset="1" style="stop-color:#F29B77"/>
	</linearGradient>
	<path class="st34" d="M48.3,73.3l-0.4,1c0,0,0.1,0,0.1,0c0.3,0,0.6-0.1,1-0.1c2.7-0.4,5.2-0.9,7.4-1.5l0.4-1.1L58.8,28
		c-2.5,0.7-5.3,1.2-8.4,1.5L48.3,73.3z"/>
	<path class="st5" d="M5.6,22.7l-0.4,0.7c2.1,1.2,4.9,2.4,8.1,3.3l0.2-0.8C10.4,25,7.7,23.9,5.6,22.7z"/>
	
		<linearGradient id="SVGID_31_" gradientUnits="userSpaceOnUse" x1="87.1845" y1="141.5146" x2="87.1845" y2="96.917" gradientTransform="matrix(0.9988 4.880000e-002 -4.880000e-002 0.9988 -72.929 -75.0639)">
		<stop  offset="0" style="stop-color:#801517"/>
		<stop  offset="0.3297" style="stop-color:#B72025"/>
		<stop  offset="0.7351" style="stop-color:#E51E25"/>
		<stop  offset="1" style="stop-color:#F29B77"/>
	</linearGradient>
	<path class="st35" d="M13.4,26.7C13.4,26.7,13.4,26.7,13.4,26.7c-3.3-1-6-2.1-8.1-3.3L3.1,66.8L3.5,68c1.8,1.2,4.1,2.2,7,3.2
		c0.4,0.1,0.7,0.2,1.1,0.3c0,0,0,0,0,0l-0.3-1.1L13.4,26.7z"/>
</g>
</svg>
