<?xml version="1.0" encoding="utf-8"?>
<!-- Generator: Adobe Illustrator 19.0.0, SVG Export Plug-In . SVG Version: 6.00 Build 0)  -->
<svg version="1.1" id="Layer_1" xmlns="http://www.w3.org/2000/svg" xmlns:xlink="http://www.w3.org/1999/xlink" x="0px" y="0px"
	 viewBox="0 0 114.2 125" style="enable-background:new 0 0 114.2 125;" xml:space="preserve" preserveAspectRatio="none">
<style type="text/css">
	.st0{fill:url(#SVGID_1_);}
	.st1{fill:url(#SVGID_2_);}
	.st2{enable-background:new    ;}
	.st3{fill:url(#SVGID_3_);}
	.st4{fill:url(#SVGID_4_);}
	.st5{fill:url(#SVGID_5_);}
	.st6{opacity:0.5;fill:#90191C;}
	.st7{fill:url(#SVGID_6_);}
	.st8{fill:url(#SVGID_7_);}
	.st9{fill:url(#SVGID_8_);}
	.st10{fill:url(#SVGID_9_);}
	.st11{fill:url(#SVGID_10_);}
	.st12{fill:url(#SVGID_11_);}
	.st13{fill:url(#SVGID_12_);}
	.st14{filter:url(#Adobe_OpacityMaskFilter);}
	.st15{filter:url(#Adobe_OpacityMaskFilter_1_);}
	.st16{mask:url(#SVGID_13_);fill:url(#SVGID_14_);}
	.st17{opacity:0.5;fill:url(#SVGID_15_);}
	.st18{fill:url(#SVGID_16_);}
	.st19{fill:url(#SVGID_17_);}
	.st20{fill:url(#SVGID_18_);}
	.st21{fill:url(#SVGID_19_);}
	.st22{fill:url(#SVGID_20_);}
	.st23{fill:url(#SVGID_21_);}
	.st24{fill:url(#SVGID_22_);}
	.st25{filter:url(#Adobe_OpacityMaskFilter_2_);}
	.st26{filter:url(#Adobe_OpacityMaskFilter_3_);}
	.st27{mask:url(#SVGID_23_);fill:url(#SVGID_24_);}
	.st28{opacity:0.5;fill:url(#SVGID_25_);}
	.st29{fill:url(#SVGID_26_);}
	.st30{fill:url(#SVGID_27_);}
	.st31{fill:url(#SVGID_28_);}
	.st32{filter:url(#Adobe_OpacityMaskFilter_4_);}
	.st33{filter:url(#Adobe_OpacityMaskFilter_5_);}
	.st34{mask:url(#SVGID_29_);fill:url(#SVGID_30_);}
	.st35{opacity:0.5;fill:url(#SVGID_31_);}
	.st36{fill:url(#SVGID_32_);}
	.st37{fill:url(#SVGID_33_);}
	.st38{fill:url(#SVGID_34_);}
	.st39{fill:url(#SVGID_35_);}
	.st40{fill:url(#SVGID_36_);}
	.st41{fill:url(#SVGID_37_);}
	.st42{filter:url(#Adobe_OpacityMaskFilter_6_);}
	.st43{filter:url(#Adobe_OpacityMaskFilter_7_);}
	.st44{mask:url(#SVGID_38_);fill:url(#SVGID_39_);}
	.st45{opacity:0.5;fill:url(#SVGID_40_);}
	.st46{fill:url(#SVGID_41_);}
	.st47{fill:url(#SVGID_42_);}
	.st48{fill:#FFF3C4;}
	.st49{opacity:0.3;fill:#90191C;}
	.st50{opacity:0.5;}
	.st51{filter:url(#Adobe_OpacityMaskFilter_8_);}
	.st52{filter:url(#Adobe_OpacityMaskFilter_9_);}
	.st53{mask:url(#SVGID_43_);fill:url(#SVGID_44_);}
	.st54{opacity:0.5;fill:url(#SVGID_45_);}
	.st55{fill:url(#SVGID_46_);}
	.st56{fill:url(#SVGID_47_);}
	.st57{fill:url(#SVGID_48_);}
	.st58{fill:url(#SVGID_49_);}
</style>
<g>
	
		<linearGradient id="SVGID_1_" gradientUnits="userSpaceOnUse" x1="1330.4829" y1="305.7984" x2="1300.2344" y2="220.3975" gradientTransform="matrix(-0.9915 -0.1302 -0.1302 0.9915 1426.9988 -5.7009)">
		<stop  offset="0" style="stop-color:#90191C"/>
		<stop  offset="1" style="stop-color:#E51E25"/>
	</linearGradient>
	<polygon class="st0" points="112.1,44.9 105.5,100.2 104.9,101.3 67.9,124.8 75.7,59.7 	"/>
	
		<linearGradient id="SVGID_2_" gradientUnits="userSpaceOnUse" x1="1351.0978" y1="196.541" x2="1350.829" y2="184.7163" gradientTransform="matrix(-0.9915 -0.1302 -0.1302 0.9915 1426.9988 -5.7009)">
		<stop  offset="0" style="stop-color:#653714"/>
		<stop  offset="9.223300e-002" style="stop-color:#CB8B2A"/>
		<stop  offset="0.2142" style="stop-color:#F2C459"/>
		<stop  offset="0.2184" style="stop-color:#F3C75B"/>
		<stop  offset="0.3742" style="stop-color:#D9A039"/>
		<stop  offset="0.4903" style="stop-color:#CB8B2A"/>
		<stop  offset="0.8108" style="stop-color:#F4E7BE"/>
		<stop  offset="0.8339" style="stop-color:#F1DEB0"/>
		<stop  offset="0.8779" style="stop-color:#E7C98F"/>
		<stop  offset="0.9381" style="stop-color:#DAAA5E"/>
		<stop  offset="1" style="stop-color:#CB8B2A"/>
	</linearGradient>
	<path class="st1" d="M65.3,22.6c5.1-8.1,6.2-16.9,4.7-18.8c-0.7-1.1-12.7-3.3-14.1-2.1c-1.4,1.2-0.7,12.2,4,20.2L65.3,22.6z"/>
	<g>
		<g class="st2">
			
				<linearGradient id="SVGID_3_" gradientUnits="userSpaceOnUse" x1="1398.9802" y1="299.0963" x2="1334.1532" y2="241.8851" gradientTransform="matrix(-0.9915 -0.1302 -0.1302 0.9915 1426.9988 -5.7009)">
				<stop  offset="0" style="stop-color:#90191C"/>
				<stop  offset="1" style="stop-color:#E51E25"/>
			</linearGradient>
			<polygon class="st3" points="74.7,59.9 67.1,125 0.4,105.3 0,104.5 7,43.9 			"/>
			
				<linearGradient id="SVGID_4_" gradientUnits="userSpaceOnUse" x1="1348.2103" y1="288.5546" x2="1315.7538" y2="259.9109" gradientTransform="matrix(-0.9915 -0.1302 -0.1302 0.9915 1426.9988 -5.7009)">
				<stop  offset="0" style="stop-color:#A31D21"/>
				<stop  offset="1" style="stop-color:#E51E25"/>
			</linearGradient>
			<polygon class="st4" points="75.7,59.7 67.9,124.8 67.1,125 74.7,59.9 			"/>
		</g>
	</g>
	
		<linearGradient id="SVGID_5_" gradientUnits="userSpaceOnUse" x1="1331.3828" y1="231.134" x2="1331.3828" y2="341.1281" gradientTransform="matrix(-0.9915 -0.1302 -0.1302 0.9915 1426.9988 -5.7009)">
		<stop  offset="0" style="stop-color:#E51E25"/>
		<stop  offset="4.214343e-002" style="stop-color:#E52426"/>
		<stop  offset="8.061491e-002" style="stop-color:#E6342A"/>
		<stop  offset="0.1177" style="stop-color:#E74932"/>
		<stop  offset="0.1538" style="stop-color:#EA6140"/>
		<stop  offset="0.189" style="stop-color:#ED7B55"/>
		<stop  offset="0.2" style="stop-color:#EE845D"/>
		<stop  offset="0.5117" style="stop-color:#EA6441"/>
		<stop  offset="1" style="stop-color:#E51E25"/>
	</linearGradient>
	<polygon class="st5" points="67.2,124.2 74.7,59.9 75.7,59.8 68,124.1 67.6,124.2 	"/>
	<polygon class="st6" points="75,63.7 6.8,45.8 7,43.9 75.4,60 	"/>
	<polygon class="st6" points="75.5,59.8 112.1,44.9 111.9,46.6 75,63.7 	"/>
	
		<linearGradient id="SVGID_6_" gradientUnits="userSpaceOnUse" x1="1388.7919" y1="251.1615" x2="1345.9063" y2="213.3141" gradientTransform="matrix(-0.9915 -0.1302 -0.1302 0.9915 1426.9988 -5.7009)">
		<stop  offset="0" style="stop-color:#90191C"/>
		<stop  offset="1" style="stop-color:#CE2027"/>
	</linearGradient>
	<polygon class="st7" points="8.2,29.8 7.8,30.1 6.3,44.4 74.8,62.4 75.2,62.3 77.1,46.5 	"/>
	
		<linearGradient id="SVGID_7_" gradientUnits="userSpaceOnUse" x1="1322.0167" y1="246.539" x2="1306.9515" y2="204.0054" gradientTransform="matrix(-0.9915 -0.1302 -0.1302 0.9915 1426.9988 -5.7009)">
		<stop  offset="0" style="stop-color:#90191C"/>
		<stop  offset="1" style="stop-color:#CE2027"/>
	</linearGradient>
	<polygon class="st8" points="75.2,62.3 75.6,62.3 112.3,45.3 114.2,31.4 113.9,31.1 77.1,46.5 	"/>
	
		<linearGradient id="SVGID_8_" gradientUnits="userSpaceOnUse" x1="1331.5457" y1="214.6878" x2="1331.5457" y2="243.5292" gradientTransform="matrix(-0.9915 -0.1302 -0.1302 0.9915 1426.9988 -5.7009)">
		<stop  offset="0" style="stop-color:#E51E25"/>
		<stop  offset="0.5" style="stop-color:#F29B77"/>
		<stop  offset="1" style="stop-color:#E51E25"/>
	</linearGradient>
	<polygon class="st9" points="75.6,62.3 77.4,46.5 76.7,46.4 74.8,62.4 	"/>
	<g>
		
			<linearGradient id="SVGID_9_" gradientUnits="userSpaceOnUse" x1="1352.1649" y1="202.6946" x2="1346.854" y2="225.1636" gradientTransform="matrix(-0.9915 -0.1302 -0.1302 0.9915 1426.9988 -5.7009)">
			<stop  offset="0" style="stop-color:#700F11"/>
			<stop  offset="0.3983" style="stop-color:#991A1D"/>
			<stop  offset="0.7965" style="stop-color:#BF1F24"/>
			<stop  offset="1" style="stop-color:#CE2027"/>
		</linearGradient>
		<polygon class="st10" points="8.2,29.8 77.1,46.5 113.9,31.1 113.6,30.8 47.6,17.2 8.6,29.5 		"/>
		
			<linearGradient id="SVGID_10_" gradientUnits="userSpaceOnUse" x1="1296.7408" y1="217.5466" x2="1402.3877" y2="217.5466" gradientTransform="matrix(-0.9915 -0.1302 -0.1302 0.9915 1426.9988 -5.7009)">
			<stop  offset="0" style="stop-color:#E51E25"/>
			<stop  offset="0.5" style="stop-color:#F29B77"/>
			<stop  offset="1" style="stop-color:#E51E25"/>
		</linearGradient>
		<polygon class="st11" points="77.2,46.9 77.1,46.9 7.8,30.1 8.6,29.5 77,46.1 113.6,30.8 114.2,31.4 		"/>
	</g>
	<polygon class="st6" points="25.2,111.9 33.5,51.5 43.6,54.2 35.2,114.8 35.5,115.6 25.4,112.6 	"/>
	<polygon class="st6" points="43,54.1 32.9,51.4 34.7,36.7 44.9,39.1 	"/>
	<polygon class="st6" points="80.9,24.1 45.6,38.5 44.9,39.1 34.7,36.7 35.5,36 71.8,22.2 	"/>
	
		<linearGradient id="SVGID_11_" gradientUnits="userSpaceOnUse" x1="1372.3745" y1="224.0995" x2="1336.4274" y2="205.5873" gradientTransform="matrix(-0.9915 -0.1302 -0.1302 0.9915 1426.9988 -5.7009)">
		<stop  offset="0" style="stop-color:#CE9C4A"/>
		<stop  offset="0.2703" style="stop-color:#F3C75B"/>
		<stop  offset="1" style="stop-color:#F3C75B"/>
	</linearGradient>
	<polygon class="st12" points="80.5,24 45.1,38.4 35,35.9 71.3,22.1 	"/>
	<polygon class="st6" points="97.7,52 91.8,108.9 91.4,109.9 85.1,113.9 85.4,113 91.5,54.9 	"/>
	<polygon class="st6" points="98.2,51.8 92,54.7 93.7,40 99.8,37.4 	"/>
	<polygon class="st6" points="99.2,36.8 99.8,37.4 93.7,40 93.1,39.4 25.5,24.2 32.6,21.9 	"/>
	
		<linearGradient id="SVGID_12_" gradientUnits="userSpaceOnUse" x1="1378.8685" y1="210.6108" x2="1311.2245" y2="216.7843" gradientTransform="matrix(-0.9915 -0.1302 -0.1302 0.9915 1426.9988 -5.7009)">
		<stop  offset="0" style="stop-color:#CE9C4A"/>
		<stop  offset="0.2703" style="stop-color:#F3C75B"/>
		<stop  offset="1" style="stop-color:#F3C75B"/>
	</linearGradient>
	<polygon class="st13" points="32.9,21.9 99.5,36.7 93.3,39.3 25.8,24.1 	"/>
	<g>
		<defs>
			<filter id="Adobe_OpacityMaskFilter" filterUnits="userSpaceOnUse" x="67.5" y="24.3" width="30.7" height="6">
				<feFlood  style="flood-color:white;flood-opacity:1" result="back"/>
				<feBlend  in="SourceGraphic" in2="back" mode="normal"/>
			</filter>
		</defs>
		<mask maskUnits="userSpaceOnUse" x="67.5" y="24.3" width="30.7" height="6" id="SVGID_13_">
			<g class="st14">
				<defs>
					<filter id="Adobe_OpacityMaskFilter_1_" filterUnits="userSpaceOnUse" x="67.5" y="24.3" width="30.7" height="6">
						<feFlood  style="flood-color:white;flood-opacity:1" result="back"/>
						<feBlend  in="SourceGraphic" in2="back" mode="normal"/>
					</filter>
				</defs>
				<mask maskUnits="userSpaceOnUse" x="67.5" y="24.3" width="30.7" height="6" id="SVGID_13_">
					<g class="st15">
					</g>
				</mask>
				
					<linearGradient id="SVGID_14_" gradientUnits="userSpaceOnUse" x1="1331.6115" y1="208.0352" x2="1321.2717" y2="206.9085" gradientTransform="matrix(-0.9915 -0.1302 -0.1302 0.9915 1426.9988 -5.7009)">
					<stop  offset="0" style="stop-color:#FFFFFF"/>
					<stop  offset="0.6112" style="stop-color:#646464"/>
					<stop  offset="1" style="stop-color:#000000"/>
				</linearGradient>
				<path class="st16" d="M67.5,25.7c4.7,0.3,10-0.1,14.7-1.4l16,3.3c-2.4,1.4-6.3,2.6-8.2,2.7c-5.1,0.3-19-3.5-19-3.5L67.5,25.7z"
					/>
			</g>
		</mask>
		
			<linearGradient id="SVGID_15_" gradientUnits="userSpaceOnUse" x1="1331.6115" y1="208.0352" x2="1321.2717" y2="206.9085" gradientTransform="matrix(-0.9915 -0.1302 -0.1302 0.9915 1426.9988 -5.7009)">
			<stop  offset="0" style="stop-color:#975F26"/>
			<stop  offset="1" style="stop-color:#975F26"/>
		</linearGradient>
		<path class="st17" d="M67.5,25.7c4.7,0.3,10-0.1,14.7-1.4l16,3.3c-2.4,1.4-6.3,2.6-8.2,2.7c-5.1,0.3-19-3.5-19-3.5L67.5,25.7z"/>
		
			<linearGradient id="SVGID_16_" gradientUnits="userSpaceOnUse" x1="1328.7075" y1="208.4598" x2="1327.8812" y2="192.3469" gradientTransform="matrix(-0.9915 -0.1302 -0.1302 0.9915 1426.9988 -5.7009)">
			<stop  offset="0" style="stop-color:#653714"/>
			<stop  offset="0.5189" style="stop-color:#CB8B2A"/>
			<stop  offset="1" style="stop-color:#653714"/>
		</linearGradient>
		<path class="st18" d="M82.7,11.3c0,0,11.6,1.4,14.6,5c5.3,6.4-2.1,11.9-7.1,12.6c-5,0.7-19.3-2-19.3-2L67.4,26
			C80.4,25.8,91.9,21.5,82.7,11.3z"/>
		
			<linearGradient id="SVGID_17_" gradientUnits="userSpaceOnUse" x1="1330.0637" y1="208.3846" x2="1329.2328" y2="192.1824" gradientTransform="matrix(-0.9915 -0.1302 -0.1302 0.9915 1426.9988 -5.7009)">
			<stop  offset="0" style="stop-color:#653714"/>
			<stop  offset="9.223300e-002" style="stop-color:#CB8B2A"/>
			<stop  offset="0.2142" style="stop-color:#F2C459"/>
			<stop  offset="0.2184" style="stop-color:#F3C75B"/>
			<stop  offset="0.3742" style="stop-color:#D9A039"/>
			<stop  offset="0.4903" style="stop-color:#CB8B2A"/>
			<stop  offset="0.8108" style="stop-color:#F4E7BE"/>
			<stop  offset="0.8339" style="stop-color:#F1DEB0"/>
			<stop  offset="0.8779" style="stop-color:#E7C98F"/>
			<stop  offset="0.9381" style="stop-color:#DAAA5E"/>
			<stop  offset="1" style="stop-color:#CB8B2A"/>
		</linearGradient>
		<path class="st19" d="M70.9,26.9c11.3-9.7,20.8-16.5,26.4-10.6c-2.7-3.5-12.6-4.9-14.6-5c-9-0.8-13.8,10.2-15.3,14.7L70.9,26.9z"
			/>
	</g>
	<g>
		
			<linearGradient id="SVGID_18_" gradientUnits="userSpaceOnUse" x1="1091.1998" y1="224.3915" x2="1090.3735" y2="208.2789" gradientTransform="matrix(0.9629 0.2697 -0.2697 0.9629 -942.7719 -492.9404)">
			<stop  offset="0" style="stop-color:#653714"/>
			<stop  offset="0.5189" style="stop-color:#CB8B2A"/>
			<stop  offset="1" style="stop-color:#653714"/>
		</linearGradient>
		<path class="st20" d="M53.8,2c0,0-11.2-3.3-15.4-1.1C31,4.6,35.7,12.6,40,15.2c4.4,2.6,18.5,5.7,18.5,5.7l3.6,0.6
			C50.2,16.3,41.3,7.7,53.8,2z"/>
		
			<linearGradient id="SVGID_19_" gradientUnits="userSpaceOnUse" x1="1092.2687" y1="218.7088" x2="1091.6797" y2="207.2226" gradientTransform="matrix(0.9629 0.2697 -0.2697 0.9629 -942.7719 -492.9404)">
			<stop  offset="0" style="stop-color:#653714"/>
			<stop  offset="9.223300e-002" style="stop-color:#CB8B2A"/>
			<stop  offset="0.2142" style="stop-color:#F2C459"/>
			<stop  offset="0.2184" style="stop-color:#F3C75B"/>
			<stop  offset="0.3742" style="stop-color:#D9A039"/>
			<stop  offset="0.4903" style="stop-color:#CB8B2A"/>
			<stop  offset="0.8108" style="stop-color:#F4E7BE"/>
			<stop  offset="0.8339" style="stop-color:#F1DEB0"/>
			<stop  offset="0.8779" style="stop-color:#E7C98F"/>
			<stop  offset="0.9381" style="stop-color:#DAAA5E"/>
			<stop  offset="1" style="stop-color:#CB8B2A"/>
		</linearGradient>
		<path class="st21" d="M58.5,20.9C51.9,7.5,45.8-2.4,38.4,0.8C42.2-1.3,51.9,1.3,53.8,2c8.5,2.8,8.7,14.8,8.3,19.5L58.5,20.9z"/>
	</g>
	<g>
		
			<linearGradient id="SVGID_20_" gradientUnits="userSpaceOnUse" x1="1441.1797" y1="168.8464" x2="1440.3533" y2="152.7333" gradientTransform="matrix(-0.8597 5.120000e-002 -2.920000e-002 0.9884 1317.6132 -220.5898)">
			<stop  offset="0" style="stop-color:#653714"/>
			<stop  offset="0.5189" style="stop-color:#CB8B2A"/>
			<stop  offset="1" style="stop-color:#653714"/>
		</linearGradient>
		<path class="st22" d="M72.5,3.8c0,0,10-0.7,12.9,2.2c5.1,5.3-0.8,12-5.1,13.5c-4.3,1.6-16.7,1.5-16.7,1.5l-3.1-0.2
			C71.7,18.4,81.3,12,72.5,3.8z"/>
		
			<linearGradient id="SVGID_21_" gradientUnits="userSpaceOnUse" x1="1442.2538" y1="163.1783" x2="1441.6678" y2="151.7513" gradientTransform="matrix(-0.8597 5.120000e-002 -2.920000e-002 0.9884 1317.6171 -220.5894)">
			<stop  offset="0" style="stop-color:#653714"/>
			<stop  offset="9.223300e-002" style="stop-color:#CB8B2A"/>
			<stop  offset="0.2142" style="stop-color:#F2C459"/>
			<stop  offset="0.2184" style="stop-color:#F3C75B"/>
			<stop  offset="0.3742" style="stop-color:#D9A039"/>
			<stop  offset="0.4903" style="stop-color:#CB8B2A"/>
			<stop  offset="0.8108" style="stop-color:#F4E7BE"/>
			<stop  offset="0.8339" style="stop-color:#F1DEB0"/>
			<stop  offset="0.8779" style="stop-color:#E7C98F"/>
			<stop  offset="0.9381" style="stop-color:#DAAA5E"/>
			<stop  offset="1" style="stop-color:#CB8B2A"/>
		</linearGradient>
		<path class="st23" d="M63.7,21.1C72.6,9.5,80.2,1.3,85.4,6c-2.6-2.9-11.2-2.5-12.9-2.2c-7.7,0.9-10.9,12.4-11.9,17.1L63.7,21.1z"
			/>
	</g>
	<g>
		
			<linearGradient id="SVGID_22_" gradientUnits="userSpaceOnUse" x1="1125.4971" y1="206.7405" x2="1134.9423" y2="214.9926" gradientTransform="matrix(0.9828 0.1845 -0.1845 0.9828 -1023.3431 -397.3763)">
			<stop  offset="0" style="stop-color:#965223"/>
			<stop  offset="0.5189" style="stop-color:#F29820"/>
			<stop  offset="1" style="stop-color:#965223"/>
		</linearGradient>
		<path class="st24" d="M45.7,13.5c5.7,4.2,10.5,10.8,14.1,15.3L57,27.5c-5.3-6.8-11.1-12.8-18.7-18.1
			C42.6,11.9,43.5,12.5,45.7,13.5z"/>
		<defs>
			<filter id="Adobe_OpacityMaskFilter_2_" filterUnits="userSpaceOnUse" x="26.1" y="24.5" width="33.8" height="6.1">
				<feFlood  style="flood-color:white;flood-opacity:1" result="back"/>
				<feBlend  in="SourceGraphic" in2="back" mode="normal"/>
			</filter>
		</defs>
		<mask maskUnits="userSpaceOnUse" x="26.1" y="24.5" width="33.8" height="6.1" id="SVGID_23_">
			<g class="st25">
				<defs>
					<filter id="Adobe_OpacityMaskFilter_3_" filterUnits="userSpaceOnUse" x="25.7" y="24.4" width="34.1" height="6.4">
						<feFlood  style="flood-color:white;flood-opacity:1" result="back"/>
						<feBlend  in="SourceGraphic" in2="back" mode="normal"/>
					</filter>
				</defs>
				<mask maskUnits="userSpaceOnUse" x="25.7" y="24.4" width="34.1" height="6.4" id="SVGID_23_">
					<g class="st26">
					</g>
				</mask>
				
					<linearGradient id="SVGID_24_" gradientUnits="userSpaceOnUse" x1="1355.6948" y1="208.7188" x2="1370.049" y2="212.8342" gradientTransform="matrix(-0.9915 -0.1302 -0.1302 0.9915 1426.9988 -5.7009)">
					<stop  offset="0" style="stop-color:#FFFFFF"/>
					<stop  offset="0.6112" style="stop-color:#646464"/>
					<stop  offset="1" style="stop-color:#000000"/>
				</linearGradient>
				<path class="st27" d="M56.8,27.8l3,1c-11.3,2.2-18.7,3.1-25.5,0.1c-2.1-0.9-5.7-3-8.6-4.5C34.9,27.3,46.7,27.4,56.8,27.8z"/>
			</g>
		</mask>
		
			<linearGradient id="SVGID_25_" gradientUnits="userSpaceOnUse" x1="1355.6368" y1="208.798" x2="1369.8539" y2="212.8742" gradientTransform="matrix(-0.9915 -0.1302 -0.1302 0.9915 1426.9988 -5.7009)">
			<stop  offset="0" style="stop-color:#231815"/>
			<stop  offset="1" style="stop-color:#231815"/>
		</linearGradient>
		<path class="st28" d="M56.8,27.8l3,1c-11.3,2.2-18.6,2.9-25.4-0.1c-2-0.9-5.4-2.6-8.3-4.1C35.3,27.5,46.7,27.4,56.8,27.8z"/>
		
			<linearGradient id="SVGID_26_" gradientUnits="userSpaceOnUse" x1="1116.427" y1="220.0991" x2="1139.2944" y2="218.3095" gradientTransform="matrix(0.9828 0.1845 -0.1845 0.9828 -1023.3431 -397.3763)">
			<stop  offset="0" style="stop-color:#653714"/>
			<stop  offset="0.5189" style="stop-color:#CB8B2A"/>
			<stop  offset="1" style="stop-color:#653714"/>
		</linearGradient>
		<path class="st29" d="M57,27.5l2.9,1.3c-11.4,1.1-18.8,1.1-25.3-2.6c-1.9-1.1-5.1-3.1-7.9-4.9C35.5,25.1,46.9,26.1,57,27.5z"/>
		
			<linearGradient id="SVGID_27_" gradientUnits="userSpaceOnUse" x1="1112.0693" y1="218.9447" x2="1118.2338" y2="203.6333" gradientTransform="matrix(0.9828 0.1845 -0.1845 0.9828 -1023.3431 -397.3763)">
			<stop  offset="0" style="stop-color:#653714"/>
			<stop  offset="9.223300e-002" style="stop-color:#CB8B2A"/>
			<stop  offset="0.2142" style="stop-color:#F2C459"/>
			<stop  offset="0.2184" style="stop-color:#F3C75B"/>
			<stop  offset="0.3742" style="stop-color:#D9A039"/>
			<stop  offset="0.4903" style="stop-color:#CB8B2A"/>
			<stop  offset="0.8108" style="stop-color:#F4E7BE"/>
			<stop  offset="0.8339" style="stop-color:#F1DEB0"/>
			<stop  offset="0.8779" style="stop-color:#E7C98F"/>
			<stop  offset="0.9381" style="stop-color:#DAAA5E"/>
			<stop  offset="1" style="stop-color:#CB8B2A"/>
		</linearGradient>
		<path class="st30" d="M38.3,9.4C27,4.1,20.6,17,26.7,21.2c0,0,4.3,3,7.9,4.9c-4.1-3.9-3.2-11,4.9-13.5c2.3-0.7,4.8,0.2,6.3,0.8
			C42.9,11.9,41.7,11,38.3,9.4z"/>
	</g>
	<g>
		
			<linearGradient id="SVGID_28_" gradientUnits="userSpaceOnUse" x1="1330.9476" y1="201.0411" x2="1340.3922" y2="209.2926" gradientTransform="matrix(-0.9915 -0.1302 -0.1302 0.9915 1426.9988 -5.7009)">
			<stop  offset="0" style="stop-color:#653714"/>
			<stop  offset="0.5189" style="stop-color:#CB8B2A"/>
			<stop  offset="1" style="stop-color:#653714"/>
		</linearGradient>
		<path class="st31" d="M80.2,20c-6.7,2.2-13.4,7-18.2,10.1l3.1-0.3c7.1-4.8,14.6-8.7,23.4-11.4C83.6,19.5,82.6,19.8,80.2,20z"/>
		<defs>
			<filter id="Adobe_OpacityMaskFilter_4_" filterUnits="userSpaceOnUse" x="65.8" y="31.1" width="33.5" height="7.2">
				<feFlood  style="flood-color:white;flood-opacity:1" result="back"/>
				<feBlend  in="SourceGraphic" in2="back" mode="normal"/>
			</filter>
		</defs>
		<mask maskUnits="userSpaceOnUse" x="65.8" y="31.1" width="33.5" height="7.2" id="SVGID_29_">
			<g class="st32">
				<defs>
					<filter id="Adobe_OpacityMaskFilter_5_" filterUnits="userSpaceOnUse" x="67.2" y="31.7" width="32.3" height="6.8">
						<feFlood  style="flood-color:white;flood-opacity:1" result="back"/>
						<feBlend  in="SourceGraphic" in2="back" mode="normal"/>
					</filter>
				</defs>
				<mask maskUnits="userSpaceOnUse" x="67.2" y="31.7" width="32.3" height="6.8" id="SVGID_29_">
					<g class="st33">
					</g>
				</mask>
				
					<linearGradient id="SVGID_30_" gradientUnits="userSpaceOnUse" x1="1208.5997" y1="165.6701" x2="1207.8467" y2="167.6602" gradientTransform="matrix(-0.9936 -0.1126 -0.1126 0.9936 1303.7316 7.8607)">
					<stop  offset="0" style="stop-color:#FFFFFF"/>
					<stop  offset="0.6112" style="stop-color:#646464"/>
					<stop  offset="1" style="stop-color:#000000"/>
				</linearGradient>
				<path class="st34" d="M69.9,31.7l-2.6,0.2c10.3,4.3,17,6.9,22.4,6.5c0.8-0.1,8.2-3,9.9-4C90.3,35.5,79.6,33.3,69.9,31.7z"/>
			</g>
		</mask>
		
			<linearGradient id="SVGID_31_" gradientUnits="userSpaceOnUse" x1="1326.729" y1="216.5044" x2="1325.9476" y2="218.5693" gradientTransform="matrix(-0.9915 -0.1302 -0.1302 0.9915 1426.9988 -5.7009)">
			<stop  offset="0" style="stop-color:#975F26"/>
			<stop  offset="1" style="stop-color:#975F26"/>
		</linearGradient>
		<path class="st35" d="M68.6,31.1l-2.7,0.2c10.5,4.6,18.2,7.3,23.7,7c0.9,0,7.9-2.8,9.7-3.8C89.7,35.5,78.6,32.9,68.6,31.1z"/>
		
			<linearGradient id="SVGID_32_" gradientUnits="userSpaceOnUse" x1="1321.8787" y1="214.3992" x2="1344.7438" y2="212.6098" gradientTransform="matrix(-0.9915 -0.1302 -0.1302 0.9915 1426.9988 -5.7009)">
			<stop  offset="0" style="stop-color:#653714"/>
			<stop  offset="0.5189" style="stop-color:#CB8B2A"/>
			<stop  offset="1" style="stop-color:#653714"/>
		</linearGradient>
		<path class="st36" d="M65.1,29.8L62,30.1c10.5,4.6,17.6,6.9,24.9,5.4c2.2-0.4,5.9-1.4,9-2.2C86.3,34.2,75.1,31.7,65.1,29.8z"/>
		
			<linearGradient id="SVGID_33_" gradientUnits="userSpaceOnUse" x1="1317.5206" y1="213.2447" x2="1323.6846" y2="197.9343" gradientTransform="matrix(-0.9915 -0.1302 -0.1302 0.9915 1426.9988 -5.7009)">
			<stop  offset="0" style="stop-color:#653714"/>
			<stop  offset="9.223300e-002" style="stop-color:#CB8B2A"/>
			<stop  offset="0.2142" style="stop-color:#F2C459"/>
			<stop  offset="0.2184" style="stop-color:#F3C75B"/>
			<stop  offset="0.3742" style="stop-color:#D9A039"/>
			<stop  offset="0.4903" style="stop-color:#CB8B2A"/>
			<stop  offset="0.8108" style="stop-color:#F4E7BE"/>
			<stop  offset="0.8339" style="stop-color:#F1DEB0"/>
			<stop  offset="0.8779" style="stop-color:#E7C98F"/>
			<stop  offset="0.9381" style="stop-color:#DAAA5E"/>
			<stop  offset="1" style="stop-color:#CB8B2A"/>
		</linearGradient>
		<path class="st37" d="M88.5,18.5c12.4-1.6,14.5,12.7,7.4,14.8c0,0-5,1.5-9,2.2c5.1-2.4,6.4-9.5-0.4-14.3c-1.9-1.4-4.6-1.3-6.3-1.2
			C83.4,19.4,84.8,18.9,88.5,18.5z"/>
	</g>
	<g>
		
			<linearGradient id="SVGID_34_" gradientUnits="userSpaceOnUse" x1="1344.7766" y1="207.816" x2="1345.7102" y2="189.6099" gradientTransform="matrix(-0.9915 -0.1302 -0.1302 0.9915 1426.9988 -5.7009)">
			<stop  offset="0" style="stop-color:#653714"/>
			<stop  offset="0.5189" style="stop-color:#CB8B2A"/>
			<stop  offset="1" style="stop-color:#653714"/>
		</linearGradient>
		<path class="st38" d="M66,5.6l11,1c-6.7,2.7-10.3,7.6-11.5,14.9l-7.4-0.6C58.3,15.7,58.8,5.4,66,5.6z"/>
		
			<linearGradient id="SVGID_35_" gradientUnits="userSpaceOnUse" x1="1337.5837" y1="202.6543" x2="1338.3219" y2="188.2614" gradientTransform="matrix(-0.9915 -0.1302 -0.1302 0.9915 1426.9988 -5.7009)">
			<stop  offset="0" style="stop-color:#653714"/>
			<stop  offset="9.223300e-002" style="stop-color:#CB8B2A"/>
			<stop  offset="0.2142" style="stop-color:#F2C459"/>
			<stop  offset="0.2184" style="stop-color:#F3C75B"/>
			<stop  offset="0.3742" style="stop-color:#D9A039"/>
			<stop  offset="0.4903" style="stop-color:#CB8B2A"/>
			<stop  offset="0.8108" style="stop-color:#F4E7BE"/>
			<stop  offset="0.8339" style="stop-color:#F1DEB0"/>
			<stop  offset="0.8779" style="stop-color:#E7C98F"/>
			<stop  offset="0.9381" style="stop-color:#DAAA5E"/>
			<stop  offset="1" style="stop-color:#CB8B2A"/>
		</linearGradient>
		<path class="st39" d="M79.7,22.1c5.3-0.5,7.7-13.8-0.6-15.4C71.4,5.9,66,5.6,66,5.6c4.2,0.6,6.5,12.7-0.7,15.6
			C73.1,21.8,74.3,22.1,79.7,22.1z"/>
	</g>
	<g>
		
			<linearGradient id="SVGID_36_" gradientUnits="userSpaceOnUse" x1="1358.8021" y1="219.5012" x2="1357.1888" y2="195.1665" gradientTransform="matrix(-0.9915 -0.1302 -0.1302 0.9915 1426.9988 -5.7009)">
			<stop  offset="0" style="stop-color:#653714"/>
			<stop  offset="0.5189" style="stop-color:#CB8B2A"/>
			<stop  offset="1" style="stop-color:#653714"/>
		</linearGradient>
		<path class="st40" d="M62.7,6.6L50,4.3c2.9,1.3,4.7,9.7,4.3,17.6l5.4,1C61.3,20.4,64.7,7.5,62.7,6.6z"/>
		
			<linearGradient id="SVGID_37_" gradientUnits="userSpaceOnUse" x1="1125.562" y1="205.1676" x2="1126.3467" y2="189.8672" gradientTransform="matrix(0.9915 0.1302 -0.1302 0.9915 -1038.5032 -329.6837)">
			<stop  offset="0" style="stop-color:#653714"/>
			<stop  offset="9.223300e-002" style="stop-color:#CB8B2A"/>
			<stop  offset="0.2142" style="stop-color:#F2C459"/>
			<stop  offset="0.2184" style="stop-color:#F3C75B"/>
			<stop  offset="0.3742" style="stop-color:#D9A039"/>
			<stop  offset="0.4903" style="stop-color:#CB8B2A"/>
			<stop  offset="0.8108" style="stop-color:#F4E7BE"/>
			<stop  offset="0.8339" style="stop-color:#F1DEB0"/>
			<stop  offset="0.8779" style="stop-color:#E7C98F"/>
			<stop  offset="0.9381" style="stop-color:#DAAA5E"/>
			<stop  offset="1" style="stop-color:#CB8B2A"/>
		</linearGradient>
		<path class="st41" d="M46,19.9C41,18,41.6,3.7,50,4.3c7.7,1.2,12.6,2.3,12.6,2.3c-1.3,1.4-5,12.2-2.9,16.3
			C52.1,21.5,51.2,21.2,46,19.9z"/>
	</g>
	<defs>
		<filter id="Adobe_OpacityMaskFilter_6_" filterUnits="userSpaceOnUse" x="55.2" y="32.7" width="19.2" height="7.9">
			<feFlood  style="flood-color:white;flood-opacity:1" result="back"/>
			<feBlend  in="SourceGraphic" in2="back" mode="normal"/>
		</filter>
	</defs>
	<mask maskUnits="userSpaceOnUse" x="55.2" y="32.7" width="19.2" height="7.9" id="SVGID_38_">
		<g class="st42">
			<defs>
				<filter id="Adobe_OpacityMaskFilter_7_" filterUnits="userSpaceOnUse" x="55.1" y="32.5" width="19.5" height="8.3">
					<feFlood  style="flood-color:white;flood-opacity:1" result="back"/>
					<feBlend  in="SourceGraphic" in2="back" mode="normal"/>
				</filter>
			</defs>
			<mask maskUnits="userSpaceOnUse" x="55.1" y="32.5" width="19.5" height="8.3" id="SVGID_38_">
				<g class="st43">
				</g>
			</mask>
			
				<linearGradient id="SVGID_39_" gradientUnits="userSpaceOnUse" x1="1239.7921" y1="192.7443" x2="1239.6011" y2="196.6928" gradientTransform="matrix(-0.9906 -0.1367 -0.1367 0.9906 1319.6039 14.231)">
				<stop  offset="0" style="stop-color:#FFFFFF"/>
				<stop  offset="0.189" style="stop-color:#BFBFBF"/>
				<stop  offset="0.6025" style="stop-color:#373737"/>
				<stop  offset="0.7838" style="stop-color:#000000"/>
			</linearGradient>
			<path class="st44" d="M73.6,40.8c1.1,0.2,2.1-2.1-2.3-6.1l-15.4-2.2c-0.7,2.8-1,6.1-0.5,6.6C63.1,39.7,67.4,39.3,73.6,40.8z"/>
		</g>
	</mask>
	
		<linearGradient id="SVGID_40_" gradientUnits="userSpaceOnUse" x1="1344.9528" y1="218.3576" x2="1344.7701" y2="222.1326" gradientTransform="matrix(-0.9915 -0.1302 -0.1302 0.9915 1426.9988 -5.7009)">
		<stop  offset="0" style="stop-color:#231815"/>
		<stop  offset="1" style="stop-color:#231815"/>
	</linearGradient>
	<path class="st45" d="M73.5,40.5c1.1,0.1,2.1-1.9-2.4-5.9l-15.2-2c-0.6,2.9-0.9,5.8-0.4,6.3C63.2,39.6,67.3,39.1,73.5,40.5z"/>
	
		<linearGradient id="SVGID_41_" gradientUnits="userSpaceOnUse" x1="1369.6998" y1="300.0951" x2="1369.6998" y2="223.7572" gradientTransform="matrix(-0.9915 -0.1302 -0.1302 0.9915 1426.9988 -5.7009)">
		<stop  offset="0" style="stop-color:#CD9448"/>
		<stop  offset="0.2703" style="stop-color:#F3C75B"/>
		<stop  offset="0.6919" style="stop-color:#CB8B2A"/>
		<stop  offset="1" style="stop-color:#FEE793"/>
	</linearGradient>
	<polygon class="st46" points="35,35.9 45.1,38.4 44.4,39 35,114.8 35.3,115.6 25.2,112.6 25,111.8 34.3,36.6 	"/>
	
		<linearGradient id="SVGID_42_" gradientUnits="userSpaceOnUse" x1="1312.6814" y1="290.6813" x2="1312.6814" y2="216.7329" gradientTransform="matrix(-0.9915 -0.1302 -0.1302 0.9915 1426.9988 -5.7009)">
		<stop  offset="0" style="stop-color:#CD9448"/>
		<stop  offset="0.2703" style="stop-color:#F3C75B"/>
		<stop  offset="0.6919" style="stop-color:#CB8B2A"/>
		<stop  offset="1" style="stop-color:#FEE793"/>
	</linearGradient>
	<polygon class="st47" points="93.3,39.3 99.5,36.7 100.1,37.3 100.1,37.3 100.1,37.3 91.8,108.9 91.4,109.9 85.1,113.9 85.4,113 
		94,39.9 	"/>
	<polygon class="st48" points="44.4,39 34.3,36.6 35,35.9 45.1,38.4 	"/>
	<polygon class="st48" points="100.1,37.3 94,39.9 93.3,39.3 99.5,36.7 	"/>
	<polygon class="st49" points="67.2,124.2 67.1,125 0.4,105.3 0,104.5 	"/>
	<g class="st50">
		<polygon class="st6" points="68,124.1 67.9,124.8 67.1,125 67.2,124.2 		"/>
		<polygon class="st49" points="105.5,100.2 105,101.2 67.9,124.8 68,124.1 		"/>
	</g>
	<g>
		<defs>
			<filter id="Adobe_OpacityMaskFilter_8_" filterUnits="userSpaceOnUse" x="31.8" y="30.1" width="28.1" height="7.8">
				<feFlood  style="flood-color:white;flood-opacity:1" result="back"/>
				<feBlend  in="SourceGraphic" in2="back" mode="normal"/>
			</filter>
		</defs>
		<mask maskUnits="userSpaceOnUse" x="31.8" y="30.1" width="28.1" height="7.8" id="SVGID_43_">
			<g class="st51">
				<defs>
					<filter id="Adobe_OpacityMaskFilter_9_" filterUnits="userSpaceOnUse" x="31.4" y="30.1" width="28.5" height="8">
						<feFlood  style="flood-color:white;flood-opacity:1" result="back"/>
						<feBlend  in="SourceGraphic" in2="back" mode="normal"/>
					</filter>
				</defs>
				<mask maskUnits="userSpaceOnUse" x="31.4" y="30.1" width="28.5" height="8" id="SVGID_43_">
					<g class="st52">
					</g>
				</mask>
				
					<linearGradient id="SVGID_44_" gradientUnits="userSpaceOnUse" x1="1365.0486" y1="222.0556" x2="1365.2482" y2="223.5861" gradientTransform="matrix(-0.9915 -0.1302 -0.1302 0.9915 1426.9988 -5.7009)">
					<stop  offset="0" style="stop-color:#FFFFFF"/>
					<stop  offset="0.6112" style="stop-color:#646464"/>
					<stop  offset="1" style="stop-color:#000000"/>
				</linearGradient>
				<path class="st53" d="M59.9,31.3l-4.2-1.1c-8.4,5.2-17,5.8-24.3,4.8l11.8,3C46.8,38.7,50.5,37,59.9,31.3z"/>
			</g>
		</mask>
		
			<linearGradient id="SVGID_45_" gradientUnits="userSpaceOnUse" x1="1364.822" y1="222.0505" x2="1365.0209" y2="223.5753" gradientTransform="matrix(-0.9915 -0.1302 -0.1302 0.9915 1426.9988 -5.7009)">
			<stop  offset="0" style="stop-color:#975F26"/>
			<stop  offset="1" style="stop-color:#975F26"/>
		</linearGradient>
		<path class="st54" d="M59.9,31.3l-4.2-1.1C47.3,35.3,39.2,36,31.8,35l11,2.7C46.5,38.5,50.5,37,59.9,31.3z"/>
		
			<linearGradient id="SVGID_46_" gradientUnits="userSpaceOnUse" x1="1362.4656" y1="221.3134" x2="1360.297" y2="211.9489" gradientTransform="matrix(-0.9915 -0.1302 -0.1302 0.9915 1426.9988 -5.7009)">
			<stop  offset="0" style="stop-color:#653714"/>
			<stop  offset="0.5189" style="stop-color:#CB8B2A"/>
			<stop  offset="1" style="stop-color:#653714"/>
		</linearGradient>
		<path class="st55" d="M62,30.1L57.8,29c-8.4,5.2-14.8,6.4-22.2,5.4l9.2,2.2C48.6,37.4,52.6,35.9,62,30.1z"/>
		
			<linearGradient id="SVGID_47_" gradientUnits="userSpaceOnUse" x1="1358.0095" y1="206.3774" x2="1357.4397" y2="213.9753" gradientTransform="matrix(-0.9915 -0.1302 -0.1302 0.9915 1426.9988 -5.7009)">
			<stop  offset="0" style="stop-color:#653714"/>
			<stop  offset="0.5189" style="stop-color:#CB8B2A"/>
			<stop  offset="1" style="stop-color:#653714"/>
		</linearGradient>
		<path class="st56" d="M52.7,19.9c3.5,1.3,8.1,6.6,9.3,10.2L57.8,29c-3.2-3.3-2.9-7-12.7-10.8C49.5,19.4,50.2,19.2,52.7,19.9z"/>
		
			<linearGradient id="SVGID_48_" gradientUnits="userSpaceOnUse" x1="1372.1295" y1="221.246" x2="1368.7155" y2="202.9709" gradientTransform="matrix(-0.9915 -0.1302 -0.1302 0.9915 1426.9988 -5.7009)">
			<stop  offset="0" style="stop-color:#653714"/>
			<stop  offset="9.223300e-002" style="stop-color:#CB8B2A"/>
			<stop  offset="0.2142" style="stop-color:#F2C459"/>
			<stop  offset="0.2184" style="stop-color:#F3C75B"/>
			<stop  offset="0.3742" style="stop-color:#D9A039"/>
			<stop  offset="0.4903" style="stop-color:#CB8B2A"/>
			<stop  offset="0.8108" style="stop-color:#F4E7BE"/>
			<stop  offset="0.8339" style="stop-color:#F1DEB0"/>
			<stop  offset="0.8779" style="stop-color:#E7C98F"/>
			<stop  offset="0.9381" style="stop-color:#DAAA5E"/>
			<stop  offset="1" style="stop-color:#CB8B2A"/>
		</linearGradient>
		<path class="st57" d="M44.9,36.6c-8.3-3.9-4.3-19.9,7.8-16.7c0,0-3.1-0.9-7.6-1.7c-16.9-3.6-17.4,15.2-9.4,16.2L44.9,36.6z"/>
	</g>
	
		<linearGradient id="SVGID_49_" gradientUnits="userSpaceOnUse" x1="1344.0602" y1="219.2153" x2="1344.8552" y2="203.7127" gradientTransform="matrix(-0.9915 -0.1302 -0.1302 0.9915 1426.9988 -5.7009)">
		<stop  offset="0" style="stop-color:#653714"/>
		<stop  offset="9.223300e-002" style="stop-color:#CB8B2A"/>
		<stop  offset="0.2142" style="stop-color:#F2C459"/>
		<stop  offset="0.2184" style="stop-color:#F3C75B"/>
		<stop  offset="0.3742" style="stop-color:#D9A039"/>
		<stop  offset="0.4903" style="stop-color:#CB8B2A"/>
		<stop  offset="0.8108" style="stop-color:#F4E7BE"/>
		<stop  offset="0.8339" style="stop-color:#F1DEB0"/>
		<stop  offset="0.8779" style="stop-color:#E7C98F"/>
		<stop  offset="0.9381" style="stop-color:#DAAA5E"/>
		<stop  offset="1" style="stop-color:#CB8B2A"/>
	</linearGradient>
	<path class="st58" d="M74.4,38.3c2.3-3.9,4.5-12.8,0-16.8c-7.7-0.8-16.2-1.1-16.2-1.1c-2.2,2.9-2.9,12.9-2.3,16.1
		C63.6,37.1,68.1,36.9,74.4,38.3z"/>
</g>
</svg>
