<?xml version="1.0" encoding="utf-8"?>
<!-- Generator: Adobe Illustrator 19.0.0, SVG Export Plug-In . SVG Version: 6.00 Build 0)  -->
<svg version="1.1" id="Layer_1" xmlns="http://www.w3.org/2000/svg" xmlns:xlink="http://www.w3.org/1999/xlink" x="0px" y="0px"
	 viewBox="0 0 95.8 106.3" style="enable-background:new 0 0 95.8 106.3;" xml:space="preserve" preserveAspectRatio="none">
<style type="text/css">
	.st0{fill:url(#SVGID_1_);}
	.st1{fill:url(#SVGID_2_);}
	.st2{fill:url(#SVGID_3_);}
	.st3{fill:url(#SVGID_4_);}
	.st4{fill:url(#SVGID_5_);}
	.st5{fill:url(#SVGID_6_);}
	.st6{fill:url(#SVGID_7_);}
	.st7{fill:url(#SVGID_8_);}
	.st8{fill:url(#SVGID_9_);}
	.st9{fill:url(#SVGID_10_);}
	.st10{fill:url(#SVGID_11_);}
	.st11{fill:url(#SVGID_12_);}
	.st12{fill:url(#SVGID_13_);}
	.st13{fill:url(#SVGID_14_);}
	.st14{fill:url(#SVGID_15_);}
	.st15{enable-background:new    ;}
	.st16{fill:url(#SVGID_16_);}
	.st17{fill:url(#SVGID_17_);}
	.st18{fill:url(#SVGID_18_);}
	.st19{fill:url(#SVGID_19_);}
	.st20{fill:url(#SVGID_20_);}
	.st21{fill:url(#SVGID_21_);}
	.st22{fill:url(#SVGID_22_);}
	.st23{fill:url(#SVGID_23_);}
	.st24{fill:url(#SVGID_24_);}
	.st25{fill:url(#SVGID_25_);}
	.st26{fill:url(#SVGID_26_);}
	.st27{fill:url(#SVGID_27_);}
	.st28{fill:url(#SVGID_28_);}
	.st29{fill:url(#SVGID_29_);}
	.st30{opacity:0.5;fill:#C54D9C;}
	.st31{fill:url(#SVGID_30_);}
	.st32{fill:url(#SVGID_31_);}
	.st33{fill:url(#SVGID_32_);}
	.st34{fill:url(#SVGID_33_);}
	.st35{fill:url(#SVGID_34_);}
	.st36{fill:url(#SVGID_35_);}
	.st37{fill:url(#SVGID_36_);}
	.st38{filter:url(#Adobe_OpacityMaskFilter);}
	.st39{filter:url(#Adobe_OpacityMaskFilter_1_);}
	.st40{mask:url(#SVGID_37_);fill:url(#SVGID_38_);}
	.st41{opacity:0.5;fill:url(#SVGID_39_);}
	.st42{fill:url(#SVGID_40_);}
	.st43{fill:url(#SVGID_41_);}
	.st44{fill:url(#SVGID_42_);}
	.st45{fill:url(#SVGID_43_);}
	.st46{fill:url(#SVGID_44_);}
	.st47{fill:url(#SVGID_45_);}
	.st48{fill:url(#SVGID_46_);}
	.st49{filter:url(#Adobe_OpacityMaskFilter_2_);}
	.st50{filter:url(#Adobe_OpacityMaskFilter_3_);}
	.st51{mask:url(#SVGID_47_);fill:url(#SVGID_48_);}
	.st52{opacity:0.5;fill:url(#SVGID_49_);}
	.st53{fill:url(#SVGID_50_);}
	.st54{fill:url(#SVGID_51_);}
	.st55{fill:url(#SVGID_52_);}
	.st56{filter:url(#Adobe_OpacityMaskFilter_4_);}
	.st57{filter:url(#Adobe_OpacityMaskFilter_5_);}
	.st58{mask:url(#SVGID_53_);fill:url(#SVGID_54_);}
	.st59{opacity:0.5;fill:url(#SVGID_55_);}
	.st60{fill:url(#SVGID_56_);}
	.st61{fill:url(#SVGID_57_);}
	.st62{fill:url(#SVGID_58_);}
	.st63{fill:url(#SVGID_59_);}
	.st64{fill:url(#SVGID_60_);}
	.st65{fill:url(#SVGID_61_);}
	.st66{filter:url(#Adobe_OpacityMaskFilter_6_);}
	.st67{filter:url(#Adobe_OpacityMaskFilter_7_);}
	.st68{mask:url(#SVGID_62_);fill:url(#SVGID_63_);}
	.st69{opacity:0.5;fill:url(#SVGID_64_);}
	.st70{fill:url(#SVGID_65_);}
	.st71{fill:url(#SVGID_66_);}
	.st72{fill:#FFF0E7;}
	.st73{opacity:0.3;fill:#C54D9C;}
	.st74{opacity:0.5;}
	.st75{filter:url(#Adobe_OpacityMaskFilter_8_);}
	.st76{filter:url(#Adobe_OpacityMaskFilter_9_);}
	.st77{mask:url(#SVGID_67_);fill:url(#SVGID_68_);}
	.st78{opacity:0.5;fill:url(#SVGID_69_);}
	.st79{fill:url(#SVGID_70_);}
	.st80{fill:url(#SVGID_71_);}
	.st81{fill:url(#SVGID_72_);}
	.st82{fill:url(#SVGID_73_);}
</style>
<g>
	
		<linearGradient id="SVGID_1_" gradientUnits="userSpaceOnUse" x1="203.207" y1="192.1756" x2="177.2865" y2="118.9941" gradientTransform="matrix(0.9952 -9.790000e-002 9.790000e-002 0.9952 -184.0384 -65.6229)">
		<stop  offset="0" style="stop-color:#C54D9C"/>
		<stop  offset="1" style="stop-color:#C54D9C"/>
	</linearGradient>
	<polygon class="st0" points="1.5,36.5 5.6,84.1 6.1,85 37.1,106.2 32.3,50.2 	"/>
	<g>
		
			<linearGradient id="SVGID_2_" gradientUnits="userSpaceOnUse" x1="199.9263" y1="194.2632" x2="171.0451" y2="121.336" gradientTransform="matrix(0.9952 -9.790000e-002 9.790000e-002 0.9952 -184.0384 -65.6229)">
			<stop  offset="0" style="stop-color:#C54D9C"/>
			<stop  offset="1" style="stop-color:#C54D9C"/>
		</linearGradient>
		<polygon class="st1" points="14.5,90.2 10.3,40.5 9.1,39.9 13.2,89.3 13.2,89.3 13.2,89.3 13.2,89.3 13.2,89.3 13.5,90.1 14.7,91 
			14.5,90.2 		"/>
		
			<linearGradient id="SVGID_3_" gradientUnits="userSpaceOnUse" x1="202.8826" y1="193.0912" x2="174.0016" y2="120.1645" gradientTransform="matrix(0.9952 -9.790000e-002 9.790000e-002 0.9952 -184.0384 -65.6229)">
			<stop  offset="0" style="stop-color:#C54D9C"/>
			<stop  offset="1" style="stop-color:#C54D9C"/>
		</linearGradient>
		<polygon class="st2" points="15.3,42.7 14.1,42.1 18.3,92.8 18.6,93.6 19.8,94.4 19.6,93.6 		"/>
		
			<linearGradient id="SVGID_4_" gradientUnits="userSpaceOnUse" x1="201.4046" y1="193.6774" x2="172.5233" y2="120.7498" gradientTransform="matrix(0.9952 -9.790000e-002 9.790000e-002 0.9952 -184.0384 -65.6229)">
			<stop  offset="0" style="stop-color:#C54D9C"/>
			<stop  offset="1" style="stop-color:#C54D9C"/>
		</linearGradient>
		<polygon class="st3" points="17,91.9 12.8,41.6 11.6,41 15.8,91 15.8,91 15.8,91 16,91.8 17.3,92.7 17,91.9 		"/>
		
			<linearGradient id="SVGID_5_" gradientUnits="userSpaceOnUse" x1="204.3609" y1="192.5065" x2="175.4795" y2="119.5786" gradientTransform="matrix(0.9952 -9.790000e-002 9.790000e-002 0.9952 -184.0384 -65.6229)">
			<stop  offset="0" style="stop-color:#C54D9C"/>
			<stop  offset="1" style="stop-color:#C54D9C"/>
		</linearGradient>
		<path class="st4" d="M22.1,95.4c-0.4-4.4-4.3-51.6-4.3-51.6l-1.2-0.6l4.3,51.3l0,0h0l0.3,0.8l1.3,0.9L22.1,95.4L22.1,95.4z"/>
		
			<linearGradient id="SVGID_6_" gradientUnits="userSpaceOnUse" x1="196.9696" y1="195.4338" x2="168.0886" y2="122.507" gradientTransform="matrix(0.9952 -9.790000e-002 9.790000e-002 0.9952 -184.0384 -65.6229)">
			<stop  offset="0" style="stop-color:#C54D9C"/>
			<stop  offset="1" style="stop-color:#C54D9C"/>
		</linearGradient>
		<polygon class="st5" points="5.3,38.2 4.1,37.7 8.1,85.8 8.1,85.8 8.4,86.6 9.7,87.5 9.4,86.7 		"/>
		
			<linearGradient id="SVGID_7_" gradientUnits="userSpaceOnUse" x1="198.4473" y1="194.8479" x2="169.5662" y2="121.921" gradientTransform="matrix(0.9952 -9.790000e-002 9.790000e-002 0.9952 -184.0384 -65.6229)">
			<stop  offset="0" style="stop-color:#C54D9C"/>
			<stop  offset="1" style="stop-color:#C54D9C"/>
		</linearGradient>
		<polygon class="st6" points="7.8,39.4 6.6,38.8 10.7,87.5 10.7,87.6 10.7,87.5 10.9,88.4 12.2,89.2 11.9,88.4 		"/>
		
			<linearGradient id="SVGID_8_" gradientUnits="userSpaceOnUse" x1="211.752" y1="189.5781" x2="182.8711" y2="116.6515" gradientTransform="matrix(0.9952 -9.790000e-002 9.790000e-002 0.9952 -184.0384 -65.6229)">
			<stop  offset="0" style="stop-color:#C54D9C"/>
			<stop  offset="1" style="stop-color:#C54D9C"/>
		</linearGradient>
		<polygon class="st7" points="30.3,49.4 29,48.8 33.6,103.2 33.6,103.2 33.6,103.2 33.9,104 35.1,104.9 34.9,104.1 		"/>
		
			<linearGradient id="SVGID_9_" gradientUnits="userSpaceOnUse" x1="205.8387" y1="191.9205" x2="176.9578" y2="118.9938" gradientTransform="matrix(0.9952 -9.790000e-002 9.790000e-002 0.9952 -184.0384 -65.6229)">
			<stop  offset="0" style="stop-color:#C54D9C"/>
			<stop  offset="1" style="stop-color:#C54D9C"/>
		</linearGradient>
		<polygon class="st8" points="24.7,97.1 20.3,44.9 19.1,44.4 23.4,96.3 23.4,96.3 23.7,97 24.9,97.9 24.7,97.1 		"/>
		
			<linearGradient id="SVGID_10_" gradientUnits="userSpaceOnUse" x1="210.2738" y1="190.1637" x2="181.393" y2="117.2374" gradientTransform="matrix(0.9952 -9.790000e-002 9.790000e-002 0.9952 -184.0384 -65.6229)">
			<stop  offset="0" style="stop-color:#C54D9C"/>
			<stop  offset="1" style="stop-color:#C54D9C"/>
		</linearGradient>
		<polygon class="st9" points="27.8,48.2 26.5,47.7 31,101.5 31.1,101.5 31,101.5 31.3,102.3 32.6,103.1 32.3,102.4 		"/>
		
			<linearGradient id="SVGID_11_" gradientUnits="userSpaceOnUse" x1="195.5315" y1="196.0025" x2="166.6506" y2="123.076" gradientTransform="matrix(0.9952 -9.790000e-002 9.790000e-002 0.9952 -184.0384 -65.6229)">
			<stop  offset="0" style="stop-color:#C54D9C"/>
			<stop  offset="1" style="stop-color:#C54D9C"/>
		</linearGradient>
		<polygon class="st10" points="6.8,84.9 2.8,37.1 1.6,36.6 5.3,80.7 5.6,84.1 5.6,84.1 6,85 7.1,85.7 6.8,84.9 		"/>
		
			<linearGradient id="SVGID_12_" gradientUnits="userSpaceOnUse" x1="212.9794" y1="188.8412" x2="184.2261" y2="116.2368" gradientTransform="matrix(0.9952 -9.790000e-002 9.790000e-002 0.9952 -184.0384 -65.6229)">
			<stop  offset="0" style="stop-color:#C54D9C"/>
			<stop  offset="1" style="stop-color:#C54D9C"/>
		</linearGradient>
		<polygon class="st11" points="32.3,50.2 31.5,49.9 36.1,105 36.1,105 36.4,105.7 37.1,106.2 		"/>
		
			<linearGradient id="SVGID_13_" gradientUnits="userSpaceOnUse" x1="207.317" y1="191.335" x2="178.4361" y2="118.4084" gradientTransform="matrix(0.9952 -9.790000e-002 9.790000e-002 0.9952 -184.0384 -65.6229)">
			<stop  offset="0" style="stop-color:#C54D9C"/>
			<stop  offset="1" style="stop-color:#C54D9C"/>
		</linearGradient>
		<polygon class="st12" points="27.2,98.9 22.8,46 21.5,45.5 26,98 26,98 26,98 26.2,98.8 27.5,99.6 27.2,98.9 		"/>
		
			<linearGradient id="SVGID_14_" gradientUnits="userSpaceOnUse" x1="208.7949" y1="190.7499" x2="179.9136" y2="117.8223" gradientTransform="matrix(0.9952 -9.790000e-002 9.790000e-002 0.9952 -184.0384 -65.6229)">
			<stop  offset="0" style="stop-color:#C54D9C"/>
			<stop  offset="1" style="stop-color:#C54D9C"/>
		</linearGradient>
		<polygon class="st13" points="25.3,47.1 24,46.6 28.5,99.7 28.5,99.8 28.5,99.7 28.8,100.5 30,101.4 29.8,100.6 		"/>
	</g>
	
		<linearGradient id="SVGID_15_" gradientUnits="userSpaceOnUse" x1="220.8705" y1="98.5504" x2="220.6402" y2="88.4179" gradientTransform="matrix(0.9952 -9.790000e-002 9.790000e-002 0.9952 -184.0384 -65.6229)">
		<stop  offset="0" style="stop-color:#F7944C"/>
		<stop  offset="9.223300e-002" style="stop-color:#F7944C"/>
		<stop  offset="0.1772" style="stop-color:#FAB380"/>
		<stop  offset="0.2184" style="stop-color:#FCC39B"/>
		<stop  offset="0.2308" style="stop-color:#FCC197"/>
		<stop  offset="0.4075" style="stop-color:#F9A062"/>
		<stop  offset="0.4903" style="stop-color:#F7944C"/>
		<stop  offset="0.8108" style="stop-color:#FEE4D2"/>
		<stop  offset="0.8365" style="stop-color:#FEDCC5"/>
		<stop  offset="0.8853" style="stop-color:#FCC9A4"/>
		<stop  offset="0.9516" style="stop-color:#FAAB73"/>
		<stop  offset="1" style="stop-color:#F7944C"/>
	</linearGradient>
	<path class="st14" d="M42.2,18.7c-4.1-7.1-4.9-14.6-3.5-16.3c0.6-0.9,11-2.4,12.2-1.4c1.2,1,0.3,10.5-4,17.2L42.2,18.7z"/>
	<g>
		<g class="st15">
			
				<linearGradient id="SVGID_16_" gradientUnits="userSpaceOnUse" x1="261.9033" y1="186.4313" x2="206.3518" y2="137.4058" gradientTransform="matrix(0.9952 -9.790000e-002 9.790000e-002 0.9952 -184.0384 -65.6229)">
				<stop  offset="0" style="stop-color:#C54D9C"/>
				<stop  offset="1" style="stop-color:#C54D9C"/>
			</linearGradient>
			<polygon class="st16" points="33.1,50.4 37.8,106.3 95.4,91.3 95.8,90.7 91.5,38.6 			"/>
			
				<linearGradient id="SVGID_17_" gradientUnits="userSpaceOnUse" x1="218.3974" y1="177.3979" x2="190.5851" y2="152.8529" gradientTransform="matrix(0.9952 -9.790000e-002 9.790000e-002 0.9952 -184.0384 -65.6229)">
				<stop  offset="0" style="stop-color:#C54D9C"/>
				<stop  offset="1" style="stop-color:#C54D9C"/>
			</linearGradient>
			<polygon class="st17" points="32.3,50.2 37.1,106.2 37.8,106.3 33.1,50.4 			"/>
		</g>
	</g>
	<g>
		
			<linearGradient id="SVGID_18_" gradientUnits="userSpaceOnUse" x1="265.2359" y1="179.0072" x2="213.6986" y2="131.9776" gradientTransform="matrix(0.9952 -9.790000e-002 9.790000e-002 0.9952 -184.0384 -65.6229)">
			<stop  offset="0" style="stop-color:#C54D9C"/>
			<stop  offset="1" style="stop-color:#C54D9C"/>
		</linearGradient>
		<polygon class="st18" points="75.5,95.9 75.3,96.6 77.8,95.9 78.1,95.3 73.6,42.2 71.1,42.7 		"/>
		
			<linearGradient id="SVGID_19_" gradientUnits="userSpaceOnUse" x1="262.2656" y1="181.696" x2="210.6974" y2="134.6381" gradientTransform="matrix(0.9952 -9.790000e-002 9.790000e-002 0.9952 -184.0384 -65.6229)">
			<stop  offset="0" style="stop-color:#C54D9C"/>
			<stop  offset="1" style="stop-color:#C54D9C"/>
		</linearGradient>
		<polygon class="st19" points="70.4,97.2 70.2,97.9 72.8,97.2 73,96.6 68.5,43.2 66,43.7 		"/>
		
			<linearGradient id="SVGID_20_" gradientUnits="userSpaceOnUse" x1="271.1961" y1="173.6192" x2="219.7216" y2="126.6469" gradientTransform="matrix(0.9952 -9.790000e-002 9.790000e-002 0.9952 -184.0384 -65.6229)">
			<stop  offset="0" style="stop-color:#C54D9C"/>
			<stop  offset="1" style="stop-color:#C54D9C"/>
		</linearGradient>
		<polygon class="st20" points="85.7,93.3 85.5,93.9 88,93.3 88.2,92.6 83.8,40.1 81.3,40.6 		"/>
		
			<linearGradient id="SVGID_21_" gradientUnits="userSpaceOnUse" x1="259.2929" y1="184.395" x2="207.6949" y2="137.3098" gradientTransform="matrix(0.9952 -9.790000e-002 9.790000e-002 0.9952 -184.0384 -65.6229)">
			<stop  offset="0" style="stop-color:#C54D9C"/>
			<stop  offset="1" style="stop-color:#C54D9C"/>
		</linearGradient>
		<polygon class="st21" points="65.3,98.5 65.1,99.2 67.7,98.5 67.9,97.9 63.4,44.3 60.8,44.8 		"/>
		
			<linearGradient id="SVGID_22_" gradientUnits="userSpaceOnUse" x1="274.179" y1="170.93" x2="222.7369" y2="123.9872" gradientTransform="matrix(0.9952 -9.790000e-002 9.790000e-002 0.9952 -184.0384 -65.6229)">
			<stop  offset="0" style="stop-color:#C54D9C"/>
			<stop  offset="1" style="stop-color:#C54D9C"/>
		</linearGradient>
		<polygon class="st22" points="93.3,91.3 89,39.1 86.4,39.6 90.8,92 90.6,92.6 93.1,91.9 		"/>
		
			<linearGradient id="SVGID_23_" gradientUnits="userSpaceOnUse" x1="268.2136" y1="176.3127" x2="216.7081" y2="129.312" gradientTransform="matrix(0.9952 -9.790000e-002 9.790000e-002 0.9952 -184.0384 -65.6229)">
			<stop  offset="0" style="stop-color:#C54D9C"/>
			<stop  offset="1" style="stop-color:#C54D9C"/>
		</linearGradient>
		<polygon class="st23" points="80.6,94.6 80.4,95.2 82.9,94.6 83.2,93.9 78.7,41.2 76.2,41.7 		"/>
		
			<linearGradient id="SVGID_24_" gradientUnits="userSpaceOnUse" x1="244.4617" y1="197.9355" x2="192.7076" y2="150.7079" gradientTransform="matrix(0.9952 -9.790000e-002 9.790000e-002 0.9952 -184.0384 -65.6229)">
			<stop  offset="0" style="stop-color:#C54D9C"/>
			<stop  offset="1" style="stop-color:#C54D9C"/>
		</linearGradient>
		<polygon class="st24" points="39.9,105.2 39.7,105.8 42.2,105.2 42.4,104.5 37.8,49.4 35.3,49.9 		"/>
		
			<linearGradient id="SVGID_25_" gradientUnits="userSpaceOnUse" x1="247.4213" y1="195.2246" x2="195.6975" y2="148.0247" gradientTransform="matrix(0.9952 -9.790000e-002 9.790000e-002 0.9952 -184.0384 -65.6229)">
			<stop  offset="0" style="stop-color:#C54D9C"/>
			<stop  offset="1" style="stop-color:#C54D9C"/>
		</linearGradient>
		<polygon class="st25" points="45,103.8 44.8,104.5 47.3,103.9 47.5,103.2 42.9,48.4 40.4,48.9 		"/>
		
			<linearGradient id="SVGID_26_" gradientUnits="userSpaceOnUse" x1="256.3189" y1="187.1049" x2="204.6864" y2="139.9883" gradientTransform="matrix(0.9952 -9.790000e-002 9.790000e-002 0.9952 -184.0384 -65.6229)">
			<stop  offset="0" style="stop-color:#C54D9C"/>
			<stop  offset="1" style="stop-color:#C54D9C"/>
		</linearGradient>
		<polygon class="st26" points="60.3,99.9 60,100.5 62.6,99.9 62.8,99.2 58.3,45.3 55.7,45.8 		"/>
		
			<linearGradient id="SVGID_27_" gradientUnits="userSpaceOnUse" x1="250.3864" y1="192.5145" x2="198.6928" y2="145.3422" gradientTransform="matrix(0.9952 -9.790000e-002 9.790000e-002 0.9952 -184.0384 -65.6229)">
			<stop  offset="0" style="stop-color:#C54D9C"/>
			<stop  offset="1" style="stop-color:#C54D9C"/>
		</linearGradient>
		<polygon class="st27" points="50.1,102.5 49.9,103.2 52.4,102.5 52.6,101.9 48,47.4 45.5,47.9 		"/>
		
			<linearGradient id="SVGID_28_" gradientUnits="userSpaceOnUse" x1="253.3511" y1="189.8084" x2="201.6882" y2="142.6642" gradientTransform="matrix(0.9952 -9.790000e-002 9.790000e-002 0.9952 -184.0384 -65.6229)">
			<stop  offset="0" style="stop-color:#C54D9C"/>
			<stop  offset="1" style="stop-color:#C54D9C"/>
		</linearGradient>
		<polygon class="st28" points="55.2,101.2 55,101.9 57.5,101.2 57.7,100.5 53.2,46.3 50.6,46.8 		"/>
	</g>
	
		<linearGradient id="SVGID_29_" gradientUnits="userSpaceOnUse" x1="203.9778" y1="128.1931" x2="203.9778" y2="222.4484" gradientTransform="matrix(0.9952 -9.790000e-002 9.790000e-002 0.9952 -184.0384 -65.6229)">
		<stop  offset="0" style="stop-color:#C54D9C"/>
		<stop  offset="3.171833e-002" style="stop-color:#C64F9A"/>
		<stop  offset="6.068333e-002" style="stop-color:#C95497"/>
		<stop  offset="8.858257e-002" style="stop-color:#CE5C92"/>
		<stop  offset="0.1158" style="stop-color:#D4678B"/>
		<stop  offset="0.1426" style="stop-color:#DC7480"/>
		<stop  offset="0.169" style="stop-color:#E68270"/>
		<stop  offset="0.1947" style="stop-color:#F39358"/>
		<stop  offset="0.2" style="stop-color:#F79751"/>
		<stop  offset="0.726" style="stop-color:#D5688A"/>
		<stop  offset="1" style="stop-color:#C54D9C"/>
	</linearGradient>
	<polygon class="st29" points="37.7,105.7 33.1,50.4 32.3,50.3 37,105.6 37.4,105.7 	"/>
	<polygon class="st30" points="32.7,53.7 91.6,40.3 91.5,38.6 32.5,50.5 	"/>
	<polygon class="st30" points="32.4,50.3 1.5,36.5 1.6,38 32.7,53.7 	"/>
	
		<linearGradient id="SVGID_30_" gradientUnits="userSpaceOnUse" x1="253.1713" y1="145.3547" x2="216.4222" y2="112.9228" gradientTransform="matrix(0.9952 -9.790000e-002 9.790000e-002 0.9952 -184.0384 -65.6229)">
		<stop  offset="0" style="stop-color:#C54D9C"/>
		<stop  offset="1" style="stop-color:#C54D9C"/>
	</linearGradient>
	<polygon class="st31" points="90.8,26.5 91.2,26.8 92.1,39.1 32.9,52.5 32.6,52.5 31.4,38.9 	"/>
	
		<linearGradient id="SVGID_31_" gradientUnits="userSpaceOnUse" x1="195.9511" y1="141.3945" x2="183.0419" y2="104.9478" gradientTransform="matrix(0.9952 -9.790000e-002 9.790000e-002 0.9952 -184.0384 -65.6229)">
		<stop  offset="0" style="stop-color:#C54D9C"/>
		<stop  offset="1" style="stop-color:#C54D9C"/>
	</linearGradient>
	<polygon class="st32" points="32.6,52.5 32.3,52.4 1.3,36.8 0,24.9 0.3,24.7 31.4,38.9 	"/>
	
		<linearGradient id="SVGID_32_" gradientUnits="userSpaceOnUse" x1="204.1172" y1="114.1009" x2="204.1172" y2="138.8151" gradientTransform="matrix(0.9952 -9.790000e-002 9.790000e-002 0.9952 -184.0384 -65.6229)">
		<stop  offset="0" style="stop-color:#C54D9C"/>
		<stop  offset="0.5" style="stop-color:#F9A96F"/>
		<stop  offset="1" style="stop-color:#C54D9C"/>
	</linearGradient>
	<polygon class="st33" points="32.3,52.4 31.1,38.9 31.8,38.8 32.9,52.5 	"/>
	<g>
		
			<linearGradient id="SVGID_33_" gradientUnits="userSpaceOnUse" x1="221.7852" y1="103.8239" x2="217.2343" y2="123.0776" gradientTransform="matrix(0.9952 -9.790000e-002 9.790000e-002 0.9952 -184.0384 -65.6229)">
			<stop  offset="0" style="stop-color:#C54D9C"/>
			<stop  offset="1" style="stop-color:#C54D9C"/>
		</linearGradient>
		<polygon class="st34" points="90.8,26.5 31.4,38.9 0.3,24.7 0.6,24.4 57.5,14.6 90.5,26.2 		"/>
		
			<linearGradient id="SVGID_34_" gradientUnits="userSpaceOnUse" x1="174.2914" y1="116.5503" x2="264.8211" y2="116.5503" gradientTransform="matrix(0.9952 -9.790000e-002 9.790000e-002 0.9952 -184.0384 -65.6229)">
			<stop  offset="0" style="stop-color:#C54D9C"/>
			<stop  offset="0.5" style="stop-color:#F9A96F"/>
			<stop  offset="1" style="stop-color:#C54D9C"/>
		</linearGradient>
		<polygon class="st35" points="31.3,39.2 31.4,39.2 91.2,26.8 90.5,26.2 31.5,38.5 0.6,24.4 0,24.9 		"/>
	</g>
	<polygon class="st30" points="74,96.3 68.6,44.4 59.8,46.4 65.3,98.6 65.1,99.2 73.8,96.9 	"/>
	<polygon class="st30" points="60.4,46.3 69.1,44.3 67.9,31.6 59.2,33.4 	"/>
	<polygon class="st30" points="28.7,19.6 58.6,32.9 59.2,33.4 67.9,31.6 67.3,31.1 36.6,18.2 	"/>
	
		<linearGradient id="SVGID_35_" gradientUnits="userSpaceOnUse" x1="239.1033" y1="122.1652" x2="208.2992" y2="106.3016" gradientTransform="matrix(0.9952 -9.790000e-002 9.790000e-002 0.9952 -184.0384 -65.6229)">
		<stop  offset="0" style="stop-color:#F89955"/>
		<stop  offset="0.2703" style="stop-color:#FCC39B"/>
		<stop  offset="1" style="stop-color:#FCC39B"/>
	</linearGradient>
	<polygon class="st36" points="29.1,19.5 59,32.8 67.7,31 37,18.1 	"/>
	<polygon class="st30" points="13.6,43.1 17.1,91.9 17.4,92.7 22.7,96.4 22.4,95.6 18.9,45.7 	"/>
	<polygon class="st30" points="13.2,42.8 18.4,45.5 17.4,32.8 12.2,30.4 	"/>
	<polygon class="st30" points="12.7,30 12.2,30.4 17.4,32.8 17.9,32.3 76.2,21.2 70.2,19.1 	"/>
	
		<linearGradient id="SVGID_36_" gradientUnits="userSpaceOnUse" x1="244.6675" y1="110.6072" x2="186.7028" y2="115.8973" gradientTransform="matrix(0.9952 -9.790000e-002 9.790000e-002 0.9952 -184.0384 -65.6229)">
		<stop  offset="0" style="stop-color:#F89955"/>
		<stop  offset="0.2703" style="stop-color:#FCC39B"/>
		<stop  offset="1" style="stop-color:#FCC39B"/>
	</linearGradient>
	<polygon class="st37" points="69.9,19 12.5,29.8 17.7,32.2 76,21.1 	"/>
	<g>
		<defs>
			<filter id="Adobe_OpacityMaskFilter" filterUnits="userSpaceOnUse" x="13.9" y="19.7" width="26.3" height="5">
				<feFlood  style="flood-color:white;flood-opacity:1" result="back"/>
				<feBlend  in="SourceGraphic" in2="back" mode="normal"/>
			</filter>
		</defs>
		<mask maskUnits="userSpaceOnUse" x="13.9" y="19.7" width="26.3" height="5" id="SVGID_37_">
			<g class="st38">
				<defs>
					<filter id="Adobe_OpacityMaskFilter_1_" filterUnits="userSpaceOnUse" x="13.9" y="19.7" width="26.3" height="5">
						<feFlood  style="flood-color:white;flood-opacity:1" result="back"/>
						<feBlend  in="SourceGraphic" in2="back" mode="normal"/>
					</filter>
				</defs>
				<mask maskUnits="userSpaceOnUse" x="13.9" y="19.7" width="26.3" height="5" id="SVGID_37_">
					<g class="st39">
					</g>
				</mask>
				
					<linearGradient id="SVGID_38_" gradientUnits="userSpaceOnUse" x1="204.1723" y1="108.4008" x2="195.3122" y2="107.4354" gradientTransform="matrix(0.9952 -9.790000e-002 9.790000e-002 0.9952 -184.0384 -65.6233)">
					<stop  offset="0" style="stop-color:#FFFFFF"/>
					<stop  offset="0.6112" style="stop-color:#646464"/>
					<stop  offset="1" style="stop-color:#000000"/>
				</linearGradient>
				<path class="st40" d="M40.2,21.4c-4,0.1-8.6-0.3-12.5-1.6l-13.8,2.4c2,1.3,5.3,2.4,6.9,2.6c4.3,0.4,16.4-2.4,16.4-2.4L40.2,21.4
					z"/>
			</g>
		</mask>
		
			<linearGradient id="SVGID_39_" gradientUnits="userSpaceOnUse" x1="204.1723" y1="108.4004" x2="195.3123" y2="107.435" gradientTransform="matrix(0.9952 -9.790000e-002 9.790000e-002 0.9952 -184.0384 -65.6229)">
			<stop  offset="0" style="stop-color:#F7944C"/>
			<stop  offset="1" style="stop-color:#F7944C"/>
		</linearGradient>
		<path class="st41" d="M40.2,21.4c-4,0.1-8.6-0.3-12.5-1.6l-13.8,2.4c2,1.3,5.3,2.4,6.9,2.6c4.3,0.4,16.4-2.4,16.4-2.4L40.2,21.4z"
			/>
		
			<linearGradient id="SVGID_40_" gradientUnits="userSpaceOnUse" x1="201.6843" y1="108.7634" x2="200.9762" y2="94.9571" gradientTransform="matrix(0.9952 -9.790000e-002 9.790000e-002 0.9952 -184.0384 -65.6233)">
			<stop  offset="0" style="stop-color:#F7944C"/>
			<stop  offset="0.5189" style="stop-color:#F7944C"/>
			<stop  offset="1" style="stop-color:#F7944C"/>
		</linearGradient>
		<path class="st42" d="M27.6,8.6c0,0-10,0.9-12.6,3.9c-4.8,5.3,1.5,10.2,5.8,11c4.3,0.7,16.5-1.2,16.5-1.2l3-0.6
			C29.2,21.1,19.4,17,27.6,8.6z"/>
		
			<linearGradient id="SVGID_41_" gradientUnits="userSpaceOnUse" x1="202.8467" y1="108.6986" x2="202.1347" y2="94.8157" gradientTransform="matrix(0.9952 -9.790000e-002 9.790000e-002 0.9952 -184.0384 -65.6229)">
			<stop  offset="0" style="stop-color:#F7944C"/>
			<stop  offset="9.223300e-002" style="stop-color:#F7944C"/>
			<stop  offset="0.1772" style="stop-color:#FAB380"/>
			<stop  offset="0.2184" style="stop-color:#FCC39B"/>
			<stop  offset="0.2308" style="stop-color:#FCC197"/>
			<stop  offset="0.4075" style="stop-color:#F9A062"/>
			<stop  offset="0.4903" style="stop-color:#F7944C"/>
			<stop  offset="0.8108" style="stop-color:#FEE4D2"/>
			<stop  offset="0.8365" style="stop-color:#FEDCC5"/>
			<stop  offset="0.8853" style="stop-color:#FCC9A4"/>
			<stop  offset="0.9516" style="stop-color:#FAAB73"/>
			<stop  offset="1" style="stop-color:#F7944C"/>
		</linearGradient>
		<path class="st43" d="M37.3,22.2C27.9,13.6,19.9,7.5,15,12.4c2.4-2.9,10.9-3.8,12.6-3.9c7.7-0.4,11.5,9.1,12.7,13L37.3,22.2z"/>
	</g>
	<g>
		
			<linearGradient id="SVGID_42_" gradientUnits="userSpaceOnUse" x1="2182.4224" y1="-33.6357" x2="2181.7144" y2="-47.4424" gradientTransform="matrix(-0.9712 0.2383 0.2383 0.9712 2185.1951 -472.6053)">
			<stop  offset="0" style="stop-color:#F7944C"/>
			<stop  offset="0.5189" style="stop-color:#F7944C"/>
			<stop  offset="1" style="stop-color:#F7944C"/>
		</linearGradient>
		<path class="st44" d="M52.6,1.4c0,0,9.7-2.5,13.2-0.5c6.3,3.5,2,10.1-1.8,12.3c-3.8,2.1-16,4.4-16,4.4L45,17.9
			C55.3,13.7,63.1,6.6,52.6,1.4z"/>
		
			<linearGradient id="SVGID_43_" gradientUnits="userSpaceOnUse" x1="2183.3379" y1="-38.5049" x2="2182.8333" y2="-48.3469" gradientTransform="matrix(-0.9712 0.2383 0.2383 0.9712 2185.1951 -472.6053)">
			<stop  offset="0" style="stop-color:#F7944C"/>
			<stop  offset="9.223300e-002" style="stop-color:#F7944C"/>
			<stop  offset="0.1772" style="stop-color:#FAB380"/>
			<stop  offset="0.2184" style="stop-color:#FCC39B"/>
			<stop  offset="0.2308" style="stop-color:#FCC197"/>
			<stop  offset="0.4075" style="stop-color:#F9A062"/>
			<stop  offset="0.4903" style="stop-color:#F7944C"/>
			<stop  offset="0.8108" style="stop-color:#FEE4D2"/>
			<stop  offset="0.8365" style="stop-color:#FEDCC5"/>
			<stop  offset="0.8853" style="stop-color:#FCC9A4"/>
			<stop  offset="0.9516" style="stop-color:#FAAB73"/>
			<stop  offset="1" style="stop-color:#F7944C"/>
		</linearGradient>
		<path class="st45" d="M48,17.5C54,6.2,59.5-2.1,65.8,0.8c-3.2-2-11.6,0-13.2,0.5c-7.4,2.2-7.8,12.4-7.6,16.5L48,17.5z"/>
	</g>
	<g>
		
			<linearGradient id="SVGID_44_" gradientUnits="userSpaceOnUse" x1="122.6333" y1="285.6228" x2="121.9252" y2="271.8142" gradientTransform="matrix(0.8576 7.910000e-002 -2.900000e-003 0.9888 -69.3078 -275.7746)">
			<stop  offset="0" style="stop-color:#F7944C"/>
			<stop  offset="0.5189" style="stop-color:#F7944C"/>
			<stop  offset="1" style="stop-color:#F7944C"/>
		</linearGradient>
		<path class="st46" d="M36.5,2.4c0,0-8.6-0.9-11.1,1.6c-4.5,4.4,0.4,10.3,4,11.7c3.6,1.5,14.2,1.8,14.2,1.8l2.6-0.1
			C36.8,14.9,28.8,9.2,36.5,2.4z"/>
		
			<linearGradient id="SVGID_45_" gradientUnits="userSpaceOnUse" x1="123.55" y1="280.766" x2="123.0478" y2="270.9734" gradientTransform="matrix(0.8576 7.910000e-002 -2.900000e-003 0.9888 -69.3078 -275.7746)">
			<stop  offset="0" style="stop-color:#F7944C"/>
			<stop  offset="9.223300e-002" style="stop-color:#F7944C"/>
			<stop  offset="0.1772" style="stop-color:#FAB380"/>
			<stop  offset="0.2184" style="stop-color:#FCC39B"/>
			<stop  offset="0.2308" style="stop-color:#FCC197"/>
			<stop  offset="0.4075" style="stop-color:#F9A062"/>
			<stop  offset="0.4903" style="stop-color:#F7944C"/>
			<stop  offset="0.8108" style="stop-color:#FEE4D2"/>
			<stop  offset="0.8365" style="stop-color:#FEDCC5"/>
			<stop  offset="0.8853" style="stop-color:#FCC9A4"/>
			<stop  offset="0.9516" style="stop-color:#FAAB73"/>
			<stop  offset="1" style="stop-color:#F7944C"/>
		</linearGradient>
		<path class="st47" d="M43.6,17.5C36.3,7.4,30,0.1,25.4,4c2.3-2.4,9.7-1.8,11.1-1.6c6.6,1,9,10.9,9.7,14.9L43.6,17.5z"/>
	</g>
	<g>
		
			<linearGradient id="SVGID_46_" gradientUnits="userSpaceOnUse" x1="2234.9551" y1="46.3903" x2="2243.0486" y2="53.4615" gradientTransform="matrix(-0.9883 0.1525 0.1525 0.9883 2261.8293 -375.1934)">
			<stop  offset="0" style="stop-color:#F7944C"/>
			<stop  offset="0.5189" style="stop-color:#F89A56"/>
			<stop  offset="1" style="stop-color:#F7944C"/>
		</linearGradient>
		<path class="st48" d="M59.2,11.5c-5,3.4-9.3,9-12.5,12.7l2.5-1c4.7-5.6,9.9-10.7,16.5-15C61.9,10.2,61.1,10.7,59.2,11.5z"/>
		<defs>
			<filter id="Adobe_OpacityMaskFilter_2_" filterUnits="userSpaceOnUse" x="46.7" y="21.5" width="29" height="4.8">
				<feFlood  style="flood-color:white;flood-opacity:1" result="back"/>
				<feBlend  in="SourceGraphic" in2="back" mode="normal"/>
			</filter>
		</defs>
		<mask maskUnits="userSpaceOnUse" x="46.7" y="21.5" width="29" height="4.8" id="SVGID_47_">
			<g class="st49">
				<defs>
					<filter id="Adobe_OpacityMaskFilter_3_" filterUnits="userSpaceOnUse" x="46.7" y="21.3" width="29.3" height="5">
						<feFlood  style="flood-color:white;flood-opacity:1" result="back"/>
						<feBlend  in="SourceGraphic" in2="back" mode="normal"/>
					</filter>
				</defs>
				<mask maskUnits="userSpaceOnUse" x="46.7" y="21.3" width="29.3" height="5" id="SVGID_47_">
					<g class="st50">
					</g>
				</mask>
				
					<linearGradient id="SVGID_48_" gradientUnits="userSpaceOnUse" x1="224.8107" y1="108.986" x2="237.1103" y2="112.5125" gradientTransform="matrix(0.9952 -9.790000e-002 9.790000e-002 0.9952 -184.0384 -65.6233)">
					<stop  offset="0" style="stop-color:#FFFFFF"/>
					<stop  offset="0.6112" style="stop-color:#646464"/>
					<stop  offset="1" style="stop-color:#000000"/>
				</linearGradient>
				<path class="st51" d="M49.3,23.4l-2.6,0.7c9.6,2.2,15.9,3.2,21.8,0.8c1.8-0.7,5-2.4,7.5-3.6C68.1,23.6,58,23.4,49.3,23.4z"/>
			</g>
		</mask>
		
			<linearGradient id="SVGID_49_" gradientUnits="userSpaceOnUse" x1="224.761" y1="109.0535" x2="236.9437" y2="112.5464" gradientTransform="matrix(0.9952 -9.790000e-002 9.790000e-002 0.9952 -184.0384 -65.6229)">
			<stop  offset="0" style="stop-color:#4D1A17"/>
			<stop  offset="1" style="stop-color:#4D1A17"/>
		</linearGradient>
		<path class="st52" d="M49.3,23.4l-2.6,0.7c9.6,2.2,15.9,3,21.8,0.6c1.8-0.7,4.7-2.1,7.2-3.3C67.8,23.8,58,23.4,49.3,23.4z"/>
		
			<linearGradient id="SVGID_50_" gradientUnits="userSpaceOnUse" x1="2227.1836" y1="57.8368" x2="2246.7781" y2="56.3033" gradientTransform="matrix(-0.9883 0.1525 0.1525 0.9883 2261.8293 -375.1931)">
			<stop  offset="0" style="stop-color:#F7944C"/>
			<stop  offset="0.5189" style="stop-color:#F7944C"/>
			<stop  offset="1" style="stop-color:#F7944C"/>
		</linearGradient>
		<path class="st53" d="M49.2,23.2l-2.5,1c9.8,1.3,16.1,1.4,21.7-1.5c1.7-0.9,4.5-2.5,6.9-4C67.6,21.7,57.8,22.3,49.2,23.2z"/>
		
			<linearGradient id="SVGID_51_" gradientUnits="userSpaceOnUse" x1="2223.4495" y1="56.848" x2="2228.7314" y2="43.7279" gradientTransform="matrix(-0.9883 0.1525 0.1525 0.9883 2261.8293 -375.1931)">
			<stop  offset="0" style="stop-color:#F7944C"/>
			<stop  offset="9.223300e-002" style="stop-color:#F7944C"/>
			<stop  offset="0.1772" style="stop-color:#FAB380"/>
			<stop  offset="0.2184" style="stop-color:#FCC39B"/>
			<stop  offset="0.2308" style="stop-color:#FCC197"/>
			<stop  offset="0.4075" style="stop-color:#F9A062"/>
			<stop  offset="0.4903" style="stop-color:#F7944C"/>
			<stop  offset="0.8108" style="stop-color:#FEE4D2"/>
			<stop  offset="0.8365" style="stop-color:#FEDCC5"/>
			<stop  offset="0.8853" style="stop-color:#FCC9A4"/>
			<stop  offset="0.9516" style="stop-color:#FAAB73"/>
			<stop  offset="1" style="stop-color:#F7944C"/>
		</linearGradient>
		<path class="st54" d="M65.7,8.2c9.9-4.3,15,7,9.6,10.4c0,0-3.8,2.5-6.9,4c3.6-3.2,3-9.3-3.8-11.7c-1.9-0.7-4.1,0-5.4,0.5
			C61.7,10.2,62.7,9.5,65.7,8.2z"/>
	</g>
	<g>
		
			<linearGradient id="SVGID_52_" gradientUnits="userSpaceOnUse" x1="203.6037" y1="102.4062" x2="211.6972" y2="109.4773" gradientTransform="matrix(0.9952 -9.790000e-002 9.790000e-002 0.9952 -184.0384 -65.6229)">
			<stop  offset="0" style="stop-color:#F7944C"/>
			<stop  offset="0.5189" style="stop-color:#F7944C"/>
			<stop  offset="1" style="stop-color:#F7944C"/>
		</linearGradient>
		<path class="st55" d="M29.5,16.1c5.7,2.1,11.2,6.4,15.3,9.2l-2.7-0.3c-6-4.3-12.2-7.9-19.7-10.4C26.5,15.6,27.4,15.9,29.5,16.1z"
			/>
		<defs>
			<filter id="Adobe_OpacityMaskFilter_4_" filterUnits="userSpaceOnUse" x="12.7" y="25.9" width="28.8" height="5.6">
				<feFlood  style="flood-color:white;flood-opacity:1" result="back"/>
				<feBlend  in="SourceGraphic" in2="back" mode="normal"/>
			</filter>
		</defs>
		<mask maskUnits="userSpaceOnUse" x="12.7" y="25.9" width="28.8" height="5.6" id="SVGID_53_">
			<g class="st56">
				<defs>
					<filter id="Adobe_OpacityMaskFilter_5_" filterUnits="userSpaceOnUse" x="12.5" y="26.4" width="27.8" height="5.3">
						<feFlood  style="flood-color:white;flood-opacity:1" result="back"/>
						<feBlend  in="SourceGraphic" in2="back" mode="normal"/>
					</filter>
				</defs>
				<mask maskUnits="userSpaceOnUse" x="12.5" y="26.4" width="27.8" height="5.3" id="SVGID_53_">
					<g class="st57">
					</g>
				</mask>
				
					<linearGradient id="SVGID_54_" gradientUnits="userSpaceOnUse" x1="79.414" y1="84.4486" x2="78.7687" y2="86.154" gradientTransform="matrix(0.9968 -8.030000e-002 8.030000e-002 0.9968 -60.3636 -47.7881)">
					<stop  offset="0" style="stop-color:#FFFFFF"/>
					<stop  offset="0.6112" style="stop-color:#646464"/>
					<stop  offset="1" style="stop-color:#000000"/>
				</linearGradient>
				<path class="st58" d="M38,26.4l2.3,0.3c-8.9,3.4-14.8,5.4-19.4,5c-0.7-0.1-6.9-2.8-8.4-3.7C20.4,29.1,29.6,27.5,38,26.4z"/>
			</g>
		</mask>
		
			<linearGradient id="SVGID_55_" gradientUnits="userSpaceOnUse" x1="199.9887" y1="115.6569" x2="199.3192" y2="117.4262" gradientTransform="matrix(0.9952 -9.790000e-002 9.790000e-002 0.9952 -184.0384 -65.6229)">
			<stop  offset="0" style="stop-color:#F7944C"/>
			<stop  offset="1" style="stop-color:#F7944C"/>
		</linearGradient>
		<path class="st59" d="M39.1,25.9l2.3,0.2c-9.1,3.6-15.8,5.7-20.5,5.4c-0.7-0.1-6.7-2.6-8.2-3.5C20.9,29.1,30.5,27.2,39.1,25.9z"/>
		
			<linearGradient id="SVGID_56_" gradientUnits="userSpaceOnUse" x1="195.8326" y1="113.8531" x2="215.4267" y2="112.3196" gradientTransform="matrix(0.9952 -9.790000e-002 9.790000e-002 0.9952 -184.0384 -65.6229)">
			<stop  offset="0" style="stop-color:#F7944C"/>
			<stop  offset="0.5189" style="stop-color:#F7944C"/>
			<stop  offset="1" style="stop-color:#F7944C"/>
		</linearGradient>
		<path class="st60" d="M42.1,24.9l2.7,0.3c-9.1,3.6-15.2,5.4-21.4,3.9c-1.9-0.4-5-1.3-7.7-2.2C23.9,28.1,33.5,26.2,42.1,24.9z"/>
		
			<linearGradient id="SVGID_57_" gradientUnits="userSpaceOnUse" x1="192.0984" y1="112.8641" x2="197.3803" y2="99.7446" gradientTransform="matrix(0.9952 -9.790000e-002 9.790000e-002 0.9952 -184.0384 -65.6229)">
			<stop  offset="0" style="stop-color:#F7944C"/>
			<stop  offset="9.223300e-002" style="stop-color:#F7944C"/>
			<stop  offset="0.1772" style="stop-color:#FAB380"/>
			<stop  offset="0.2184" style="stop-color:#FCC39B"/>
			<stop  offset="0.2308" style="stop-color:#FCC197"/>
			<stop  offset="0.4075" style="stop-color:#F9A062"/>
			<stop  offset="0.4903" style="stop-color:#F7944C"/>
			<stop  offset="0.8108" style="stop-color:#FEE4D2"/>
			<stop  offset="0.8365" style="stop-color:#FEDCC5"/>
			<stop  offset="0.8853" style="stop-color:#FCC9A4"/>
			<stop  offset="0.9516" style="stop-color:#FAAB73"/>
			<stop  offset="1" style="stop-color:#F7944C"/>
		</linearGradient>
		<path class="st61" d="M22.4,14.6C11.8,12.9,9.7,25.1,15.7,27c0,0,4.3,1.5,7.7,2.2C19,27,18.1,20.9,24.1,17c1.7-1.1,4-1,5.4-0.8
			C26.8,15.5,25.6,15.1,22.4,14.6z"/>
	</g>
	<g>
		
			<linearGradient id="SVGID_58_" gradientUnits="userSpaceOnUse" x1="215.4539" y1="108.2112" x2="216.254" y2="92.6105" gradientTransform="matrix(0.9952 -9.790000e-002 9.790000e-002 0.9952 -184.0384 -65.6229)">
			<stop  offset="0" style="stop-color:#F7944C"/>
			<stop  offset="0.5189" style="stop-color:#F7944C"/>
			<stop  offset="1" style="stop-color:#F7944C"/>
		</linearGradient>
		<path class="st62" d="M42,4.2l-9.4,0.5c5.7,2.5,8.6,6.8,9.4,13.1l6.4-0.3C48.3,13,48.2,4.2,42,4.2z"/>
		
			<linearGradient id="SVGID_59_" gradientUnits="userSpaceOnUse" x1="209.2906" y1="103.7892" x2="209.9231" y2="91.4557" gradientTransform="matrix(0.9952 -9.790000e-002 9.790000e-002 0.9952 -184.0384 -65.6233)">
			<stop  offset="0" style="stop-color:#F7944C"/>
			<stop  offset="9.223300e-002" style="stop-color:#F7944C"/>
			<stop  offset="0.1772" style="stop-color:#FAB380"/>
			<stop  offset="0.2184" style="stop-color:#FCC39B"/>
			<stop  offset="0.2308" style="stop-color:#FCC197"/>
			<stop  offset="0.4075" style="stop-color:#F9A062"/>
			<stop  offset="0.4903" style="stop-color:#F7944C"/>
			<stop  offset="0.8108" style="stop-color:#FEE4D2"/>
			<stop  offset="0.8365" style="stop-color:#FEDCC5"/>
			<stop  offset="0.8853" style="stop-color:#FCC9A4"/>
			<stop  offset="0.9516" style="stop-color:#FAAB73"/>
			<stop  offset="1" style="stop-color:#F7944C"/>
		</linearGradient>
		<path class="st63" d="M29.9,17.9c-4.5-0.6-6.2-12.1,0.9-13.2C37.4,4.3,42,4.2,42,4.2c-3.6,0.4-5.9,10.7,0.2,13.3
			C35.5,17.8,34.4,18.1,29.9,17.9z"/>
	</g>
	<g>
		
			<linearGradient id="SVGID_60_" gradientUnits="userSpaceOnUse" x1="227.4723" y1="118.2238" x2="226.0899" y2="97.372" gradientTransform="matrix(0.9952 -9.790000e-002 9.790000e-002 0.9952 -184.0384 -65.6229)">
			<stop  offset="0" style="stop-color:#F7944C"/>
			<stop  offset="0.5189" style="stop-color:#F7944C"/>
			<stop  offset="1" style="stop-color:#F7944C"/>
		</linearGradient>
		<path class="st64" d="M44.9,5.1l10.9-1.6c-2.5,1-4.3,8.1-4.2,14.9l-4.7,0.7C45.6,17,43.1,5.8,44.9,5.1z"/>
		
			<linearGradient id="SVGID_61_" gradientUnits="userSpaceOnUse" x1="2240.584" y1="106.3826" x2="2241.2563" y2="93.2716" gradientTransform="matrix(-0.9952 9.790000e-002 9.790000e-002 0.9952 2274.0745 -308.0655)">
			<stop  offset="0" style="stop-color:#F7944C"/>
			<stop  offset="9.223300e-002" style="stop-color:#F7944C"/>
			<stop  offset="0.1772" style="stop-color:#FAB380"/>
			<stop  offset="0.2184" style="stop-color:#FCC39B"/>
			<stop  offset="0.2308" style="stop-color:#FCC197"/>
			<stop  offset="0.4075" style="stop-color:#F9A062"/>
			<stop  offset="0.4903" style="stop-color:#F7944C"/>
			<stop  offset="0.8108" style="stop-color:#FEE4D2"/>
			<stop  offset="0.8365" style="stop-color:#FEDCC5"/>
			<stop  offset="0.8853" style="stop-color:#FCC9A4"/>
			<stop  offset="0.9516" style="stop-color:#FAAB73"/>
			<stop  offset="1" style="stop-color:#F7944C"/>
		</linearGradient>
		<path class="st65" d="M58.8,16.9c4.3-1.5,4.2-13.8-3-13.5c-6.6,0.8-10.9,1.6-10.9,1.6c1.1,1.3,3.9,10.6,2,14.1
			C53.5,18.1,54.3,17.9,58.8,16.9z"/>
	</g>
	<defs>
		<filter id="Adobe_OpacityMaskFilter_6_" filterUnits="userSpaceOnUse" x="33.9" y="27.6" width="16.5" height="6.2">
			<feFlood  style="flood-color:white;flood-opacity:1" result="back"/>
			<feBlend  in="SourceGraphic" in2="back" mode="normal"/>
		</filter>
	</defs>
	<mask maskUnits="userSpaceOnUse" x="33.9" y="27.6" width="16.5" height="6.2" id="SVGID_62_">
		<g class="st66">
			<defs>
				<filter id="Adobe_OpacityMaskFilter_7_" filterUnits="userSpaceOnUse" x="33.7" y="27.5" width="16.7" height="6.6">
					<feFlood  style="flood-color:white;flood-opacity:1" result="back"/>
					<feBlend  in="SourceGraphic" in2="back" mode="normal"/>
				</filter>
			</defs>
			<mask maskUnits="userSpaceOnUse" x="33.7" y="27.5" width="16.7" height="6.6" id="SVGID_62_">
				<g class="st67">
				</g>
			</mask>
			
				<linearGradient id="SVGID_63_" gradientUnits="userSpaceOnUse" x1="111.3672" y1="84.1946" x2="111.2035" y2="87.5781" gradientTransform="matrix(0.9945 -0.1044 0.1044 0.9945 -77.594 -42.159)">
				<stop  offset="0" style="stop-color:#FFFFFF"/>
				<stop  offset="0.189" style="stop-color:#BFBFBF"/>
				<stop  offset="0.6025" style="stop-color:#373737"/>
				<stop  offset="0.7838" style="stop-color:#000000"/>
			</linearGradient>
			<path class="st68" d="M34.5,34.1c-1,0.1-1.8-1.8,2.2-5.2l13.3-1.4c0.5,2.5,0.7,5.3,0.3,5.7C43.6,33.5,39.9,33,34.5,34.1z"/>
		</g>
	</mask>
	
		<linearGradient id="SVGID_64_" gradientUnits="userSpaceOnUse" x1="215.6053" y1="117.2452" x2="215.4487" y2="120.4799" gradientTransform="matrix(0.9952 -9.790000e-002 9.790000e-002 0.9952 -184.0384 -65.6229)">
		<stop  offset="0" style="stop-color:#4D1A17"/>
		<stop  offset="1" style="stop-color:#4D1A17"/>
	</linearGradient>
	<path class="st69" d="M34.6,33.9c-1,0.1-1.7-1.7,2.2-5L50,27.6c0.5,2.5,0.6,5,0.2,5.4C43.5,33.3,40,32.8,34.6,33.9z"/>
	
		<linearGradient id="SVGID_65_" gradientUnits="userSpaceOnUse" x1="236.8116" y1="187.2864" x2="236.8116" y2="121.8715" gradientTransform="matrix(0.9952 -9.790000e-002 9.790000e-002 0.9952 -184.0384 -65.6229)">
		<stop  offset="0" style="stop-color:#F7944C"/>
		<stop  offset="0.2703" style="stop-color:#FCC39B"/>
		<stop  offset="0.6919" style="stop-color:#F7944C"/>
		<stop  offset="1" style="stop-color:#FEE3D1"/>
	</linearGradient>
	<polygon class="st70" points="67.7,31 59,32.8 59.6,33.4 65.5,98.5 65.3,99.2 74,96.9 74.2,96.3 68.3,31.5 	"/>
	
		<linearGradient id="SVGID_66_" gradientUnits="userSpaceOnUse" x1="187.9526" y1="179.221" x2="187.9526" y2="115.8542" gradientTransform="matrix(0.9952 -9.790000e-002 9.790000e-002 0.9952 -184.0384 -65.6229)">
		<stop  offset="0" style="stop-color:#F7944C"/>
		<stop  offset="0.2703" style="stop-color:#FCC39B"/>
		<stop  offset="0.6919" style="stop-color:#F7944C"/>
		<stop  offset="1" style="stop-color:#FEE3D1"/>
	</linearGradient>
	<polygon class="st71" points="17.7,32.2 12.5,29.8 11.9,30.3 11.9,30.4 11.9,30.3 17.1,91.9 17.4,92.7 22.7,96.4 22.4,95.6 
		17.1,32.7 	"/>
	<polygon class="st72" points="59.6,33.4 68.3,31.5 67.7,31 59,32.8 	"/>
	<polygon class="st72" points="11.9,30.3 17.1,32.7 17.7,32.2 12.5,29.8 	"/>
	<polygon class="st73" points="37.7,105.7 37.8,106.3 95.4,91.3 95.8,90.7 	"/>
	<g class="st74">
		<polygon class="st30" points="37,105.6 37.1,106.2 37.8,106.3 37.7,105.7 		"/>
		<polygon class="st73" points="5.6,84.1 6,85 37.1,106.2 37,105.6 		"/>
	</g>
	<g>
		<defs>
			<filter id="Adobe_OpacityMaskFilter_8_" filterUnits="userSpaceOnUse" x="46.6" y="25.4" width="23.9" height="7">
				<feFlood  style="flood-color:white;flood-opacity:1" result="back"/>
				<feBlend  in="SourceGraphic" in2="back" mode="normal"/>
			</filter>
		</defs>
		<mask maskUnits="userSpaceOnUse" x="46.6" y="25.4" width="23.9" height="7" id="SVGID_67_">
			<g class="st75">
				<defs>
					<filter id="Adobe_OpacityMaskFilter_9_" filterUnits="userSpaceOnUse" x="46.6" y="25.4" width="24.3" height="7.1">
						<feFlood  style="flood-color:white;flood-opacity:1" result="back"/>
						<feBlend  in="SourceGraphic" in2="back" mode="normal"/>
					</filter>
				</defs>
				<mask maskUnits="userSpaceOnUse" x="46.6" y="25.4" width="24.3" height="7.1" id="SVGID_67_">
					<g class="st76">
					</g>
				</mask>
				
					<linearGradient id="SVGID_68_" gradientUnits="userSpaceOnUse" x1="232.8251" y1="120.4137" x2="232.9961" y2="121.7249" gradientTransform="matrix(0.9952 -9.790000e-002 9.790000e-002 0.9952 -184.0384 -65.6233)">
					<stop  offset="0" style="stop-color:#FFFFFF"/>
					<stop  offset="0.6112" style="stop-color:#646464"/>
					<stop  offset="1" style="stop-color:#000000"/>
				</linearGradient>
				<path class="st77" d="M46.6,26.3l3.6-0.9c7.1,4.7,14.4,5.4,20.7,4.8l-10.2,2.2C57.5,33,54.4,31.5,46.6,26.3z"/>
			</g>
		</mask>
		
			<linearGradient id="SVGID_69_" gradientUnits="userSpaceOnUse" x1="232.6309" y1="120.4096" x2="232.8013" y2="121.7161" gradientTransform="matrix(0.9952 -9.790000e-002 9.790000e-002 0.9952 -184.0384 -65.6229)">
			<stop  offset="0" style="stop-color:#F7944C"/>
			<stop  offset="1" style="stop-color:#F7944C"/>
		</linearGradient>
		<path class="st78" d="M46.6,26.3l3.6-0.9c7.1,4.7,14,5.5,20.3,4.8l-9.5,2C57.8,32.9,54.4,31.5,46.6,26.3z"/>
		
			<linearGradient id="SVGID_70_" gradientUnits="userSpaceOnUse" x1="230.6123" y1="119.7772" x2="228.7541" y2="111.7533" gradientTransform="matrix(0.9952 -9.790000e-002 9.790000e-002 0.9952 -184.0384 -65.6229)">
			<stop  offset="0" style="stop-color:#F7944C"/>
			<stop  offset="0.5189" style="stop-color:#F7944C"/>
			<stop  offset="1" style="stop-color:#F7944C"/>
		</linearGradient>
		<path class="st79" d="M44.8,25.3l3.6-0.9c7.1,4.7,12.5,5.9,18.8,5.3l-8,1.6C56.1,31.9,52.7,30.5,44.8,25.3z"/>
		
			<linearGradient id="SVGID_71_" gradientUnits="userSpaceOnUse" x1="226.7942" y1="106.9788" x2="226.3059" y2="113.4896" gradientTransform="matrix(0.9952 -9.790000e-002 9.790000e-002 0.9952 -184.0384 -65.6229)">
			<stop  offset="0" style="stop-color:#F7944C"/>
			<stop  offset="0.5189" style="stop-color:#F7944C"/>
			<stop  offset="1" style="stop-color:#F7944C"/>
		</linearGradient>
		<path class="st80" d="M53,16.8c-3.1,1-7.1,5.5-8.2,8.5l3.6-0.9c2.9-2.7,2.7-5.9,11.2-8.9C55.8,16.5,55.2,16.2,53,16.8z"/>
		
			<linearGradient id="SVGID_72_" gradientUnits="userSpaceOnUse" x1="238.893" y1="119.7194" x2="235.9675" y2="104.0596" gradientTransform="matrix(0.9952 -9.790000e-002 9.790000e-002 0.9952 -184.0384 -65.6229)">
			<stop  offset="0" style="stop-color:#F7944C"/>
			<stop  offset="9.223300e-002" style="stop-color:#F7944C"/>
			<stop  offset="0.1772" style="stop-color:#FAB380"/>
			<stop  offset="0.2184" style="stop-color:#FCC39B"/>
			<stop  offset="0.2308" style="stop-color:#FCC197"/>
			<stop  offset="0.4075" style="stop-color:#F9A062"/>
			<stop  offset="0.4903" style="stop-color:#F7944C"/>
			<stop  offset="0.8108" style="stop-color:#FEE4D2"/>
			<stop  offset="0.8365" style="stop-color:#FEDCC5"/>
			<stop  offset="0.8853" style="stop-color:#FCC9A4"/>
			<stop  offset="0.9516" style="stop-color:#FAAB73"/>
			<stop  offset="1" style="stop-color:#F7944C"/>
		</linearGradient>
		<path class="st81" d="M59.2,31.3c7.2-3.1,4.2-17-6.3-14.5c0,0,2.7-0.7,6.6-1.3c14.6-2.6,14.5,13.5,7.6,14.1L59.2,31.3z"/>
	</g>
	
		<linearGradient id="SVGID_73_" gradientUnits="userSpaceOnUse" x1="214.8404" y1="117.9804" x2="215.5217" y2="104.6961" gradientTransform="matrix(0.9952 -9.790000e-002 9.790000e-002 0.9952 -184.0384 -65.6229)">
		<stop  offset="0" style="stop-color:#F7944C"/>
		<stop  offset="9.223300e-002" style="stop-color:#F7944C"/>
		<stop  offset="0.1772" style="stop-color:#FAB380"/>
		<stop  offset="0.2184" style="stop-color:#FCC39B"/>
		<stop  offset="0.2308" style="stop-color:#FCC197"/>
		<stop  offset="0.4075" style="stop-color:#F9A062"/>
		<stop  offset="0.4903" style="stop-color:#F7944C"/>
		<stop  offset="0.8108" style="stop-color:#FEE4D2"/>
		<stop  offset="0.8365" style="stop-color:#FEDCC5"/>
		<stop  offset="0.8853" style="stop-color:#FCC9A4"/>
		<stop  offset="0.9516" style="stop-color:#FAAB73"/>
		<stop  offset="1" style="stop-color:#F7944C"/>
	</linearGradient>
	<path class="st82" d="M34,31.9c-1.9-3.4-3.5-11.1,0.5-14.4C41.1,17,48.3,17,48.3,17c1.8,2.6,2.1,11.1,1.5,13.9
		C43.2,31.2,39.3,30.9,34,31.9z"/>
</g>
</svg>
